<?xml version="1.0" standalone="no"?>
<!DOCTYPE svg PUBLIC "-//W3C//DTD SVG 1.1//EN" "http://www.w3.org/Graphics/SVG/1.1/DTD/svg11.dtd" >
<svg xmlns="http://www.w3.org/2000/svg">
<metadata>Generated by IcoMoon</metadata>
<defs>
<font id="shamlul" horiz-adv-x="1024">
<font-face units-per-em="1024" ascent="960" descent="-64" />
<missing-glyph horiz-adv-x="1024" />
<glyph unicode="&#x20;" horiz-adv-x="512" d="" />
<glyph unicode="&#xe900;" glyph-name="stellar-xlm" d="M966.827 762.027c-8.533 15.36-28.156 21.333-43.516 12.8l-722.774-397.653c-5.12 23.040-8.534 46.933-8.534 70.827 0 176.64 143.36 320 320.001 320 60.16 0 118.613-16.64 168.96-48.213 14.933-9.387 34.56-4.693 43.947 10.24s4.693 34.56-10.24 43.947c-60.587 37.973-130.56 58.027-202.667 58.027-211.628 0-384.001-172.373-384.001-384 0-34.56 4.693-68.693 13.653-101.973 0-0.427 0.427-0.427 0.427-0.853l-72.107-39.68c-15.36-8.533-21.333-28.16-12.8-43.52 5.973-10.667 16.639-16.64 28.159-16.64 5.12 0 10.666 1.28 15.359 3.84l853.335 469.333c15.36 8.533 21.329 28.16 12.796 43.52zM966.827 612.71c-8.533 15.36-28.156 21.333-43.516 12.8l-90.027-49.493c-1.28-0.853-2.987-1.28-4.267-2.56l-759.041-417.28c-15.36-8.533-21.333-28.16-12.8-43.52 5.973-10.667 16.639-16.64 28.159-16.64 5.12 0 10.666 1.28 15.359 3.84l726.615 399.787c2.56-17.067 4.693-34.133 4.693-51.627 0-176.64-143.36-320-320-320-60.587 0-119.041 17.067-169.814 48.64-14.933 9.387-34.561 4.693-43.948-10.24s-5.12-34.56 10.24-43.947c61.013-38.4 131.415-58.453 203.949-58.453 211.627 0 384 172.373 384 384 0 28.587-4.267 56.32-10.24 83.627l68.267 37.546c14.933 8.533 20.902 28.16 12.369 43.52z" />
<glyph unicode="&#xe901;" glyph-name="the-graph-grt" d="M512 874.667c-235.52 0-426.667-191.147-426.667-426.667s191.147-426.667 426.667-426.667c235.52 0 426.667 191.147 426.667 426.667s-191.147 426.667-426.667 426.667zM338.773 509.44c0 79.36 64.427 144.213 144.213 144.213s144.213-64.427 144.213-144.213c0-79.787-64.427-144.213-144.213-144.213s-144.213 64.427-144.213 144.213zM665.173 305.493l-128-128c-6.4-6.4-14.507-9.387-22.613-9.387s-16.213 2.987-22.613 9.387c-12.373 12.373-12.373 32.853 0 45.227l128 128c12.373 12.373 32.853 12.373 45.227 0s12.8-32.853 0-45.227zM704.427 605.44c-23.467 0-42.667 19.2-42.667 42.667s18.773 42.667 42.667 42.667h0.427c23.467 0 42.667-19.2 42.667-42.667s-19.627-42.667-43.093-42.667z" />
<glyph unicode="&#xe902;" glyph-name="theta-theta" d="M597.333 544h-53.333v53.333c0 17.493-14.507 32-32 32s-32-14.507-32-32v-53.333h-53.333c-17.493 0-32-14.507-32-32s14.507-32 32-32h170.667c17.493 0 32 14.507 32 32s-14.507 32-32 32zM597.333 416h-170.667c-17.493 0-32-14.507-32-32s14.507-32 32-32h53.333v-53.333c0-17.493 14.507-32 32-32s32 14.507 32 32v53.333h53.333c17.493 0 32 14.507 32 32s-14.507 32-32 32zM690.773 874.667h-357.12c-155.307 0-247.893-92.587-247.893-247.893v-357.12c0-155.307 92.587-247.893 247.893-247.893h357.12c155.307 0 247.893 92.587 247.893 247.893v357.12c0 155.307-92.587 247.893-247.893 247.893zM725.333 270.933c0-43.52-35.413-78.933-78.933-78.933h-268.801c-43.52 0-78.932 35.413-78.932 78.933v354.133c0 43.52 35.412 78.933 78.932 78.933h268.801c43.52 0 78.933-35.413 78.933-78.933v-354.133z" />
<glyph unicode="&#xe903;" glyph-name="usd-coin-usdc" d="M544 340.467h9.813c14.080 0 26.027 12.8 26.027 28.587 0 20.053-4.693 22.613-18.347 27.307l-17.493 5.973v-61.867zM512 874.667c-235.52 0-426.667-191.147-426.667-426.667s191.147-426.667 426.667-426.667c235.52 0 426.667 191.147 426.667 426.667s-191.147 426.667-426.667 426.667zM323.413 259.413c12.373-12.373 12.373-32.853 0-45.227-6.4-6.4-14.507-9.387-22.613-9.387s-16.213 2.987-22.613 9.387c-62.293 62.293-96.853 145.493-96.853 233.813s34.56 171.52 96.853 233.813c12.373 12.373 32.853 12.373 45.227 0s12.373-32.853 0-45.227c-50.347-50.347-78.080-117.333-78.080-188.587s27.733-138.24 78.080-188.587zM582.4 457.387c40.96-14.507 61.013-43.093 61.013-87.893 0-51.2-40.107-92.587-90.027-92.587h-9.813v-7.68c0-17.493-14.507-32-32-32s-32 14.507-32 32v7.68h-1.28c-54.187 0-98.56 45.653-98.56 101.547 0 17.493 14.507 32 32 32s32-14.507 32-32c0-20.907 15.36-37.547 34.56-37.547h1.28v84.48l-38.4 13.653c-40.96 14.507-61.013 43.093-61.013 87.893 0 51.2 40.106 92.587 90.027 92.587h9.813v7.68c0 17.493 14.507 32 32 32s32-14.507 32-32v-7.68h1.28c54.187 0 98.56-45.653 98.56-101.547 0-17.493-14.507-32-32-32s-32 14.507-32 32c0 20.907-15.36 37.547-34.56 37.547h-1.28v-84.48l38.4-13.653zM745.813 214.187c-6.4-6.4-14.507-9.387-22.613-9.387s-16.213 2.987-22.613 9.387c-12.373 12.373-12.373 32.853 0 45.227 50.347 50.347 78.080 117.333 78.080 188.587s-27.733 138.24-78.080 188.587c-12.373 12.373-12.373 32.853 0 45.227s32.853 12.373 45.227 0c62.293-62.293 96.853-145.493 96.853-233.813s-34.56-171.52-96.853-233.813zM444.587 526.485c0-20.053 4.693-22.613 18.347-27.307l17.493-5.973v62.295h-9.813c-14.507 0-26.027-13.227-26.027-29.015z" />
<glyph unicode="&#xe904;" glyph-name="velas-vlx" d="M896 825.583h-768c-17.493 0-32-14.507-32-32s14.507-32 32-32h768c17.493 0 32 14.507 32 32s-14.507 32-32 32zM172.374 693.75h679.679c37.547 0 60.16-41.387 39.68-72.96l-339.627-528.639c-18.773-29.013-61.013-29.013-79.787 0l-339.627 528.639c-20.48 31.573 2.134 72.96 39.681 72.96z" />
<glyph unicode="&#xe905;" glyph-name="chainlink-link" d="M128 611.010v-326.402c0-27.733 19.627-61.013 43.947-74.667l298.667-165.973c22.613-12.8 60.16-12.8 82.773 0l298.667 165.973c24.32 13.227 43.947 46.933 43.947 74.667v326.402c0 27.733-19.627 61.013-43.947 74.667l-298.667 165.973c-22.613 12.8-60.16 12.8-82.773 0l-298.667-165.973c-24.32-13.227-43.947-46.933-43.947-74.667z" />
<glyph unicode="&#xe906;" glyph-name="eos-eos" d="M395.947 93.466c7.253-20.48-14.934-39.253-33.707-28.16l-134.4 76.373c-24.32 14.080-39.253 47.787-34.133 75.093l40.107 199.253c4.693 23.467 37.12 25.6 45.227 3.413l116.906-325.973zM796.16 141.619l-134.827-76.8c-18.773-10.667-40.96 7.68-33.707 28.16l117.333 328.96c8.107 22.187 40.533 20.053 45.227-3.413l40.533-201.813c4.693-27.307-10.24-61.013-34.56-75.093zM728.747 647.667c10.24-12.8 13.227-29.867 7.68-45.227l-202.24-565.333c-7.253-20.907-36.693-20.907-43.947 0l-202.24 564.906c-5.547 15.36-2.56 32.427 7.68 45.227l162.987 200.533c29.44 35.413 78.080 35.413 107.947 0l162.133-200.107z" />
<glyph unicode="&#xe907;" glyph-name="ethereum-classic-etc" d="M294.4 571.77l203.52 90.453c8.96 3.84 19.2 3.84 27.733 0l203.52-90.453c17.92-8.107 34.56 13.653 22.187 29.013l-213.333 260.693c-14.507 17.92-38.4 17.92-52.907 0l-213.335-260.693c-11.947-15.36 4.695-37.12 22.615-29.013zM294.4 324.245l203.946-90.453c8.96-3.84 19.2-3.84 27.733 0l203.947 90.453c17.92 8.107 34.56-13.653 22.187-29.013l-213.333-260.693c-14.507-17.92-38.4-17.92-52.907 0l-213.333 260.693c-12.8 15.36 3.414 37.12 21.76 29.013zM502.613 555.093l-176.213-87.893c-15.787-7.68-15.787-30.293 0-37.973l176.213-87.893c5.973-2.987 13.227-2.987 19.2 0l176.213 87.893c15.787 7.68 15.787 30.293 0 37.973l-176.213 87.893c-6.4 2.987-13.227 2.987-19.2 0z" />
<glyph unicode="&#xe908;" glyph-name="ftx-token-ftt" d="M896 874.667h-512c-23.467 0-42.667-19.2-42.667-42.667v-128c0-23.467 19.2-42.667 42.667-42.667h512c23.467 0 42.667 19.2 42.667 42.667v128c0 23.467-19.2 42.667-42.667 42.667zM469.333 234.667h-128c-23.467 0-42.667-19.2-42.667-42.667v-128c0-23.467 19.2-42.667 42.667-42.667h128c23.467 0 42.667 19.2 42.667 42.667v128c0 23.467-19.2 42.667-42.667 42.667zM256 554.667h-128c-23.467 0-42.667-19.2-42.667-42.667v-128c0-23.467 19.2-42.667 42.667-42.667h128c23.467 0 42.667 19.2 42.667 42.667v128c0 23.467-19.2 42.667-42.667 42.667zM725.333 548.667h-277.333c-23.467 0-42.667-19.199-42.667-42.666v-116.053c0-23.467 19.2-42.667 42.667-42.667h277.333c23.467 0 42.667 19.2 42.667 42.667v116.053c0 23.467-19.2 42.666-42.667 42.666z" />
<glyph unicode="&#xe909;" glyph-name="huobi-token-ht" d="M689.493 533.333c0 0-6.4-42.667-138.667-213.333-124.162-160.853 55.467-283.307 76.8-297.387 1.28-0.853 2.56-0.853 4.267 0 29.013 17.92 352 225.707 57.6 510.72zM587.093 627.624c0 98.133-38.4 187.733-76.8 238.933-12.8 12.8-34.133 8.533-38.4-8.533-17.067-64-68.266-200.533-192-362.668-157.867-204.8-12.8-426.667 136.534-469.333 81.066-21.333-21.333 42.667-34.133 174.933-12.8 166.4 204.799 290.133 204.799 426.668z" />
<glyph unicode="&#xe90a;" glyph-name="monero-xmr" d="M135.681 318.677c-14.933 0-25.6-14.933-20.053-28.587 62.72-157.867 216.747-268.8 396.372-268.8 180.053 0 334.080 111.787 396.8 270.080 5.547 13.653-5.547 28.587-20.053 28.587h-142.080c-11.947 0-21.333 9.387-21.333 21.333v116.907c0 39.253-49.067 57.6-74.667 27.733l-122.453-146.347c-8.533-10.24-24.32-10.24-32.853 0l-122.452 146.347c-25.173 29.867-74.24 11.52-74.24-27.733v-116.907c0-11.947-9.387-21.333-21.333-21.333l-141.653-1.28zM938.667 442.039c0-13.227-0.853-26.453-2.56-39.253-1.28-10.667-10.667-18.773-21.76-18.773h-103.68c-11.947 0-21.333 9.387-21.333 21.333v46.933c0 43.093-23.040 84.905-62.293 102.825-43.947 20.053-93.867 8.96-125.44-28.159l-73.387-87.467c-8.533-10.24-24.32-10.24-32.853 0l-73.813 88.32c-30.72 36.266-80.213 47.359-124.587 27.305-39.253-17.92-62.293-59.732-62.293-102.825v-41.813c0-17.92-9.387-27.307-21.333-27.307l-104.107-0.427c-10.667 0-20.48 8.107-21.76 18.773-1.28 15.36-2.133 30.72-2.133 46.507 0 258.132 229.973 463.359 496.213 421.119 206.080-32.427 360.107-218.027 357.12-427.092z" />
<glyph unicode="&#xe90b;" glyph-name="okb-okb" d="M725.333 661.333c0-117.76-95.573-213.333-213.333-213.333 117.76 0 213.333-95.573 213.333-213.333 117.76 0 213.333 95.573 213.333 213.333s-95.573 213.333-213.333 213.333zM512 448c0-117.76-95.573-213.333-213.333-213.333 0-117.76 95.573-213.333 213.333-213.333s213.333 95.573 213.333 213.333c-117.76 0-213.333 95.573-213.333 213.333zM512 448c0 117.76 95.573 213.333 213.333 213.333 0 117.76-95.573 213.333-213.333 213.333s-213.333-95.573-213.333-213.333c117.76 0 213.333-95.573 213.333-213.333zM512 448c-117.76 0-213.333 95.573-213.333 213.333-117.76 0-213.333-95.573-213.333-213.333s95.573-213.333 213.333-213.333c0 117.76 95.573 213.333 213.333 213.333z" />
<glyph unicode="&#xe90c;" glyph-name="polkadot-dot" d="M341.334 32c-0.853 0-1.707 0-2.134 0-16.64 1.28-29.866 14.933-29.866 32 0 24.32 2.987 46.933 9.387 67.84l76.373 534.187c2.56 17.493 18.773 29.44 36.266 27.307 17.493-2.56 29.867-18.773 27.307-36.267l-60.586-422.827c52.906 32 110.506 32.427 113.92 32.427 158.72 0 288 129.28 288 288s-129.28 288-288 288c-158.72 0-288-129.28-288-288 0-46.933 11.52-93.44 33.28-134.4 8.107-15.787 2.133-34.987-13.227-43.093-15.787-8.107-34.987-2.133-43.093 13.227-26.453 50.347-40.533 107.093-40.533 164.267 0 194.133 157.867 352 352 352s352-157.867 352-352c0-194.133-157.867-352-352-352-3.84 0-94.293-1.707-126.72-74.667-1.28-3.413-2.987-6.827-3.84-10.24l-8.106-58.027c-2.987-16.213-16.64-27.733-32.427-27.733zM597.333 21.299c-11.093 0-22.187 4.693-30.293 12.373-7.68 8.107-12.373 19.2-12.373 30.293 0 5.547 1.28 11.093 3.413 16.213 2.133 5.547 5.12 9.813 8.96 14.080 11.947 11.947 30.72 15.787 46.507 8.96 5.547-2.133 9.813-5.12 14.080-8.96 3.84-4.267 6.827-8.533 8.96-14.080 2.133-5.12 3.413-10.667 3.413-16.213 0-11.093-4.693-22.187-12.373-30.293-4.267-3.84-8.533-6.827-14.080-8.96-5.12-2.133-10.667-3.413-16.213-3.413z" />
<glyph unicode="&#xe90d;" glyph-name="solana-sol" d="M853.333 810.667h-618.668c-13.227 0-26.026-6.4-34.133-17.067l-64-85.333c-20.907-28.16-0.854-68.267 34.133-68.267h618.668c13.227 0 26.027 6.4 34.133 17.067l64 85.333c20.907 28.16 0.853 68.267-34.133 68.267zM170.666 533.333h618.668c13.227 0 26.027-6.4 34.133-17.067l64-85.333c20.907-28.16 0.853-68.267-34.133-68.267h-618.668c-13.227 0-26.026 6.4-34.133 17.067l-64 85.333c-20.907 28.16-0.854 68.267 34.133 68.267zM853.333 256h-618.668c-13.227 0-26.026-6.4-34.133-17.067l-64-85.333c-20.907-28.16-0.854-68.267 34.133-68.267h618.668c13.227 0 26.027 6.4 34.133 17.067l64 85.333c20.907 28.16 0.853 68.267-34.133 68.267z" />
<glyph unicode="&#xe90e;" glyph-name="thorchain-rune" d="M698.88 210.381l-439.467-185.173c-45.653-19.2-85.334 37.547-51.628 73.813l333.228 361.813 172.8-175.787c23.040-23.040 15.36-62.293-14.933-74.667zM817.92 799.182l-276.907-338.348-172.799 174.934c-23.040 23.467-15.361 62.72 14.932 75.093l381.44 160c44.373 18.773 84.053-34.56 53.333-71.68z" />
<glyph unicode="&#xe90f;" glyph-name="trontron-trx" d="M827.733 510.771c22.187 4.267 37.547-20.907 23.893-38.827l-296.533-377.6c-14.933-19.2-45.653-6.827-43.093 17.067l29.867 324.267c0.853 10.667 8.96 19.627 19.627 21.76l266.24 53.333zM923.307 631.927c9.387-10.24 4.267-26.88-8.96-29.867l-360.107-72.106c-23.467-4.693-38.827 23.892-21.76 40.959l214.187 214.187c9.813 9.813 25.6 9.387 34.987-0.427l141.653-152.747zM626.773 823.932c20.053-2.56 28.16-26.88 14.080-41.387l-151.893-151.893c-8.96-8.96-23.467-9.387-33.28-0.853l-227.84 202.667c-17.92 15.787-4.269 45.227 19.198 42.24l379.735-50.773zM457.387 530.389c11.52-10.24 17.067-25.173 16.213-40.107l-36.693-446.293c-2.133-25.6-37.545-30.72-46.932-6.827l-292.268 753.922c-9.387 23.893 19.628 43.947 38.828 26.88l320.852-287.575z" />
<glyph unicode="&#xe910;" glyph-name="xrp-xrp" d="M232.96 874.667h-60.162c-39.68 0-59.733-48.213-31.573-76.373l244.479-244.48c69.975-69.973 183.038-69.973 253.011 0l244.484 244.48c28.16 28.16 8.107 76.373-31.573 76.373h-60.16c-35.413 0-69.547-14.080-94.72-39.253l-152.747-152.747c-17.493-17.493-45.653-17.493-63.147 0l-152.748 152.747c-25.6 25.173-59.732 39.253-95.146 39.253zM232.96 22.583h-60.162c-39.68 0-59.733 48.213-31.573 76.373l244.479 244.48c69.975 69.973 183.038 69.973 253.011 0l244.484-244.48c28.16-28.16 8.107-76.373-31.573-76.373h-60.16c-35.413 0-69.547 14.080-94.72 39.253l-152.747 152.747c-17.493 17.493-45.653 17.493-63.147 0l-152.748-152.747c-25.6-25.173-59.732-39.253-95.146-39.253z" />
<glyph unicode="&#xe911;" glyph-name="binance-coin-bnb" d="M497.067 859.753l-225.706-225.707c-8.533-8.533-8.533-21.76 0-30.293l55.040-55.040c8.533-8.533 21.76-8.533 30.294 0l140.373 140.373c8.533 8.533 21.76 8.533 30.293 0l140.373-140.373c8.533-8.533 21.76-8.533 30.293 0l55.040 55.040c8.533 8.533 8.533 21.76 0 30.293l-225.707 225.707c-8.533 8.107-22.187 8.107-30.293 0zM497.067 36.228l-225.706 225.707c-8.533 8.533-8.533 21.76 0 30.293l55.040 55.040c8.533 8.533 21.76 8.533 30.294 0l140.373-140.373c8.533-8.533 21.76-8.533 30.293 0l140.373 140.373c8.533 8.533 21.76 8.533 30.293 0l55.040-55.040c8.533-8.533 8.533-21.76 0-30.293l-225.707-225.707c-8.533-8.107-22.187-8.107-30.293 0zM857.6 529.088l65.707-65.707c8.533-8.533 8.533-21.76 0-30.293l-65.707-65.707c-8.533-8.533-21.76-8.533-30.293 0l-65.707 65.707c-8.533 8.533-8.533 21.76 0 30.293l65.707 65.707c8.533 8.105 22.187 8.105 30.293 0zM196.267 529.088l65.707-65.707c8.533-8.533 8.533-21.76 0-30.293l-65.707-65.707c-8.533-8.533-21.76-8.533-30.293 0l-65.707 65.707c-8.533 8.533-8.533 21.76 0 30.293l65.707 65.707c8.533 8.105 22.187 8.105 30.293 0zM526.933 538.433l75.52-75.521c8.533-8.533 8.533-21.76 0-30.293l-75.52-75.52c-8.533-8.533-21.76-8.533-30.293 0l-75.52 75.52c-8.533 8.533-8.533 21.76 0 30.293l75.52 75.521c8.533 8.533 22.187 8.533 30.293 0z" />
<glyph unicode="&#xe912;" glyph-name="binance-usd-busd" d="M486.4 859.753l-219.733-219.733c-8.533-8.533-8.533-21.76 0-30.293l73.814-73.813c8.533-8.532 21.76-8.532 30.293 0l219.733 219.733c8.533 8.533 8.533 21.76 0 30.293l-73.813 73.813c-8.533 8.107-21.76 8.107-30.293 0zM652.8 692.933l-386.133-386.134c-8.533-8.533-8.533-21.76 0-30.293l73.814-73.813c8.533-8.533 21.76-8.533 30.293 0l386.133 386.135c8.533 8.533 8.533 21.76 0 30.293l-73.813 73.813c-8.107 8.533-21.76 8.533-30.293 0zM819.627 526.515l-386.133-386.133c-8.533-8.533-8.533-21.76 0-30.293l73.813-73.813c8.533-8.533 21.76-8.533 30.293 0l386.133 386.133c8.533 8.533 8.533 21.76 0 30.293l-73.813 73.813c-8.533 8.535-22.187 8.535-30.293 0zM174.507 369.515l-73.814 73.813c-8.533 8.533-8.533 21.76 0 30.293l73.814 73.812c8.533 8.533 21.76 8.533 30.293 0l73.814-73.812c8.533-8.533 8.533-21.76 0-30.293l-73.814-73.813c-8.533-8.533-22.186-8.533-30.293 0z" />
<glyph unicode="&#xe913;" glyph-name="bitcoin-btc" d="M638.72 416h-232.107v-120.747h232.107c40.533 0 73.813 27.307 73.813 60.587s-33.28 60.16-73.813 60.16zM512 874.667c-235.52 0-426.667-191.147-426.667-426.667s191.147-426.667 426.667-426.667c235.52 0 426.667 191.147 426.667 426.667s-191.147 426.667-426.667 426.667zM638.72 231.253h-70.4v-60.587c0-17.493-14.507-32-32-32s-32 14.507-32 32v60.587h-51.627v-60.587c0-17.493-14.507-32-32-32s-32 14.507-32 32v60.587h-87.893c-17.493 0-32 14.507-32 32s14.507 32 32 32h41.813v305.493h-41.813c-17.493 0-32 14.507-32 32s14.507 32 32 32h87.893v60.587c0 17.493 14.507 32 32 32s32-14.507 32-32v-60.587h51.627v60.587c0 17.493 14.507 32 32 32s32-14.507 32-32v-60.587h37.547c66.133 0 124.587-58.027 124.587-124.587 0-28.587-10.24-54.613-26.453-75.947 43.093-20.907 72.533-61.867 72.533-109.227 0-67.84-61.867-123.733-137.813-123.733zM666.453 540.58c0 28.16-26.453 60.587-60.587 60.587h-199.253v-120.748h199.253c33.28-0.427 60.587 26.88 60.587 60.162z" />
<glyph unicode="&#xe914;" glyph-name="camera-slash" horiz-adv-x="1067" d="M950.187 864.817c-12.8 12.8-33.707 12.8-46.507 0l-787.2-787.628c-12.8-12.8-12.8-33.707 0-46.507 6.4-5.973 14.507-9.387 23.040-9.387s16.64 3.413 23.040 9.813l787.627 787.628c13.227 12.8 13.227 33.28 0 46.080zM727.467 741.973l-30.72 61.867c-19.627 38.827-70.827 70.827-114.347 70.827h-97.707c-43.947 0-95.148-32-114.774-70.827l-30.72-61.867c-11.947-23.040-35.84-37.973-61.867-37.973-92.587 0-165.973-78.080-160-170.24l22.187-352.427c2.133-36.267 11.093-69.973 30.293-96.853l619.521 619.52c-26.027 0-49.92 14.933-61.867 37.973zM426.666 501.333h-128c-17.493 0-32 14.507-32 32s14.507 32 32 32h128c17.494 0 32.001-14.507 32.001-32s-14.507-32-32.001-32zM949.333 533.747l-22.187-352.427c-5.547-87.893-52.48-160-170.24-160h-419.412c-37.973 0-57.173 46.080-30.293 72.96l105.387 105.387c13.227 13.227 33.706 14.933 50.346 5.547 29.44-16.64 64.853-23.040 102.4-14.933 54.187 11.52 98.133 55.893 108.8 110.507 7.253 36.693 0.853 71.253-15.36 99.84-9.387 16.64-8.107 37.547 5.547 50.773l192 192c17.493 17.493 46.933 15.36 61.867-4.693 22.187-29.013 33.707-65.707 31.147-104.96z" />
<glyph unicode="&#xe915;" glyph-name="cardano-ada" d="M731.733 533.333c23.565 0 42.667 19.103 42.667 42.667s-19.102 42.667-42.667 42.667c-23.565 0-42.667-19.103-42.667-42.667s19.102-42.667 42.667-42.667zM731.733 277.333c23.565 0 42.667 19.102 42.667 42.667s-19.102 42.667-42.667 42.667c-23.565 0-42.667-19.102-42.667-42.667s19.102-42.667 42.667-42.667zM842.667 405.333c23.565 0 42.667 19.102 42.667 42.667s-19.102 42.667-42.667 42.667c-23.565 0-42.667-19.102-42.667-42.667s19.102-42.667 42.667-42.667zM290.133 533.333c23.564 0 42.667 19.103 42.667 42.667s-19.103 42.667-42.667 42.667c-23.564 0-42.667-19.103-42.667-42.667s19.102-42.667 42.667-42.667zM290.133 277.333c23.564 0 42.667 19.102 42.667 42.667s-19.103 42.667-42.667 42.667c-23.564 0-42.667-19.102-42.667-42.667s19.102-42.667 42.667-42.667zM179.2 405.333c23.564 0 42.667 19.102 42.667 42.667s-19.102 42.667-42.667 42.667c-23.564 0-42.667-19.102-42.667-42.667s19.103-42.667 42.667-42.667zM678.4 695.5c23.565 0 42.667 19.103 42.667 42.667s-19.102 42.667-42.667 42.667c-23.565 0-42.667-19.102-42.667-42.667s19.102-42.667 42.667-42.667zM345.6 695.5c23.564 0 42.667 19.103 42.667 42.667s-19.103 42.667-42.667 42.667c-23.564 0-42.667-19.102-42.667-42.667s19.102-42.667 42.667-42.667zM514.133 661.333c23.565 0 42.667 19.103 42.667 42.667s-19.102 42.667-42.667 42.667c-23.565 0-42.667-19.103-42.667-42.667s19.102-42.667 42.667-42.667zM678.4 106.667c23.565 0 42.667 19.102 42.667 42.667s-19.102 42.667-42.667 42.667c-23.565 0-42.667-19.102-42.667-42.667s19.102-42.667 42.667-42.667zM345.6 106.667c23.564 0 42.667 19.102 42.667 42.667s-19.103 42.667-42.667 42.667c-23.564 0-42.667-19.102-42.667-42.667s19.102-42.667 42.667-42.667zM514.133 140.834c23.565 0 42.667 19.102 42.667 42.667s-19.102 42.667-42.667 42.667c-23.565 0-42.667-19.102-42.667-42.667s19.102-42.667 42.667-42.667zM586.667 522.667c29.457 0 53.333 23.878 53.333 53.333s-23.876 53.333-53.333 53.333c-29.457 0-53.333-23.878-53.333-53.333s23.876-53.333 53.333-53.333zM437.333 522.667c29.457 0 53.333 23.878 53.333 53.333s-23.876 53.333-53.333 53.333c-29.455 0-53.333-23.878-53.333-53.333s23.878-53.333 53.333-53.333zM661.333 394.667c29.457 0 53.333 23.876 53.333 53.333s-23.876 53.333-53.333 53.333c-29.457 0-53.333-23.876-53.333-53.333s23.876-53.333 53.333-53.333zM362.667 394.667c29.455 0 53.333 23.876 53.333 53.333s-23.878 53.333-53.333 53.333c-29.455 0-53.333-23.876-53.333-53.333s23.878-53.333 53.333-53.333zM437.333 266.667c29.457 0 53.333 23.876 53.333 53.333s-23.876 53.333-53.333 53.333c-29.455 0-53.333-23.876-53.333-53.333s23.878-53.333 53.333-53.333zM586.667 266.667c29.457 0 53.333 23.876 53.333 53.333s-23.876 53.333-53.333 53.333c-29.457 0-53.333-23.876-53.333-53.333s23.876-53.333 53.333-53.333zM512 817.907c-20.907 0-37.547 16.64-37.547 37.547s16.64 37.547 37.547 37.547c20.907 0 37.547-16.64 37.547-37.547s-16.64-37.547-37.547-37.547zM736 806.417c-17.92 0-32.427 14.507-32.427 32s14.507 32 32 32c17.493 0 32.427-14.507 32.427-32s-14.080-32-32-32zM288 806.417c-17.493 0-32 14.507-32 32s14.080 32 32 32h0.427c17.493 0 32-14.507 32-32s-14.507-32-32.427-32zM512 5.158c-20.907 0-37.547 16.64-37.547 37.547s16.64 37.547 37.547 37.547c20.907 0 37.547-16.64 37.547-37.547s-16.64-37.547-37.547-37.547zM736 27.75c-17.92 0-32.427 14.507-32.427 32s14.507 32 32 32c17.493 0 32.427-14.507 32.427-32s-14.080-32-32-32zM288 27.75c-17.493 0-32 14.507-32 32s14.080 32 32 32h0.427c17.493 0 32-14.507 32-32s-14.507-32-32.427-32zM66.133 410.492c-20.48 0-37.546 16.64-37.546 37.12v0.427c0 20.48 16.639 37.547 37.546 37.547s37.547-16.64 37.547-37.547c0-20.907-17.067-37.547-37.547-37.547zM160 202.658c-17.493 0-32 14.080-32 32v0.427c0 17.493 14.507 32 32 32s32-14.507 32-32c0-17.493-14.507-32.427-32-32.427zM160 628.916c-17.493 0-32 14.507-32 32s14.507 32 32 32c17.493 0 32-14.080 32-31.573v-0.427c0-17.493-14.507-32-32-32zM960 410.492c-20.48 0-37.547 16.64-37.547 37.12v0.427c0 20.48 16.64 37.547 37.547 37.547s37.547-16.64 37.547-37.547c0-20.907-17.067-37.547-37.547-37.547zM866.133 202.658c-17.493 0-32 14.080-32 32v0.427c0 17.493 14.507 32 32 32s32-14.507 32-32c0-17.493-14.507-32.427-32-32.427zM866.133 628.916c-17.493 0-32 14.507-32 32s14.507 32 32 32c17.493 0 32-14.080 32-32v-0.427c0-17.067-14.507-31.573-32-31.573z" />
<glyph unicode="&#xe916;" glyph-name="devices" horiz-adv-x="1067" d="M692.053 546.58c-87.467 87.893-229.973 87.893-317.44 0-87.893-87.892-87.893-229.972 0-317.439 87.894-87.893 229.974-87.893 317.44 0 87.893 87.893 87.893 229.973 0 317.439zM555.947 365.248l-67.84-67.84c-6.4-6.4-14.507-9.387-22.613-9.387s-16.64 2.987-22.613 9.387c-12.373 12.373-12.373 32.853 0 45.653l67.84 67.84c12.373 12.373 32.853 12.373 45.653 0 12.373-12.8 12.373-33.28-0.427-45.653zM857.6 712.077c-9.387 9.387-21.333 14.507-34.56 14.507s-25.173-5.12-34.56-14.080c-19.2-19.2-19.2-49.92 0-69.12 9.387-9.387 21.333-14.507 34.56-14.507s25.173 5.12 34.56 14.080c9.387 9.387 14.507 21.333 14.507 34.56s-5.12 25.6-14.507 34.56zM278.189 132.659c-9.387 9.387-21.333 14.507-34.56 14.507s-25.173-5.12-34.56-14.080c-9.387-9.387-14.507-21.333-14.507-34.56s5.12-25.173 14.507-34.56c9.387-9.387 22.187-14.080 34.56-14.080s25.173 4.693 34.56 14.507c18.773 18.347 18.773 49.493 0 68.267zM977.493 422.409c-8.96 9.387-21.333 14.080-34.56 14.507-13.227 0-25.173-5.12-34.56-14.507-19.2-19.2-19.2-49.92 0-69.12 9.387-9.387 22.187-14.080 34.56-14.080s25.173 4.693 34.56 14.080c19.2 19.2 19.2 50.347 0 69.12zM158.291 422.426c-18.773 18.773-49.92 19.2-69.12 0s-19.2-49.92 0-69.12c9.387-9.387 22.187-14.080 34.56-14.080s25.173 4.693 34.56 14.080c18.773 19.2 18.773 50.347 0 69.12zM857.6 132.685c-19.2 19.2-49.92 19.2-69.12 0s-19.2-49.92 0-69.12c9.387-9.387 22.187-14.080 34.56-14.080s25.173 4.693 34.56 14.080c9.387 9.387 14.507 21.76 14.507 34.56 0 13.227-5.12 25.6-14.507 34.56zM278.189 712.077c-9.387 9.387-21.333 14.507-34.56 14.507s-25.173-5.12-34.56-14.080c-9.387-9.387-14.507-21.333-14.507-34.56s5.12-25.6 14.507-34.56c9.387-9.387 21.333-14.507 34.56-14.507s25.173 5.12 34.56 14.080c18.773 19.2 18.773 50.347 0 69.12zM567.893 832.017c0 0.427 0 0.427 0 0-19.2 19.2-49.92 19.2-69.12 0-9.387-9.387-14.507-21.76-14.507-34.56 0-13.227 5.12-25.173 14.080-34.56 9.387-9.387 21.333-14.507 34.56-14.507s25.173 5.12 34.56 14.507c19.627 19.2 19.627 50.347 0.427 69.12z" />
<glyph unicode="&#xe917;" glyph-name="ethereum-eth" d="M374.186 344.316l68.694-30.72c43.947-19.627 94.293-19.627 138.667 0l68.693 30.72c61.44 27.307 118.187-46.933 75.52-98.987l-147.627-180.48c-36.267-44.373-95.573-44.373-132.267 0l-147.2 180.48c-43.093 52.053 13.653 126.293 75.52 98.987zM365.653 462.084c-12.8-9.387-11.093-29.013 3.414-36.267l100.267-49.92c23.467-11.947 61.44-11.947 84.48 0l100.267 49.92c14.080 7.253 15.787 26.453 3.413 36.267l-132.693 99.839c-7.68 5.547-17.92 5.547-25.6 0l-133.547-99.839zM762.88 608.46l-177.92 221.867c-3.413 4.267-7.253 8.107-11.093 11.947-11.093 10.667-26.88 0.853-26.88-14.507v-183.467c0-6.827 2.987-13.227 8.533-17.067l177.067-133.119 7.68-5.547c7.68-5.547 18.347-5.547 24.747 1.28 29.867 32.427 29.44 79.359-2.133 118.612zM260.694 604.552l177.066 225.28c3.413 4.267 6.827 8.107 10.667 11.947 11.093 10.667 26.88 1.28 26.88-14.507v-186.453c0-6.827-2.987-12.8-8.533-17.067l-183.466-140.799c-7.68-5.547-18.347-5.547-25.173 1.707-29.013 32.853-28.587 79.786 2.56 119.892z" />
<glyph unicode="&#xe918;" glyph-name="music" horiz-adv-x="1067" d="M912.64 738.963v-482.135c0-84.48-68.693-153.173-153.173-153.173-84.053 0-153.173 68.693-153.173 153.173 0 84.053 69.12 152.747 153.173 152.747 35.84 0 67.84-12.373 93.867-32.853v253.868l-392.96-111.788v-344.32c0-84.48-69.12-153.173-153.174-153.173-84.48 0-153.173 68.693-153.173 153.173 0 84.053 68.693 152.747 153.173 152.747 35.413 0 67.413-12.373 93.44-32.427v377.175c0 62.72 37.974 111.36 98.134 127.573l246.613 67.413c49.92 13.653 92.16 8.96 122.027-14.080 30.293-22.613 45.227-61.013 45.227-113.92z" />
<glyph unicode="&#xe919;" glyph-name="musicnote" horiz-adv-x="1067" d="M948.053 692.022v-49.92c0-41.813-16.64-77.653-46.080-98.56-18.347-13.652-40.96-20.052-64.427-20.052-14.507 0-29.013 2.133-43.947 7.253l-229.547 76.372v-415.145c0-111.787-90.88-202.667-202.668-202.667-111.787 0-202.667 90.88-202.667 202.667s90.88 202.667 202.667 202.667c53.76 0 102.401-21.333 138.668-55.467v450.132c0 41.387 17.067 77.227 46.507 98.56 29.44 20.907 68.693 25.6 107.947 12.8l188.587-63.147c58.027-19.2 104.96-84.48 104.96-145.493z" />
<glyph unicode="&#xe91a;" glyph-name="play" horiz-adv-x="1067" d="M767.573 550.415l-507.307-305.918c-29.867-17.92-68.267 3.413-68.267 38.4v341.331c0 148.907 160.853 241.92 290.133 167.68l285.013-163.84c29.44-17.493 29.867-60.16 0.427-77.653zM793.173 300.348l-345.173-199.253c-61.867-35.413-131.84-28.16-182.614 7.68-24.747 17.067-21.76 55.040 4.267 70.4l542.294 325.12c25.6 15.36 59.307 0.853 64-28.587 10.667-66.133-16.64-137.387-82.773-175.36z" />
<glyph unicode="&#xe91b;" glyph-name="shuffle" horiz-adv-x="1067" d="M949.333 192.815c0 0.853-0.427 1.707-0.427 2.56-0.427 3.413-0.853 6.827-2.133 9.813-1.707 3.84-3.84 6.827-6.4 9.813 0 0 0 0.427-0.427 0.427-2.987 2.987-6.4 5.12-10.24 6.827s-8.107 2.56-12.373 2.56l-199.253-0.853c0 0 0 0-0.427 0-25.6 0-50.347 11.947-65.707 32.427l-52.053 66.987c-10.667 14.080-30.72 16.64-44.8 5.547s-16.64-30.72-5.547-44.8l52.053-66.987c27.733-35.84 71.253-57.173 116.48-57.173h0.427l121.6 0.427-30.293-30.293c-12.373-12.373-12.373-32.853 0-45.227 6.4-6.4 14.507-9.387 22.613-9.387s16.213 2.987 22.613 9.387l85.333 85.333c2.987 2.987 5.12 6.4 6.827 10.24 1.28 4.267 2.133 8.533 2.133 12.373zM380.587 674.57c-27.733 38.4-72.107 61.013-119.467 61.013-0.427 0-0.427 0-0.853 0l-110.933-0.427c-17.493 0-32-14.507-32-32s14.507-32 32-32l111.787 0.427c26.88 0 52.053-12.8 67.413-34.56l46.080-64c6.4-8.533 16.213-13.227 26.027-13.227 6.4 0 13.227 2.133 18.773 5.973 14.507 10.667 17.493 30.72 7.253 44.8l-46.080 64zM948.907 700.557c0 0.853 0.427 1.707 0.427 2.133 0 4.267-0.853 8.533-2.56 12.373s-3.84 7.253-6.827 10.24l-85.333 85.333c-12.373 12.373-32.853 12.373-45.227 0s-12.373-32.853 0-45.227l30.293-30.293-116.48 0.427c-0.427 0-0.427 0-0.853 0-49.067 0-95.147-24.32-122.453-65.707l-272.64-408.747c-15.36-23.040-41.387-37.12-69.12-37.12h-0.427l-108.373 0.853c-17.493 0-32-14.080-32-32 0-17.493 14.080-32 32-32l108.8-0.427c0.427 0 0.427 0 0.853 0 49.493 0 95.147 24.32 122.453 65.707l272.64 408.747c15.36 23.040 41.387 37.12 69.12 37.12h0.427l193.707-0.853c4.267 0 8.107 0.853 12.373 2.56 3.84 1.707 7.253 3.84 10.24 6.827 0 0 0 0.427 0.427 0.427 2.56 2.987 5.12 5.973 6.4 9.813 1.28 2.987 1.707 6.4 2.133 9.813z" />
<glyph unicode="&#xe91c;" glyph-name="tether-usdt" d="M926.293 537.627l-102.4 205.653c-20.053 40.533-73.387 73.387-118.613 73.387h-386.56c-45.227 0-98.56-32.853-118.613-73.387l-102.4-205.653c-24.747-49.495-11.093-119.895 29.44-157.015l295.68-268.373c49.066-44.373 128.853-44.373 177.92 0l295.68 268.373c40.96 37.12 54.613 107.947 29.867 157.015zM682.667 565.36h-138.667v-224.001c0-17.493-14.507-32-32-32s-32 14.507-32 32v224.001h-138.666c-17.493 0-32 14.507-32 32s14.507 32 32 32h341.333c17.493 0 32-14.507 32-32s-14.507-32-32-32z" />
<glyph unicode="&#xe91d;" glyph-name="audio-square" horiz-adv-x="1067" d="M433.92 366.084c-31.575 0-56.748-25.6-56.748-57.173s25.6-56.747 56.748-56.747c31.573 0 57.173 25.6 57.173 56.747 0 31.573-25.6 57.173-57.173 57.173zM712.107 874.667h-357.547c-155.307 0-247.893-92.587-247.893-247.893v-357.12c0-155.733 92.587-248.32 247.893-248.32h357.12c155.307 0 247.893 92.587 247.893 247.893v357.547c0.427 155.307-92.16 247.893-247.467 247.893zM751.787 541.867c0-26.027-11.093-49.067-29.867-62.72-11.947-8.533-26.453-13.227-41.813-13.227-8.96 0-17.92 1.707-27.307 4.693l-97.707 32.427c-0.427 0-1.28 0.427-1.707 0.853v-194.56c0-65.707-53.76-119.467-119.467-119.467s-119.467 53.76-119.467 119.467c0 65.707 53.76 119.467 119.467 119.467 20.907 0 40.107-5.973 57.173-14.933v203.947c0 26.027 11.093 49.067 29.867 62.72 19.2 13.653 44.373 17.067 69.12 8.533l97.707-32.427c36.693-12.373 64.427-50.773 64.427-89.173v-25.6h-0.427z" />
<glyph unicode="&#xe91e;" glyph-name="music-library-2" horiz-adv-x="1067" d="M746.667 757.333h-42.667v63.573c0 35.413-29.013 64.427-64.427 64.427h-212.48c-35.413 0-64.427-29.013-64.427-64.427v-63.573h-42.667c-46.933 0-85.333-38.4-85.333-85.333v-5.547c13.653 3.84 27.733 5.547 42.667 5.547h512c14.933 0 29.013-1.707 42.667-5.547v5.547c0 46.933-38.4 85.333-85.333 85.333zM615.68 237.666c-13.653 0-24.32-11.093-24.32-24.32s11.093-24.32 24.32-24.32c13.227 0 24.32 11.093 24.32 24.32s-11.093 24.32-24.32 24.32zM408.32 200.085c-13.653 0-24.32-11.093-24.32-24.32s11.093-24.32 24.32-24.32c13.227 0 24.32 11.093 24.32 24.32s-10.667 24.32-24.32 24.32zM832 602.453c-13.653 3.84-27.733 5.547-42.667 5.547h-512c-14.933 0-29.013-1.707-42.667-5.547-73.387-19.2-128-86.187-128-165.12v-256c0-93.867 76.8-170.667 170.667-170.667h512c93.867 0 170.667 76.8 170.667 170.667v256c0 78.933-54.613 145.92-128 165.12zM704 393.387v-180.053c0-48.64-39.68-88.32-88.32-88.32s-88.32 39.68-88.32 88.32c0 48.64 39.68 88.32 88.32 88.32 8.533 0 16.64-1.707 24.32-3.84v53.76l-142.933-38.827v-136.96c0-0.427 0-0.853-0.427-1.28-0.427-48.213-40.107-87.467-88.32-87.467-48.64 0-88.32 39.68-88.32 88.747s39.68 88.32 88.32 88.32c8.533 0 16.64-1.707 24.747-3.84v142.933c0 36.693 23.040 66.56 58.027 75.947l113.067 31.147c36.267 9.813 59.307 0.427 72.107-9.387s27.733-29.013 27.733-66.987v-40.533z" />
<glyph unicode="&#xe91f;" glyph-name="music-square" horiz-adv-x="1067" d="M641.707 376.751c-15.36 0-27.733-12.373-27.733-27.733s12.373-27.733 27.733-27.733c15.36 0 27.733 12.373 27.733 27.733-0.427 15.36-12.8 27.733-27.733 27.733zM407.895 334.498c-15.36 0-27.733-12.373-27.733-27.733s12.373-27.733 27.733-27.733c15.36 0 27.732 12.373 27.732 27.733s-12.372 27.733-27.732 27.733zM712.107 874.667h-357.547c-155.307 0-247.893-92.587-247.893-247.893v-357.12c0-155.733 92.587-248.32 247.893-248.32h357.12c155.307 0 247.893 92.587 247.893 247.893v357.547c0.427 155.307-92.16 247.893-247.467 247.893zM741.547 552.533v-203.093c0-55.040-44.8-99.84-99.84-99.84s-99.84 44.8-99.84 99.84c0 55.040 44.8 99.84 99.84 99.84 9.813 0 18.773-1.707 27.733-4.267v60.587l-161.28-43.947v-154.453c0-0.427-0.427-0.853-0.427-1.28-0.427-54.613-45.227-98.56-99.84-98.56-55.040 0-99.84 44.8-99.84 99.84s44.8 99.84 99.84 99.84c9.813 0 18.773-1.707 27.733-4.267v160.853c0 41.387 25.6 75.093 65.707 85.76l127.573 34.987c40.96 11.093 66.56 0.427 81.067-10.667 14.080-11.093 31.573-32.853 31.573-75.52v-45.653z" />
<glyph unicode="&#xe920;" glyph-name="note-square" horiz-adv-x="1067" d="M943.787 443.691l-26.453 8.96-71.253 23.467c-24.747 8.107-49.92 5.12-69.12-8.533-18.773-14.080-29.867-36.693-29.867-63.147v-204.373c-17.067 9.387-36.267 15.36-57.173 15.36-65.707 0-119.040-53.76-119.040-119.467 0-11.093 1.707-21.76 4.267-32 14.080-50.773 60.16-87.467 114.773-87.467 65.28 0 118.187 52.053 119.467 116.907v196.693c0.853 0 1.28-0.427 2.133-0.853l97.28-32.427c1.707-0.427 3.84-1.28 5.547-1.28 7.68-2.133 14.507-2.987 21.76-2.987 15.36 0 29.867 4.267 41.813 13.227 19.2 13.653 29.867 36.267 29.867 62.72v25.6c0 38.827-27.307 77.227-64 89.6zM689.92 38.784c-19.627 0-36.693 9.813-46.933 25.173-6.4 8.96-9.813 20.053-9.813 32 0 31.147 25.6 56.747 56.747 56.747 31.573 0 57.173-25.6 57.173-56.747 0-9.813-2.56-18.773-6.827-26.453-9.387-18.347-28.587-30.72-50.347-30.72zM1007.787 354.091v-25.6c0-26.453-10.667-49.067-29.867-62.72-11.947-8.96-26.453-13.227-41.813-13.227-7.253 0-14.080 0.853-21.76 2.987-1.707 0-3.84 0.853-5.547 1.28l-97.28 32.427c-0.853 0.427-1.28 0.853-2.133 0.853v-196.693c-1.28-64.853-54.187-116.907-119.467-116.907-54.613 0-100.693 36.693-114.773 87.467-2.56 10.24-4.267 20.907-4.267 32 0 65.707 53.333 119.467 119.040 119.467 20.907 0 40.107-5.973 57.173-15.36v204.373c0 26.453 11.093 49.067 29.867 63.147 19.2 13.653 44.373 16.64 69.12 8.533l71.253-23.467 26.453-8.96c36.693-12.373 64-50.773 64-89.6zM917.333 639.147v-89.6c0-14.507-14.080-24.747-28.16-20.053l-23.040 7.68c-44.8 14.080-90.453 8.107-127.573-18.347-35.413-26.453-55.467-68.267-55.467-114.347v-104.533c0-11.52-8.96-20.907-20.48-22.613-87.893-13.227-155.733-89.6-155.733-181.333 0-2.133 0-4.267 0-6.4 0.427-13.227-9.387-25.6-23.040-25.6h-141.653c-147.2 0-235.52 87.893-235.52 235.52v339.627c0 147.627 88.32 235.52 235.52 235.52h339.627c147.2 0 235.52-87.893 235.52-235.52z" />
<glyph unicode="&#xe921;" glyph-name="play-circle" horiz-adv-x="1067" d="M532.053 874.667c-235.521 0-426.668-191.147-426.668-426.667s191.147-426.667 426.668-426.667c235.52 0 426.667 191.147 426.667 426.667s-190.72 426.667-426.667 426.667zM660.053 352.853l-123.733-71.253c-15.36-8.96-32.427-13.227-49.067-13.227-17.067 0-33.707 4.267-49.067 13.227-30.721 17.92-49.068 49.493-49.068 85.333v142.933c0 35.413 18.347 67.413 49.068 85.333s67.413 17.92 98.56 0l123.733-71.253c30.72-17.92 49.067-49.493 49.067-85.333s-18.347-67.84-49.493-85.76z" />
<glyph unicode="&#xe922;" glyph-name="record" horiz-adv-x="1067" d="M858.88 651.077c12.8-20.053 5.973-46.933-14.507-59.307l-25.173-14.933-559.358-335.36c-20.48-12.373-47.36-5.547-59.307 15.36-42.667 74.24-61.866 164.693-45.226 259.413 28.16 160.854 160.426 288.854 322.132 311.894 160 22.613 304.64-54.187 381.44-177.067zM912.64 386.953c-29.013-181.333-189.44-320-373.333-322.987-81.067-1.28-156.159 22.187-218.452 64.427-26.453 17.493-25.6 56.747 1.707 72.96l529.492 311.040c27.733 16.213 61.867-2.56 64.427-34.56 2.133-29.867 0.853-60.16-3.84-90.88z" />
<glyph unicode="&#xe923;" glyph-name="record-circle" horiz-adv-x="1067" d="M532.053 874.667c-235.521 0-426.668-191.147-426.668-426.667s191.147-426.667 426.668-426.667c235.52 0 426.667 191.147 426.667 426.667s-190.72 426.667-426.667 426.667zM533.333 267.52c-99.84 0-180.481 80.64-180.481 180.48s80.641 180.48 180.481 180.48c99.84 0 180.48-80.64 180.48-180.48s-80.64-180.48-180.48-180.48z" />
<glyph unicode="&#xe924;" glyph-name="stop" horiz-adv-x="1067" d="M890.027 628.053l-674.987-405.333c-26.027-15.787-61.013 0-64.427 30.293-0.853 8.107-1.28 16.213-1.28 24.32v341.333c0 128 85.333 213.333 213.333 213.333h341.333c128 0 180.48-65.707 205.227-155.733 5.12-18.773-2.987-38.4-19.2-48.213zM917.333 486.827v-209.493c0-128-85.333-213.333-213.333-213.333h-341.332c-39.253 0-76.373 10.667-107.947 29.44-27.307 15.787-25.6 55.893 1.28 72.107l596.479 357.973c28.587 17.066 64.853-3.413 64.853-36.693z" />
<glyph unicode="&#xe925;" glyph-name="subtitle" horiz-adv-x="1067" d="M712.107 874.667h-357.547c-155.307 0-247.893-92.587-247.893-247.893v-357.12c0-155.733 92.587-248.32 247.893-248.32h357.12c155.307 0 247.893 92.587 247.893 247.893v357.547c0.427 155.307-92.16 247.893-247.467 247.893zM298.667 423.68h118.187c17.493 0 32-14.507 32-32s-14.507-32-32-32h-118.187c-17.493 0-32 14.507-32 32s14.507 32 32 32zM574.72 199.253h-276.053c-17.493 0-32 14.507-32 32s14.507 32 32 32h276.053c17.493 0 32-14.507 32-32s-14.080-32-32-32zM768 199.253h-78.933c-17.493 0-32 14.507-32 32s14.507 32 32 32h78.933c17.493 0 32-14.507 32-32s-14.507-32-32-32zM768 359.68h-235.947c-17.493 0-32 14.507-32 32s14.507 32 32 32h235.947c17.493 0 32-14.507 32-32s-14.507-32-32-32z" />
<glyph unicode="&#xe926;" glyph-name="video-horizontal" horiz-adv-x="1067" d="M501.333 624.666h-394.667v-355.414c0-2.56 0-5.12 0.427-7.253h394.24v362.668zM349.437 688.64h151.892v186.027h-150.612v-180.907c0-1.707-0.853-3.413-1.28-5.12zM286.715 693.753v174.080c-94.72-19.627-156.587-82.773-174.507-179.2h175.36c-0.427 1.707-0.853 3.413-0.853 5.12zM713.387 874.667h-148.053v-186.027h148.053v186.027zM776.96 688.623h177.493c-17.92 97.28-80.64 160.853-177.067 179.627v-178.347c0-0.427-0.427-0.853-0.427-1.28zM777.387 27.759c93.44 18.347 154.88 78.080 174.933 170.24h-174.933v-170.24zM713.387 197.999h-148.053v-176.64h148.053v176.64zM565.333 261.999h394.24c0.427 2.133 0.427 4.693 0.427 7.253v355.414h-394.667v-362.668zM501.333 197.999h-150.615v-176.64h150.615v176.64zM114.344 197.999c20.053-91.307 80.64-151.040 172.373-169.813v169.813h-172.373z" />
<glyph unicode="&#xe927;" glyph-name="video-octagon" horiz-adv-x="1067" d="M853.756 710.4l-253.44 146.347c-41.387 23.893-92.587 23.893-134.4 0l-253.012-146.347c-41.387-23.893-66.987-68.267-66.987-116.48v-291.84c0-47.787 25.6-92.16 66.987-116.48l253.439-146.347c41.387-23.893 92.587-23.893 134.4 0l253.44 146.347c41.387 23.893 66.987 68.267 66.987 116.48v291.84c-0.427 48.213-26.027 92.16-67.413 116.48zM629.329 388.267l-88.747-51.2c-56.747-32.853-103.253-5.973-103.253 59.733v102.4c0 65.707 46.507 92.587 103.253 59.733l88.747-51.2c56.747-32.853 56.747-86.613 0-119.467z" />
<glyph unicode="&#xe928;" glyph-name="video-play" horiz-adv-x="1067" d="M649.813 874.667h-232.959v-186.027h232.959v186.027zM713.813 874.667v-186.027h240.64c-21.76 117.333-108.373 185.6-240.64 186.027zM106.667 624.666v-355.414c0-155.307 92.587-247.893 247.893-247.893h357.547c155.307 0 247.893 92.587 247.893 247.893v355.414h-853.333zM637.44 269.679l-88.747-51.2c-18.773-10.667-37.12-16.213-54.187-16.213-12.8 0-24.32 2.987-34.987 8.96-24.747 14.080-38.4 43.093-38.4 80.64v102.4c0 37.547 13.653 66.56 38.4 80.64 24.747 14.507 56.32 11.947 89.173-7.253l88.747-51.2c32.853-18.773 50.773-45.227 50.773-73.813s-18.347-53.76-50.773-72.96zM352.848 874.667c-132.267-0.427-218.88-68.693-240.64-186.027h240.64v186.027z" />
<glyph unicode="&#xe929;" glyph-name="video-tick" horiz-adv-x="1067" d="M959.147 292.267c-34.987 43.093-88.32 70.4-148.48 70.4-45.227 0-87.040-15.787-119.893-42.24-44.373-34.987-72.107-89.173-72.107-149.76 0-35.84 10.24-69.973 27.733-98.987 11.52-19.2 26.027-35.84 43.093-49.493h0.427c32.853-27.307 75.093-43.52 120.747-43.52 48.64 0 92.587 17.92 126.293 47.787 14.933 12.8 27.733 28.16 37.973 45.227 17.493 29.013 27.733 63.147 27.733 98.987 0 46.080-16.213 88.747-43.52 121.6zM907.093 194.56l-102.4-94.72c-5.973-5.547-14.080-8.533-21.76-8.533-8.107 0-16.213 2.987-22.613 9.387l-47.36 47.36c-12.373 12.373-12.373 32.853 0 45.227s32.853 12.373 45.227 0l25.6-25.6 79.787 73.813c12.8 11.947 33.28 11.093 45.227-1.707 12.373-13.227 11.52-33.28-1.707-45.227zM649.813 709.973v143.36c0 11.947-9.387 21.333-21.333 21.333h-190.293c-11.946 0-21.332-9.387-21.332-21.333v-143.36c0-11.947 9.387-21.333 21.332-21.333h190.293c11.947 0 21.333 9.387 21.333 21.333zM330.666 873.783c-109.227-6.827-183.893-63.147-211.627-157.013-4.267-14.080 5.973-28.16 20.48-28.16h192c11.947 0 21.333 9.387 21.333 21.333v142.507c0 11.947-10.24 22.187-22.187 21.333zM736 874.2c109.227-6.827 183.893-63.147 211.627-157.013 4.267-14.080-5.973-28.16-20.48-28.16h-192c-11.947 0-21.333 9.387-21.333 21.333v142.507c0 11.947 10.24 22.187 22.187 21.333zM960 603.334v-186.881c0-15.787-16.64-26.027-30.72-18.773-35.84 18.773-76.8 29.013-118.613 29.013-68.693 0-135.68-28.16-183.467-77.227-46.933-47.787-72.533-111.36-72.533-178.773 0-34.56 13.653-78.933 30.72-116.053 6.827-14.933-3.413-33.28-20.053-33.28h-210.773c-136.96 0-247.893 110.933-247.893 247.893v334.081c0 11.947 9.387 21.333 21.333 21.333h810.667c11.947 0 21.333-9.386 21.333-21.333z" />
<glyph unicode="&#xe92a;" glyph-name="video-time" horiz-adv-x="1067" d="M959.147 292.267c-34.987 43.093-88.32 70.4-148.48 70.4-45.227 0-87.040-15.787-119.893-42.24-44.373-34.987-72.107-89.173-72.107-149.76 0-60.16 27.307-113.493 70.4-148.48 32.853-27.307 75.52-43.52 121.6-43.52 48.64 0 92.587 18.347 126.72 47.787 39.68 35.413 65.28 86.613 65.28 144.213 0 46.080-16.213 88.747-43.52 121.6zM854.613 158.72c0-11.093-5.973-21.76-15.36-27.307l-60.16-35.84c-5.12-2.987-10.667-4.693-16.64-4.693-10.667 0-21.333 5.547-27.307 15.36-8.96 15.36-4.267 34.987 11.093 43.947l44.373 26.453v53.76c0 17.493 14.507 32 32 32s32-14.507 32-32v-71.68zM649.813 709.973v143.36c0 11.947-9.387 21.333-21.333 21.333h-190.293c-11.946 0-21.332-9.387-21.332-21.333v-143.36c0-11.947 9.387-21.333 21.332-21.333h190.293c11.947 0 21.333 9.387 21.333 21.333zM330.666 873.783c-109.227-6.827-183.893-63.147-211.627-157.013-4.267-14.080 5.973-28.16 20.48-28.16h192c11.947 0 21.333 9.387 21.333 21.333v142.507c0 11.947-10.24 22.187-22.187 21.333zM736 874.2c109.227-6.827 183.893-63.147 211.627-157.013 4.267-14.080-5.973-28.16-20.48-28.16h-192c-11.947 0-21.333 9.387-21.333 21.333v142.507c0 11.947 10.24 22.187 22.187 21.333zM960 603.334v-186.881c0-15.787-16.64-26.027-30.72-18.773-35.84 18.773-76.8 29.013-118.613 29.013-68.693 0-135.68-28.16-183.467-77.227-46.933-47.787-72.533-111.36-72.533-178.773 0-34.56 13.653-78.933 30.72-116.053 6.827-14.933-3.413-33.28-20.053-33.28h-210.773c-136.96 0-247.893 110.933-247.893 247.893v334.081c0 11.947 9.387 21.333 21.333 21.333h810.667c11.947 0 21.333-9.386 21.333-21.333z" />
<glyph unicode="&#xe92b;" glyph-name="video-vertical" horiz-adv-x="1067" d="M292.693 628.083h-186.027v-148.053h186.027v148.053zM292.689 691.59v177.493c-97.28-17.92-160.853-80.64-179.627-177.067h178.347c0.427 0 0.853-0.427 1.28-0.427zM292.693 264.107v151.893h-186.027v-150.613h180.907c1.707 0 3.413-0.853 5.12-1.28zM953.604 692.067c-18.347 93.44-78.080 154.88-170.24 174.933v-174.933h170.24zM719.364 480v394.24c-2.133 0.427-4.693 0.427-7.253 0.427h-355.413v-394.667h362.666zM960.004 416h-176.64v-150.613h176.64v150.613zM783.364 29.043c91.307 20.053 151.040 80.64 169.813 172.373h-169.813v-172.373zM287.569 201.395h-174.080c19.627-94.72 82.773-156.587 179.2-174.507v175.36c-1.707-0.427-3.413-0.853-5.12-0.853zM960.004 628.083h-176.64v-148.053h176.64v148.053zM356.698 416v-394.667h355.413c2.56 0 5.12 0 7.253 0.427v394.24h-362.666z" />
<glyph unicode="&#xe92c;" glyph-name="backward-15-seconds" horiz-adv-x="1067" d="M637.009 238.067h-97.707c-17.493 0-32 14.507-32 32s14.507 32 32 32h97.707c18.347 0 33.28 14.933 33.28 33.28s-14.933 33.28-33.28 33.28h-97.707c-10.24 0-20.053 5.12-26.027 13.227s-7.68 19.2-4.267 29.013l32.427 97.707c4.267 13.227 16.64 21.76 30.293 21.76h130.56c17.493 0 32-14.507 32-32s-14.507-32-32-32h-107.52l-11.093-33.707h53.333c53.76 0 97.28-43.52 97.28-97.28s-43.947-97.28-97.28-97.28zM428.369 238.046c-17.492 0-31.999 14.507-31.999 32v144.64l-8.107-9.387c-11.947-13.227-32-14.080-45.227-2.56-12.8 11.947-14.080 32-2.133 45.227l64 71.253c8.96 9.813 23.039 13.227 35.412 8.533s20.48-16.64 20.48-29.867v-228.267c-0.427-17.493-14.507-31.573-32.427-31.573zM533.338 811.543c-3.413 0-6.827-0.427-10.24-0.427l34.987 43.52c11.093 13.653 8.96 34.133-5.12 44.8s-33.707 8.96-44.8-5.12l-84.053-104.96c-0.427-0.427-0.427-0.853-0.853-1.707-1.28-1.707-2.133-3.84-2.987-5.547-0.853-2.133-1.707-3.84-2.133-5.547-0.427-2.133-0.427-3.84-0.427-5.973s0-4.267 0-6.4c0-0.853 0-1.28 0-2.133 0.427-1.28 1.28-2.133 1.707-3.413 0.853-2.133 1.707-3.84 2.56-5.973 1.28-1.707 2.56-3.413 4.267-4.693 0.853-1.28 1.28-2.56 2.56-3.413 0.853-0.427 1.28-0.853 2.133-1.28 0.853-0.853 2.133-1.28 3.413-1.707 2.133-1.28 4.693-2.133 6.827-2.56 1.707-0.853 2.987-0.853 4.267-0.853s2.133-0.427 3.413-0.427c1.28 0 2.133 0.427 2.987 0.853 1.28 0 2.56-0.427 3.84 0 27.307 6.4 52.907 9.387 77.227 9.387 191.573 0 347.307-155.733 347.307-347.309 0-191.569-155.733-347.307-347.307-347.307s-347.307 155.738-347.307 347.307c0 74.24 24.32 145.922 70.4 207.362 10.667 14.080 7.68 34.133-6.4 44.8s-34.133 7.68-44.8-6.4c-54.613-72.533-83.2-157.442-83.2-245.762 0-226.56 184.32-411.307 411.307-411.307s411.307 184.32 411.307 411.307c0 226.989-184.32 410.882-410.88 410.882z" />
<glyph unicode="&#xe92d;" glyph-name="forward-5-seconds" horiz-adv-x="1067" d="M852.48 657.471c-11.093 13.653-31.147 15.787-44.8 4.693s-15.787-31.147-4.693-44.8c48.213-59.733 75.093-130.559 77.653-204.799 6.827-191.147-143.36-352.427-334.933-358.827-191.572-6.827-352.425 143.36-359.252 334.507s143.36 352.426 334.932 358.826c24.32 0.853 49.92-1.28 77.653-6.827 1.707-0.427 3.413 0 5.12 0 4.267-2.133 9.387-3.413 14.080-3.413 7.253 0 14.080 2.133 20.053 7.253 13.653 11.093 15.787 31.147 5.12 44.8l-84.48 105.387c-11.093 13.653-31.147 16.213-44.8 5.12s-15.787-31.147-5.12-44.8l35.413-43.947c-8.107 0.427-16.64 0.853-24.747 0.427-226.559-7.68-404.479-198.827-396.372-425.386s198.827-404.48 425.385-396.373c226.56 8.107 404.48 198.827 396.373 425.387-3.84 88.32-35.413 172.372-92.587 242.772zM549.551 238.067h-97.707c-17.493 0-31.999 14.507-31.999 32s14.505 32 31.999 32h97.707c18.347 0 33.28 14.933 33.28 33.28s-14.933 33.28-33.28 33.28h-97.707c-10.24 0-20.053 5.12-26.025 13.227-5.973 8.107-7.68 19.2-4.267 29.013l32.425 97.707c4.267 13.227 16.64 21.76 30.293 21.76h130.56c17.493 0 32-14.507 32-32s-14.507-32-32-32h-107.52l-11.093-33.707h53.333c53.76 0 97.28-43.52 97.28-97.28s-43.52-97.28-97.28-97.28z" />
<glyph unicode="&#xe92e;" glyph-name="forward-10-seconds" horiz-adv-x="1067" d="M861.444 646.381c-10.667 14.080-30.72 17.067-44.8 6.4s-17.067-30.72-6.4-44.8c46.080-61.44 70.4-133.118 70.4-207.358 0-191.573-155.733-347.307-347.307-347.307s-347.307 155.733-347.307 347.307c0 191.572 155.733 346.878 347.307 346.878 24.747 0 49.92-2.987 77.227-9.387 1.28-0.427 2.56 0 4.267 0 0.853 0 2.133-0.853 2.987-0.853 1.28 0 2.133 0.427 3.413 0.427 1.707 0 2.987 0.427 4.267 0.853 2.133 0.427 4.267 1.28 6.4 2.56 1.28 0.853 2.987 1.28 4.267 2.133 0.427 0.427 1.28 0.427 1.707 0.853 1.28 0.853 1.707 2.133 2.56 2.987 1.707 1.707 2.987 2.987 4.267 5.12 1.28 1.707 1.707 3.84 2.56 5.547 0.427 1.28 1.28 2.56 1.707 3.84 0 0.853 0 1.28 0 2.133 0.427 2.133 0.427 4.267 0 6.4 0 2.133 0 3.84-0.427 5.973-0.427 1.707-1.28 3.413-2.133 5.547s-1.707 4.267-2.987 5.973c-0.427 0.853-0.427 1.28-0.853 1.707l-84.48 105.387c-11.093 13.653-31.147 15.787-44.8 5.12-13.653-11.093-15.787-31.147-5.12-44.8l34.987-43.52c-3.413 0-6.827 0.427-10.24 0.427-226.56 0-411.307-184.32-411.307-411.305 0-226.987 184.32-411.307 411.307-411.307s411.307 184.32 411.307 411.307c0.427 88.32-28.587 173.225-82.773 245.758zM428.373 248.713c-17.492 0-31.998 14.507-31.998 32v144.64l-8.107-9.387c-11.947-13.227-32-14.080-45.227-2.56-13.227 11.947-14.080 32-2.56 45.227l64 71.253c8.96 9.813 23.038 13.226 35.412 8.533s20.48-16.64 20.48-29.866v-228.267c0-17.493-14.080-31.573-32-31.573zM618.667 248.734c-64.853 0-117.333 52.48-117.333 117.333v57.6c0 64.853 52.48 117.333 117.333 117.333s117.333-52.48 117.333-117.333v-57.6c0-64.853-52.48-117.333-117.333-117.333zM618.667 476.574c-29.44 0-53.333-23.893-53.333-53.333v-57.6c0-29.44 23.893-53.333 53.333-53.333s53.333 23.893 53.333 53.333v57.6c0 29.44-23.893 53.333-53.333 53.333z" />
<glyph unicode="&#xe92f;" glyph-name="forward-15-seconds" horiz-adv-x="1067" d="M637.009 238.067h-97.707c-17.493 0-32 14.507-32 32s14.507 32 32 32h97.707c18.347 0 33.28 14.933 33.28 33.28s-14.933 33.28-33.28 33.28h-97.707c-10.24 0-20.053 5.12-26.027 13.227s-7.68 19.2-4.267 29.013l32.427 97.707c4.267 13.227 16.64 21.76 30.293 21.76h130.56c17.493 0 32-14.507 32-32s-14.507-32-32-32h-107.52l-11.093-33.707h53.333c53.76 0 97.28-43.52 97.28-97.28s-43.947-97.28-97.28-97.28zM428.369 238.046c-17.492 0-31.999 14.507-31.999 32v144.64l-8.107-9.387c-11.947-13.227-32-14.080-45.227-2.56-12.8 11.947-14.080 32-2.133 45.227l64 71.253c8.96 9.813 23.039 13.227 35.412 8.533s20.48-16.64 20.48-29.867v-228.267c-0.427-17.493-14.507-31.573-32.427-31.573zM861.444 646.368c-10.667 14.080-30.72 17.067-44.8 6.4s-17.067-30.72-6.4-44.8c46.080-61.44 70.4-133.122 70.4-207.362 0-191.573-155.733-347.307-347.307-347.307s-347.307 155.733-347.307 347.307c0 191.575 155.733 346.882 347.307 346.882 24.747 0 49.92-2.987 77.227-9.387 1.28-0.427 2.56 0 3.84 0s2.133-0.853 2.987-0.853c1.28 0 2.133 0.427 3.413 0.427s2.56 0.427 4.267 0.853c2.56 0.427 4.693 1.707 6.827 2.56 1.28 0.853 2.56 1.28 3.84 2.133 0.427 0.427 1.28 0.427 1.707 0.853 1.28 0.853 1.707 2.133 2.56 2.987 1.707 1.707 2.987 2.987 4.267 5.12 1.28 1.707 1.707 3.84 2.56 5.973 0.427 1.28 1.28 2.56 1.707 3.84 0 0.853 0 1.28 0 2.133 0.427 2.133 0.427 4.267 0 6.4 0 2.133 0 3.84-0.427 5.973-0.427 1.707-1.28 3.413-2.133 5.547s-1.707 4.267-2.987 5.973c0 0.427 0 0.853-0.427 1.28l-84.48 105.387c-11.093 13.653-31.147 16.213-44.8 5.12s-15.787-31.147-5.12-44.8l34.987-43.52c-3.413 0-6.827 0.427-10.24 0.427-226.56 0-411.307-184.32-411.307-411.308 0-226.987 184.32-411.307 411.307-411.307s411.307 184.32 411.307 411.307c0.427 88.32-28.587 173.228-82.773 245.762z" />
<glyph unicode="&#xe930;" glyph-name="maximize-circle" horiz-adv-x="1067" d="M946.769 844.373c-3.413 7.68-9.387 14.080-17.493 17.493-3.84 1.28-7.68 2.133-11.947 2.133h-170.667c-17.493 0-32-14.507-32-32s14.507-32 32-32h93.44l-201.387-201.387c-12.373-12.373-12.373-32.853 0-45.227 6.4-6.4 14.507-9.387 22.613-9.387s16.213 2.987 22.613 9.387l201.387 201.387v-93.44c0-17.493 14.507-32 32-32s32 14.507 32 32v170.667c0 4.267-0.853 8.107-2.56 12.373zM382.72 342.635l-201.387-201.387v93.44c0 17.493-14.507 32-32 32s-32-14.507-32-32v-170.667c0-4.267 0.853-8.107 2.56-12.373 3.413-7.68 9.387-14.080 17.493-17.493 3.413-1.28 7.68-2.133 11.947-2.133h170.667c17.493 0 32 14.507 32 32s-14.507 32-32 32h-93.44l201.387 201.387c12.373 12.373 12.373 32.853 0 45.227s-32.853 12.373-45.227 0zM115.2 330.667c-14.933 0-28.16 10.667-31.147 25.6-5.973 29.867-9.387 61.013-9.387 91.733 0 253.013 205.653 458.667 458.667 458.667 31.147 0 62.293-2.987 92.587-9.387 17.493-3.413 28.587-20.48 25.173-37.547-3.413-17.493-20.907-28.16-37.547-25.173-26.88 5.547-53.333 8.107-80.213 8.107-217.6 0-394.667-177.067-394.667-394.667 0-26.453 2.56-53.333 8.107-78.933 3.413-17.493-7.68-34.133-25.173-37.547-2.133-0.853-4.267-0.853-6.4-0.853zM533.333-10.679c-31.147 0-62.293 2.987-92.587 9.387-17.492 3.413-28.585 20.48-25.172 37.547 3.413 17.493 20.905 28.16 37.545 25.173 26.027-5.12 52.907-8.107 79.787-8.107 217.6 0 394.667 177.067 394.667 394.667 0 26.453-2.56 52.907-7.68 78.933-3.413 17.493 7.68 34.133 25.173 37.547s34.133-7.68 37.547-25.173c5.973-29.867 8.96-60.587 8.96-91.307 0.427-253.013-205.227-458.667-458.24-458.667z" />
<glyph unicode="&#xe931;" glyph-name="video-slash" d="M737.276 680.107l-573.868-573.867c-59.733 37.973-83.2 105.813-83.2 171.093v341.333c0 145.92 56.747 202.667 202.667 202.667h256.001c123.307 0 182.613-40.533 198.4-141.227zM913.067 864.817c-12.8 12.8-33.707 12.8-46.507 0l-787.627-787.628c-12.8-12.8-12.8-33.707 0-46.507 6.4-5.973 14.933-9.387 23.040-9.387 8.533 0 16.64 3.413 23.040 9.813l788.053 787.628c12.8 12.8 12.8 33.28 0 46.080zM954.876 602.433v-308.908c0-61.013-29.867-85.333-46.933-94.293-8.107-4.267-20.907-8.96-36.693-8.96-18.347 0-40.96 5.973-67.413 24.747l-63.147 44.373c-2.987-94.293-32.853-148.053-100.693-170.667-27.307-9.813-61.013-14.080-101.547-14.080h-256c-10.24 0-20.053 0.427-30.293 1.707l628.906 628.481c11.093-0.853 20.053-4.267 26.88-8.107 17.067-8.96 46.933-33.28 46.933-94.293z" />
<glyph unicode="&#xe932;" glyph-name="pen-tool-2" d="M895.125 503.467c-9.387 166.4-132.693 305.067-297.387 333.227-2.56 32.853-29.867 59.307-63.573 59.307h-42.667c-33.707 0-60.587-26.027-63.573-58.88-165.545-27.307-289.705-166.4-299.092-333.653-30.293-5.12-53.333-31.147-53.333-62.72v-42.667c0-35.413 28.587-64 64-64h42.667c35.413 0 64 28.587 64 64v42.667c0 31.573-23.040 57.6-53.333 62.72 8.96 133.12 106.667 243.627 237.225 269.227 7.253-27.307 32-47.36 61.44-47.36h42.667c29.44 0 53.76 20.053 61.44 46.933 129.707-26.027 226.56-136.533 235.52-268.8-30.293-5.12-53.333-31.147-53.333-62.72v-42.667c0-35.413 28.587-64 64-64h42.667c35.413 0 64 28.587 64 64v42.667c0 31.573-23.040 58.027-53.333 62.72zM672.866 253.901l-69.973-61.867h-181.332l-69.973 61.867c-40.533 33.28-40.533 58.88-9.813 98.133l123.306 156.16c8.533 10.667 18.347 17.92 29.44 21.76 11.52 3.839 23.893 3.839 35.84 0 10.667-3.84 20.48-11.093 29.44-21.76l122.88-155.733c31.147-39.253 29.44-63.573-9.813-98.56zM568.329 21.342h-110.507c-39.255 0-68.695 32-61.015 66.133l13.227 59.307c2.56 11.947 13.227 20.053 25.175 20.053h155.733c11.947 0 22.187-8.107 25.173-20.053l13.227-59.307c8.107-36.267-19.2-66.133-61.013-66.133z" />
<glyph unicode="&#xe933;" glyph-name="ruler" d="M810.667 661.333c-5.973 0-10.667-4.693-10.667-10.667v-202.667c0-17.493-14.507-32-32-32s-32 14.507-32 32v202.667c0 5.973-4.693 10.667-10.667 10.667h-85.333c-5.973 0-10.667-4.693-10.667-10.667v-100.267c0-17.493-14.507-32-32-32s-32 14.507-32 32v100.267c0 5.973-4.693 10.667-10.667 10.667h-83.627c-5.973 0-10.667-4.693-10.667-10.667l-1.707-203.093c0-17.493-14.507-31.573-32-31.573 0 0 0 0-0.427 0-17.493 0-31.573 14.507-31.573 32.427l1.707 202.24c0 5.973-4.693 10.667-10.667 10.667h-87.040c-5.973 0-10.667-4.693-10.667-10.667v-151.467c0-17.493-14.507-32-32-32s-32 14.507-32 32v151.467c0 5.973-4.693 10.667-10.667 10.667-70.827 0-128-57.173-128-128v-170.667c0-70.827 57.173-128 128-128h597.333c70.827 0 128 57.173 128 128v170.667c0 70.827-57.173 128-128 128z" />
<glyph unicode="&#xe934;" glyph-name="shapes" d="M573.026 319.94h-385.278c-77.653 0-127.147 83.2-89.6 151.467l192.427 350.293c38.827 70.4 140.372 70.4 179.198 0l93.44-169.387 99.413-180.906c37.547-68.267-11.947-151.467-89.6-151.467zM966.391 277.376c0-153.173-124.16-277.333-277.333-277.333-130.133 0-238.933 89.173-269.228 210.347-2.987 12.8 6.827 24.32 20.055 24.32h160.853c59.307 0 113.067 30.72 143.36 81.493 29.867 51.2 31.147 112.64 2.133 164.693l-21.333 39.253c-8.107 14.508 3.413 32.001 19.627 29.014 126.293-25.601 221.867-137.388 221.867-271.788z" />
<glyph unicode="&#xe935;" glyph-name="music-dashboard" horiz-adv-x="1067" d="M320 821.341v-746.665c0-27.307-26.027-49.067-52.48-41.813-102.4 29.013-160.853 112.64-160.853 236.373v357.545c0 123.733 58.453 207.36 160.853 236.373 26.453 7.253 52.48-14.080 52.48-41.813zM553.387 346.918c-16.213 0-29.013-13.227-29.013-29.013s13.227-29.013 29.013-29.013c16.213 0 29.44 13.227 29.44 29.013s-13.227 29.013-29.44 29.013zM768.858 386.167c-16.213 0-29.44-13.227-29.44-29.44s13.227-29.013 29.44-29.013c16.213 0 29.44 13.227 29.44 29.013s-13.227 29.44-29.44 29.44zM712.107 874.667h-285.44c-23.467 0-42.667-19.2-42.667-42.667v-768c0-23.467 19.2-42.667 42.667-42.667h285.44c136.96 0 247.893 110.933 247.893 247.893v357.547c0 136.96-110.933 247.893-247.893 247.893zM857.6 544.427v-187.733c0-0.427-0.427-0.853-0.427-1.28-0.853-48.213-40.107-87.040-88.32-87.040-48.64 0-88.32 39.68-88.32 88.32s39.68 88.32 88.32 88.32c10.24 0 20.053-2.133 29.44-5.547v66.133l-156.587-42.667v-145.92c0-0.427-0.427-0.853-0.427-1.28-0.853-48.213-40.107-87.040-88.32-87.040-48.64 0-88.32 39.68-88.32 88.32s39.68 88.32 88.32 88.32c10.24 0 20.053-2.133 29.44-5.547v154.88c0 36.693 22.613 66.56 58.027 75.52l117.333 32.427c36.693 9.813 59.307 0 72.107-9.813 18.347-14.080 27.307-36.267 27.307-66.133v-42.24h0.427z" />
<glyph unicode="&#xe936;" glyph-name="music-filter" horiz-adv-x="1067" d="M960 800h-853.333c-17.493 0-32 14.507-32 32s14.507 32 32 32h853.333c17.493 0 32-14.507 32-32s-14.507-32-32-32zM490.667 544h-384c-17.493 0-32 14.507-32 32s14.507 32 32 32h384c17.493 0 32-14.507 32-32s-14.507-32-32-32zM362.667 288h-256c-17.493 0-32 14.507-32 32s14.507 32 32 32h256c17.493 0 32-14.507 32-32s-14.507-32-32-32zM277.333 32h-170.667c-17.493 0-32 14.507-32 32s14.507 32 32 32h170.667c17.493 0 32-14.507 32-32s-14.507-32-32-32zM954.022 632.311c-25.173 19.2-59.733 23.040-100.267 11.947l-185.6-50.347c-49.92-13.653-80.64-54.187-80.64-105.386v-265.813c-17.92 10.24-38.827 16.64-61.013 16.64-68.693 0-125.013-55.893-125.013-125.013 0-68.693 55.893-125.013 125.013-125.013s125.013 55.893 125.013 125.013v241.067l276.48 75.52v-146.347c-17.92 10.24-38.827 16.64-61.013 16.64-68.693 0-125.013-55.893-125.013-125.013 0-68.693 55.893-125.013 125.013-125.013s125.013 55.893 125.013 125.013v362.666c0 43.093-12.8 74.667-37.973 93.44zM526.502 53.325c-33.707 0-61.013 27.307-61.013 61.013s27.307 61.013 61.013 61.013c33.707 0 61.013-27.307 61.013-61.013s-27.307-61.013-61.013-61.013zM866.982 115.191c-33.707 0-61.013 27.307-61.013 61.013s27.307 61.013 61.013 61.013c33.707 0 61.013-27.307 61.013-61.013s-27.307-61.013-61.013-61.013z" />
<glyph unicode="&#xe937;" glyph-name="music-playlist" horiz-adv-x="1067" d="M789.333 736h-512c-17.493 0-32 14.507-32 32s14.507 32 32 32h512c17.493 0 32-14.507 32-32s-14.507-32-32-32zM661.333 842.667h-256c-17.493 0-32 14.507-32 32s14.507 32 32 32h256c17.493 0 32-14.507 32-32s-14.507-32-32-32zM614.827 268.335c-14.507 0-26.453-11.947-26.453-26.453s11.947-26.453 26.453-26.453c14.507 0 26.453 11.947 26.453 26.453s-11.947 26.453-26.453 26.453zM427.093 203.055c0 14.507-11.946 26.027-26.452 26.027s-26.453-11.947-26.453-26.453c0-14.507 11.947-26.453 26.453-26.453 14.507 0.427 26.452 12.373 26.452 26.88zM789.333 661.333h-512c-93.867 0-170.667-76.8-170.667-170.667v-298.667c0-93.867 76.8-170.667 170.667-170.667h512c93.867 0 170.667 76.8 170.667 170.667v298.667c0 93.867-76.8 170.667-170.667 170.667zM705.28 428.373v-186.453c0-0.853-0.427-1.28-0.427-2.133-1.28-48.64-40.96-88.32-90.027-88.32-49.92 0-90.453 40.533-90.453 90.453s40.533 90.453 90.453 90.453c9.387 0 17.92-1.707 26.453-4.267v58.453l-150.187-40.96v-142.507c0-49.92-40.533-90.453-90.453-90.453s-90.453 40.533-90.453 90.453c0 49.92 40.533 90.453 90.453 90.453 9.387 0 17.92-1.707 26.453-4.267v149.333c0 37.973 23.467 68.693 59.733 78.080l116.48 32c37.547 9.813 60.587 0 73.813-10.24 12.8-9.813 28.16-29.867 28.16-67.84v-42.24z" />
<glyph unicode="&#xe938;" glyph-name="music-square-add" horiz-adv-x="1067" d="M840.96 319.582c-46.507 2.987-94.293-14.080-129.707-49.493-66.56-66.56-66.56-174.507 0-241.493 22.613-22.613 50.347-37.547 79.787-44.8 16.213-4.267 33.28-5.547 50.347-4.693 40.533 1.707 80.213 17.92 111.36 49.067 43.947 43.947 58.88 105.813 44.8 161.707-6.827 29.44-22.187 57.173-44.8 79.787-30.72 31.147-70.827 47.787-111.787 49.92zM927.573 150.195c0-8.96-3.413-16.64-9.387-22.613s-13.653-9.387-22.613-9.387h-31.573v-33.28c0-8.96-3.413-16.64-9.387-22.613s-13.653-9.387-22.613-9.387c-17.493 0-32 14.507-32 32v33.28h-32c-17.493 0-32 14.507-32 32s14.507 32 32 32h32v30.293c0 17.493 14.507 32 32 32s32-14.507 32-32v-30.293h31.573c17.92 0 32-14.507 32-32zM543.147 445.001c-17.493 0-31.573-14.080-31.573-31.573s14.080-31.573 31.573-31.573c17.493 0 31.573 14.080 31.573 31.573s-14.080 31.573-31.573 31.573zM309.761 402.752c-17.493 0-31.573-14.080-31.573-31.573s14.080-31.573 31.573-31.573c17.493 0 31.573 14.080 31.573 31.573s-14.080 31.573-31.573 31.573zM712.107 874.667h-357.547c-11.947 0-23.467-0.427-34.56-2.133-134.4-12.373-213.333-102.4-213.333-245.76v-357.547c0-143.36 78.933-233.387 213.333-245.76 11.093-1.707 22.613-2.133 34.56-2.133h242.773c16.64 0 27.307 18.773 20.907 34.133-12.373 29.44-20.907 63.573-20.907 93.867 0 129.28 105.387 234.667 234.667 234.667 32.427 0 64-6.4 93.013-19.2 15.787-6.827 34.987 3.84 34.987 20.907v241.067c0 155.307-92.587 247.893-247.893 247.893zM639.147 616.533v-203.093c0-0.427-0.427-0.853-0.427-1.707-0.853-52.053-43.093-94.293-95.573-94.293-52.907 0-95.573 43.093-95.573 95.573 0 52.907 43.093 95.573 95.573 95.573 11.093 0 21.76-2.133 32-5.973v72.107l-169.387-46.080v-157.867c0-0.427-0.427-0.853-0.427-1.28-0.853-52.053-43.093-93.867-95.573-93.867-52.907 0-95.573 43.093-95.573 95.573s43.093 95.573 95.573 95.573c11.093 0 21.76-2.133 31.573-5.973v166.827c0 39.68 24.747 71.68 62.72 81.92l127.147 34.987c39.68 10.667 64 0 77.653-10.24 19.627-14.933 29.44-39.253 29.44-71.68v-46.080h0.853z" />
<glyph unicode="&#xe939;" glyph-name="music-square-remove" horiz-adv-x="1067" d="M958.72 263.253c-30.72 34.987-76.373 56.747-126.72 56.747-94.293 0-170.667-76.373-170.667-170.667 0-32 8.96-62.293 24.747-87.893 8.533-14.507 19.627-27.733 32.427-38.827 29.867-27.307 69.547-43.947 113.493-43.947 62.293 0 116.48 33.28 145.92 82.773 15.787 25.6 24.747 55.893 24.747 87.893 0 43.52-16.64 83.627-43.947 113.92zM900.267 81.92c-6.4-6.4-14.507-9.387-22.613-9.387s-16.213 2.987-22.613 9.387l-22.613 22.613-23.467-23.467c-6.4-6.4-14.507-9.387-22.613-9.387s-16.213 2.987-22.613 9.387c-12.373 12.373-12.373 32.853 0 45.227l23.467 23.467-22.613 22.613c-12.373 12.373-12.373 32.853 0 45.227s32.853 12.373 45.227 0l22.613-22.613 21.333 21.333c12.373 12.373 32.853 12.373 45.227 0s12.373-32.853 0-45.227l-21.333-21.333 22.613-22.613c12.373-12.373 12.373-32.427 0-45.227zM543.147 445.001c-17.493 0-31.573-14.080-31.573-31.573s14.080-31.573 31.573-31.573c17.493 0 31.573 14.080 31.573 31.573s-14.080 31.573-31.573 31.573zM309.761 402.752c-17.493 0-31.573-14.080-31.573-31.573s14.080-31.573 31.573-31.573c17.493 0 31.573 14.080 31.573 31.573s-14.080 31.573-31.573 31.573zM712.107 874.667h-357.547c-11.947 0-23.467-0.427-34.56-2.133-134.4-12.373-213.333-102.4-213.333-245.76v-357.547c0-143.36 78.933-233.387 213.333-245.76 11.093-1.707 22.613-2.133 34.56-2.133h242.773c16.64 0 27.307 18.773 20.907 34.133-12.373 29.44-20.907 63.573-20.907 93.867 0 129.28 105.387 234.667 234.667 234.667 32.427 0 64-6.4 93.013-19.2 15.787-6.827 34.987 3.84 34.987 20.907v241.067c0 155.307-92.587 247.893-247.893 247.893zM639.147 616.533v-203.093c0-0.427-0.427-0.853-0.427-1.707-0.853-52.053-43.093-94.293-95.573-94.293-52.907 0-95.573 43.093-95.573 95.573 0 52.907 43.093 95.573 95.573 95.573 11.093 0 21.76-2.133 32-5.973v72.107l-169.387-46.080v-157.867c0-0.427-0.427-0.853-0.427-1.28-0.853-52.053-43.093-93.867-95.573-93.867-52.907 0-95.573 43.093-95.573 95.573s43.093 95.573 95.573 95.573c11.093 0 21.76-2.133 31.573-5.973v166.827c0 39.68 24.747 71.68 62.72 81.92l127.147 34.987c39.68 10.667 64 0 77.653-10.24 19.627-14.933 29.44-39.253 29.44-71.68v-46.080h0.853z" />
<glyph unicode="&#xe93a;" glyph-name="music-square-search" horiz-adv-x="1067" d="M993.707 31.573l-30.72 30.72c15.787 23.893 25.173 52.907 25.173 83.627 0 84.48-68.267 152.747-152.747 152.747s-152.747-68.267-152.747-152.747c0-84.48 68.267-152.747 152.747-152.747 31.147 0 59.733 9.387 83.627 25.173l30.72-30.72c5.973-5.973 14.080-8.96 21.76-8.96 8.107 0 15.787 2.987 21.76 8.96 12.373 12.373 12.373 32 0.427 43.947zM543.147 445.001c-17.493 0-31.573-14.080-31.573-31.573s14.080-31.573 31.573-31.573c17.493 0 31.573 14.080 31.573 31.573s-14.080 31.573-31.573 31.573zM309.761 402.752c-17.493 0-31.573-14.080-31.573-31.573s14.080-31.573 31.573-31.573c17.493 0 31.573 14.080 31.573 31.573s-14.080 31.573-31.573 31.573zM712.107 874.667h-357.547c-11.947 0-23.467-0.427-34.56-2.133-134.4-12.373-213.333-102.4-213.333-245.76v-357.547c0-143.36 78.933-233.387 213.333-245.76 11.093-1.707 22.613-2.133 34.56-2.133h242.773c16.64 0 27.307 18.773 20.907 34.133-12.373 29.44-20.907 63.573-20.907 93.867 0 129.28 105.387 234.667 234.667 234.667 32.427 0 64-6.4 93.013-19.2 15.787-6.827 34.987 3.84 34.987 20.907v241.067c0 155.307-92.587 247.893-247.893 247.893zM639.147 616.533v-203.093c0-0.427-0.427-0.853-0.427-1.707-0.853-52.053-43.093-94.293-95.573-94.293-52.907 0-95.573 43.093-95.573 95.573 0 52.907 43.093 95.573 95.573 95.573 11.093 0 21.76-2.133 32-5.973v72.107l-169.387-46.080v-157.867c0-0.427-0.427-0.853-0.427-1.28-0.853-52.053-43.093-93.867-95.573-93.867-52.907 0-95.573 43.093-95.573 95.573s43.093 95.573 95.573 95.573c11.093 0 21.76-2.133 31.573-5.973v166.827c0 39.68 24.747 71.68 62.72 81.92l127.147 34.987c39.68 10.667 64 0 77.653-10.24 19.627-14.933 29.44-39.253 29.44-71.68v-46.080h0.853z" />
<glyph unicode="&#xe93b;" glyph-name="repeate-music" horiz-adv-x="1067" d="M188.16 227.012c-8.107 0-16.213 2.987-22.613 9.387-58.453 58.88-90.88 136.533-90.88 218.88 0 171.092 138.667 310.185 309.333 310.185l258.987-0.853-46.507 44.373c-12.8 12.373-13.227 32.427-0.853 45.227s32.427 13.227 45.227 0.853l104.107-99.84c9.387-8.96 12.373-23.040 7.68-34.987s-16.64-20.053-29.867-20.053l-338.773 0.853c-135.253 0-245.333-110.507-245.333-246.185 0-65.28 25.6-127.147 72.107-173.653 12.373-12.373 12.373-32.853 0-45.227-6.4-5.973-14.507-8.96-22.613-8.96zM447.996 32c-8.107 0-15.787 2.987-22.187 8.96l-104.107 99.84c-9.387 8.96-12.373 23.040-7.68 34.987s16.64 20.053 29.867 20.053l339.2-0.853c135.253 0 245.333 110.507 245.333 246.187 0 65.28-25.6 127.147-72.107 173.653-12.373 12.373-12.373 32.853 0 45.227s32.853 12.373 45.227 0c58.453-58.88 90.88-136.533 90.88-218.88 0-171.093-138.667-310.187-309.333-310.187l-258.987 0.853 46.507-44.373c12.8-12.373 13.227-32.427 0.853-45.227-6.827-6.827-14.933-10.24-23.467-10.24zM405.333 298.667h256c81.92 0 149.333 66.987 149.333 149.333 0 81.92-66.987 149.333-149.333 149.333h-256c-81.92 0-149.333-66.987-149.333-149.333s66.987-149.333 149.333-149.333z" />
<glyph unicode="&#xe93c;" glyph-name="repeate-one" horiz-adv-x="1067" d="M188.16 227.012c-8.107 0-16.213 2.987-22.613 9.387-58.453 58.88-90.88 136.533-90.88 218.88 0 171.092 138.667 310.185 309.333 310.185l258.987-0.853-46.507 44.373c-12.8 12.373-13.227 32.427-0.853 45.227s32.427 13.227 45.227 0.853l104.107-99.84c9.387-8.96 12.373-23.040 7.68-34.987s-16.64-20.053-29.867-20.053l-338.773 0.853c-135.253 0-245.333-110.507-245.333-246.185 0-65.28 25.6-127.147 72.107-173.653 12.373-12.373 12.373-32.853 0-45.227-6.4-5.973-14.507-8.96-22.613-8.96zM447.996 32c-8.107 0-15.787 2.987-22.187 8.96l-104.107 99.84c-9.387 8.96-12.373 23.040-7.68 34.987 5.12 11.947 17.067 18.347 29.867 20.053l339.2-0.853c135.253 0 245.333 110.507 245.333 246.187 0 65.28-25.6 127.147-72.107 173.653-12.373 12.373-12.373 32.853 0 45.227s32.853 12.373 45.227 0c58.453-58.88 90.88-136.533 90.88-218.88 0-171.093-138.667-310.187-309.333-310.187l-258.987 0.853 46.507-44.373c12.8-12.373 13.227-32.427 0.853-45.227-6.827-6.827-14.933-10.24-23.467-10.24zM544 302.118c-17.493 0-32 14.507-32 32v144.64l-8.107-8.96c-11.947-13.227-32-14.080-45.227-2.56s-14.080 32-2.56 45.227l64 71.254c8.96 9.813 23.040 13.227 35.413 8.533 12.373-5.12 20.48-16.64 20.48-30.293v-228.267c0-17.493-14.507-31.573-32-31.573z" />
<glyph unicode="&#xe93d;" glyph-name="video-add" horiz-adv-x="1067" d="M649.813 709.973v143.36c0 11.947-9.387 21.333-21.333 21.333h-190.293c-11.946 0-21.332-9.387-21.332-21.333v-143.36c0-11.947 9.387-21.333 21.332-21.333h190.293c11.947 0 21.333 9.387 21.333 21.333zM330.666 873.783c-109.227-6.827-183.893-63.147-211.627-157.013-4.267-14.080 5.973-28.16 20.48-28.16h192c11.947 0 21.333 9.387 21.333 21.333v142.507c0 11.947-10.24 22.187-22.187 21.333zM736 874.2c109.227-6.827 183.893-63.147 211.627-157.013 4.267-14.080-5.973-28.16-20.48-28.16h-192c-11.947 0-21.333 9.387-21.333 21.333v142.507c0 11.947 10.24 22.187 22.187 21.333zM960 290.133c0 0.427-0.427 0.853-0.853 1.28-1.707 2.56-3.84 5.12-5.973 7.253-0.427 0.427-0.853 1.28-1.28 1.707-34.56 38.4-85.333 62.293-141.227 62.293-53.76 0-102.827-22.187-137.813-58.027-33.707-34.56-54.187-81.92-54.187-133.973 0-35.84 10.24-69.973 27.733-98.987 9.387-15.787 21.333-30.293 34.987-42.24 0.853-0.427 1.28-0.853 1.707-1.28 2.133-2.133 4.267-3.84 6.827-5.973 0 0 0 0 0.427 0 0.427-0.427 0.853-0.853 1.28-0.853 32-26.88 73.387-42.667 119.040-42.667 69.973 0 130.987 37.547 164.267 93.013 9.813 16.64 17.493 34.987 22.187 54.187 3.84 14.507 5.547 29.44 5.547 44.8 0 45.227-15.787 87.040-42.667 119.467zM882.347 139.52h-39.68v-41.387c0-17.493-14.507-32-32-32s-32 14.507-32 32v41.387h-39.68c-17.493 0-32 14.507-32 32s14.507 32 32 32h39.68v37.973c0 17.493 14.507 32 32 32s32-14.507 32-32v-37.973h39.68c17.493 0 32-14.507 32-32s-14.080-32-32-32zM960 603.334v-186.881c0-15.787-16.64-26.027-30.72-18.773-35.84 18.773-76.8 29.013-118.613 29.013-68.693 0-135.68-28.16-183.467-77.227-46.933-47.787-72.533-111.36-72.533-178.773 0-34.56 13.653-78.933 30.72-116.053 6.827-14.933-3.413-33.28-20.053-33.28h-210.773c-136.96 0-247.893 110.933-247.893 247.893v334.081c0 11.947 9.387 21.333 21.333 21.333h810.667c11.947 0 21.333-9.386 21.333-21.333z" />
<glyph unicode="&#xe93e;" glyph-name="video-remove" horiz-adv-x="1067" d="M959.147 291.413c-1.707 2.56-3.84 5.12-5.973 7.253-34.56 39.68-85.76 64-142.507 64-53.76 0-102.827-22.187-137.813-58.027-33.707-34.56-54.187-81.92-54.187-133.973 0-35.84 10.24-69.973 27.733-98.987 9.813-16.213 22.187-31.147 36.693-43.52 2.133-2.133 4.267-3.84 6.827-5.973 0 0 0 0 0.427 0 32.427-27.307 74.24-43.52 120.32-43.52 69.973 0 130.987 37.547 164.267 93.013 9.813 16.64 17.493 34.987 22.187 54.187 3.84 14.507 5.547 29.44 5.547 44.8 0 45.653-16.213 87.893-43.52 120.747zM884.48 97.707c-6.4-6.4-14.507-9.387-22.613-9.387s-16.213 2.987-22.613 9.387l-28.16 28.16-29.44-29.44c-6.4-6.4-14.507-9.387-22.613-9.387s-16.213 2.987-22.613 9.387c-12.373 12.373-12.373 32.853 0 45.227l29.44 29.44-28.16 28.16c-12.373 12.373-12.373 32.853 0 45.227s32.853 12.373 45.227 0l28.16-28.16 26.88 26.88c12.373 12.373 32.853 12.373 45.227 0s12.373-32.853 0-45.227l-26.88-26.88 28.16-28.16c12.8-12.373 12.8-32.427 0-45.227zM649.813 709.973v143.36c0 11.947-9.387 21.333-21.333 21.333h-190.293c-11.946 0-21.332-9.387-21.332-21.333v-143.36c0-11.947 9.387-21.333 21.332-21.333h190.293c11.947 0 21.333 9.387 21.333 21.333zM330.666 873.783c-109.227-6.827-183.893-63.147-211.627-157.013-4.267-14.080 5.973-28.16 20.48-28.16h192c11.947 0 21.333 9.387 21.333 21.333v142.507c0 11.947-10.24 22.187-22.187 21.333zM736 874.2c109.227-6.827 183.893-63.147 211.627-157.013 4.267-14.080-5.973-28.16-20.48-28.16h-192c-11.947 0-21.333 9.387-21.333 21.333v142.507c0 11.947 10.24 22.187 22.187 21.333zM960 603.334v-186.881c0-15.787-16.64-26.027-30.72-18.773-35.84 18.773-76.8 29.013-118.613 29.013-68.693 0-135.68-28.16-183.467-77.227-46.933-47.787-72.533-111.36-72.533-178.773 0-34.56 13.653-78.933 30.72-116.053 6.827-14.933-3.413-33.28-20.053-33.28h-210.773c-136.96 0-247.893 110.933-247.893 247.893v334.081c0 11.947 9.387 21.333 21.333 21.333h810.667c11.947 0 21.333-9.386 21.333-21.333z" />
<glyph unicode="&#xe93f;" glyph-name="voice-cricle" horiz-adv-x="1067" d="M533.333 874.667c-235.52 0-426.667-191.147-426.667-426.667s191.147-426.667 426.667-426.667c235.52 0 426.667 191.147 426.667 426.667s-191.147 426.667-426.667 426.667zM309.333 356.693c0-17.493-14.507-32-32-32s-32 14.507-32 32v182.613c0 17.493 14.507 32 32 32s32-14.507 32-32v-182.613zM437.333 295.68c0-17.493-14.507-32-32-32s-32 14.507-32 32v304.64c0 17.493 14.507 32 32 32s32-14.507 32-32v-304.64zM565.333 234.667c0-17.493-14.507-32-32-32s-32 14.507-32 32v426.667c0 17.493 14.507 32 32 32s32-14.507 32-32v-426.667zM693.333 295.68c0-17.493-14.507-32-32-32s-32 14.507-32 32v304.64c0 17.493 14.507 32 32 32s32-14.507 32-32v-304.64zM821.333 356.693c0-17.493-14.507-32-32-32s-32 14.507-32 32v182.613c0 17.493 14.507 32 32 32s32-14.507 32-32v-182.613z" />
<glyph unicode="&#xe940;" glyph-name="voice-square" horiz-adv-x="1067" d="M712.107 874.667h-357.547c-155.307 0-247.893-92.587-247.893-247.893v-357.12c0-155.733 92.587-248.32 247.893-248.32h357.12c155.307 0 247.893 92.587 247.893 247.893v357.547c0.427 155.307-92.16 247.893-247.467 247.893zM309.333 356.693c0-17.493-14.507-32-32-32s-32 14.507-32 32v182.613c0 17.493 14.507 32 32 32s32-14.507 32-32v-182.613zM437.333 295.68c0-17.493-14.507-32-32-32s-32 14.507-32 32v304.64c0 17.493 14.507 32 32 32s32-14.507 32-32v-304.64zM565.333 234.667c0-17.493-14.507-32-32-32s-32 14.507-32 32v426.667c0 17.493 14.507 32 32 32s32-14.507 32-32v-426.667zM693.333 295.68c0-17.493-14.507-32-32-32s-32 14.507-32 32v304.64c0 17.493 14.507 32 32 32s32-14.507 32-32v-304.64zM821.333 356.693c0-17.493-14.507-32-32-32s-32 14.507-32 32v182.613c0 17.493 14.507 32 32 32s32-14.507 32-32v-182.613z" />
<glyph unicode="&#xe941;" glyph-name="backward" horiz-adv-x="1067" d="M960 604.146v-312.319c0-64-69.547-104.107-125.013-72.107l-291.413 168.107v120.32l20.907 11.947 270.507 156.159c55.467 32 125.013-8.107 125.013-72.107zM543.569 604.146v-312.319c0-64-69.547-104.107-124.585-72.107l-270.933 156.16c-55.040 32-55.040 112.213 0 144.213l270.933 156.159c55.038 32 124.585-8.107 124.585-72.107z" />
<glyph unicode="&#xe942;" glyph-name="backward-5-seconds" horiz-adv-x="1067" d="M549.547 238.067h-97.707c-17.493 0-32 14.507-32 32s14.506 32 32 32h97.707c18.347 0 33.28 14.933 33.28 33.28s-14.933 33.28-33.28 33.28h-97.707c-10.24 0-20.053 5.12-26.026 13.227s-7.68 19.2-4.267 29.013l32.426 97.707c4.267 13.227 16.64 21.76 30.293 21.76h130.56c17.493 0 32-14.507 32-32s-14.507-32-32-32h-107.52l-11.093-33.707h53.333c53.76 0 97.28-43.52 97.28-97.28s-43.52-97.28-97.28-97.28zM533.333 811.543c-3.413 0-6.827-0.427-10.24-0.427l34.987 43.52c11.093 13.653 8.96 34.133-5.12 44.8s-33.707 8.96-44.8-5.12l-84.054-104.96c-0.427-0.427-0.427-0.853-0.853-1.707-1.28-1.707-2.133-3.84-2.987-5.547-0.853-2.133-1.707-3.84-2.133-5.547-0.427-2.133-0.427-3.84-0.427-5.973s0-4.267 0-6.4c0-0.853 0-1.28 0-2.133 0.427-1.28 1.28-2.133 1.707-3.413 0.853-2.133 1.707-3.84 2.56-5.973 1.28-1.707 2.56-3.413 4.267-4.693 0.854-1.28 1.281-2.56 2.561-3.413 0.853-0.427 1.28-0.853 2.133-1.28 1.28-0.853 2.133-1.28 3.413-1.707 2.133-1.28 4.693-2.133 7.253-2.56 1.28-0.853 2.56-0.853 3.84-0.853s2.133-0.427 3.413-0.427c1.28 0 2.133 0.427 2.987 0.853 1.28 0 2.56-0.427 3.84 0 27.307 6.4 52.907 9.387 77.227 9.387 191.573 0 347.307-155.733 347.307-347.309 0-191.569-155.733-347.307-347.307-347.307s-347.308 155.738-347.308 347.307c0 74.24 24.32 145.922 70.4 207.362 10.667 14.080 7.68 34.133-6.4 44.8s-34.133 7.68-44.8-6.4c-54.613-72.533-83.2-157.442-83.2-245.762 0-226.56 184.32-411.307 411.308-411.307s411.307 184.32 411.307 411.307c0 226.989-184.32 410.882-410.88 410.882z" />
<glyph unicode="&#xe943;" glyph-name="backward-10-seconds" horiz-adv-x="1067" d="M428.373 248.713c-17.492 0-31.998 14.507-31.998 32v144.64l-8.107-9.387c-11.947-13.227-32-14.080-45.227-2.56-13.227 11.947-14.080 32-2.56 45.227l64 71.253c8.96 9.813 23.038 13.226 35.412 8.533s20.48-16.64 20.48-29.866v-228.267c0-17.493-14.080-31.573-32-31.573zM533.338 811.531c-3.413 0-6.827-0.427-10.24-0.427l34.987 43.52c11.093 13.653 8.96 34.133-5.12 44.8-13.653 11.093-33.707 8.96-44.8-5.12l-84.052-104.96c-0.427-0.427-0.427-0.853-0.853-1.707-1.28-1.707-2.133-3.84-2.987-5.547-0.853-2.133-1.707-3.84-2.133-5.547-0.427-2.133-0.427-3.84-0.427-5.973s0-4.267 0-6.4c0-0.853 0-1.28 0-2.133 0.427-1.28 1.28-2.133 1.707-3.84 0.853-2.133 1.28-3.84 2.56-5.547s2.56-3.413 4.267-5.12c0.852-0.853 1.706-2.133 2.559-2.987 0.427-0.427 1.28-0.427 1.707-0.853 1.28-0.853 2.56-1.707 4.267-2.133 2.133-1.28 4.267-2.133 6.4-2.56 1.707-0.853 2.987-0.853 4.693-0.853 1.28 0 2.133-0.427 3.413-0.427 0.853 0 2.133 0.427 2.987 0.853 1.28 0 2.56 0 4.267 0 27.307 6.4 52.907 9.387 77.227 9.387 191.573 0 347.307-155.733 347.307-347.305 0-191.573-155.733-347.307-347.307-347.307s-347.306 155.733-347.306 347.307c0 74.24 24.32 145.918 70.4 207.358 10.667 14.080 7.68 34.133-6.4 44.8s-34.133 7.68-44.8-6.4c-54.613-72.533-83.2-157.438-83.2-245.758 0-226.56 184.32-411.307 411.306-411.307s411.307 184.32 411.307 411.307c0 226.985-185.173 410.878-411.733 410.878zM618.667 248.734c-64.853 0-117.333 52.48-117.333 117.333v57.6c0 64.853 52.48 117.333 117.333 117.333s117.333-52.48 117.333-117.333v-57.6c0-64.853-52.48-117.333-117.333-117.333zM618.667 476.574c-29.44 0-53.333-23.893-53.333-53.333v-57.6c0-29.44 23.893-53.333 53.333-53.333s53.333 23.893 53.333 53.333v57.6c0 29.44-23.893 53.333-53.333 53.333z" />
<glyph unicode="&#xe944;" glyph-name="camera" horiz-adv-x="1067" d="M789.333 704c-26.027 0-49.92 14.933-61.867 37.973l-30.72 61.867c-19.627 38.827-70.827 70.827-114.347 70.827h-97.707c-43.947 0-95.145-32-114.771-70.827l-30.72-61.867c-11.947-23.040-35.84-37.973-61.867-37.973-92.587 0-165.973-78.080-160-170.24l22.187-352.427c5.12-87.893 52.48-160 170.24-160h447.145c117.76 0 164.693 72.107 170.24 160l22.187 352.427c5.973 92.16-67.413 170.24-160 170.24zM469.333 650.667h128c17.493 0 32-14.507 32-32s-14.507-32-32-32h-128c-17.493 0-32 14.507-32 32s14.507 32 32 32zM533.333 186.88c-79.36 0-144.211 64.427-144.211 144.213s64.425 144.213 144.211 144.213c79.787 0 144.213-64.427 144.213-144.213s-64.853-144.213-144.213-144.213z" />
<glyph unicode="&#xe945;" glyph-name="forward" horiz-adv-x="1067" d="M106.667 604.146v-312.319c0-64 69.547-104.107 125.013-72.107l291.413 168.107v120.32l-20.907 11.947-270.507 156.159c-55.467 32-125.013-8.107-125.013-72.107zM523.093 604.146v-312.319c0-64 69.547-104.107 124.587-72.107l270.933 156.16c55.040 32 55.040 112.213 0 144.213l-270.933 156.159c-55.040 32-124.587-8.107-124.587-72.107z" />
<glyph unicode="&#xe946;" glyph-name="music-circle" horiz-adv-x="1067" d="M131.413 558.111c-3.413 0-7.253 0.427-10.667 1.707-16.64 5.973-25.173 24.32-19.627 40.96 28.587 80.213 78.080 150.613 144.213 203.947 13.653 11.093 33.707 8.96 44.8-4.693s8.96-33.707-4.693-45.227c-56.32-45.653-99.413-106.24-123.733-175.36-4.693-13.227-17.067-21.333-30.293-21.333zM131.413 273.92c-13.227 0-25.6 8.107-30.293 21.333-17.493 49.493-26.453 101.12-26.453 152.747 0 17.493 14.507 32 32 32s32-14.507 32-32c0-44.373 7.68-88.747 23.040-131.413 5.973-16.64-2.987-34.987-19.627-40.96-3.413-1.28-7.253-1.707-10.667-1.707zM533.333-10.65c-45.227 0-90.027 6.827-133.548 20.053-17.067 5.12-26.453 23.040-21.333 40.107s23.040 26.453 40.107 21.333c37.121-11.52 75.948-17.067 114.774-17.067 217.6 0 394.667 177.067 394.667 394.667 0 22.187-2.133 45.227-6.4 69.547-2.987 17.495 8.533 34.135 26.027 37.122 17.067 2.987 34.133-8.533 37.12-26.029 5.12-28.16 7.68-54.613 7.68-81.067-0.427-253.013-206.080-458.667-459.093-458.667zM265.385 85.329c-7.253 0-14.080 2.133-20.053 7.253-24.32 19.627-43.947 38.4-60.587 57.6-11.52 13.227-9.813 33.707 3.413 45.227 13.653 11.52 33.707 9.813 45.227-3.413 14.080-16.213 31.147-32.427 52.053-49.493 13.653-11.093 15.787-31.147 4.693-44.8-5.973-8.107-15.36-12.373-24.747-12.373zM884.907 657.493c-10.24 0-20.053 4.693-26.453 14.080-73.387 107.093-195.413 171.093-325.12 171.093-38.827 0-77.653-5.547-114.772-17.067-16.64-5.12-34.56 4.267-40.107 21.333s4.267 34.987 21.333 40.107c43.519 12.8 88.319 19.627 133.545 19.627 151.040 0 292.267-74.667 378.027-199.253 9.813-14.507 6.4-34.56-8.107-44.373-5.547-3.84-11.947-5.547-18.347-5.547zM705.28 682.647c-14.080 10.667-39.68 21.333-80.64 10.24l-136.107-36.693c-39.253-11.093-64.853-44.373-64.853-85.333v-180.055c-11.093 4.267-23.040 6.827-35.84 6.827-55.040 0-99.84-44.8-99.84-99.84s44.8-99.84 99.84-99.84c54.613 0 98.56 43.947 99.413 98.133 0 0.427 0.427 0.853 0.427 1.707v178.773l184.32 50.347v-90.88c-11.093 4.267-23.040 6.827-35.84 6.827-55.040 0-99.84-44.8-99.84-99.84s44.8-99.84 99.84-99.84c55.040 0 99.84 44.8 99.84 99.84v264.962c0 34.133-10.24 59.307-30.72 74.667zM387.84 261.952c-19.627 0-35.84 16.213-35.84 35.84s16.213 35.84 35.84 35.84c19.627 0 35.84-16.213 35.84-35.84s-16.213-35.84-35.84-35.84zM636.16 307.179c-19.627 0-35.84 16.213-35.84 35.84s16.213 35.84 35.84 35.84c19.627 0 35.84-16.213 35.84-35.84s-16.213-35.84-35.84-35.84z" />
<glyph unicode="&#xe947;" glyph-name="next" horiz-adv-x="1067" d="M181.76 651.965v-408.321c0-83.627 90.88-136.107 163.413-94.293l177.066 101.973 177.067 102.4c72.533 41.813 72.533 146.347 0 188.161l-177.067 102.4-177.066 101.973c-72.533 41.813-163.413-10.24-163.413-94.293zM884.907 152.307c-17.493 0-32 14.507-32 32v527.36c0 17.493 14.507 32 32 32s32-14.507 32-32v-527.36c0-17.493-14.080-32-32-32z" />
<glyph unicode="&#xe948;" glyph-name="pause" horiz-adv-x="1067" d="M475.733 144.64v606.72c0 57.6-24.32 80.64-85.76 80.64h-154.88c-61.44 0-85.76-23.040-85.76-80.64v-606.72c0-57.6 24.32-80.64 85.76-80.64h154.88c61.44 0 85.76 23.040 85.76 80.64zM917.333 144.64v606.72c0 57.6-24.32 80.64-85.76 80.64h-154.88c-61.013 0-85.76-23.040-85.76-80.64v-606.72c0-57.6 24.32-80.64 85.76-80.64h154.88c61.44 0 85.76 23.040 85.76 80.64z" />
<glyph unicode="&#xe949;" glyph-name="pause-circle" horiz-adv-x="1067" d="M532.053 874.667c-235.521 0-426.668-191.147-426.668-426.667s191.147-426.667 426.668-426.667c235.52 0 426.667 191.147 426.667 426.667s-190.72 426.667-426.667 426.667zM478.72 318.72c0-20.48-8.533-28.587-30.293-28.587h-55.468c-21.76 0-30.293 8.107-30.293 28.587v258.56c0 20.48 8.533 28.587 30.293 28.587h55.041c21.76 0 30.293-8.107 30.293-28.587v-258.56h0.427zM704 318.72c0-20.48-8.533-28.587-30.293-28.587h-55.040c-21.76 0-30.293 8.107-30.293 28.587v258.56c0 20.48 8.533 28.587 30.293 28.587h55.040c21.76 0 30.293-8.107 30.293-28.587v-258.56z" />
<glyph unicode="&#xe94a;" glyph-name="play-add" horiz-adv-x="1067" d="M953.6 522.641c-33.28 189.865-196.693 337.065-389.12 350.718-260.266 18.773-475.306-196.693-456.532-456.531 13.653-192.427 160.853-355.413 350.719-388.693 49.067-8.533 96.853-8.533 142.507-0.853 13.227 2.133 20.907 16.64 15.787 28.587-12.8 29.013-19.627 61.013-19.627 93.867 0 72.107 32 138.667 88.32 183.040 41.387 33.28 93.44 51.627 146.347 51.627 33.28 0 64.853-6.827 93.44-19.627 12.373-5.547 26.453 2.56 29.013 15.787 7.68 45.227 7.68 93.013-0.853 142.080zM640 380.988l-102.4-58.88c-63.573-36.693-115.626-6.827-115.626 66.987v118.187c0 73.385 52.052 103.678 115.626 66.985l102.4-58.878c63.573-37.547 63.573-97.28 0-134.4zM832 320c-40.107 0-77.227-14.080-106.667-37.547-39.253-31.147-64-79.36-64-133.12 0-32 8.96-62.293 24.747-87.893 29.44-49.493 83.627-82.773 145.92-82.773 43.093 0 82.347 15.787 112.213 42.667 13.227 11.093 24.747 24.747 33.707 40.107 15.787 25.6 24.747 55.893 24.747 87.893 0 94.293-76.373 170.667-170.667 170.667zM896 118.187h-32v-33.28c0-17.493-14.507-32-32-32s-32 14.507-32 32v33.28h-32c-17.493 0-32 14.507-32 32s14.507 32 32 32h32v30.293c0 17.493 14.507 32 32 32s32-14.507 32-32v-30.293h32c17.493 0 32-14.507 32-32s-14.507-32-32-32z" />
<glyph unicode="&#xe94b;" glyph-name="play-cricle" horiz-adv-x="1067" d="M834.987 114.385c-8.107 0-16.213 2.987-22.613 9.387-12.373 12.373-12.373 32.853 0 45.227 154.027 154.027 154.027 404.478 0 558.078-12.373 12.373-12.373 32.853 0 45.227s32.853 12.373 45.227 0c178.773-178.773 178.773-469.758 0-648.532-6.4-6.4-14.507-9.387-22.613-9.387zM231.678 114.385c-8.107 0-16.213 2.987-22.613 9.387-178.774 178.773-178.774 469.758 0 648.532 12.373 12.373 32.853 12.373 45.227 0s12.373-32.853 0-45.227c-154.027-154.027-154.027-404.478 0-558.078 12.373-12.373 12.373-32.853 0-45.227-6.4-6.4-14.507-9.387-22.613-9.387zM533.333-8.96c-53.333 0.427-104.107 8.96-151.467 25.6-16.64 5.973-25.6 24.32-19.627 40.96s23.893 25.6 40.96 19.627c40.96-14.080 84.48-21.76 130.56-21.76 45.653 0 89.6 7.68 130.133 21.76 16.64 5.547 34.987-2.987 40.96-19.627s-2.987-34.987-19.627-40.96c-47.787-16.64-98.56-25.6-151.893-25.6zM674.133 817.533c-3.413 0-7.253 0.427-10.667 1.707-40.533 14.507-84.48 21.76-130.133 21.76s-89.173-7.68-130.133-21.76c-17.067-5.547-34.987 2.987-40.96 19.627s2.987 34.987 19.627 40.96c47.787 16.64 98.56 25.173 151.467 25.173s104.107-8.533 151.467-25.173c16.64-5.973 25.6-24.32 19.627-40.96-4.693-13.227-17.067-21.333-30.293-21.333zM394.24 447.996v71.253c0 88.745 62.72 125.012 139.52 80.638l123.733-71.678c76.8-44.373 76.8-116.907 0-161.28l-123.733-71.68c-76.8-44.373-139.52-8.107-139.52 80.64v72.107z" />
<glyph unicode="&#xe94c;" glyph-name="play-remove" horiz-adv-x="1067" d="M929.28 289.28c-27.733 19.2-61.44 30.72-97.28 30.72-40.107 0-77.227-14.080-106.667-37.547-39.253-31.147-64-79.36-64-133.12 0-32 8.96-62.293 24.747-87.893 1.707-2.987 3.84-5.973 6.4-8.96 29.867-44.373 81.067-73.813 139.52-73.813 43.093 0 82.347 15.787 112.213 42.667 13.227 11.093 24.747 24.747 33.707 40.107 15.787 25.6 24.747 55.893 24.747 87.893 0 58.027-29.013 109.227-73.387 139.947zM900.267 81.92c-6.4-6.4-14.507-9.387-22.613-9.387s-16.213 2.987-22.613 9.387l-22.613 22.613-23.467-23.467c-6.4-6.4-14.507-9.387-22.613-9.387s-16.213 2.987-22.613 9.387c-12.373 12.373-12.373 32.853 0 45.227l23.467 23.467-22.613 22.613c-12.373 12.373-12.373 32.853 0 45.227s32.853 12.373 45.227 0l22.613-22.613 21.333 21.333c12.373 12.373 32.853 12.373 45.227 0s12.373-32.853 0-45.227l-21.333-21.333 22.613-22.613c12.373-12.373 12.373-32.427 0-45.227zM953.6 522.641c-33.28 189.865-196.693 337.065-389.12 350.718-260.266 18.773-475.306-196.693-456.532-456.531 13.653-192.427 160.853-355.413 350.719-388.693 49.067-8.533 96.853-8.533 142.507-0.853 13.227 2.133 20.907 16.64 15.787 28.587-12.8 29.013-19.627 61.013-19.627 93.867 0 72.107 32 138.667 88.32 183.040 41.387 33.28 93.44 51.627 146.347 51.627 33.28 0 64.853-6.827 93.44-19.627 12.373-5.547 26.453 2.56 29.013 15.787 7.68 45.227 7.68 93.013-0.853 142.080zM640 380.988l-102.4-58.88c-63.573-36.693-115.626-6.827-115.626 66.987v118.187c0 73.385 52.052 103.678 115.626 66.985l102.4-58.878c63.573-37.547 63.573-97.28 0-134.4z" />
<glyph unicode="&#xe94d;" glyph-name="previous" horiz-adv-x="1067" d="M884.907 651.965v-408.321c0-83.627-90.88-136.107-163.413-94.293l-177.067 101.973-177.068 102.4c-72.533 41.813-72.533 146.347 0 188.161l177.068 102.4 177.067 101.973c72.533 41.813 163.413-10.24 163.413-94.293zM181.76 152.307c-17.493 0-32 14.507-32 32v527.36c0 17.493 14.507 32 32 32s32-14.507 32-32v-527.36c0-17.493-14.507-32-32-32z" />
<glyph unicode="&#xe94e;" glyph-name="radio" horiz-adv-x="1067" d="M352 874.667v-128h-32c-11.093 0-21.76-0.427-32-2.133v130.133c0 17.493 14.507 32 32 32s32-14.507 32-32zM746.667 746.667h-426.667c-11.093 0-21.76-0.427-32-2.133-110.080-12.8-181.333-94.293-181.333-211.2v-298.667c0-128 85.333-213.333 213.333-213.333h426.667c128 0 213.333 85.333 213.333 213.333v298.667c0 128-85.333 213.333-213.333 213.333zM357.547 277.333c-58.88 0-106.667 47.787-106.667 106.667s47.787 106.667 106.667 106.667c58.88 0 106.667-47.787 106.667-106.667s-47.787-106.667-106.667-106.667zM634.88 266.667h-21.333c-17.493 0-32 14.507-32 32s14.507 32 32 32h21.333c17.493 0 32-14.507 32-32s-14.507-32-32-32zM784.213 266.667h-21.333c-17.493 0-32 14.507-32 32s14.507 32 32 32h21.333c17.493 0 32-14.507 32-32s-14.507-32-32-32zM784.213 437.333h-170.667c-17.493 0-32 14.507-32 32s14.507 32 32 32h170.667c17.493 0 32-14.507 32-32s-14.507-32-32-32z" />
<glyph unicode="&#xe94f;" glyph-name="scissor" horiz-adv-x="1067" d="M712.107 874.667h-357.547c-155.307 0-247.893-92.587-247.893-247.893v-357.12c0-155.733 92.587-248.32 247.893-248.32h357.12c155.307 0 247.893 92.587 247.893 247.893v357.547c0.427 155.307-92.16 247.893-247.467 247.893zM779.093 333.653c14.080-10.667 17.067-30.72 6.4-44.8-6.4-8.533-15.787-12.8-25.6-12.8-6.827 0-13.227 2.133-19.2 6.4l-168.533 125.867-102.827-76.8c0.427-4.267 1.28-8.533 1.28-12.8 0-54.187-43.947-98.133-98.133-98.133s-98.133 43.947-98.133 98.133c0 54.187 43.947 98.133 98.133 98.133 26.453 0 49.92-10.667 67.413-27.307l78.507 58.88-78.080 58.453c-17.493-17.067-41.813-27.733-68.267-27.733-54.187 0-98.133 43.947-98.133 98.133s43.947 98.133 98.133 98.133c54.187 0 98.133-43.947 98.133-98.133 0-4.267-0.853-8.107-1.28-11.947l102.4-76.8 168.533 125.867c14.080 10.667 34.133 7.68 44.8-6.4s7.68-34.133-6.4-44.8l-153.6-114.773 154.453-114.773z" />
<glyph unicode="&#xe950;" glyph-name="screenmirroring" horiz-adv-x="1067" d="M712.107 874.667h-357.547c-155.307 0-247.893-92.587-247.893-247.893v-357.12c0-155.733 92.587-248.32 247.893-248.32h357.12c155.307 0 247.893 92.587 247.893 247.893v357.547c0.427 155.307-92.16 247.893-247.467 247.893zM810.667 260.267c0-64-25.6-89.6-89.6-89.6h-162.133c-64 0-89.6 25.6-89.6 89.6v76.8c0 64 25.6 89.6 89.6 89.6h162.133c64 0 89.6-25.6 89.6-89.6v-76.8z" />
<glyph unicode="&#xe951;" glyph-name="stop-circle" horiz-adv-x="1067" d="M532.053 874.667c-235.521 0-426.668-191.147-426.668-426.667s191.147-426.667 426.668-426.667c235.52 0 426.667 191.147 426.667 426.667s-190.72 426.667-426.667 426.667zM713.813 395.52c0-70.827-57.173-128-128-128h-104.96c-70.828 0-128.001 57.173-128.001 128v104.96c0 70.827 57.173 128 128.001 128h104.96c70.827 0 128-57.173 128-128v-104.96z" />
<glyph unicode="&#xe952;" glyph-name="gallery" horiz-adv-x="1067" d="M131.415 148.937l-0.853-0.853c-11.52 25.173-18.773 53.76-21.76 85.333 2.987-31.147 11.093-59.307 22.613-84.48zM405.338 517.158c56.084 0 101.546 45.462 101.546 101.545s-45.461 101.547-101.546 101.547c-56.083 0-101.547-45.464-101.547-101.547s45.464-101.545 101.547-101.545zM712.107 874.667h-357.547c-155.307 0-247.893-92.587-247.893-247.893v-357.547c0-46.507 8.107-87.040 23.893-121.173 36.693-81.067 115.2-126.72 224-126.72h357.547c155.307 0 247.893 92.587 247.893 247.893v357.547c0 155.307-92.587 247.893-247.893 247.893zM890.453 426.667c-33.28 28.587-87.040 28.587-120.32 0l-177.493-152.32c-33.28-28.587-87.040-28.587-120.32 0l-14.507 11.947c-30.293 26.453-78.507 29.013-112.64 5.973l-159.573-107.093c-9.387 23.893-14.933 51.627-14.933 84.053v357.547c0 120.32 63.573 183.893 183.893 183.893h357.547c120.32 0 183.893-63.573 183.893-183.893v-204.8l-5.547 4.693z" />
<glyph unicode="&#xe953;" glyph-name="gallery-add" horiz-adv-x="1067" d="M916.053 917.333h-125.44c-37.12 0-64.427-15.36-76.8-42.667-6.827-12.373-9.813-26.88-9.813-43.947v-125.44c0-54.187 32.427-86.613 86.613-86.613h125.44c17.067 0 31.573 2.987 43.947 9.813 27.307 12.373 42.667 39.68 42.667 76.8v125.44c0 54.187-32.427 86.613-86.613 86.613zM956.16 749.653c-4.267-4.267-10.667-7.253-17.493-7.68h-60.16v-21.76l0.427-37.547c-0.427-7.253-2.987-13.227-8.107-18.347-4.267-4.267-10.667-7.253-17.493-7.253-14.080 0-25.6 11.52-25.6 25.6v59.733l-59.733-0.427c-14.080 0-25.6 11.947-25.6 26.027s11.52 25.6 25.6 25.6l37.547-0.427h22.187v59.733c0 14.080 11.52 26.027 25.6 26.027s25.6-11.947 25.6-26.027l-0.427-30.293v-29.013h60.16c14.080 0 25.6-11.52 25.6-25.6-0.427-7.253-3.413-13.227-8.107-18.347zM405.338 517.158c56.084 0 101.546 45.462 101.546 101.545s-45.461 101.547-101.546 101.547c-56.083 0-101.547-45.464-101.547-101.547s45.464-101.545 101.547-101.545zM916.053 618.667h-20.053v-196.693l-5.547 4.693c-33.28 28.587-87.040 28.587-120.32 0l-177.493-152.32c-33.28-28.587-87.040-28.587-120.32 0l-14.507 11.947c-30.293 26.453-78.507 29.013-112.64 5.973l-159.573-107.093c-9.387 23.893-14.933 51.627-14.933 84.053v357.547c0 120.32 63.573 183.893 183.893 183.893h349.44v20.053c0 17.067 2.987 31.573 9.813 43.947h-359.253c-155.307 0-247.893-92.587-247.893-247.893v-357.547c0-46.507 8.107-87.040 23.893-121.173 36.693-81.067 115.2-126.72 224-126.72h357.547c155.307 0 247.893 92.587 247.893 247.893v359.253c-12.373-6.827-26.88-9.813-43.947-9.813z" />
<glyph unicode="&#xe954;" glyph-name="gallery-edit" horiz-adv-x="1067" d="M916.053 917.333h-125.44c-54.187 0-86.613-32.427-86.613-86.613v-125.44c0-54.187 32.427-86.613 86.613-86.613h125.44c54.187 0 86.613 32.427 86.613 86.613v125.44c0 54.187-32.427 86.613-86.613 86.613zM832.427 679.68c-1.28-1.28-4.267-2.987-6.4-2.987l-44.373-6.4c-1.28-0.427-2.987-0.427-4.267-0.427-6.4 0-11.947 2.133-15.787 6.4-5.12 5.12-7.253 12.373-5.973 20.053l6.4 44.373c0.427 2.133 1.707 5.12 2.987 6.4l72.533 72.533c1.28-2.987 2.56-6.4 3.84-9.813 1.707-3.413 3.413-6.4 5.12-9.387 1.28-2.56 2.987-5.12 4.693-6.827 1.707-2.56 3.413-5.12 4.693-6.4 0.853-1.28 1.28-1.707 1.707-2.133 3.84-4.693 8.107-8.96 11.947-11.947 0.853-0.853 1.707-1.707 2.133-1.707 2.133-1.707 4.693-3.84 6.4-5.12 2.56-1.707 4.693-3.413 7.253-4.693 2.987-1.707 6.4-3.413 9.813-5.12s6.827-2.987 9.813-3.84l-72.533-72.96zM934.4 781.653l-13.653-13.653c-0.853-1.28-2.133-1.707-3.413-1.707-0.427 0-0.853 0-1.28 0-30.72 8.96-55.040 33.28-64 64-0.427 1.707 0 3.413 1.28 4.693l14.080 14.080c23.040 23.040 44.8 22.613 67.413 0 11.52-11.52 17.067-22.613 17.067-33.707-0.427-11.093-5.973-22.187-17.493-33.707zM405.338 517.158c56.084 0 101.546 45.462 101.546 101.545s-45.461 101.547-101.546 101.547c-56.083 0-101.547-45.464-101.547-101.547s45.464-101.545 101.547-101.545zM916.053 618.667h-20.053v-196.693l-5.547 4.693c-33.28 28.587-87.040 28.587-120.32 0l-177.493-152.32c-33.28-28.587-87.040-28.587-120.32 0l-14.507 11.947c-30.293 26.453-78.507 29.013-112.64 5.973l-159.573-107.093c-9.387 23.893-14.933 51.627-14.933 84.053v357.547c0 120.32 63.573 183.893 183.893 183.893h349.44v20.053c0 17.067 2.987 31.573 9.813 43.947h-359.253c-155.307 0-247.893-92.587-247.893-247.893v-357.547c0-46.507 8.107-87.040 23.893-121.173 36.693-81.067 115.2-126.72 224-126.72h357.547c155.307 0 247.893 92.587 247.893 247.893v359.253c-12.373-6.827-26.88-9.813-43.947-9.813z" />
<glyph unicode="&#xe955;" glyph-name="gallery-export" horiz-adv-x="1067" d="M916.053 917.333h-125.44c-54.187 0-86.613-32.427-86.613-86.613v-125.44c0-54.187 32.427-86.613 86.613-86.613h125.44c54.187 0 86.613 32.427 86.613 86.613v125.44c0 54.187-32.427 86.613-86.613 86.613zM925.44 776.107c-5.12-5.12-11.947-7.68-18.773-7.68s-13.653 2.56-18.773 7.68l-7.68 7.68v-95.573c0-14.933-11.947-26.88-26.88-26.88s-26.88 11.947-26.88 26.88v95.573l-7.68-7.68c-10.24-10.24-27.307-10.24-37.547 0s-10.24 27.307 0 37.547l53.333 53.333c2.133 2.133 5.12 3.84 8.107 5.12 0.853 0.427 1.707 0.427 2.56 0.853 2.133 0.853 4.267 1.28 6.827 1.28 0.853 0 1.707 0 2.56 0 2.987 0 5.547-0.427 8.533-1.707 0.427 0 0.427 0 0.853 0 2.987-1.28 5.547-2.987 7.68-5.12 0.427-0.427 0.427-0.427 0.853-0.427l53.333-53.333c10.24-10.24 10.24-27.307-0.427-37.547zM405.338 517.158c56.084 0 101.546 45.462 101.546 101.545s-45.461 101.547-101.546 101.547c-56.083 0-101.547-45.464-101.547-101.547s45.464-101.545 101.547-101.545zM916.053 618.667h-20.053v-196.693l-5.547 4.693c-33.28 28.587-87.040 28.587-120.32 0l-177.493-152.32c-33.28-28.587-87.040-28.587-120.32 0l-14.507 11.947c-30.293 26.453-78.507 29.013-112.64 5.973l-159.573-107.093c-9.387 23.893-14.933 51.627-14.933 84.053v357.547c0 120.32 63.573 183.893 183.893 183.893h349.44v20.053c0 17.067 2.987 31.573 9.813 43.947h-359.253c-155.307 0-247.893-92.587-247.893-247.893v-357.547c0-46.507 8.107-87.040 23.893-121.173 36.693-81.067 115.2-126.72 224-126.72h357.547c155.307 0 247.893 92.587 247.893 247.893v359.253c-12.373-6.827-26.88-9.813-43.947-9.813z" />
<glyph unicode="&#xe956;" glyph-name="gallery-favorite" horiz-adv-x="1067" d="M405.338 517.158c56.084 0 101.546 45.462 101.546 101.545s-45.461 101.547-101.546 101.547c-56.083 0-101.547-45.464-101.547-101.547s45.464-101.545 101.547-101.545zM916.053 618.667h-20.053v-196.693l-5.547 4.693c-33.28 28.587-87.040 28.587-120.32 0l-177.493-152.32c-33.28-28.587-87.040-28.587-120.32 0l-14.507 11.947c-30.293 26.453-78.507 29.013-112.64 5.973l-159.573-107.093c-9.387 23.893-14.933 51.627-14.933 84.053v357.547c0 120.32 63.573 183.893 183.893 183.893h349.44v20.053c0 17.067 2.987 31.573 9.813 43.947h-359.253c-155.307 0-247.893-92.587-247.893-247.893v-357.547c0-46.507 8.107-87.040 23.893-121.173 36.693-81.067 115.2-126.72 224-126.72h357.547c155.307 0 247.893 92.587 247.893 247.893v359.253c-12.373-6.827-26.88-9.813-43.947-9.813zM916.053 917.333h-125.44c-37.12 0-64.427-15.36-76.8-42.667-6.827-12.373-9.813-26.88-9.813-43.947v-125.44c0-54.187 32.427-86.613 86.613-86.613h125.44c17.067 0 31.573 2.987 43.947 9.813 27.307 12.373 42.667 39.68 42.667 76.8v125.44c0 54.187-32.427 86.613-86.613 86.613zM887.467 695.040c-13.653-8.107-26.88-12.373-34.133-12.373-19.2 0-73.813 26.453-90.027 77.653-2.56 7.68-3.84 16.213-3.84 24.32 0 7.253 0.853 14.507 2.987 21.333 5.547 20.053 18.773 37.547 40.96 44.8 8.533 2.56 17.493 3.413 25.6 1.707 8.533-1.28 16.64-4.693 23.893-10.24 13.653 10.667 32.427 14.080 50.347 8.533 38.827-12.8 51.2-56.747 40.107-90.453-1.707-5.12-3.84-10.24-6.4-14.933-11.52-23.040-31.147-40.107-49.493-50.347z" />
<glyph unicode="&#xe957;" glyph-name="gallery-import" horiz-adv-x="1067" d="M916.053 618.667h-125.44c-54.187 0-86.613 32.427-86.613 86.613v125.44c0 54.187 32.427 86.613 86.613 86.613h125.44c54.187 0 86.613-32.427 86.613-86.613v-125.44c0-54.187-32.427-86.613-86.613-86.613zM925.44 759.893c-5.12 5.12-11.947 7.68-18.773 7.68s-13.653-2.56-18.773-7.68l-7.68-7.68v95.573c0 14.933-11.947 26.88-26.88 26.88s-26.88-11.947-26.88-26.88v-95.573l-7.68 7.68c-10.24 10.24-27.307 10.24-37.547 0s-10.24-27.307 0-37.547l53.333-53.333c2.133-2.133 5.12-3.84 8.107-5.12 0.853-0.427 1.707-0.427 2.56-0.853 2.133-0.853 4.267-1.28 6.827-1.28 0.853 0 1.707 0 2.56 0 2.987 0 5.547 0.427 8.533 1.707 0.427 0 0.427 0 0.853 0 2.987 1.28 5.547 2.987 7.68 5.12 0.427 0.427 0.427 0.427 0.853 0.427l53.333 53.333c10.24 10.24 10.24 27.307-0.427 37.547zM405.338 517.158c56.084 0 101.546 45.462 101.546 101.545s-45.461 101.547-101.546 101.547c-56.083 0-101.547-45.464-101.547-101.547s45.464-101.545 101.547-101.545zM916.053 618.667h-20.053v-196.693l-5.547 4.693c-33.28 28.587-87.040 28.587-120.32 0l-177.493-152.32c-33.28-28.587-87.040-28.587-120.32 0l-14.507 11.947c-30.293 26.453-78.507 29.013-112.64 5.973l-159.573-107.093c-9.387 23.893-14.933 51.627-14.933 84.053v357.547c0 120.32 63.573 183.893 183.893 183.893h349.44v20.053c0 17.067 2.987 31.573 9.813 43.947h-359.253c-155.307 0-247.893-92.587-247.893-247.893v-357.547c0-46.507 8.107-87.040 23.893-121.173 36.693-81.067 115.2-126.72 224-126.72h357.547c155.307 0 247.893 92.587 247.893 247.893v359.253c-12.373-6.827-26.88-9.813-43.947-9.813z" />
<glyph unicode="&#xe958;" glyph-name="gallery-remove" horiz-adv-x="1067" d="M916.053 917.333h-125.44c-54.187 0-86.613-32.427-86.613-86.613v-125.44c0-54.187 32.427-86.613 86.613-86.613h125.44c54.187 0 86.613 32.427 86.613 86.613v125.44c0 54.187-32.427 86.613-86.613 86.613zM937.387 722.773c10.667-10.667 10.667-28.16 0-38.827-5.547-5.12-12.373-7.68-19.627-7.68-6.827 0-13.653 2.56-19.2 7.68l-45.227 45.227-44.8-45.227c-5.547-5.12-12.373-7.68-19.627-7.68-6.827 0-13.653 2.56-19.2 7.68-10.667 10.667-10.667 28.16 0 38.827l45.227 45.227-45.227 44.8c-10.667 10.667-10.667 28.16 0 38.827s28.16 10.667 38.827 0l44.8-45.227 45.227 45.227c10.667 10.667 28.16 10.667 38.827 0s10.667-28.16 0-38.827l-45.227-44.8 45.227-45.227zM405.338 517.158c56.084 0 101.546 45.462 101.546 101.545s-45.461 101.547-101.546 101.547c-56.083 0-101.547-45.464-101.547-101.547s45.464-101.545 101.547-101.545zM916.053 618.667h-20.053v-196.693l-5.547 4.693c-33.28 28.587-87.040 28.587-120.32 0l-177.493-152.32c-33.28-28.587-87.040-28.587-120.32 0l-14.507 11.947c-30.293 26.453-78.507 29.013-112.64 5.973l-159.573-107.093c-9.387 23.893-14.933 51.627-14.933 84.053v357.547c0 120.32 63.573 183.893 183.893 183.893h349.44v20.053c0 17.067 2.987 31.573 9.813 43.947h-359.253c-155.307 0-247.893-92.587-247.893-247.893v-357.547c0-46.507 8.107-87.040 23.893-121.173 36.693-81.067 115.2-126.72 224-126.72h357.547c155.307 0 247.893 92.587 247.893 247.893v359.253c-12.373-6.827-26.88-9.813-43.947-9.813z" />
</font>
</defs>
</svg>
