<svg width="14" height="14" viewBox="0 0 14 14" fill="none" xmlns="http://www.w3.org/2000/svg">
<g clip-path="url(#clip0_1222_11506)">
<path fill-rule="evenodd" clip-rule="evenodd" d="M10.75 0C11.1642 0 11.5 0.335786 11.5 0.75V2.5H13.25C13.6642 2.5 14 2.83579 14 3.25C14 3.66421 13.6642 4 13.25 4H11.5V5.75C11.5 6.16421 11.1642 6.5 10.75 6.5C10.3358 6.5 10 6.16421 10 5.75V4H8.25C7.83579 4 7.5 3.66421 7.5 3.25C7.5 2.83579 7.83579 2.5 8.25 2.5H10V0.75C10 0.335786 10.3358 0 10.75 0Z" fill="#101010"/>
<path fill-rule="evenodd" clip-rule="evenodd" d="M7.08646 1.6231C6.73328 1.54188 6.36867 1.5 6.00002 1.5C4.79806 1.5 3.63897 1.94522 2.77924 2.74747C1.91833 3.5508 1.42756 4.64806 1.42756 5.80013V9.57495C1.42756 9.80868 1.32837 10.0405 1.13914 10.217C0.920338 10.4212 0.747962 10.5 0.500031 10.5C0.223888 10.5 3.05176e-05 10.7239 3.05176e-05 11C3.05176e-05 11.2761 0.223888 11.5 0.500031 11.5H11.5C11.7762 11.5 12 11.2761 12 11C12 10.7239 11.7762 10.5 11.5 10.5C11.2521 10.5 11.0797 10.4212 10.8609 10.217C10.6717 10.0405 10.5725 9.80868 10.5725 9.57495V7.74223C9.55106 7.65239 8.75 6.79474 8.75 5.75V5.25H8.25C7.14543 5.25 6.25 4.35457 6.25 3.25C6.25 2.57944 6.58 1.98596 7.08646 1.6231ZM4.99994 12.5C4.58573 12.5 4.24994 12.8358 4.24994 13.25C4.24994 13.6642 4.58573 14 4.99994 14H6.99994C7.41415 14 7.74994 13.6642 7.74994 13.25C7.74994 12.8358 7.41415 12.5 6.99994 12.5H4.99994Z" fill="#FFE453"/>
</g>
<defs>
<clipPath id="clip0_1222_11506">
<rect width="14" height="14" fill="white"/>
</clipPath>
</defs>
</svg>
