<svg width="14" height="14" viewBox="0 0 14 14" fill="none" xmlns="http://www.w3.org/2000/svg">
<g clip-path="url(#clip0_1222_11514)">
<path d="M13.25 2.25C13.25 1.42157 12.5784 0.75 11.75 0.75H3.75C2.92157 0.75 2.25 1.42157 2.25 2.25V10.25C2.25 11.0784 2.92157 11.75 3.75 11.75H11.75C12.5784 11.75 13.25 11.0784 13.25 10.25V2.25Z" fill="#101010"/>
<path d="M11 4.5C11 3.67157 10.3284 3 9.5 3H1.5C0.671573 3 0 3.67157 0 4.5V12.5C0 13.3284 0.671573 14 1.5 14H9.5C10.3284 14 11 13.3284 11 12.5V4.5Z" fill="#FFE453"/>
<path fill-rule="evenodd" clip-rule="evenodd" d="M6.25 6C6.25 5.58579 5.91421 5.25 5.5 5.25C5.08579 5.25 4.75 5.58579 4.75 6V7.75H3C2.58579 7.75 2.25 8.08579 2.25 8.5C2.25 8.91421 2.58579 9.25 3 9.25H4.75V11C4.75 11.4142 5.08579 11.75 5.5 11.75C5.91421 11.75 6.25 11.4142 6.25 11V9.25H8C8.41421 9.25 8.75 8.91421 8.75 8.5C8.75 8.08579 8.41421 7.75 8 7.75H6.25V6Z" fill="#101010"/>
</g>
<defs>
<clipPath id="clip0_1222_11514">
<rect width="14" height="14" fill="white"/>
</clipPath>
</defs>
</svg>
