<svg width="14" height="14" viewBox="0 0 14 14" fill="none" xmlns="http://www.w3.org/2000/svg">
<g clip-path="url(#clip0_1222_11525)">
<path d="M7 14C10.3137 14 13 11.3137 13 8C13 4.68629 10.3137 2 7 2C3.68629 2 1 4.68629 1 8C1 11.3137 3.68629 14 7 14Z" fill="#FFE453"/>
<path fill-rule="evenodd" clip-rule="evenodd" d="M3.91195 0.397528C4.10669 0.763105 3.96821 1.21734 3.60263 1.41209C2.73461 1.87449 1.96006 2.49413 1.3184 3.23947C1.04815 3.55338 0.574601 3.58878 0.26069 3.31854C-0.0532214 3.04829 -0.0886191 2.57474 0.181627 2.26083C0.944513 1.37468 1.86539 0.637972 2.89739 0.0882131C3.26297 -0.106534 3.7172 0.0319508 3.91195 0.397528ZM10.0881 0.397528C10.2828 0.0319508 10.737 -0.106534 11.1026 0.0882131C12.1346 0.637972 13.0555 1.37468 13.8184 2.26083C14.0886 2.57474 14.0532 3.04829 13.7393 3.31854C13.4254 3.58878 12.9519 3.55338 12.6816 3.23947C12.0399 2.49413 11.2654 1.87449 10.3974 1.41209C10.0318 1.21734 9.89333 0.763105 10.0881 0.397528ZM7.62501 5.00015C7.62501 4.65497 7.34519 4.37515 7.00001 4.37515C6.65483 4.37515 6.37501 4.65497 6.37501 5.00015V8.00015C6.37501 8.34533 6.65483 8.62515 7.00001 8.62515H9.50001C9.84519 8.62515 10.125 8.34533 10.125 8.00015C10.125 7.65497 9.84519 7.37515 9.50001 7.37515H7.62501V5.00015Z" fill="#101010"/>
</g>
<defs>
<clipPath id="clip0_1222_11525">
<rect width="14" height="14" fill="white"/>
</clipPath>
</defs>
</svg>
