<svg width="14" height="14" viewBox="0 0 14 14" fill="none" xmlns="http://www.w3.org/2000/svg">
<g clip-path="url(#clip0_1222_11546)">
<path fill-rule="evenodd" clip-rule="evenodd" d="M4.19236 1.75841C3.95942 1.91611 3.69377 2.22763 3.69377 2.99401C3.69377 3.19847 3.80076 3.54957 4.11587 4.06287C4.32522 4.4039 4.60217 4.77799 4.93489 5.17707C4.98838 5.12972 5.0592 5.06612 5.14213 4.98951C5.33676 4.80971 5.59378 4.56218 5.84848 4.28748C6.1061 4.00962 6.34578 3.72059 6.5165 3.45721C6.60147 3.32612 6.66064 3.21464 6.69692 3.12498C6.7317 3.03902 6.7352 2.99822 6.73554 2.9943C6.73554 2.9941 6.73557 2.99396 6.73554 2.9943C6.73554 2.41455 6.54777 2.06711 6.31905 1.85872C6.07891 1.63993 5.71112 1.5 5.23451 1.5C4.87222 1.5 4.4776 1.5653 4.19236 1.75841ZM5.941 6.28971C5.99983 6.2375 6.07431 6.17047 6.15998 6.09132C6.37302 5.89451 6.65957 5.61888 6.94843 5.30733C7.23437 4.99894 7.53825 4.63864 7.7752 4.27309C7.99385 3.93577 8.23558 3.4756 8.23558 2.9941C8.23558 2.05992 7.91667 1.2851 7.32928 0.749924C6.7533 0.225151 5.99555 0 5.23451 0C4.75083 0 4.00008 0.077164 3.35144 0.51629C2.6505 0.990826 2.19377 1.80131 2.19377 2.99401C2.19377 3.61941 2.47796 4.2619 2.83752 4.84762C3.09704 5.27037 3.4257 5.7107 3.79901 6.15708L1.95286 7.74828C0.517428 8.98549 0.303925 11.1308 1.46736 12.6267C2.75452 14.2816 5.18649 14.47 6.7132 13.0331L8.86696 11.006C9.42914 11.4826 9.96955 11.9313 10.4587 12.3359C10.5629 12.4221 10.6647 12.5062 10.7637 12.5881C11.2723 13.0084 11.7088 13.3691 12.0439 13.6564C12.3584 13.926 12.8319 13.8896 13.1015 13.5751C13.371 13.2606 13.3346 12.7871 13.0201 12.5176C12.6737 12.2206 12.2242 11.8492 11.7161 11.4292C11.6177 11.3479 11.5172 11.2648 11.4148 11.1801C10.9648 10.8078 10.4748 10.4011 9.96631 9.97135L10.9823 9.01517C11.2839 8.73128 11.2983 8.25663 11.0144 7.955C10.7305 7.65337 10.2558 7.63898 9.9542 7.92287L8.82139 8.98904C7.81177 8.10784 6.80115 7.18043 5.941 6.28971ZM4.80385 7.27128L2.93216 8.88449C2.10202 9.59999 1.97855 10.8407 2.65139 11.7057C3.39578 12.6628 4.80223 12.7718 5.68515 11.9408L7.72391 10.022C6.71371 9.13697 5.68771 8.19183 4.80385 7.27128Z" fill="#FFE453"/>
</g>
<defs>
<clipPath id="clip0_1222_11546">
<rect width="14" height="14" fill="white"/>
</clipPath>
</defs>
</svg>
