<svg width="14" height="14" viewBox="0 0 14 14" fill="none" xmlns="http://www.w3.org/2000/svg">
<g clip-path="url(#clip0_1222_11549)">
<path d="M13 5H1V11.75C1 12.5784 1.67157 13.25 2.5 13.25H11.5C12.3284 13.25 13 12.5784 13 11.75V5Z" fill="#FFE453"/>
<path fill-rule="evenodd" clip-rule="evenodd" d="M1.5 0.75C0.671573 0.75 0 1.42157 0 2.25V3.75C0 4.57843 0.671573 5.25 1.5 5.25H12.5C13.3284 5.25 14 4.57843 14 3.75V2.25C14 1.42157 13.3284 0.75 12.5 0.75H1.5ZM5.5 7.625C5.15482 7.625 4.875 7.90482 4.875 8.25C4.875 8.59518 5.15482 8.875 5.5 8.875H8.5C8.84518 8.875 9.125 8.59518 9.125 8.25C9.125 7.90482 8.84518 7.625 8.5 7.625H5.5Z" fill="#101010"/>
</g>
<defs>
<clipPath id="clip0_1222_11549">
<rect width="14" height="14" fill="white"/>
</clipPath>
</defs>
</svg>
