<svg width="14" height="14" viewBox="0 0 14 14" fill="none" xmlns="http://www.w3.org/2000/svg">
<g clip-path="url(#clip0_1222_11617)">
<path fill-rule="evenodd" clip-rule="evenodd" d="M1 1C0.447715 1 0 1.44772 0 2C0 2.55228 0.447715 3 1 3H10.75C11.4404 3 12 3.55964 12 4.25C12 4.94036 11.4404 5.5 10.75 5.5H3.5C1.567 5.5 0 7.067 0 9C0 10.933 1.567 12.5 3.5 12.5H11V13.4995C11 13.7017 11.1218 13.8841 11.3087 13.9615C11.4955 14.0388 11.7106 13.9961 11.8536 13.8531L13.8536 11.8531C14.0488 11.6578 14.0488 11.3412 13.8536 11.146L11.8536 9.14596C11.7106 9.00296 11.4955 8.96018 11.3087 9.03757C11.1218 9.11496 11 9.29728 11 9.49951V10.5H3.5C2.67157 10.5 2 9.82843 2 9C2 8.17157 2.67157 7.5 3.5 7.5H10.75C12.5449 7.5 14 6.04493 14 4.25C14 2.45507 12.5449 1 10.75 1H1Z" fill="#FFE453"/>
<path fill-rule="evenodd" clip-rule="evenodd" d="M6.50012 2C6.50012 3.10457 5.60469 4 4.50012 4C3.39555 4 2.50012 3.10457 2.50012 2C2.50012 0.895431 3.39555 0 4.50012 0C5.60469 0 6.50012 0.895431 6.50012 2ZM7.50012 11.5005C7.50012 12.6051 6.60469 13.5005 5.50012 13.5005C4.39555 13.5005 3.50012 12.6051 3.50012 11.5005C3.50012 10.3959 4.39555 9.50049 5.50012 9.50049C6.60469 9.50049 7.50012 10.3959 7.50012 11.5005ZM8.49988 8.50049C9.60445 8.50049 10.4999 7.60506 10.4999 6.50049C10.4999 5.39592 9.60445 4.50049 8.49988 4.50049C7.39531 4.50049 6.49988 5.39592 6.49988 6.50049C6.49988 7.60506 7.39531 8.50049 8.49988 8.50049Z" fill="#101010"/>
</g>
<defs>
<clipPath id="clip0_1222_11617">
<rect width="14" height="14" fill="white"/>
</clipPath>
</defs>
</svg>
