<svg width="14" height="14" viewBox="0 0 14 14" fill="none" xmlns="http://www.w3.org/2000/svg">
<g clip-path="url(#clip0_1222_11602)">
<path d="M13.7613 7.5487C13.9014 7.40846 13.98 7.21836 13.98 7.02016C13.98 6.82196 13.9014 6.63186 13.7613 6.49162L11.7668 4.49713C11.6652 4.40019 11.5384 4.33382 11.4008 4.3056C11.2632 4.27738 11.1205 4.28846 10.989 4.33757C10.8451 4.38689 10.7199 4.47947 10.6307 4.60265C10.5414 4.72582 10.4924 4.87357 10.4903 5.02567V6.02291C10.4903 6.08904 10.4641 6.15245 10.4173 6.1992C10.3706 6.24596 10.3072 6.27223 10.241 6.27223H7.99723C7.93111 6.27223 7.86769 6.24596 7.82094 6.1992C7.77418 6.15245 7.74792 6.08904 7.74792 6.02291V3.77911C7.74792 3.71299 7.77418 3.64958 7.82094 3.60282C7.86769 3.55607 7.93111 3.5298 7.99723 3.5298H8.99447C9.14657 3.52774 9.29432 3.47873 9.41749 3.38947C9.54067 3.30022 9.63325 3.17508 9.68257 3.03118C9.74008 2.89442 9.75561 2.74365 9.7272 2.59803C9.69879 2.45242 9.62771 2.31855 9.52301 2.21344L7.52852 0.218949C7.38829 0.0788858 7.19819 0.000213623 6.99998 0.000213623C6.80178 0.000213623 6.61168 0.0788858 6.47144 0.218949L4.47695 2.21344C4.37225 2.31855 4.30118 2.45242 4.27277 2.59803C4.24436 2.74365 4.25989 2.89442 4.31739 3.03118C4.36672 3.17508 4.4593 3.30022 4.58247 3.38947C4.70565 3.47873 4.85339 3.52774 5.00549 3.5298H6.00274C6.06886 3.5298 6.13227 3.55607 6.17903 3.60282C6.22578 3.64958 6.25205 3.71299 6.25205 3.77911V6.02291C6.25205 6.08904 6.22578 6.15245 6.17903 6.1992C6.13227 6.24596 6.06886 6.27223 6.00274 6.27223H3.75894C3.69282 6.27223 3.6294 6.24596 3.58265 6.1992C3.53589 6.15245 3.50963 6.08904 3.50963 6.02291V5.02567C3.5095 4.87784 3.46556 4.73336 3.38337 4.61048C3.30117 4.48761 3.18441 4.39184 3.04783 4.33529C2.91124 4.27873 2.76096 4.26392 2.61596 4.29273C2.47096 4.32153 2.33775 4.39266 2.23315 4.49713L0.238664 6.49162C0.0986002 6.63186 0.019928 6.82196 0.019928 7.02016C0.019928 7.21836 0.0986002 7.40846 0.238664 7.5487L2.23315 9.54319C2.37448 9.68169 2.56383 9.76028 2.76169 9.76258C2.84762 9.75714 2.93196 9.73689 3.011 9.70275C3.1549 9.65343 3.28004 9.56084 3.3693 9.43767C3.45855 9.3145 3.50757 9.16675 3.50963 9.01465V8.0174C3.50963 7.95128 3.53589 7.88787 3.58265 7.84111C3.6294 7.79436 3.69282 7.76809 3.75894 7.76809H6.00274C6.06886 7.76809 6.13227 7.79436 6.17903 7.84111C6.22578 7.88787 6.25205 7.95128 6.25205 8.0174V10.2612C6.25205 10.3273 6.22578 10.3907 6.17903 10.4375C6.13227 10.4842 6.06886 10.5105 6.00274 10.5105H5.00549C4.8581 10.5095 4.71379 10.5527 4.59115 10.6344C4.46851 10.7162 4.37316 10.8328 4.31739 10.9692C4.25989 11.106 4.24436 11.2568 4.27277 11.4024C4.30118 11.548 4.37225 11.6819 4.47695 11.787L6.47144 13.7815C6.61168 13.9215 6.80178 14.0002 6.99998 14.0002C7.19819 14.0002 7.38829 13.9215 7.52852 13.7815L9.52301 11.787C9.61995 11.6854 9.68632 11.5585 9.71454 11.421C9.74276 11.2834 9.73168 11.1407 9.68257 11.0091C9.63325 10.8652 9.54067 10.7401 9.41749 10.6508C9.29432 10.5616 9.14657 10.5126 8.99447 10.5105H7.99723C7.93111 10.5105 7.86769 10.4842 7.82094 10.4375C7.77418 10.3907 7.74792 10.3273 7.74792 10.2612V8.0174C7.74792 7.95128 7.77418 7.88787 7.82094 7.84111C7.86769 7.79436 7.93111 7.76809 7.99723 7.76809H10.241C10.3072 7.76809 10.3706 7.79436 10.4173 7.84111C10.4641 7.88787 10.4903 7.95128 10.4903 8.0174V9.01465C10.4893 9.16204 10.5325 9.30635 10.6143 9.42899C10.696 9.55163 10.8126 9.64698 10.9491 9.70275C11.0405 9.74171 11.1389 9.76206 11.2383 9.76258C11.4361 9.76028 11.6255 9.68169 11.7668 9.54319L13.7613 7.5487Z" fill="#FFE453"/>
</g>
<defs>
<clipPath id="clip0_1222_11602">
<rect width="14" height="14" fill="white"/>
</clipPath>
</defs>
</svg>
