<svg width="14" height="14" viewBox="0 0 14 14" fill="none" xmlns="http://www.w3.org/2000/svg">
<path fill-rule="evenodd" clip-rule="evenodd" d="M11.1089 3.15527C11.1089 2.85192 10.9261 2.57845 10.6459 2.46236C10.3656 2.34627 10.043 2.41044 9.82855 2.62494L7.91542 4.53807C7.78516 4.66534 7.70107 4.83967 7.69063 5.03356C7.68852 5.07186 7.68934 5.11041 7.69316 5.14887C7.70525 5.27172 7.74697 5.38588 7.8111 5.48407C7.92395 5.65691 8.10619 5.78033 8.31827 5.8148C8.35793 5.82129 8.39845 5.82464 8.43951 5.82464H10.3556L10.3733 5.82506C10.3922 5.82556 10.4206 5.82642 10.4561 5.82785C10.5275 5.83072 10.6258 5.83578 10.7334 5.84447C10.9764 5.86409 11.1709 5.8955 11.2496 5.92374C11.5117 6.01791 11.7497 6.16887 11.9467 6.36581C12.1436 6.56275 12.2946 6.80081 12.3888 7.06293C12.4829 7.32505 12.518 7.60475 12.4914 7.882C12.4868 7.92963 12.4868 7.97758 12.4914 8.02521C12.518 8.30246 12.4829 8.58216 12.3888 8.84428C12.2946 9.1064 12.1436 9.34445 11.9467 9.5414C11.7497 9.73834 11.5117 9.8893 11.2496 9.98347C10.9874 10.0776 10.7077 10.1127 10.4305 10.0861C10.4067 10.0838 10.3828 10.0827 10.3589 10.0827C9.98941 10.0827 9.58499 9.8836 9.09364 9.39898C8.60278 8.91484 8.13224 8.25452 7.61202 7.52009L7.58952 7.48833C7.09609 6.79167 6.5544 6.02686 5.95968 5.44028C5.36417 4.85294 4.61091 4.338 3.6778 4.32481C3.19186 4.28327 2.70254 4.34709 2.2433 4.51207C1.77305 4.68101 1.34597 4.95183 0.992654 5.30515C0.639333 5.65847 0.368509 6.08555 0.199575 6.55579C0.0387444 7.00348 -0.0259484 7.47975 0.00938044 7.9536C-0.0259484 8.42745 0.0387444 8.90373 0.199575 9.35142C0.368509 9.82166 0.639333 10.2487 0.992654 10.6021C1.34597 10.9554 1.77305 11.2262 2.2433 11.3951C2.70446 11.5608 3.19596 11.6245 3.6839 11.5819C4.37657 11.5628 5.04204 11.3064 5.56866 10.8551C5.88318 10.5856 5.91966 10.1121 5.65013 9.79761C5.38061 9.48308 4.90714 9.4466 4.59261 9.71613C4.32341 9.94682 3.98223 10.0765 3.62777 10.0828C3.60831 10.0831 3.58887 10.0842 3.5695 10.0861C3.29225 10.1127 3.01255 10.0776 2.75043 9.98347C2.48831 9.8893 2.25026 9.73834 2.05331 9.5414C1.85637 9.34445 1.70541 9.1064 1.61124 8.84428C1.51708 8.58216 1.48204 8.30246 1.50863 8.02521C1.5132 7.97758 1.5132 7.92963 1.50863 7.882C1.48204 7.60475 1.51708 7.32505 1.61124 7.06293C1.70541 6.80081 1.85637 6.56275 2.05331 6.36581C2.25026 6.16887 2.48831 6.01791 2.75043 5.92374C3.01255 5.82958 3.29225 5.79453 3.5695 5.82113C3.5933 5.82341 3.6172 5.82455 3.64111 5.82455C4.01059 5.82455 4.41501 6.02361 4.90636 6.50823C5.39722 6.99237 5.86776 7.65269 6.38798 8.38712L6.41048 8.41888C6.90391 9.11554 7.4456 9.88035 8.04032 10.4669C8.63583 11.0543 9.38909 11.5692 10.3222 11.5824C10.8081 11.6239 11.2975 11.5601 11.7567 11.3951C12.227 11.2262 12.654 10.9554 13.0073 10.6021C13.3607 10.2487 13.6315 9.82166 13.8004 9.35142C13.9613 8.90373 14.0259 8.42745 13.9906 7.9536C14.0259 7.47975 13.9613 7.00348 13.8004 6.55579C13.6315 6.08555 13.3607 5.65847 13.0073 5.30515C12.654 4.95183 12.227 4.68101 11.7567 4.51207C11.5584 4.44084 11.3173 4.39958 11.1089 4.37454V3.15527Z" fill="#FFE453"/>
</svg>
