<svg width="14" height="14" viewBox="0 0 14 14" fill="none" xmlns="http://www.w3.org/2000/svg">
<path fill-rule="evenodd" clip-rule="evenodd" d="M3 13C3 12.4477 3.44772 12 4 12H10C10.5523 12 11 12.4477 11 13C11 13.5523 10.5523 14 10 14H4C3.44772 14 3 13.5523 3 13Z" fill="#101010"/>
<path fill-rule="evenodd" clip-rule="evenodd" d="M8 1C8 0.447715 7.55228 0 7 0C6.44771 0 6 0.447715 6 1V6H4C3.79777 6 3.61545 6.12182 3.53806 6.30866C3.46067 6.4955 3.50345 6.71055 3.64645 6.85355L6.64645 9.85355C6.84171 10.0488 7.15829 10.0488 7.35355 9.85355L10.3536 6.85355C10.4966 6.71055 10.5393 6.4955 10.4619 6.30866C10.3845 6.12182 10.2022 6 10 6H8V1Z" fill="#FFE453"/>
</svg>
