<svg width="14" height="14" viewBox="0 0 14 14" fill="none" xmlns="http://www.w3.org/2000/svg">
<g clip-path="url(#clip0_1222_11614)">
<path fill-rule="evenodd" clip-rule="evenodd" d="M8.45712 4H9.75002V3C9.75002 2.44772 9.3023 2 8.75002 2H5.25002C4.69773 2 4.25002 2.44772 4.25002 3V4C4.25002 4.55228 3.8023 5 3.25002 5C2.69773 5 2.25002 4.55228 2.25002 4V3C2.25002 1.34315 3.59316 0 5.25002 0H8.75002C10.4069 0 11.75 1.34315 11.75 3V4H13.0429C13.4883 4 13.7114 4.53857 13.3964 4.85355L11.1035 7.14645C10.9083 7.34171 10.5917 7.34171 10.3964 7.14645L8.10357 4.85355C7.78859 4.53857 8.01167 4 8.45712 4ZM2.25002 10H0.957119C0.511666 10 0.288582 9.46143 0.603564 9.14645L2.89646 6.85355C3.09173 6.65829 3.40831 6.65829 3.60357 6.85355L5.89646 9.14645C6.21145 9.46143 5.98836 10 5.54291 10H4.25002V11C4.25002 11.5523 4.69773 12 5.25002 12H8.75002C9.3023 12 9.75002 11.5523 9.75002 11V10C9.75002 9.44771 10.1977 9 10.75 9C11.3023 9 11.75 9.44771 11.75 10V11C11.75 12.6569 10.4069 14 8.75002 14H5.25002C3.59316 14 2.25002 12.6569 2.25002 11V10Z" fill="#FFE453"/>
</g>
<defs>
<clipPath id="clip0_1222_11614">
<rect width="14" height="14" fill="white"/>
</clipPath>
</defs>
</svg>
