<svg width="14" height="14" viewBox="0 0 14 14" fill="none" xmlns="http://www.w3.org/2000/svg">
<path fill-rule="evenodd" clip-rule="evenodd" d="M5.35099 1.00247C5.35099 0.699116 5.16826 0.425639 4.888 0.309553C4.60774 0.193468 4.28516 0.257635 4.07066 0.472133L1.67164 2.87116C1.37874 3.16405 1.37874 3.63892 1.67164 3.93181L4.07066 6.33084C4.28516 6.54534 4.60774 6.60951 4.888 6.49342C5.16826 6.37734 5.35099 6.10386 5.35099 5.80051V4.40139H7.00001C9.09761 4.40139 10.7981 6.10184 10.7981 8.19944C10.7981 10.297 9.09761 11.9975 7.00001 11.9975C4.90241 11.9975 3.20197 10.297 3.20197 8.19944C3.20197 7.64715 2.75425 7.19944 2.20197 7.19944C1.64968 7.19944 1.20197 7.64715 1.20197 8.19944C1.20197 11.4016 3.79784 13.9975 7.00001 13.9975C10.2022 13.9975 12.7981 11.4016 12.7981 8.19944C12.7981 4.99727 10.2022 2.40139 7.00001 2.40139H5.35099V1.00247Z" fill="#FFE453"/>
</svg>
