<svg width="14" height="14" viewBox="0 0 14 14" fill="none" xmlns="http://www.w3.org/2000/svg">
<g clip-path="url(#clip0_1222_11645)">
<path fill-rule="evenodd" clip-rule="evenodd" d="M7.96179 1.5H6.03871C5.6245 1.5 5.28871 1.16421 5.28871 0.75C5.28871 0.335786 5.6245 0 6.03871 0H7.96179C8.376 0 8.71179 0.335787 8.71179 0.75C8.71179 1.16421 8.376 1.5 7.96179 1.5ZM7.96179 12.5C8.376 12.5 8.71179 12.8358 8.71179 13.25C8.71179 13.6642 8.376 14 7.96179 14H6.03871C5.6245 14 5.28871 13.6642 5.28871 13.25C5.28871 12.8358 5.6245 12.5 6.03871 12.5H7.96179ZM10.4065 0.654071C10.297 1.05356 10.5321 1.46615 10.9316 1.57563C11.6313 1.76737 12.1891 2.30841 12.4041 2.99873C12.5273 3.39421 12.9477 3.61494 13.3432 3.49176C13.7387 3.36858 13.9594 2.94813 13.8362 2.55266C13.4696 1.37557 12.5224 0.456293 11.328 0.128964C10.9285 0.019488 10.5159 0.254586 10.4065 0.654071ZM3.59377 0.654132C3.70324 1.05362 3.46815 1.46621 3.06866 1.57569C2.36897 1.76743 1.81115 2.30847 1.59613 2.99879C1.47295 3.39427 1.0525 3.615 0.657029 3.49182C0.261555 3.36864 0.0408174 2.94819 0.163997 2.55272C0.530631 1.37563 1.47777 0.456354 2.67221 0.129025C3.0717 0.019549 3.48429 0.254647 3.59377 0.654132ZM13.2502 5.28845C12.836 5.28845 12.5002 5.62424 12.5002 6.03845V7.96153C12.5002 8.37574 12.836 8.71153 13.2502 8.71153C13.6644 8.71153 14.0002 8.37574 14.0002 7.96153V6.03845C14.0002 5.62424 13.6644 5.28845 13.2502 5.28845ZM1.5 6.03845C1.5 5.62424 1.16421 5.28845 0.75 5.28845C0.335786 5.28845 -1.56e-07 5.62424 0 6.03845L5.85002e-07 7.96153C7.40002e-07 8.37574 0.335787 8.71153 0.75 8.71153C1.16421 8.71153 1.5 8.37574 1.5 7.96153V6.03845ZM13.3432 10.5083C12.9477 10.3851 12.5273 10.6059 12.4041 11.0013C12.1891 11.6916 11.6313 12.2327 10.9316 12.4244C10.5321 12.5339 10.297 12.9465 10.4065 13.346C10.5159 13.7455 10.9285 13.9806 11.328 13.8711C12.5224 13.5438 13.4696 12.6245 13.8362 11.4474C13.9594 11.0519 13.7387 10.6315 13.3432 10.5083ZM1.59613 11.0013C1.47295 10.6059 1.0525 10.3851 0.657029 10.5083C0.261555 10.6315 0.0408174 11.0519 0.163997 11.4474C0.53063 12.6245 1.47777 13.5438 2.67221 13.8711C3.0717 13.9806 3.48429 13.7455 3.59377 13.346C3.70324 12.9465 3.46815 12.5339 3.06866 12.4244C2.36897 12.2327 1.81115 11.6916 1.59613 11.0013Z" fill="#FFE453"/>
<path fill-rule="evenodd" clip-rule="evenodd" d="M9.46195 6.19134C9.38456 6.37818 9.20225 6.5 9.00001 6.5H7.75001V10C7.75001 10.4142 7.41423 10.75 7.00001 10.75C6.5858 10.75 6.25001 10.4142 6.25001 10V6.5H5.00001C4.79778 6.5 4.61547 6.37818 4.53807 6.19134C4.46068 6.0045 4.50346 5.78945 4.64646 5.64645L6.64646 3.64645C6.74023 3.55268 6.86741 3.5 7.00001 3.5C7.13262 3.5 7.2598 3.55268 7.35357 3.64645L9.35357 5.64645C9.49657 5.78945 9.53934 6.00451 9.46195 6.19134Z" fill="#101010"/>
</g>
<defs>
<clipPath id="clip0_1222_11645">
<rect width="14" height="14" fill="white"/>
</clipPath>
</defs>
</svg>
