<svg width="14" height="14" viewBox="0 0 14 14" fill="none" xmlns="http://www.w3.org/2000/svg">
<g clip-path="url(#clip0_1222_11575)">
<path fill-rule="evenodd" clip-rule="evenodd" d="M9.03806 0.308658C9.11545 0.121821 9.29777 0 9.5 0H13.5C13.7761 0 14 0.223858 14 0.5V4.5C14 4.70223 13.8782 4.88455 13.6913 4.96194C13.5045 5.03933 13.2894 4.99655 13.1464 4.85355L11.8535 3.56063L1.70711 13.7072C1.31659 14.0978 0.683429 14.0978 0.2929 13.7073C-0.0976278 13.3167 -0.0976342 12.6836 0.292886 12.293L10.4393 2.14642L9.14645 0.853553C9.00345 0.710554 8.96067 0.495495 9.03806 0.308658Z" fill="#101010"/>
<path fill-rule="evenodd" clip-rule="evenodd" d="M0 0.999827V0.5C0 0.223858 0.223858 0 0.5 0H0.999827C0.999717 0 0.999942 0 0.999827 0H4.5C4.70223 0 4.88455 0.121821 4.96194 0.308658C5.03933 0.495495 4.99655 0.710554 4.85355 0.853553L3.56066 2.14645L13.7071 12.2929C14.0976 12.6834 14.0976 13.3166 13.7071 13.7071C13.3166 14.0976 12.6834 14.0976 12.2929 13.7071L2.14645 3.56066L0.853553 4.85355C0.710554 4.99655 0.495495 5.03933 0.308658 4.96194C0.121821 4.88455 0 4.70223 0 4.5V0.999827C0 0.999942 0 0.999717 0 0.999827Z" fill="#FFE453"/>
</g>
<defs>
<clipPath id="clip0_1222_11575">
<rect width="14" height="14" fill="white"/>
</clipPath>
</defs>
</svg>
