<svg width="14" height="14" viewBox="0 0 14 14" fill="none" xmlns="http://www.w3.org/2000/svg">
<g clip-path="url(#clip0_1222_11608)">
<path fill-rule="evenodd" clip-rule="evenodd" d="M4 5.54293V4.25004H3C2.44771 4.25004 2 4.69775 2 5.25004V8.75004C2 9.30232 2.44772 9.75004 3 9.75004H4C4.55228 9.75004 5 10.1978 5 10.75C5 11.3023 4.55228 11.75 4 11.75H3C1.34315 11.75 2.25414e-07 10.4069 1.5299e-07 8.75004L0 5.25004C-7.2423e-08 3.59318 1.34314 2.25004 3 2.25004H4V0.95715C4 0.511697 4.53857 0.288613 4.85355 0.603595L7.14645 2.89649C7.34171 3.09175 7.34171 3.40833 7.14645 3.60359L4.85355 5.89649C4.53857 6.21147 4 5.98838 4 5.54293ZM10 11.75V13.0429C10 13.4884 9.46143 13.7115 9.14645 13.3965L6.85355 11.1036C6.65829 10.9083 6.65829 10.5918 6.85355 10.3965L9.14645 8.10359C9.46143 7.78861 10 8.01169 10 8.45715V9.75004H11C11.5523 9.75004 12 9.30232 12 8.75004V5.25004C12 4.69775 11.5523 4.25004 11 4.25004H10C9.44771 4.25004 9 3.80232 9 3.25004C9 2.69775 9.44771 2.25004 10 2.25004H11C12.6569 2.25004 14 3.59318 14 5.25004V8.75004C14 10.4069 12.6569 11.75 11 11.75H10Z" fill="#FFE453"/>
</g>
<defs>
<clipPath id="clip0_1222_11608">
<rect width="14" height="14" fill="white"/>
</clipPath>
</defs>
</svg>
