<svg width="14" height="14" viewBox="0 0 14 14" fill="none" xmlns="http://www.w3.org/2000/svg">
<g clip-path="url(#clip0_1222_11585)">
<path fill-rule="evenodd" clip-rule="evenodd" d="M4.80751 1.51523C4.01084 1.51523 3.36502 2.16105 3.36502 2.95772V8.5701H4.61502C4.81725 8.5701 4.99957 8.69192 5.07696 8.87876C5.15435 9.06559 5.11157 9.28065 4.96857 9.42365L3.36502 11.0272V11.0423H3.34997L2.96857 11.4237C2.87481 11.5174 2.74763 11.5701 2.61502 11.5701C2.48241 11.5701 2.35524 11.5174 2.26147 11.4237L1.88007 11.0423H1.86502V11.0272L0.261467 9.42365C0.118468 9.28065 0.0756898 9.06559 0.15308 8.87876C0.230471 8.69192 0.412789 8.5701 0.61502 8.5701H1.86502V2.95772C1.86502 1.33263 3.18242 0.0152283 4.80751 0.0152283C6.4326 0.0152283 7.75 1.33263 7.75 2.95772L7.74997 11.0423C7.74997 11.8389 8.39579 12.4847 9.19246 12.4847C9.98912 12.4847 10.6349 11.8389 10.6349 11.0423V5.36771H9.38498C9.18275 5.36771 9.00043 5.24589 8.92304 5.05905C8.84565 4.87221 8.88843 4.65715 9.03142 4.51415L11.0314 2.51415C11.1252 2.42038 11.2524 2.36771 11.385 2.36771C11.5176 2.36771 11.6448 2.42038 11.7385 2.51415L13.7385 4.51415C13.8815 4.65715 13.9243 4.87221 13.8469 5.05905C13.7695 5.24589 13.5872 5.36771 13.385 5.36771H12.1349V11.0423C12.1349 12.6673 10.8176 13.9847 9.19246 13.9847C7.56737 13.9847 6.24997 12.6673 6.24997 11.0423L6.25 2.95772C6.25 2.16105 5.60417 1.51523 4.80751 1.51523Z" fill="#FFE453"/>
</g>
<defs>
<clipPath id="clip0_1222_11585">
<rect width="14" height="14" fill="white"/>
</clipPath>
</defs>
</svg>
