<svg width="14" height="14" viewBox="0 0 14 14" fill="none" xmlns="http://www.w3.org/2000/svg">
<path fill-rule="evenodd" clip-rule="evenodd" d="M8.64904 1.00247C8.64904 0.699116 8.83177 0.425639 9.11203 0.309553C9.39227 0.193468 9.71486 0.257635 9.92937 0.472133L12.3284 2.87116C12.6213 3.16405 12.6213 3.63892 12.3284 3.93181L9.92937 6.33084C9.71486 6.54534 9.39227 6.60951 9.11203 6.49342C8.83177 6.37734 8.64904 6.10386 8.64904 5.80051V4.40139H7.00002C4.90242 4.40139 3.20197 6.10184 3.20197 8.19944C3.20197 10.297 4.90242 11.9975 7.00002 11.9975C9.09762 11.9975 10.7981 10.297 10.7981 8.19944C10.7981 7.64715 11.2458 7.19944 11.7981 7.19944C12.3503 7.19944 12.7981 7.64715 12.7981 8.19944C12.7981 11.4016 10.2022 13.9975 7.00002 13.9975C3.79785 13.9975 1.20197 11.4016 1.20197 8.19944C1.20197 4.99727 3.79785 2.40139 7.00002 2.40139H8.64904V1.00247Z" fill="#FFE453"/>
</svg>
