<svg width="14" height="14" viewBox="0 0 14 14" fill="none" xmlns="http://www.w3.org/2000/svg">
<g clip-path="url(#clip0_1222_11560)">
<path fill-rule="evenodd" clip-rule="evenodd" d="M13.7071 1.70711C14.0976 1.31658 14.0976 0.683417 13.7071 0.292893C13.3166 -0.0976311 12.6834 -0.097631 12.2929 0.292893L2.14645 10.4393L0.853553 9.14645C0.710554 9.00345 0.495495 8.96067 0.308658 9.03806C0.121821 9.11545 0 9.29777 0 9.5V13.5C0 13.7761 0.223858 14 0.5 14H4.5C4.70223 14 4.88455 13.8782 4.96194 13.6913C5.03933 13.5045 4.99655 13.2894 4.85355 13.1464L3.56066 11.8536L13.7071 1.70711Z" fill="#101010"/>
<path fill-rule="evenodd" clip-rule="evenodd" d="M1.70711 0.292893C1.31658 -0.097631 0.683417 -0.097631 0.292893 0.292893C-0.097631 0.683417 -0.097631 1.31658 0.292893 1.70711L10.4393 11.8536L9.14645 13.1464C9.00345 13.2894 8.96067 13.5045 9.03806 13.6913C9.11545 13.8782 9.29777 14 9.5 14H12.9993H13.0007H13.5C13.7761 14 14 13.7761 14 13.5V13.0007V12.9993V9.5C14 9.29777 13.8782 9.11545 13.6913 9.03806C13.5045 8.96067 13.2894 9.00345 13.1464 9.14645L11.8536 10.4393L1.70711 0.292893Z" fill="#FFE453"/>
</g>
<defs>
<clipPath id="clip0_1222_11560">
<rect width="14" height="14" fill="white"/>
</clipPath>
</defs>
</svg>
