<svg width="14" height="14" viewBox="0 0 14 14" fill="none" xmlns="http://www.w3.org/2000/svg">
<g clip-path="url(#clip0_1222_11568)">
<path fill-rule="evenodd" clip-rule="evenodd" d="M0.292893 0.292893C0.683417 -0.097631 1.31658 -0.097631 1.70711 0.292893L11.8536 10.4393L13.1464 9.14645C13.2894 9.00345 13.5045 8.96067 13.6913 9.03806C13.8782 9.11545 14 9.29777 14 9.5V13.5C14 13.7761 13.7761 14 13.5 14H9.5C9.29777 14 9.11545 13.8782 9.03806 13.6913C8.96067 13.5045 9.00345 13.2894 9.14645 13.1464L10.4393 11.8536L0.292893 1.70711C-0.097631 1.31658 -0.097631 0.683417 0.292893 0.292893Z" fill="#101010"/>
<path fill-rule="evenodd" clip-rule="evenodd" d="M13.5 0H13.0002H9.5C9.29777 0 9.11545 0.121821 9.03806 0.308658C8.96067 0.495495 9.00345 0.710554 9.14645 0.853553L10.4393 2.14645L0.292893 12.2929C-0.097631 12.6834 -0.097631 13.3166 0.292893 13.7071C0.683417 14.0976 1.31658 14.0976 1.70711 13.7071L11.8536 3.56066L13.1464 4.85355C13.2894 4.99655 13.5045 5.03933 13.6913 4.96194C13.8782 4.88455 14 4.70223 14 4.5V1.00069V0.999307V0.5C14 0.223858 13.7761 0 13.5 0Z" fill="#FFE453"/>
</g>
<defs>
<clipPath id="clip0_1222_11568">
<rect width="14" height="14" fill="white"/>
</clipPath>
</defs>
</svg>
