<svg width="14" height="14" viewBox="0 0 14 14" fill="none" xmlns="http://www.w3.org/2000/svg">
<path fill-rule="evenodd" clip-rule="evenodd" d="M6.50005 4C6.50005 2.89543 7.39548 2 8.50005 2H11C11.5523 2 12 1.55228 12 1C12 0.447715 11.5523 0 11 0H8.50005C6.29091 0 4.50005 1.79086 4.50005 4V10H2.50005C2.29781 10 2.1155 10.1218 2.03811 10.3087C1.96071 10.4955 2.00349 10.7106 2.14649 10.8536L5.14649 13.8536C5.24026 13.9473 5.36744 14 5.50005 14C5.63265 14 5.75983 13.9473 5.8536 13.8536L8.8536 10.8536C8.9966 10.7106 9.03938 10.4955 8.96199 10.3087C8.88459 10.1218 8.70228 10 8.50005 10H6.50004L6.50005 4Z" fill="#FFE453"/>
</svg>
