<svg width="14" height="14" viewBox="0 0 14 14" fill="none" xmlns="http://www.w3.org/2000/svg">
<g clip-path="url(#clip0_1222_11595)">
<path fill-rule="evenodd" clip-rule="evenodd" d="M6.03847 12.5H7.96154C8.37576 12.5 8.71154 12.8358 8.71154 13.25C8.71154 13.6642 8.37576 14 7.96154 14H6.03847C5.62425 14 5.28847 13.6642 5.28847 13.25C5.28847 12.8358 5.62425 12.5 6.03847 12.5ZM6.03847 1.5C5.62425 1.5 5.28847 1.16421 5.28847 0.75C5.28847 0.335787 5.62425 0 6.03847 0H7.96154C8.37576 0 8.71154 0.335787 8.71154 0.75C8.71154 1.16421 8.37576 1.5 7.96154 1.5H6.03847ZM10.4065 13.3459C10.297 12.9464 10.5321 12.5338 10.9316 12.4243C11.6313 12.2326 12.1891 11.6915 12.4041 11.0012C12.5273 10.6057 12.9477 10.385 13.3432 10.5082C13.7387 10.6314 13.9594 11.0518 13.8362 11.4473C13.4696 12.6244 12.5224 13.5436 11.328 13.871C10.9285 13.9805 10.5159 13.7454 10.4065 13.3459ZM3.59375 13.3459C3.70323 12.9464 3.46813 12.5339 3.06865 12.4244C2.36895 12.2326 1.81113 11.6916 1.59612 11.0013C1.47294 10.6058 1.05249 10.3851 0.657014 10.5082C0.26154 10.6314 0.0408022 11.0519 0.163982 11.4473C0.530616 12.6244 1.47776 13.5437 2.6722 13.871C3.07168 13.9805 3.48428 13.7454 3.59375 13.3459ZM0.75 8.71155C1.16421 8.71155 1.5 8.37576 1.5 7.96155V6.03847C1.5 5.62426 1.16421 5.28847 0.75 5.28847C0.335787 5.28847 7.40002e-07 5.62426 5.85002e-07 6.03847L0 7.96155C-1.56e-07 8.37576 0.335786 8.71155 0.75 8.71155ZM12.5002 7.96155C12.5002 8.37576 12.836 8.71155 13.2502 8.71155C13.6644 8.71155 14.0002 8.37576 14.0002 7.96155V6.03847C14.0002 5.62426 13.6644 5.28847 13.2502 5.28847C12.836 5.28847 12.5002 5.62426 12.5002 6.03847V7.96155ZM0.657014 3.4917C1.05249 3.61488 1.47294 3.39415 1.59612 2.99867C1.81113 2.30835 2.36895 1.76731 3.06865 1.57556C3.46813 1.46609 3.70323 1.05349 3.59375 0.654009C3.48428 0.254524 3.07168 0.0194265 2.6722 0.128903C1.47776 0.456232 0.530615 1.37551 0.163982 2.5526C0.0408021 2.94807 0.26154 3.36852 0.657014 3.4917ZM12.4041 2.99867C12.5273 3.39415 12.9477 3.61488 13.3432 3.4917C13.7387 3.36852 13.9594 2.94807 13.8362 2.5526C13.4696 1.37551 12.5224 0.456232 11.328 0.128903C10.9285 0.0194265 10.5159 0.254524 10.4065 0.654009C10.297 1.05349 10.5321 1.46609 10.9316 1.57556C11.6313 1.76731 12.1891 2.30835 12.4041 2.99867Z" fill="#FFE453"/>
<path fill-rule="evenodd" clip-rule="evenodd" d="M7.00001 3.25C7.41423 3.25 7.75001 3.58579 7.75001 4V7.5H9.00001C9.20225 7.5 9.38456 7.62182 9.46195 7.80866C9.53935 7.9955 9.49657 8.21055 9.35357 8.35355L7.35357 10.3536C7.2598 10.4473 7.13262 10.5 7.00001 10.5C6.86741 10.5 6.74023 10.4473 6.64646 10.3536L4.64646 8.35355C4.50346 8.21055 4.46068 7.9955 4.53807 7.80866C4.61547 7.62182 4.79778 7.5 5.00001 7.5H6.25001V4C6.25001 3.58579 6.5858 3.25 7.00001 3.25Z" fill="#101010"/>
</g>
<defs>
<clipPath id="clip0_1222_11595">
<rect width="14" height="14" fill="white"/>
</clipPath>
</defs>
</svg>
