<svg width="14" height="14" viewBox="0 0 14 14" fill="none" xmlns="http://www.w3.org/2000/svg">
<g clip-path="url(#clip0_1222_11649)">
<path fill-rule="evenodd" clip-rule="evenodd" d="M11.1668 0C11.581 0 11.9168 0.335786 11.9168 0.75V5H12.8335C13.2477 5 13.5835 5.33579 13.5835 5.75C13.5835 6.16421 13.2477 6.5 12.8335 6.5H9.50014C9.08593 6.5 8.75014 6.16421 8.75014 5.75C8.75014 5.33579 9.08593 5 9.50014 5H10.4168V2.68699C10.257 2.72812 10.0894 2.75 9.91679 2.75H9.50012C9.08591 2.75 8.75012 2.41421 8.75012 2C8.75012 1.58579 9.08591 1.25 9.50012 1.25H9.91679C10.1929 1.25 10.4168 1.02614 10.4168 0.75C10.4168 0.335786 10.7526 0 11.1668 0ZM10.4221 10.0938H11.0784C11.4478 10.0938 11.7475 9.79564 11.7502 9.42687V9.4169C11.7475 9.04812 11.4477 8.75001 11.0783 8.75001L10.4221 8.75002C10.051 8.75002 9.75024 9.05083 9.75024 9.42189C9.75024 9.79295 10.0511 10.0938 10.4221 10.0938ZM13.2345 9.15891C13.1047 8.08343 12.1888 7.25 11.0783 7.25001L10.4221 7.25002C9.22262 7.25002 8.25024 8.2224 8.25024 9.42188C8.25024 10.6214 9.22263 11.5938 10.4221 11.5938H11.0784C11.3128 11.5938 11.5386 11.5566 11.7502 11.4878V11.9375C11.7502 12.2482 11.4984 12.5 11.1877 12.5H10.3127C10.069 12.5 9.85961 12.3445 9.78203 12.1251C9.644 11.7345 9.21551 11.5298 8.82497 11.6679C8.43443 11.8059 8.22974 12.2344 8.36777 12.6249C8.65055 13.425 9.41352 14 10.3127 14H11.1877C12.3268 14 13.2502 13.0766 13.2502 11.9375V9.43085C13.2502 9.42786 13.2502 9.42488 13.2502 9.42189C13.2502 9.4189 13.2502 9.41591 13.2502 9.41292V9.3125C13.2502 9.25986 13.2448 9.20849 13.2345 9.15891Z" fill="#FFE453"/>
<path fill-rule="evenodd" clip-rule="evenodd" d="M4.75001 1C4.75001 0.447715 4.30229 0 3.75001 0C3.19772 0 2.75001 0.447715 2.75001 1V10H1.25001C0.94666 10 0.673182 10.1827 0.557096 10.463C0.441011 10.7432 0.505178 11.0658 0.719676 11.2803L3.21968 13.7803C3.51257 14.0732 3.98745 14.0732 4.28034 13.7803L6.78034 11.2803C6.99484 11.0658 7.059 10.7432 6.94292 10.463C6.82683 10.1827 6.55336 10 6.25001 10H4.75001V1Z" fill="#101010"/>
</g>
<defs>
<clipPath id="clip0_1222_11649">
<rect width="14" height="14" fill="white"/>
</clipPath>
</defs>
</svg>
