<svg width="14" height="14" viewBox="0 0 14 14" fill="none" xmlns="http://www.w3.org/2000/svg">
<g clip-path="url(#clip0_1222_11660)">
<path fill-rule="evenodd" clip-rule="evenodd" d="M3.5 0C4.05228 0 4.5 0.447715 4.5 1V2H9.50009V1C9.50009 0.447715 9.94781 0 10.5001 0C11.0524 0 11.5001 0.447715 11.5001 1V2H12.5C13.3284 2 14 2.67157 14 3.5V4.5H0V3.5C0 2.67157 0.671573 2 1.5 2H2.5V1C2.5 0.447715 2.94772 0 3.5 0Z" fill="#101010"/>
<path d="M0 4.5H14V12.5C14 13.3284 13.3284 14 12.5 14H1.5C0.671573 14 0 13.3284 0 12.5V4.5Z" fill="#FFE453"/>
</g>
<defs>
<clipPath id="clip0_1222_11660">
<rect width="14" height="14" fill="white"/>
</clipPath>
</defs>
</svg>
