<svg width="14" height="14" viewBox="0 0 14 14" fill="none" xmlns="http://www.w3.org/2000/svg">
<g clip-path="url(#clip0_1222_11664)">
<path d="M0 3.5C0 2.67157 0.671573 2 1.5 2H12.5C13.3284 2 14 2.67157 14 3.5V12.5C14 13.3284 13.3284 14 12.5 14H1.5C0.671573 14 0 13.3284 0 12.5V3.5Z" fill="#FFE453"/>
<path fill-rule="evenodd" clip-rule="evenodd" d="M3.5 0C4.05228 0 4.5 0.447715 4.5 1V3C4.5 3.55228 4.05228 4 3.5 4C2.94772 4 2.5 3.55228 2.5 3V1C2.5 0.447715 2.94772 0 3.5 0ZM7 0C7.55228 0 8 0.447715 8 1V3C8 3.55228 7.55228 4 7 4C6.44772 4 6 3.55228 6 3V1C6 0.447715 6.44772 0 7 0ZM11.5001 1C11.5001 0.447715 11.0524 0 10.5001 0C9.94784 0 9.50012 0.447715 9.50012 1V3C9.50012 3.55228 9.94784 4 10.5001 4C11.0524 4 11.5001 3.55228 11.5001 3V1Z" fill="#101010"/>
</g>
<defs>
<clipPath id="clip0_1222_11664">
<rect width="14" height="14" fill="white"/>
</clipPath>
</defs>
</svg>
