<svg width="14" height="14" viewBox="0 0 14 14" fill="none" xmlns="http://www.w3.org/2000/svg">
<g clip-path="url(#clip0_1222_11668)">
<path fill-rule="evenodd" clip-rule="evenodd" d="M12.9501 6.35002C13.6002 5.67591 14 4.75883 14 3.74837C14 1.6782 12.3218 0 10.2516 0C9.24138 0 8.32448 0.399657 7.65041 1.04949C7.63286 1.0641 7.61582 1.07964 7.59936 1.0961C7.58289 1.11257 7.56735 1.12961 7.55274 1.14716C6.90291 1.82123 6.50326 2.73813 6.50326 3.74837C6.50326 5.81854 8.18146 7.49674 10.2516 7.49674C11.2621 7.49674 12.1792 7.09692 12.8533 6.44685C12.8707 6.43234 12.8875 6.41693 12.9039 6.40061C12.9202 6.38429 12.9356 6.36741 12.9501 6.35002ZM12.5 3.74837C12.5 2.50663 11.4934 1.5 10.2516 1.5C9.90472 1.5 9.57617 1.57857 9.28279 1.71887L12.2811 4.71722C12.4214 4.42383 12.5 4.09528 12.5 3.74837ZM11.2205 5.77787L8.22213 2.77954C8.08182 3.07292 8.00326 3.40147 8.00326 3.74837C8.00326 4.99011 9.00989 5.99674 10.2516 5.99674C10.5985 5.99674 10.9271 5.91818 11.2205 5.77787Z" fill="#101010"/>
<path fill-rule="evenodd" clip-rule="evenodd" d="M10.5725 8.73659C10.4664 8.74332 10.3594 8.74675 10.2516 8.74675C7.49111 8.74675 5.25327 6.5089 5.25327 3.74837C5.25327 2.94207 5.44477 2.17957 5.78422 1.50479C4.66007 1.55471 3.58739 1.99335 2.77924 2.74747C1.91833 3.55081 1.42756 4.64806 1.42756 5.80014V9.57495C1.42756 9.80869 1.32837 10.0405 1.13914 10.2171C0.920338 10.4212 0.747962 10.5 0.500031 10.5C0.223888 10.5 3.05176e-05 10.7239 3.05176e-05 11C3.05176e-05 11.2761 0.223888 11.5 0.500031 11.5H11.5C11.7762 11.5 12 11.2761 12 11C12 10.7239 11.7762 10.5 11.5 10.5C11.2521 10.5 11.0797 10.4212 10.8609 10.2171C10.6717 10.0405 10.5725 9.80869 10.5725 9.57495V8.73659ZM4.99994 12.5C4.58573 12.5 4.24994 12.8358 4.24994 13.25C4.24994 13.6642 4.58573 14 4.99994 14H6.99994C7.41415 14 7.74994 13.6642 7.74994 13.25C7.74994 12.8358 7.41415 12.5 6.99994 12.5H4.99994Z" fill="#FFE453"/>
</g>
<defs>
<clipPath id="clip0_1222_11668">
<rect width="14" height="14" fill="white"/>
</clipPath>
</defs>
</svg>
