<svg width="14" height="14" viewBox="0 0 14 14" fill="none" xmlns="http://www.w3.org/2000/svg">
<g clip-path="url(#clip0_1222_11683)">
<path fill-rule="evenodd" clip-rule="evenodd" d="M8.99129 2.08371C9.62436 0.807359 10.926 0 12.3507 0H13.25C13.6642 0 14 0.335786 14 0.75C14 1.16421 13.6642 1.5 13.25 1.5H12.3507C11.4959 1.5 10.7149 1.98442 10.3351 2.75023L9.92189 3.58326C9.73784 3.95433 9.28782 4.10595 8.91674 3.92189C8.54566 3.73784 8.39405 3.28782 8.57811 2.91674L8.99129 2.08371Z" fill="#101010"/>
<path d="M6.5 14C10.0899 14 13 11.0899 13 7.5C13 3.91015 10.0899 1 6.5 1C2.91015 1 0 3.91015 0 7.5C0 11.0899 2.91015 14 6.5 14Z" fill="#FFE453"/>
<path fill-rule="evenodd" clip-rule="evenodd" d="M6.49998 5.125C5.87009 5.125 5.26602 5.37521 4.82062 5.8206C4.37522 6.266 4.125 6.87009 4.125 7.49998C4.125 7.84516 3.84518 8.12498 3.5 8.12498C3.15482 8.12498 2.875 7.84516 2.875 7.49998C2.875 6.53857 3.25692 5.61654 3.93674 4.93672C4.61656 4.2569 5.53858 3.875 6.49998 3.875C6.84516 3.875 7.12498 4.15482 7.12498 4.5C7.12498 4.84518 6.84516 5.125 6.49998 5.125Z" fill="#101010"/>
</g>
<defs>
<clipPath id="clip0_1222_11683">
<rect width="14" height="14" fill="white"/>
</clipPath>
</defs>
</svg>
