<svg width="14" height="14" viewBox="0 0 14 14" fill="none" xmlns="http://www.w3.org/2000/svg">
<g clip-path="url(#clip0_1222_11697)">
<path fill-rule="evenodd" clip-rule="evenodd" d="M7.67184 2.77865L5.47351 4.97708C5.083 5.36761 4.44983 5.36763 4.0593 4.97712C3.66876 4.5866 3.66875 3.95344 4.05926 3.5629L6.25759 1.36447C8.01883 -0.396773 10.8744 -0.396792 12.6356 1.36445C14.3969 3.12569 14.3969 5.98121 12.6356 7.74245L10.4373 9.94088C10.0468 10.3314 9.41364 10.3314 9.0231 9.94092C8.63257 9.5504 8.63255 8.91724 9.02307 8.52671L11.2214 6.32827C12.2016 5.34808 12.2016 3.75886 11.2214 2.77866C10.2412 1.79848 8.65203 1.79847 7.67184 2.77865ZM2.77868 6.25759C3.1692 6.64812 3.1692 7.28128 2.77868 7.6718C1.79849 8.652 1.79848 10.2412 2.77868 11.2214C3.75887 12.2016 5.34808 12.2016 6.32827 11.2214C6.71879 10.8309 7.35196 10.8309 7.74248 11.2214C8.13301 11.6119 8.13301 12.2451 7.74248 12.6356C5.98124 14.3969 3.12571 14.3969 1.36446 12.6356C-0.396778 10.8744 -0.396776 8.01883 1.36447 6.25759C1.75499 5.86707 2.38815 5.86707 2.77868 6.25759ZM9.19635 6.21805C9.58687 5.82753 9.58687 5.19436 9.19635 4.80384C8.80582 4.41331 8.17266 4.41331 7.78213 4.80384L6.54118 6.04479C6.15066 6.43531 6.15066 7.06848 6.54118 7.459C6.93171 7.84952 7.56487 7.84952 7.9554 7.459L9.19635 6.21805Z" fill="#FFE453"/>
<path fill-rule="evenodd" clip-rule="evenodd" d="M0.268342 0.264955C-0.0224307 0.555728 -0.0224307 1.02716 0.268342 1.31794L12.6792 13.7288C12.97 14.0196 13.4414 14.0196 13.7322 13.7288C14.0229 13.438 14.0229 12.9666 13.7322 12.6758L1.32133 0.264955C1.03055 -0.0258183 0.559115 -0.0258183 0.268342 0.264955Z" fill="#101010"/>
</g>
<defs>
<clipPath id="clip0_1222_11697">
<rect width="14" height="14" fill="white"/>
</clipPath>
</defs>
</svg>
