<svg width="14" height="14" viewBox="0 0 14 14" fill="none" xmlns="http://www.w3.org/2000/svg">
<g clip-path="url(#clip0_1222_11705)">
<path fill-rule="evenodd" clip-rule="evenodd" d="M3.5 0C4.05228 0 4.5 0.447715 4.5 1V2H9.50009V1C9.50009 0.447715 9.94781 0 10.5001 0C11.0524 0 11.5001 0.447715 11.5001 1V2H12.5C13.3284 2 14 2.67157 14 3.5V4.5H0V3.5C0 2.67157 0.671573 2 1.5 2H2.5V1C2.5 0.447715 2.94772 0 3.5 0Z" fill="#101010"/>
<path d="M0 4.5H14V12.5C14 13.3284 13.3284 14 12.5 14H1.5C0.671573 14 0 13.3284 0 12.5V4.5Z" fill="#FFE453"/>
<path fill-rule="evenodd" clip-rule="evenodd" d="M8.56274 5.82322C8.51583 5.77631 8.45218 5.74996 8.38583 5.75C8.31948 5.75004 8.25587 5.77644 8.209 5.82341L4.0862 9.95499C4.04793 9.99334 4.02316 10.0431 4.0156 10.0967L3.75245 11.9651C3.74152 12.0427 3.76757 12.1209 3.82282 12.1764C3.87807 12.2319 3.95613 12.2583 4.03373 12.2477L5.90215 11.9933C5.95631 11.986 6.00655 11.961 6.0452 11.9224L10.1768 7.79081C10.2744 7.69318 10.2744 7.53489 10.1768 7.43726L8.56274 5.82322Z" fill="#101010"/>
</g>
<defs>
<clipPath id="clip0_1222_11705">
<rect width="14" height="14" fill="white"/>
</clipPath>
</defs>
</svg>
