<svg width="14" height="14" viewBox="0 0 14 14" fill="none" xmlns="http://www.w3.org/2000/svg">
<g clip-path="url(#clip0_1222_11720)">
<path fill-rule="evenodd" clip-rule="evenodd" d="M3.5 0C4.05228 0 4.5 0.447715 4.5 1V2H9.50009V1C9.50009 0.447715 9.94781 0 10.5001 0C11.0524 0 11.5001 0.447715 11.5001 1V2H12.5C13.3284 2 14 2.67157 14 3.5V4.5H0V3.5C0 2.67157 0.671573 2 1.5 2H2.5V1C2.5 0.447715 2.94772 0 3.5 0Z" fill="#101010"/>
<path d="M0 4.5H14V12.5C14 13.3284 13.3284 14 12.5 14H1.5C0.671573 14 0 13.3284 0 12.5V4.5Z" fill="#FFE453"/>
<path d="M7.25447 6.07045C7.17419 6.02267 7.08214 5.9983 6.98874 6.00009C6.89533 6.00189 6.80429 6.02978 6.72591 6.08062C6.64843 6.13087 6.58638 6.20156 6.54659 6.28484L5.80415 7.77834L5.80295 7.78039L4.15042 8.02264L4.14669 8.02322C4.05596 8.03792 3.97103 8.07731 3.9012 8.13708C3.83137 8.19684 3.77934 8.27468 3.75081 8.36205C3.72228 8.44943 3.71835 8.54297 3.73945 8.63243C3.76055 8.72189 3.80587 8.80381 3.87045 8.86922L3.87547 8.87417L5.06984 10.0177C5.06742 10.0263 5.06546 10.0351 5.06397 10.0439L4.78802 11.6823C4.76964 11.7754 4.77805 11.8718 4.81236 11.9603C4.84736 12.0506 4.90783 12.1289 4.98642 12.1855C5.06501 12.2422 5.15834 12.2748 5.25512 12.2795C5.34986 12.2841 5.44392 12.2616 5.52635 12.2148L6.98221 11.4441C6.98672 11.4426 6.99145 11.4418 6.99623 11.4418C7.00101 11.4418 7.00575 11.4426 7.01026 11.4441L8.46611 12.2148C8.54854 12.2616 8.6426 12.2841 8.73735 12.2795C8.83412 12.2748 8.92746 12.2422 9.00605 12.1855C9.08464 12.1289 9.1451 12.0506 9.18011 11.9603C9.21396 11.8729 9.2226 11.7779 9.20515 11.686L8.9727 10.0502C8.96961 10.0285 8.96366 10.0072 8.95504 9.98708L10.1155 8.88427C10.1845 8.8197 10.2338 8.73691 10.2578 8.64545C10.2819 8.55348 10.2793 8.45655 10.2503 8.366C10.2213 8.27545 10.1672 8.19502 10.0942 8.13412C10.022 8.07388 9.93426 8.03521 9.84113 8.0225L8.19216 7.77213L8.18922 7.77152L7.44486 6.27415L7.44301 6.2705C7.40005 6.18753 7.33475 6.11824 7.25447 6.07045Z" fill="#101010"/>
</g>
<defs>
<clipPath id="clip0_1222_11720">
<rect width="14" height="14" fill="white"/>
</clipPath>
</defs>
</svg>
