<svg width="14" height="14" viewBox="0 0 14 14" fill="none" xmlns="http://www.w3.org/2000/svg">
<g clip-path="url(#clip0_1222_11735)">
<path d="M7 14C10.866 14 14 10.866 14 7C14 3.13401 10.866 0 7 0C3.13401 0 0 3.13401 0 7C0 10.866 3.13401 14 7 14Z" fill="#FFE453"/>
<path fill-rule="evenodd" clip-rule="evenodd" d="M7 3.875C7.34518 3.875 7.625 4.15482 7.625 4.5V6.77372L9.98014 9.59988C10.2011 9.86506 10.1653 10.2592 9.90012 10.4801C9.63494 10.7011 9.24084 10.6653 9.01986 10.4001L6.51986 7.40012C6.42626 7.28779 6.375 7.14621 6.375 7V4.5C6.375 4.15482 6.65482 3.875 7 3.875Z" fill="#101010"/>
</g>
<defs>
<clipPath id="clip0_1222_11735">
<rect width="14" height="14" fill="white"/>
</clipPath>
</defs>
</svg>
