<svg width="14" height="14" viewBox="0 0 14 14" fill="none" xmlns="http://www.w3.org/2000/svg">
<path d="M1.25 2.5C1.25 1.67157 1.92157 1 2.75 1H11.25C12.0784 1 12.75 1.67157 12.75 2.5V12.5C12.75 13.3284 12.0784 14 11.25 14H2.75C1.92157 14 1.25 13.3284 1.25 12.5V2.5Z" fill="#FFE453"/>
<path fill-rule="evenodd" clip-rule="evenodd" d="M4.5 1C4.5 0.447716 4.94772 0 5.5 0H8.5C9.05229 0 9.5 0.447715 9.5 1V1.5C9.5 2.05229 9.05229 2.5 8.5 2.5H5.5C4.94772 2.5 4.5 2.05229 4.5 1.5V1ZM7 5.25098C7.41421 5.25098 7.75 5.58676 7.75 6.00098V7.75098H9.5C9.91421 7.75098 10.25 8.08676 10.25 8.50098C10.25 8.91519 9.91421 9.25098 9.5 9.25098H7.75V11.001C7.75 11.4152 7.41421 11.751 7 11.751C6.58579 11.751 6.25 11.4152 6.25 11.001V9.25098H4.5C4.08579 9.25098 3.75 8.91519 3.75 8.50098C3.75 8.08676 4.08579 7.75098 4.5 7.75098H6.25V6.00098C6.25 5.58676 6.58579 5.25098 7 5.25098Z" fill="#101010"/>
</svg>
