<svg width="14" height="14" viewBox="0 0 14 14" fill="none" xmlns="http://www.w3.org/2000/svg">
<path d="M1.25 2.5C1.25 1.67157 1.92157 1 2.75 1H11.25C12.0784 1 12.75 1.67157 12.75 2.5V12.5C12.75 13.3284 12.0784 14 11.25 14H2.75C1.92157 14 1.25 13.3284 1.25 12.5V2.5Z" fill="#FFE453"/>
<path fill-rule="evenodd" clip-rule="evenodd" d="M5.5 0C4.94772 0 4.5 0.447716 4.5 1V1.5C4.5 2.05229 4.94772 2.5 5.5 2.5H8.5C9.05229 2.5 9.5 2.05229 9.5 1.5V1C9.5 0.447715 9.05229 0 8.5 0H5.5ZM10.1 6.95C10.3485 6.61863 10.2814 6.14853 9.95002 5.9C9.61865 5.65147 9.14855 5.71863 8.90002 6.05L6.32571 9.48241L5.41604 8.87596C5.0714 8.6462 4.60575 8.73933 4.37598 9.08397C4.14622 9.42862 4.23935 9.89427 4.58399 10.124L6.08399 11.124C6.41519 11.3448 6.86119 11.2684 7.10002 10.95L10.1 6.95Z" fill="#101010"/>
</svg>
