<svg width="14" height="14" viewBox="0 0 14 14" fill="none" xmlns="http://www.w3.org/2000/svg">
<path d="M1.25 2.5C1.25 1.67157 1.92157 1 2.75 1H11.25C12.0784 1 12.75 1.67157 12.75 2.5V12.5C12.75 13.3284 12.0784 14 11.25 14H2.75C1.92157 14 1.25 13.3284 1.25 12.5V2.5Z" fill="#FFE453"/>
<path fill-rule="evenodd" clip-rule="evenodd" d="M5.5 0C4.94772 0 4.5 0.447716 4.5 1V1.5C4.5 2.05229 4.94772 2.5 5.5 2.5H8.5C9.05229 2.5 9.5 2.05229 9.5 1.5V1C9.5 0.447715 9.05229 0 8.5 0H5.5ZM4.5 7.75C4.08579 7.75 3.75 8.08579 3.75 8.5C3.75 8.91421 4.08579 9.25 4.5 9.25H9.5C9.91421 9.25 10.25 8.91421 10.25 8.5C10.25 8.08579 9.91421 7.75 9.5 7.75H4.5Z" fill="#101010"/>
</svg>
