<svg width="14" height="14" viewBox="0 0 14 14" fill="none" xmlns="http://www.w3.org/2000/svg">
<g clip-path="url(#clip0_1222_11757)">
<path fill-rule="evenodd" clip-rule="evenodd" d="M5.55692 0.689231L5.09384 1.88462L3.49999 2.78923L2.22922 2.59538C2.01763 2.56666 1.80227 2.6015 1.61051 2.69546C1.41876 2.78942 1.25926 2.93826 1.1523 3.12308L0.721531 3.87692C0.611148 4.06468 0.560291 4.2815 0.575672 4.49876C0.591053 4.71602 0.67195 4.92351 0.807685 5.09385L1.61538 6.09538V7.90462L0.829223 8.90615C0.693488 9.07649 0.612592 9.28398 0.597211 9.50124C0.581829 9.7185 0.632686 9.93532 0.743069 10.1231L1.17384 10.8769C1.2808 11.0617 1.4403 11.2106 1.63205 11.3045C1.8238 11.3985 2.03916 11.4333 2.25076 11.4046L3.52153 11.2108L5.09384 12.1154L5.55692 13.3108C5.63501 13.5132 5.77241 13.6873 5.95112 13.8102C6.12983 13.9332 6.34152 13.9994 6.55845 14H7.46307C7.68001 13.9994 7.89169 13.9332 8.0704 13.8102C8.24911 13.6873 8.38651 13.5132 8.46461 13.3108L8.92768 12.1154L10.5 11.2108L11.7708 11.4046C11.9824 11.4333 12.1977 11.3985 12.3895 11.3045C12.5812 11.2106 12.7407 11.0617 12.8477 10.8769L13.2785 10.1231C13.3888 9.93532 13.4397 9.7185 13.4243 9.50124C13.4089 9.28398 13.328 9.07649 13.1923 8.90615L12.3846 7.90462V6.09538L13.1708 5.09385C13.3065 4.92351 13.3874 4.71602 13.4028 4.49876C13.4182 4.2815 13.3673 4.06468 13.2569 3.87692L12.8261 3.12308C12.7192 2.93826 12.5597 2.78942 12.3679 2.69546C12.1762 2.6015 11.9608 2.56666 11.7492 2.59538L10.4785 2.78923L8.90615 1.88462L8.44307 0.689231C8.36497 0.486838 8.22757 0.31275 8.04886 0.189767C7.87015 0.0667842 7.65847 0.00064083 7.44153 0H6.55845C6.34152 0.00064083 6.12983 0.0667842 5.95112 0.189767C5.77241 0.31275 5.63501 0.486838 5.55692 0.689231ZM7 9.25C8.24264 9.25 9.25 8.24264 9.25 7C9.25 5.75736 8.24264 4.75 7 4.75C5.75736 4.75 4.75 5.75736 4.75 7C4.75 8.24264 5.75736 9.25 7 9.25Z" fill="#FFE453"/>
</g>
<defs>
<clipPath id="clip0_1222_11757">
<rect width="14" height="14" fill="white"/>
</clipPath>
</defs>
</svg>
