<svg width="14" height="14" viewBox="0 0 14 14" fill="none" xmlns="http://www.w3.org/2000/svg">
<g clip-path="url(#clip0_1222_11767)">
<path d="M14 12.5V9.5C14 9.10218 13.842 8.72064 13.5607 8.43934C13.2794 8.15804 12.8978 8 12.5 8H3C2.20435 8 1.44129 8.31607 0.878679 8.87868C0.600104 9.15726 0.379126 9.48797 0.228361 9.85195C0.0775967 10.2159 1.72208e-08 10.606 0 11C-3.47789e-08 11.7956 0.31607 12.5587 0.878679 13.1213C1.44129 13.6839 2.20435 14 3 14H12.5C12.8978 14 13.2794 13.842 13.5607 13.5607C13.842 13.2794 14 12.8978 14 12.5Z" fill="#FFE453"/>
<path d="M12.3388 3.78258L10.2175 1.66126C9.93621 1.37996 9.55468 1.22192 9.15686 1.22192C8.75903 1.22192 8.3775 1.37996 8.09619 1.66126L0.87868 8.87878C0.316071 9.44139 3.79322e-07 10.2045 0 11.0001C4.21468e-07 11.3941 0.0775974 11.7842 0.228361 12.1482C0.379125 12.5121 0.600104 12.8428 0.87868 13.1214C1.44129 13.684 2.20435 14.0001 3 14.0001C3.79565 14.0001 4.55871 13.684 5.12132 13.1214L12.3388 5.9039C12.6201 5.6226 12.7782 5.24107 12.7782 4.84324C12.7782 4.44542 12.6201 4.06389 12.3388 3.78258Z" fill="#101010"/>
<path d="M4.5 0H1.5C1.10218 0 0.720644 0.158035 0.43934 0.43934C0.158035 0.720644 0 1.10218 0 1.5V11C0 11.7956 0.31607 12.5587 0.87868 13.1213C1.15726 13.3999 1.48797 13.6209 1.85195 13.7716C2.21593 13.9224 2.60603 14 3 14C3.79565 14 4.55871 13.6839 5.12132 13.1213C5.68393 12.5587 6 11.7956 6 11V1.5C6 1.10217 5.84196 0.720644 5.56066 0.43934C5.27936 0.158035 4.89782 0 4.5 0Z" fill="#FFE453"/>
<path fill-rule="evenodd" clip-rule="evenodd" d="M1.39548 3.37451C1.0503 3.37451 0.770477 3.65433 0.770477 3.99951C0.770477 4.34469 1.0503 4.62451 1.39548 4.62451H4.60452C4.9497 4.62451 5.22952 4.34469 5.22952 3.99951C5.22952 3.65433 4.9497 3.37451 4.60452 3.37451H1.39548ZM1.39548 7.875C1.0503 7.875 0.770477 8.15482 0.770477 8.5C0.770477 8.84518 1.0503 9.125 1.39548 9.125H4.60452C4.9497 9.125 5.22952 8.84518 5.22952 8.5C5.22952 8.15482 4.9497 7.875 4.60452 7.875H1.39548Z" fill="#101010"/>
</g>
<defs>
<clipPath id="clip0_1222_11767">
<rect width="14" height="14" fill="white"/>
</clipPath>
</defs>
</svg>
