<svg width="14" height="14" viewBox="0 0 14 14" fill="none" xmlns="http://www.w3.org/2000/svg">
<g clip-path="url(#clip0_1222_11763)">
<path d="M0.328922 11.4088L1.58216 10.1556C0.890274 8.85265 1.13764 7.20509 2.18165 6.16277L5.14127 3.20315L10.7969 8.85872L7.83725 11.8183C6.79492 12.8623 5.14736 13.1097 3.8444 12.4178L2.59116 13.6711C2.37923 13.8817 2.09255 14 1.79372 14C1.4949 14 1.20821 13.8817 0.996282 13.6711L0.328922 13.0037C0.118249 12.7918 0 12.5051 0 12.2063C0 11.9074 0.118249 11.6208 0.328922 11.4088Z" fill="#FFE453"/>
<path fill-rule="evenodd" clip-rule="evenodd" d="M6.91019 1.22257C8.50853 -0.388595 11.1798 -0.388969 12.7786 1.22145C14.389 2.82027 14.3887 5.49153 12.7775 7.08986L11.964 7.90336L13.0303 8.96967C13.3232 9.26256 13.3232 9.73744 13.0303 10.0303C12.7374 10.3232 12.2626 10.3232 11.9697 10.0303L3.96967 2.03033C3.67678 1.73744 3.67678 1.26256 3.96967 0.969669C4.26256 0.676776 4.73744 0.676776 5.03033 0.969669L6.09671 2.03605L6.91019 1.22257Z" fill="#101010"/>
</g>
<defs>
<clipPath id="clip0_1222_11763">
<rect width="14" height="14" fill="white"/>
</clipPath>
</defs>
</svg>
