<svg width="14" height="14" viewBox="0 0 14 14" fill="none" xmlns="http://www.w3.org/2000/svg">
<path fill-rule="evenodd" clip-rule="evenodd" d="M7.66031 0.643018C7.50377 0.338899 7.21005 0.119692 6.85233 0.119629C6.49461 0.119565 6.2008 0.338684 6.04419 0.64278L1.00715 10.4231C0.961946 10.5109 0.929987 10.6049 0.912318 10.702L0.851821 11.0346C0.846451 11.0641 0.84375 11.0941 0.84375 11.1241C0.84375 11.6129 1.08769 12.0312 1.42872 12.3615C1.76826 12.6904 2.23343 12.9635 2.76741 13.1822C3.83781 13.6207 5.28203 13.8804 6.85156 13.8804C8.42109 13.8804 9.86532 13.6207 10.9357 13.1822C11.4697 12.9635 11.9349 12.6904 12.2744 12.3615C12.6154 12.0312 12.8594 11.6129 12.8594 11.1241C12.8594 11.0938 12.8566 11.0637 12.8512 11.0339L12.7774 10.6317C12.7686 10.5834 12.7527 10.5367 12.7302 10.493L7.66031 0.643018Z" fill="#FFE453"/>
<path fill-rule="evenodd" clip-rule="evenodd" d="M6.85156 8.3678C5.28203 8.3678 3.83781 8.62748 2.76741 9.06597C2.23343 9.28472 1.76826 9.55783 1.42872 9.88668C1.08769 10.217 0.84375 10.6353 0.84375 11.1241C0.84375 11.6129 1.08769 12.0312 1.42872 12.3615C1.76826 12.6904 2.23343 12.9635 2.76741 13.1822C3.83781 13.6207 5.28203 13.8804 6.85156 13.8804C8.42109 13.8804 9.86532 13.6207 10.9357 13.1822C11.4697 12.9635 11.9349 12.6904 12.2744 12.3615C12.6154 12.0312 12.8594 11.6129 12.8594 11.1241C12.8594 10.6353 12.6154 10.217 12.2744 9.88668C11.9349 9.55783 11.4697 9.28472 10.9357 9.06597C9.86532 8.62748 8.42109 8.3678 6.85156 8.3678Z" fill="#101010"/>
</svg>
