<svg width="14" height="14" viewBox="0 0 14 14" fill="none" xmlns="http://www.w3.org/2000/svg">
<path d="M2.5 0C2.10218 0 1.72064 0.158035 1.43934 0.43934C1.15804 0.720644 1 1.10218 1 1.5V12.5C1 12.8978 1.15804 13.2794 1.43934 13.5607C1.72064 13.842 2.10217 14 2.5 14H11.5C11.8978 14 12.2794 13.842 12.5607 13.5607C12.842 13.2794 13 12.8978 13 12.5V4.5C13 4.36739 12.9473 4.24021 12.8536 4.14645L8.85355 0.146447C8.75979 0.0526784 8.63261 0 8.5 0H2.5Z" fill="#FFE453"/>
<path fill-rule="evenodd" clip-rule="evenodd" d="M6.18447 4.64157C6.18506 4.15568 6.1555 3.70541 6.07577 3.36709C6.03466 3.19265 5.9592 2.94928 5.78962 2.76258C5.69414 2.65745 5.54952 2.54965 5.35193 2.51056C5.15276 2.47115 4.9742 2.51625 4.83915 2.58296C4.53007 2.73565 4.39673 3.01883 4.36379 3.26716C4.33431 3.48931 4.37689 3.71081 4.42952 3.89229C4.52433 4.21921 4.7065 4.5954 4.92905 4.97998C4.89089 6.27615 4.65444 7.99775 4.32284 9.18045C3.96911 9.35409 3.64083 9.55588 3.41839 9.7866C3.28036 9.92976 3.11172 10.157 3.08957 10.4599C3.06435 10.8049 3.23775 11.0732 3.44323 11.2454C3.65073 11.4194 3.93925 11.5306 4.26185 11.4517C4.54253 11.3831 4.73699 11.1954 4.85922 11.0433C5.05523 10.7994 5.21357 10.4593 5.34425 10.0948C6.26435 9.72525 7.52087 9.40004 8.53199 9.26847C8.86119 9.53284 9.20006 9.75731 9.51652 9.87285C9.7081 9.9428 9.97072 10.0027 10.2448 9.92894C10.5617 9.84362 10.7727 9.61437 10.877 9.34462C10.9804 9.07719 10.9926 8.74125 10.7775 8.44897C10.596 8.20227 10.3267 8.09474 10.1307 8.04191C9.7984 7.95233 9.37584 7.94242 8.94065 7.97163C7.99952 7.11147 6.87272 5.74121 6.18447 4.64157ZM7.39016 8.19605C6.9352 7.71615 6.47578 7.17578 6.05835 6.6341C5.98247 7.30548 5.8748 7.9947 5.74211 8.62667C6.27194 8.45787 6.83965 8.30974 7.39016 8.19605Z" fill="#101010"/>
</svg>
