<svg width="14" height="14" viewBox="0 0 14 14" fill="none" xmlns="http://www.w3.org/2000/svg">
<g clip-path="url(#clip0_1222_11790)">
<path d="M7 14C10.866 14 14 10.866 14 7C14 3.13401 10.866 0 7 0C3.13401 0 0 3.13401 0 7C0 10.866 3.13401 14 7 14Z" fill="#FFE453"/>
<path fill-rule="evenodd" clip-rule="evenodd" d="M3.86887 6C3.86887 5.79289 4.03676 5.625 4.24387 5.625H4.91053C5.07283 5.625 5.21258 5.72845 5.26436 5.87495C5.37938 6.2004 5.73646 6.37098 6.06191 6.25595C6.38736 6.14092 6.55794 5.78384 6.44291 5.4584C6.22013 4.82809 5.61905 4.375 4.91053 4.375H4.24387C3.3464 4.375 2.61887 5.10254 2.61887 6V8C2.61887 8.89746 3.3464 9.625 4.24387 9.625H4.91053C5.61904 9.625 6.22012 9.17192 6.4429 8.54162C6.55793 8.21617 6.38736 7.8591 6.06191 7.74407C5.73646 7.62903 5.37939 7.79961 5.26436 8.12506C5.21258 8.27155 5.07283 8.375 4.91053 8.375H4.24387C4.03676 8.375 3.86887 8.20711 3.86887 8V6ZM8.77127 6C8.77127 5.79289 8.93916 5.625 9.14627 5.625H9.81294C9.97524 5.625 10.115 5.72845 10.1668 5.87495C10.2818 6.2004 10.6389 6.37098 10.9643 6.25595C11.2898 6.14092 11.4603 5.78384 11.3453 5.4584C11.1225 4.82809 10.5215 4.375 9.81294 4.375H9.14627C8.24881 4.375 7.52127 5.10254 7.52127 6V8C7.52127 8.89746 8.24881 9.625 9.14627 9.625H9.81294C10.5214 9.625 11.1225 9.17192 11.3453 8.54162C11.4603 8.21617 11.2898 7.8591 10.9643 7.74407C10.6389 7.62903 10.2818 7.79961 10.1668 8.12506C10.115 8.27155 9.97524 8.375 9.81294 8.375H9.14627C8.93916 8.375 8.77127 8.20711 8.77127 8V6Z" fill="#101010"/>
</g>
<defs>
<clipPath id="clip0_1222_11790">
<rect width="14" height="14" fill="white"/>
</clipPath>
</defs>
</svg>
