<svg width="14" height="14" viewBox="0 0 14 14" fill="none" xmlns="http://www.w3.org/2000/svg">
<g clip-path="url(#clip0_1222_11800)">
<path fill-rule="evenodd" clip-rule="evenodd" d="M7 1.50064C5.20508 1.50064 3.75 2.95572 3.75 4.75064V7.25064C3.75 7.66485 3.41421 8.00064 3 8.00064C2.58579 8.00064 2.25 7.66485 2.25 7.25064V4.75064C2.25 2.12729 4.37665 0.000640869 7 0.000640869H7.2506C9.87395 0.000640869 12.0006 2.12729 12.0006 4.75064V10.1319C12.0006 11.0241 11.5519 11.7985 11.007 12.3304C10.4733 12.8513 9.73291 13.25 9 13.25C8.58579 13.25 8.25 12.9142 8.25 12.5C8.25 12.0858 8.58579 11.75 9 11.75C9.22137 11.75 9.60623 11.6016 9.95927 11.257C10.3011 10.9233 10.5006 10.5136 10.5006 10.1319V4.75064C10.5006 2.95572 9.04552 1.50064 7.2506 1.50064H7Z" fill="#FFE453"/>
<path d="M5 12.5C5 11.6716 5.67157 11 6.5 11H8C8.82843 11 9.5 11.6716 9.5 12.5C9.5 13.3284 8.82843 14 8 14H6.5C5.67157 14 5 13.3284 5 12.5Z" fill="#101010"/>
<path d="M0 6.5C0 5.67157 0.671573 5 1.5 5H3.75V9C3.75 9.55228 3.30228 10 2.75 10H1.5C0.671573 10 0 9.32843 0 8.5V6.5Z" fill="#101010"/>
<path d="M10.5 5H12.5C13.3284 5 14 5.67157 14 6.5V8.5C14 9.32843 13.3284 10 12.5 10H10.5V5Z" fill="#101010"/>
</g>
<defs>
<clipPath id="clip0_1222_11800">
<rect width="14" height="14" fill="white"/>
</clipPath>
</defs>
</svg>
