<svg width="14" height="14" viewBox="0 0 14 14" fill="none" xmlns="http://www.w3.org/2000/svg">
<g clip-path="url(#clip0_1222_11887)">
<path fill-rule="evenodd" clip-rule="evenodd" d="M7 0C3.13401 0 0 3.13401 0 7C0 10.866 3.13401 14 7 14C10.866 14 14 10.866 14 7C14 3.13401 10.866 0 7 0Z" fill="#FFE453"/>
<path d="M9.45992 4.5222C8.10176 4.5222 7.00076 5.6232 7.00076 6.98135C7.00076 8.33951 8.10176 9.44051 9.45992 9.44051C9.71021 9.44051 9.90136 9.74141 9.71786 9.91163C9.00485 10.5731 8.05003 10.9775 7.00076 10.9775C4.79376 10.9775 3.00464 9.18835 3.00464 6.98135C3.00464 4.77436 4.79376 2.98523 7.00076 2.98523C8.05003 2.98523 9.00485 3.38963 9.71786 4.05107C9.90136 4.2213 9.71021 4.5222 9.45992 4.5222Z" fill="#101010"/>
</g>
<defs>
<clipPath id="clip0_1222_11887">
<rect width="14" height="14" fill="white"/>
</clipPath>
</defs>
</svg>
