<svg width="14" height="14" viewBox="0 0 14 14" fill="none" xmlns="http://www.w3.org/2000/svg">
<g clip-path="url(#clip0_1222_11822)">
<path fill-rule="evenodd" clip-rule="evenodd" d="M10.4221 2.84376L11.0784 2.84375C11.4478 2.84375 11.7475 2.54563 11.7502 2.17687V2.16689C11.7475 1.79812 11.4477 1.5 11.0783 1.50001H10.4221C10.051 1.50002 9.75024 1.80082 9.75024 2.17188C9.75024 2.54295 10.0511 2.84376 10.4221 2.84376ZM13.2345 1.90891C13.1047 0.833423 12.1888 -1.14558e-06 11.0783 7.62946e-06L10.4221 1.27045e-05C9.22262 2.23174e-05 8.25024 0.972397 8.25024 2.17188C8.25024 3.37138 9.22263 4.34376 10.4221 4.34376L11.0784 4.34375C11.3128 4.34375 11.5386 4.30659 11.7502 4.23784V4.6875C11.7502 4.99816 11.4984 5.24999 11.1877 5.24999H10.3127C10.069 5.24999 9.85961 5.09455 9.78203 4.87506C9.644 4.48453 9.21551 4.27983 8.82497 4.41787C8.43443 4.5559 8.22974 4.98439 8.36777 5.37493C8.65055 6.17499 9.41352 6.74999 10.3127 6.74999H11.1877C12.3268 6.74999 13.2502 5.82658 13.2502 4.6875V2.18085C13.2502 2.17786 13.2502 2.17487 13.2502 2.17189C13.2502 2.16889 13.2502 2.1659 13.2502 2.16291V2.0625C13.2502 2.00986 13.2448 1.95848 13.2345 1.90891ZM11.1668 7.5C11.581 7.5 11.9168 7.83578 11.9168 8.25V12.5H12.8335C13.2477 12.5 13.5835 12.8358 13.5835 13.25C13.5835 13.6642 13.2477 14 12.8335 14H9.50014C9.08593 14 8.75014 13.6642 8.75014 13.25C8.75014 12.8358 9.08593 12.5 9.50014 12.5H10.4168V10.187C10.257 10.2281 10.0894 10.25 9.91679 10.25H9.50012C9.08591 10.25 8.75012 9.91421 8.75012 9.5C8.75012 9.08578 9.08591 8.75 9.50012 8.75H9.91679C10.1929 8.75 10.4168 8.52614 10.4168 8.25C10.4168 7.83578 10.7526 7.5 11.1668 7.5Z" fill="#FFE453"/>
<path fill-rule="evenodd" clip-rule="evenodd" d="M4.75001 1C4.75001 0.447715 4.30229 0 3.75001 0C3.19772 0 2.75001 0.447715 2.75001 1V10H1.25001C0.94666 10 0.673182 10.1827 0.557096 10.463C0.441011 10.7432 0.505178 11.0658 0.719676 11.2803L3.21968 13.7803C3.51257 14.0732 3.98745 14.0732 4.28034 13.7803L6.78034 11.2803C6.99484 11.0658 7.059 10.7432 6.94292 10.463C6.82683 10.1827 6.55336 10 6.25001 10H4.75001V1Z" fill="#101010"/>
</g>
<defs>
<clipPath id="clip0_1222_11822">
<rect width="14" height="14" fill="white"/>
</clipPath>
</defs>
</svg>
