<svg width="14" height="14" viewBox="0 0 14 14" fill="none" xmlns="http://www.w3.org/2000/svg">
<g clip-path="url(#clip0_1222_11826)">
<path fill-rule="evenodd" clip-rule="evenodd" d="M3.50783 1.45138C4.43401 0.525204 5.69017 0.00488281 6.99999 0.00488281C8.3098 0.00488281 9.56597 0.525204 10.4921 1.45138C11.4183 2.37756 11.9386 3.63373 11.9386 4.94354V9.35263C11.9386 9.66148 12.0613 9.95767 12.2797 10.1761C12.5276 10.4239 12.7223 10.5171 12.9946 10.5171C13.2707 10.5171 13.4946 10.741 13.4946 11.0171C13.4946 11.2933 13.2707 11.5171 12.9946 11.5171H1.00543C0.72929 11.5171 0.505432 11.2933 0.505432 11.0171C0.505432 10.741 0.72929 10.5171 1.00543 10.5171C1.27773 10.5171 1.47241 10.4239 1.72025 10.1761C1.93864 9.95767 2.06133 9.66148 2.06133 9.35263V4.94354C2.06133 3.63373 2.58165 2.37756 3.50783 1.45138ZM5.25091 13.2443C5.25091 12.8301 5.58669 12.4943 6.00091 12.4943H7.9991C8.41331 12.4943 8.7491 12.8301 8.7491 13.2443C8.7491 13.6585 8.41331 13.9943 7.9991 13.9943H6.00091C5.58669 13.9943 5.25091 13.6585 5.25091 13.2443Z" fill="#FFE453"/>
<path fill-rule="evenodd" clip-rule="evenodd" d="M0.297353 0.297795C0.00445908 0.590688 0.00445908 1.06556 0.297353 1.35846L12.642 13.7031C12.9349 13.996 13.4097 13.996 13.7026 13.7031C13.9955 13.4102 13.9955 12.9353 13.7026 12.6424L1.35801 0.297795C1.06512 0.00490168 0.590246 0.00490168 0.297353 0.297795Z" fill="#101010"/>
</g>
<defs>
<clipPath id="clip0_1222_11826">
<rect width="14" height="14" fill="white"/>
</clipPath>
</defs>
</svg>
