<svg width="14" height="14" viewBox="0 0 14 14" fill="none" xmlns="http://www.w3.org/2000/svg">
<g clip-path="url(#clip0_1222_11830)">
<path d="M4.35654 1.88038C5.2299 1.94144 6.13527 2.36031 6.99998 3.20061C7.8647 2.36031 8.77006 1.94144 9.64343 1.88038C10.6439 1.81042 11.5272 2.216 12.1627 2.85393C13.4119 4.10771 13.7892 6.37605 12.1941 7.9331L12.1846 7.94213L8.02006 11.7996C7.73271 12.0666 7.36509 12.2004 6.99953 12.2007C6.63398 12.2004 6.26725 12.0666 5.9799 11.7996L1.80581 7.9331C0.210783 6.37605 0.588039 4.10771 1.83721 2.85393C2.4728 2.216 3.35604 1.81042 4.35654 1.88038Z" fill="#FFE453"/>
<path fill-rule="evenodd" clip-rule="evenodd" d="M0.21967 0.21967C0.512563 -0.0732233 0.987437 -0.0732233 1.28033 0.21967L13.7803 12.7197C14.0732 13.0126 14.0732 13.4874 13.7803 13.7803C13.4874 14.0732 13.0126 14.0732 12.7197 13.7803L0.21967 1.28033C-0.0732233 0.987437 -0.0732233 0.512563 0.21967 0.21967Z" fill="#101010"/>
</g>
<defs>
<clipPath id="clip0_1222_11830">
<rect width="14" height="14" fill="white"/>
</clipPath>
</defs>
</svg>
