<svg width="14" height="14" viewBox="0 0 14 14" fill="none" xmlns="http://www.w3.org/2000/svg">
<path d="M2.5 0C2.10218 0 1.72064 0.158035 1.43934 0.43934C1.15804 0.720644 1 1.10218 1 1.5V12.5C1 12.8978 1.15804 13.2794 1.43934 13.5607C1.72064 13.842 2.10217 14 2.5 14H11.5C11.8978 14 12.2794 13.842 12.5607 13.5607C12.842 13.2794 13 12.8978 13 12.5V4.5C13 4.36739 12.9473 4.24021 12.8536 4.14645L8.85355 0.146447C8.75979 0.0526784 8.63261 0 8.5 0H2.5Z" fill="#FFE453"/>
<path fill-rule="evenodd" clip-rule="evenodd" d="M7.29089 10.838L7.18696 10.9419C7.06975 11.0592 6.91077 11.125 6.74501 11.125C6.57925 11.125 6.42028 11.0592 6.30307 10.9419L6.19911 10.838C6.08267 10.762 5.98305 10.6623 5.90703 10.5459L4.05307 8.69194C3.87432 8.51319 3.82085 8.24437 3.91759 8.01082C4.01433 7.77728 4.24222 7.625 4.49501 7.625H5.74502V4C5.74502 3.44772 6.19274 3 6.74502 3C7.2973 3 7.74502 3.44772 7.74502 4V7.625H8.99501C9.2478 7.625 9.4757 7.77728 9.57244 8.01082C9.66918 8.24437 9.6157 8.51319 9.43695 8.69194L7.58303 10.5459C7.50701 10.6623 7.40736 10.762 7.29089 10.838Z" fill="#101010"/>
</svg>
