<svg width="14" height="14" viewBox="0 0 14 14" fill="none" xmlns="http://www.w3.org/2000/svg">
<g clip-path="url(#clip0_1222_11850)">
<path fill-rule="evenodd" clip-rule="evenodd" d="M5.6345 10.5769C5.70567 10.378 5.89408 10.2454 6.10526 10.2454H7.89477C8.10595 10.2454 8.29436 10.378 8.36552 10.5769L9.05215 12.4954H10C10.4142 12.4954 10.75 12.8311 10.75 13.2454C10.75 13.6596 10.4142 13.9954 10 13.9954H4C3.58579 13.9954 3.25 13.6596 3.25 13.2454C3.25 12.8311 3.58579 12.4954 4 12.4954H4.94788L5.6345 10.5769Z" fill="#101010"/>
<path fill-rule="evenodd" clip-rule="evenodd" d="M9.29291 2.95735H9.25002V1.00049C9.25002 0.828467 9.23071 0.660955 9.19415 0.5H12.5432C13.3478 0.5 14 1.15223 14 1.95679V9.54321C14 10.3478 13.3478 11 12.5432 11H1.45679C0.65223 11 0 10.3478 0 9.54321V1.95679C0 1.15223 0.652229 0.5 1.45679 0.5H4.80588C4.76932 0.660955 4.75002 0.828468 4.75002 1.00049V2.95735H4.70712C3.14805 2.95735 2.36724 4.84234 3.46969 5.94479L5.76258 8.23768C6.446 8.9211 7.55403 8.9211 8.23745 8.23768L10.5303 5.94479C11.6328 4.84235 10.852 2.95735 9.29291 2.95735Z" fill="#FFE453"/>
<path d="M7.3536 7.35355L9.64649 5.06066C9.96147 4.74568 9.73839 4.20711 9.29294 4.20711H8.00004V1.00024C8.00004 0.447959 7.55233 0.000244092 7.00004 0.000244141C6.44776 0.000244189 6.00004 0.44796 6.00004 1.00024V4.20711H4.70715C4.2617 4.20711 4.03861 4.74568 4.3536 5.06066L6.64649 7.35355C6.84175 7.54882 7.15833 7.54882 7.3536 7.35355Z" fill="#101010"/>
</g>
<defs>
<clipPath id="clip0_1222_11850">
<rect width="14" height="14" fill="white"/>
</clipPath>
</defs>
</svg>
