<svg width="14" height="14" viewBox="0 0 14 14" fill="none" xmlns="http://www.w3.org/2000/svg">
<g clip-path="url(#clip0_1222_11845)">
<path d="M7 14C10.866 14 14 10.866 14 7C14 3.13401 10.866 0 7 0C3.13401 0 0 3.13401 0 7C0 10.866 3.13401 14 7 14Z" fill="#FFE453"/>
<path d="M7.3535 11.1036L10.1464 8.31066C10.4614 7.99568 10.2383 7.45711 9.79284 7.45711H7.99995V3.75024C7.99995 3.19796 7.55224 2.75024 6.99995 2.75024C6.44767 2.75024 5.99995 3.19796 5.99995 3.75024V7.45711H4.20706C3.76161 7.45711 3.53852 7.99568 3.8535 8.31066L6.6464 11.1036C6.84166 11.2988 7.15824 11.2988 7.3535 11.1036Z" fill="#101010"/>
</g>
<defs>
<clipPath id="clip0_1222_11845">
<rect width="14" height="14" fill="white"/>
</clipPath>
</defs>
</svg>
