<svg width="14" height="14" viewBox="0 0 14 14" fill="none" xmlns="http://www.w3.org/2000/svg">
<g clip-path="url(#clip0_1222_11838)">
<path d="M3.3826 0H10.6174C11.1621 0 11.6641 0.295338 11.9286 0.771536L14 4.5H0L2.07137 0.771536C2.33592 0.295338 2.83785 0 3.3826 0Z" fill="#101010"/>
<path fill-rule="evenodd" clip-rule="evenodd" d="M7.625 4.5V0H6.375V4.5H0V12.5C0 13.3284 0.671573 14 1.5 14H12.5C13.3284 14 14 13.3284 14 12.5V4.5H7.625Z" fill="#FFE453"/>
<path d="M6.64646 12.6466L4.35356 10.3537C4.03858 10.0387 4.26167 9.50012 4.70712 9.50012H6.00001V7.50012C6.00001 6.94784 6.44773 6.50012 7.00001 6.50012C7.5523 6.50012 8.00001 6.94784 8.00001 7.50012V9.50012H9.2929C9.73836 9.50012 9.96144 10.0387 9.64646 10.3537L7.35356 12.6466C7.1583 12.8418 6.84172 12.8418 6.64646 12.6466Z" fill="#101010"/>
</g>
<defs>
<clipPath id="clip0_1222_11838">
<rect width="14" height="14" fill="white"/>
</clipPath>
</defs>
</svg>
