<svg width="14" height="14" viewBox="0 0 14 14" fill="none" xmlns="http://www.w3.org/2000/svg">
<path d="M1.25 2.5C1.25 1.67157 1.92157 1 2.75 1H11.25C12.0784 1 12.75 1.67157 12.75 2.5V12.5C12.75 13.3284 12.0784 14 11.25 14H2.75C1.92157 14 1.25 13.3284 1.25 12.5V2.5Z" fill="#FFE453"/>
<path d="M4.50002 1C4.50002 0.447716 4.94773 0 5.50002 0H8.50002C9.0523 0 9.50002 0.447715 9.50002 1V1.5C9.50002 2.05229 9.0523 2.5 8.50002 2.5H5.50002C4.94773 2.5 4.50002 2.05229 4.50002 1.5V1Z" fill="#101010"/>
</svg>
