<svg width="14" height="14" viewBox="0 0 14 14" fill="none" xmlns="http://www.w3.org/2000/svg">
<g clip-path="url(#clip0_1222_11875)">
<path fill-rule="evenodd" clip-rule="evenodd" d="M14 11.5C14 12.8807 12.8807 14 11.5 14H2.5C1.11929 14 9.07511e-07 12.8807 7.86805e-07 11.5L0 2.5C-1.20706e-07 1.11929 1.11929 5.14108e-07 2.5 3.93402e-07L7 0C7.55228 -4.82823e-08 8 0.447715 8 1C8 1.55229 7.55228 2 7 2H2.5C2.22386 2 2 2.22386 2 2.5V11.5C2 11.7761 2.22386 12 2.5 12H11.5C11.7761 12 12 11.7761 12 11.5V7C12 6.44771 12.4477 6 13 6C13.5523 6 14 6.44771 14 7V11.5Z" fill="#FFE453"/>
<path d="M6.29289 6.29291C5.90237 6.68343 5.90237 7.3166 6.29289 7.70712C6.68342 8.09765 7.31658 8.09765 7.70711 7.70712L12.1036 3.31067L13.1464 4.35355C13.2894 4.49655 13.5045 4.53933 13.6913 4.46194C13.8782 4.38455 14 4.20223 14 4V0.5C14 0.223857 13.7761 -2.41402e-08 13.5 0L10 3.0598e-07C9.79777 3.2366e-07 9.61545 0.121822 9.53806 0.308659C9.46067 0.495496 9.50345 0.710555 9.64645 0.853554L10.6893 1.89645L6.29289 6.29291Z" fill="#101010"/>
</g>
<defs>
<clipPath id="clip0_1222_11875">
<rect width="14" height="14" fill="white"/>
</clipPath>
</defs>
</svg>
