<svg width="14" height="14" viewBox="0 0 14 14" fill="none" xmlns="http://www.w3.org/2000/svg">
<g clip-path="url(#clip0_1222_11879)">
<path fill-rule="evenodd" clip-rule="evenodd" d="M1.57322 1.57322C1.62011 1.52634 1.6837 1.5 1.75 1.5H3.25C3.66421 1.5 4 1.16421 4 0.75C4 0.335786 3.66421 0 3.25 0H1.75C1.28587 0 0.840752 0.184375 0.512563 0.512563C0.184375 0.840752 0 1.28587 0 1.75V3.25C0 3.66421 0.335786 4 0.75 4C1.16421 4 1.5 3.66421 1.5 3.25V1.75C1.5 1.6837 1.52634 1.62011 1.57322 1.57322ZM14 10.75C14 10.3358 13.6642 10 13.25 10C12.8358 10 12.5 10.3358 12.5 10.75V12.25C12.5 12.3163 12.4737 12.3799 12.4268 12.4268C12.3799 12.4737 12.3163 12.5 12.25 12.5H10.75C10.3358 12.5 10 12.8358 10 13.25C10 13.6642 10.3358 14 10.75 14H12.25C12.7141 14 13.1592 13.8156 13.4874 13.4874C13.8156 13.1592 14 12.7141 14 12.25V10.75ZM0.75 10C1.16421 10 1.5 10.3358 1.5 10.75V12.25C1.5 12.3163 1.52634 12.3799 1.57322 12.4268C1.62011 12.4737 1.6837 12.5 1.75 12.5H3.25C3.66421 12.5 4 12.8358 4 13.25C4 13.6642 3.66421 14 3.25 14H1.75C1.28587 14 0.840752 13.8156 0.512563 13.4874C0.184375 13.1592 0 12.7141 0 12.25V10.75C0 10.3358 0.335786 10 0.75 10ZM10.75 0C10.3358 0 10 0.335786 10 0.75C10 1.16421 10.3358 1.5 10.75 1.5H12.25C12.3163 1.5 12.3799 1.52634 12.4268 1.57322C12.4737 1.62011 12.5 1.6837 12.5 1.75V3.25C12.5 3.66421 12.8358 4 13.25 4C13.6642 4 14 3.66421 14 3.25V1.75C14 1.28587 13.8156 0.840752 13.4874 0.512563C13.1592 0.184375 12.7141 0 12.25 0H10.75Z" fill="#FFE453"/>
<path fill-rule="evenodd" clip-rule="evenodd" d="M5 4.5C5 5.05228 4.55228 5.5 4 5.5C3.44772 5.5 3 5.05228 3 4.5C3 3.94772 3.44772 3.5 4 3.5C4.55228 3.5 5 3.94772 5 4.5ZM7.75 4.5C7.75 4.08579 7.41421 3.75 7 3.75C6.58579 3.75 6.25 4.08579 6.25 4.5V7.25H5.5C5.08579 7.25 4.75 7.58579 4.75 8C4.75 8.41421 5.08579 8.75 5.5 8.75H7C7.41421 8.75 7.75 8.41421 7.75 8V4.5ZM5.01653 9.45622C4.71621 9.17095 4.24149 9.18315 3.95622 9.48347C3.67095 9.78379 3.68315 10.2585 3.98347 10.5438C4.79747 11.317 5.8773 11.7481 7 11.7481C8.1227 11.7481 9.20253 11.317 10.0165 10.5438C10.3169 10.2585 10.3291 9.78379 10.0438 9.48347C9.75851 9.18315 9.28379 9.17095 8.98347 9.45622C8.44824 9.96463 7.73821 10.2481 7 10.2481C6.26179 10.2481 5.55176 9.96463 5.01653 9.45622ZM10 5.5C10.5523 5.5 11 5.05228 11 4.5C11 3.94772 10.5523 3.5 10 3.5C9.44772 3.5 9 3.94772 9 4.5C9 5.05228 9.44772 5.5 10 5.5Z" fill="#101010"/>
</g>
<defs>
<clipPath id="clip0_1222_11879">
<rect width="14" height="14" fill="white"/>
</clipPath>
</defs>
</svg>
