<svg width="14" height="14" viewBox="0 0 14 14" fill="none" xmlns="http://www.w3.org/2000/svg">
<g clip-path="url(#clip0_1222_11883)">
<path fill-rule="evenodd" clip-rule="evenodd" d="M2.46033 6.0652C2.46033 4.5869 3.66321 3.3833 5.15346 3.3833C6.64371 3.3833 7.84659 4.5869 7.84659 6.0652V12.9688C7.84659 13.521 8.2943 13.9688 8.84659 13.9688C9.39887 13.9688 9.84659 13.521 9.84659 12.9688V6.0652C9.84659 3.47659 7.74253 1.3833 5.15346 1.3833C4.14733 1.3833 3.21445 1.69941 2.44983 2.23787C2.3794 1.75451 1.96322 1.3833 1.46033 1.3833C0.908042 1.3833 0.460327 1.83102 0.460327 2.3833V6.0652V6.07643V12.9688C0.460327 13.521 0.908042 13.9688 1.46033 13.9688C2.01261 13.9688 2.46033 13.521 2.46033 12.9688V6.07643V6.0652Z" fill="#FFE453"/>
<path fill-rule="evenodd" clip-rule="evenodd" d="M12.0781 0.078125C12.6303 0.078125 13.0781 0.52584 13.0781 1.07812V8.93738C13.0781 9.48966 12.6303 9.93738 12.0781 9.93738C11.5258 9.93738 11.0781 9.48966 11.0781 8.93738V1.07812C11.0781 0.52584 11.5258 0.078125 12.0781 0.078125ZM10.6164 12.4612C10.6164 11.6539 11.2708 10.9995 12.078 10.9995C12.8853 10.9995 13.5397 11.6539 13.5397 12.4612C13.5397 13.2684 12.8853 13.9228 12.078 13.9228C11.2708 13.9228 10.6164 13.2684 10.6164 12.4612Z" fill="#101010"/>
</g>
<defs>
<clipPath id="clip0_1222_11883">
<rect width="14" height="14" fill="white"/>
</clipPath>
</defs>
</svg>
