<svg width="14" height="14" viewBox="0 0 14 14" fill="none" xmlns="http://www.w3.org/2000/svg">
<g clip-path="url(#clip0_1222_11906)">
<path fill-rule="evenodd" clip-rule="evenodd" d="M2.43934 0.43934C2.72064 0.158035 3.10218 0 3.5 0H9.5C9.63261 0 9.75979 0.0526784 9.85355 0.146447L13.8536 4.14645C13.9473 4.24021 14 4.36739 14 4.5V12.5C14 12.8978 13.842 13.2794 13.5607 13.5607C13.2794 13.842 12.8978 14 12.5 14H3.5C3.10217 14 2.72064 13.842 2.43934 13.5607C2.15804 13.2794 2 12.8978 2 12.5V12.2495H5.75C6.85457 12.2495 7.75 11.3541 7.75 10.2495C7.75 9.14494 6.85457 8.24951 5.75 8.24951H2V1.5C2 1.10218 2.15804 0.720644 2.43934 0.43934Z" fill="#FFE453"/>
<path d="M5.75 9.4996C6.16421 9.4996 6.5 9.83539 6.5 10.2496C6.5 10.6638 6.16421 10.9996 5.75 10.9996H0.75C0.335786 10.9996 0 10.6638 0 10.2496C0 9.83539 0.335786 9.4996 0.75 9.4996H5.75Z" fill="#101010"/>
</g>
<defs>
<clipPath id="clip0_1222_11906">
<rect width="14" height="14" fill="white"/>
</clipPath>
</defs>
</svg>
