<svg width="14" height="14" viewBox="0 0 14 14" fill="none" xmlns="http://www.w3.org/2000/svg">
<g clip-path="url(#clip0_1222_11902)">
<path fill-rule="evenodd" clip-rule="evenodd" d="M2.43934 0.43934C2.72064 0.158035 3.10218 0 3.5 0H9.5C9.63261 0 9.75979 0.0526784 9.85355 0.146447L13.8536 4.14645C13.9473 4.24021 14 4.36739 14 4.5V12.5C14 12.8978 13.842 13.2794 13.5607 13.5607C13.2794 13.842 12.8978 14 12.5 14H6.84461C7.13609 13.2783 6.98929 12.4209 6.40421 11.8358L5.69843 11.13L6.40421 10.4242C7.18526 9.64318 7.18526 8.37684 6.40421 7.5958C5.62316 6.81475 4.35683 6.81475 3.57579 7.5958L2.87 8.30158L2.16421 7.5958C2.11158 7.54316 2.05674 7.49408 2 7.44854V1.5C2 1.10218 2.15804 0.720644 2.43934 0.43934Z" fill="#FFE453"/>
<path fill-rule="evenodd" clip-rule="evenodd" d="M5.52033 9.54034C5.81322 9.24745 5.81322 8.77257 5.52033 8.47968C5.22744 8.18679 4.75256 8.18679 4.45967 8.47968L2.87 10.0693L1.28033 8.47968C0.987437 8.18679 0.512563 8.18679 0.21967 8.47968C-0.0732233 8.77257 -0.0732233 9.24745 0.21967 9.54034L1.80934 11.13L0.21967 12.7197C-0.0732233 13.0126 -0.0732233 13.4874 0.21967 13.7803C0.512563 14.0732 0.987437 14.0732 1.28033 13.7803L2.87 12.1907L4.45967 13.7803C4.75256 14.0732 5.22744 14.0732 5.52033 13.7803C5.81322 13.4874 5.81322 13.0126 5.52033 12.7197L3.93066 11.13L5.52033 9.54034Z" fill="#101010"/>
</g>
<defs>
<clipPath id="clip0_1222_11902">
<rect width="14" height="14" fill="white"/>
</clipPath>
</defs>
</svg>
