<svg width="14" height="14" viewBox="0 0 14 14" fill="none" xmlns="http://www.w3.org/2000/svg">
<g clip-path="url(#clip0_1222_11898)">
<path fill-rule="evenodd" clip-rule="evenodd" d="M2.43934 0.43934C2.72064 0.158035 3.10218 0 3.5 0H9.5C9.63261 0 9.75979 0.0526784 9.85355 0.146447L13.8536 4.14645C13.9473 4.24021 14 4.36739 14 4.5V12.5C14 12.8978 13.842 13.2794 13.5607 13.5607C13.2794 13.842 12.8978 14 12.5 14H5.10462C5.19837 13.7684 5.25 13.5152 5.25 13.25V12.75H5.75C6.85457 12.75 7.75 11.8546 7.75 10.75C7.75 9.64543 6.85457 8.75 5.75 8.75H5.25V8.25C5.25 7.14543 4.35457 6.25 3.25 6.25C2.77703 6.25 2.3424 6.41418 2 6.68866V1.5C2 1.10218 2.15804 0.720644 2.43934 0.43934Z" fill="#FFE453"/>
<path fill-rule="evenodd" clip-rule="evenodd" d="M3.25 7.5C3.66421 7.5 4 7.83579 4 8.25V10H5.75C6.16421 10 6.5 10.3358 6.5 10.75C6.5 11.1642 6.16421 11.5 5.75 11.5H4V13.25C4 13.6642 3.66421 14 3.25 14C2.83579 14 2.5 13.6642 2.5 13.25V11.5H0.75C0.335786 11.5 0 11.1642 0 10.75C0 10.3358 0.335786 10 0.75 10H2.5V8.25C2.5 7.83579 2.83579 7.5 3.25 7.5Z" fill="#101010"/>
</g>
<defs>
<clipPath id="clip0_1222_11898">
<rect width="14" height="14" fill="white"/>
</clipPath>
</defs>
</svg>
