<svg width="14" height="14" viewBox="0 0 14 14" fill="none" xmlns="http://www.w3.org/2000/svg">
<g clip-path="url(#clip0_1222_11916)">
<path fill-rule="evenodd" clip-rule="evenodd" d="M5.54022 0.192192C6.79854 -0.144958 8.12858 -0.0347868 9.30674 0.493239C9.68473 0.662645 9.85382 1.10639 9.68441 1.48438C9.51501 1.86237 9.07126 2.03146 8.69327 1.86205C7.82844 1.47446 6.85208 1.3936 5.92843 1.64109C4.86774 1.92528 3.96339 2.61918 3.4143 3.57014C3.2152 3.91401 3.06744 4.28583 2.97643 4.67203C2.88143 5.0752 2.47757 5.32501 2.0744 5.23001C1.67123 5.135 1.42142 4.73115 1.51642 4.32798C1.64108 3.79898 1.84283 3.29077 2.1155 2.81974C2.86352 1.52445 4.0954 0.579308 5.54022 0.192192ZM11.6134 2.39514C11.3751 2.05636 10.9073 1.97492 10.5685 2.21324C10.2297 2.45156 10.1483 2.9194 10.3866 3.25818C10.875 3.95254 11.1406 4.78399 11.1405 5.64063V8.35979C11.1405 8.90353 11.0334 9.44195 10.8253 9.9443C10.6172 10.4466 10.3123 10.9031 9.92778 11.2876C9.5433 11.6721 9.08685 11.977 8.5845 12.1851C8.08215 12.3932 7.54374 12.5003 7 12.5003C6.58579 12.5003 6.25 12.8361 6.25 13.2503C6.25 13.6645 6.58579 14.0003 7 14.0003C7.74072 14.0003 8.47419 13.8544 9.15853 13.5709C9.84286 13.2875 10.4647 12.872 10.9884 12.3482C11.5122 11.8245 11.9277 11.2027 12.2111 10.5183C12.4946 9.83398 12.6405 9.10052 12.6405 8.35979V5.64071C12.6406 4.4737 12.2788 3.34104 11.6134 2.39514ZM2.8595 6.72608C2.8595 6.31186 2.52371 5.97608 2.1095 5.97608C1.69528 5.97608 1.3595 6.31186 1.3595 6.72608V8.35925C1.35917 9.46954 1.68653 10.5555 2.30055 11.4805C2.7704 12.1884 3.3921 12.7781 4.1166 13.209C4.4726 13.4207 4.93285 13.3038 5.1446 12.9478C5.35634 12.5918 5.2394 12.1315 4.8834 11.9198C4.35155 11.6035 3.89519 11.1706 3.5503 10.651C3.09952 9.9719 2.85922 9.17485 2.8595 8.35976V6.72608ZM6.84773 4.29114C7.03243 4.27563 7.21888 4.2903 7.39969 4.33501C7.6474 4.39626 7.8782 4.51233 8.07508 4.67465C8.27196 4.83698 8.4299 5.04143 8.53724 5.27292C8.64459 5.50442 8.6986 5.75705 8.69531 6.0122L8.69525 6.02188V7C8.69525 7.41422 9.03103 7.75 9.44525 7.75C9.85946 7.75 10.1952 7.41422 10.1952 7V6.02641C10.2006 5.54854 10.0991 5.0755 9.89806 4.64191C9.69628 4.20676 9.3994 3.82245 9.02931 3.51731C8.65923 3.21218 8.22538 2.994 7.75974 2.87886C7.41986 2.79482 7.06938 2.76725 6.72221 2.7964C6.30945 2.83106 6.00294 3.19377 6.0376 3.60653C6.07227 4.01929 6.43497 4.3258 6.84773 4.29114ZM5.04267 4.35276C5.42413 4.51419 5.6025 4.95429 5.44108 5.33575C5.34983 5.55136 5.30345 5.78329 5.30474 6.01741L5.30477 6.02156L5.30475 7.97776V7.98974C5.29924 8.33507 5.39924 8.67384 5.59155 8.96072C5.78385 9.2476 6.05919 9.4689 6.38072 9.59501C6.70225 9.72111 7.05462 9.746 7.39068 9.66634C7.72674 9.58669 8.03046 9.40629 8.26118 9.14929C8.53789 8.84106 9.01208 8.81551 9.3203 9.09222C9.62853 9.36893 9.65408 9.84312 9.37737 10.1513C8.9425 10.6357 8.37005 10.9758 7.73664 11.1259C7.10322 11.276 6.43906 11.2291 5.83303 10.9914C5.22701 10.7538 4.70804 10.3366 4.34558 9.79593C3.9843 9.25697 3.7957 8.62085 3.80475 7.97218V6.0235C3.80264 5.5865 3.88936 5.15363 4.05968 4.75117C4.2211 4.36971 4.6612 4.19133 5.04267 4.35276ZM7.75 6.1294C7.75 5.71518 7.41421 5.3794 7 5.3794C6.58579 5.3794 6.25 5.71518 6.25 6.1294V7.76283C6.25 8.17704 6.58579 8.51283 7 8.51283C7.41421 8.51283 7.75 8.17704 7.75 7.76283V6.1294Z" fill="#FFE453"/>
</g>
<defs>
<clipPath id="clip0_1222_11916">
<rect width="14" height="14" fill="white"/>
</clipPath>
</defs>
</svg>
