<svg width="14" height="14" viewBox="0 0 14 14" fill="none" xmlns="http://www.w3.org/2000/svg">
<g clip-path="url(#clip0_1222_11919)">
<path fill-rule="evenodd" clip-rule="evenodd" d="M7.25006 0C6.34605 0 5.6132 0.73285 5.6132 1.63687V2.27604C5.52659 1.31833 4.6718 0.566406 3.63009 0.566406C2.53087 0.566406 1.63977 1.40366 1.63977 2.43646V4.54146C1.63977 4.7619 1.68036 4.97342 1.75491 5.1698C1.10788 5.542 0.956034 6.45022 0.955994 7.32806C0.955932 8.64808 1.89558 10.5845 3.29473 11.07V13.5C3.29473 13.7762 3.51858 14 3.79471 14L10.2013 14.0003C10.4775 14.0003 10.7013 13.7764 10.7013 13.5003V10.826C10.7013 10.826 13.04 9.8905 13.04 7.08407V6.04983C13.04 5.78539 12.9267 5.29614 12.7886 5.04008C12.8353 4.88134 12.8602 4.71413 12.8602 4.54146V2.43646C12.8602 1.40366 11.9677 0.566406 10.8667 0.566406C9.84525 0.566406 9.00321 1.28711 8.88693 2.21603V1.63687C8.88693 0.73285 8.15408 0 7.25006 0ZM5.70146 4.44864C5.6603 4.32871 5.63267 4.20249 5.62042 4.0718V4.46238L5.70146 4.44864Z" fill="#FFE453"/>
<path fill-rule="evenodd" clip-rule="evenodd" d="M8.87899 2.29178C8.93037 1.65674 9.31986 1.11031 9.87899 0.810547V4.64512C9.87899 5.57682 10.332 6.19193 11.2637 6.19193C12.0043 6.19193 12.5881 5.68667 12.7964 5.01143L12.7884 5.03957C12.9266 5.29554 13.04 5.78509 13.04 6.04963V6.47172C12.5794 6.917 11.9604 7.19193 11.2637 7.19193C10.3556 7.19193 9.85499 6.88163 9.3686 6.19193C8.55097 7.34178 7.56644 7.80479 6.76675 7.9262L6.70859 7.94384C6.76028 7.98564 6.81064 8.02889 6.85954 8.07349C7.42163 8.58611 7.85347 9.33597 7.83454 10.2191C7.82714 10.5642 7.54139 10.838 7.19629 10.8306C6.85119 10.8232 6.57743 10.5375 6.58483 10.1924C6.59429 9.75084 6.37898 9.32699 6.01723 8.99708C5.64916 8.6614 5.1938 8.48333 4.83703 8.48333C4.52727 8.48333 4.26424 8.25643 4.21879 7.95002C4.17335 7.6436 4.35921 7.35013 4.65564 7.26023L6.76336 6.621C7.07699 6.52589 7.29143 6.23676 7.29143 5.90903C7.29143 5.49797 6.95845 5.16504 6.54772 5.16504H1.74626C1.6773 4.97 1.63977 4.76011 1.63977 4.54146V3.91504H4.63293V0.82303C5.22029 1.14796 5.61454 1.74879 5.61454 2.43627V3.91504H6.54772C7.52694 3.91504 8.34085 4.6208 8.50941 5.55114C8.73092 5.22489 8.87899 4.901 8.87899 4.64512V2.29178Z" fill="#101010"/>
</g>
<defs>
<clipPath id="clip0_1222_11919">
<rect width="14" height="14" fill="white"/>
</clipPath>
</defs>
</svg>
