<svg width="14" height="14" viewBox="0 0 14 14" fill="none" xmlns="http://www.w3.org/2000/svg">
<g clip-path="url(#clip0_1222_11923)">
<path fill-rule="evenodd" clip-rule="evenodd" d="M3.5 14C1.567 14 0 12.433 0 10.5V3.5C0 1.567 1.567 0 3.5 0H10.5C12.433 0 14 1.567 14 3.5V10.5C14 12.433 12.433 14 10.5 14H3.5Z" fill="#FFE453"/>
<path fill-rule="evenodd" clip-rule="evenodd" d="M9.46194 5.69134C9.38455 5.87818 9.20223 6 9 6H7.75V8H9C9.20223 8 9.38455 8.12182 9.46194 8.30866C9.53933 8.49549 9.49655 8.71055 9.35355 8.85355L7.35355 10.8536C7.25978 10.9473 7.13261 11 7 11C6.86739 11 6.74021 10.9473 6.64645 10.8536L4.64645 8.85355C4.50345 8.71055 4.46067 8.4955 4.53806 8.30866C4.61545 8.12182 4.79777 8 5 8H6.25V6H5C4.79777 6 4.61545 5.87818 4.53806 5.69134C4.46067 5.5045 4.50345 5.28945 4.64645 5.14645L6.64645 3.14645C6.74021 3.05268 6.86739 3 7 3C7.13261 3 7.25978 3.05268 7.35355 3.14645L9.35355 5.14645C9.49655 5.28945 9.53933 5.5045 9.46194 5.69134Z" fill="#101010"/>
</g>
<defs>
<clipPath id="clip0_1222_11923">
<rect width="14" height="14" fill="white"/>
</clipPath>
</defs>
</svg>
