<svg width="14" height="14" viewBox="0 0 14 14" fill="none" xmlns="http://www.w3.org/2000/svg">
<g clip-path="url(#clip0_1222_11935)">
<path fill-rule="evenodd" clip-rule="evenodd" d="M13.25 8.75C12.8358 8.75 12.5 8.41421 12.5 8V5.5001C12.5 5.08589 12.8358 4.7501 13.25 4.7501C13.6642 4.7501 14 5.08589 14 5.5001V8C14 8.41421 13.6642 8.75 13.25 8.75ZM13.2499 3C12.8357 3 12.4999 2.66421 12.4999 2.25V1.75C12.4999 1.61193 12.3879 1.5 12.2499 1.5H11.7499C11.3357 1.5 10.9999 1.16421 10.9999 0.750001C10.9999 0.335788 11.3357 8.38006e-07 11.7499 8.74218e-07L12.2499 9.1793e-07C13.2164 1.00242e-06 13.9999 0.783503 13.9999 1.75V2.25C13.9999 2.66421 13.6641 3 13.2499 3ZM0.750001 3C0.335787 3 4.66469e-07 2.66421 5.02681e-07 2.25L5.46392e-07 1.75C6.30886e-07 0.783501 0.783502 -8.449e-08 1.75 0L2.25 4.371e-08C2.66421 7.9924e-08 3 0.335787 3 0.75C3 1.16421 2.66421 1.5 2.25 1.5H1.75C1.61193 1.5 1.5 1.61193 1.5 1.75V2.25C1.5 2.66421 1.16421 3 0.750001 3ZM8 1.5C8.41421 1.5 8.75 1.16421 8.75 0.750001C8.75 0.335787 8.41421 5.82605e-07 8 5.46393e-07L6 3.71548e-07C5.58579 3.35336e-07 5.25 0.335787 5.25 0.75C5.25 1.16421 5.58579 1.5 6 1.5H8ZM0 8C-3.62117e-08 8.41421 0.335787 8.75 0.75 8.75C1.16421 8.75 1.5 8.41421 1.5 8V5.49988C1.5 5.08566 1.16421 4.74988 0.75 4.74988C0.335787 4.74988 2.54779e-07 5.08566 2.18568e-07 5.49988L0 8Z" fill="#101010"/>
<path fill-rule="evenodd" clip-rule="evenodd" d="M12.25 14C13.2165 14 14 13.2165 14 12.25V7C14 6.58579 13.6642 6.25 13.25 6.25H0.750001C0.335787 6.25 4.95181e-07 6.58579 4.58969e-07 7L0 12.25C-8.44941e-08 13.2165 0.783502 14 1.75 14H12.25Z" fill="#FFE453"/>
</g>
<defs>
<clipPath id="clip0_1222_11935">
<rect width="14" height="14" fill="white"/>
</clipPath>
</defs>
</svg>
