<svg width="14" height="14" viewBox="0 0 14 14" fill="none" xmlns="http://www.w3.org/2000/svg">
<g clip-path="url(#clip0_1222_11931)">
<path fill-rule="evenodd" clip-rule="evenodd" d="M0.75 6.25C0.551088 6.25 0.360322 6.32902 0.21967 6.46967C0.0790176 6.61032 0 6.80109 0 7C0 8.85652 0.737498 10.637 2.05025 11.9497C3.36301 13.2625 5.14348 14 7 14C8.85651 14 10.637 13.2625 11.9497 11.9497C13.2625 10.637 14 8.85652 14 7C14 6.80109 13.921 6.61032 13.7803 6.46967C13.6397 6.32902 13.4489 6.25 13.25 6.25H0.75Z" fill="#FFE453"/>
<path fill-rule="evenodd" clip-rule="evenodd" d="M8.61018 0.182565C7.5505 -0.060855 6.44942 -0.060855 5.38974 0.182565C4.98604 0.2753 4.73396 0.677739 4.82669 1.08144C4.91943 1.48514 5.32187 1.73722 5.72556 1.64449C6.56425 1.45184 7.43568 1.45184 8.27436 1.64449C8.67806 1.73722 9.08051 1.48514 9.17323 1.08144C9.26596 0.677739 9.01388 0.2753 8.61018 0.182565ZM3.58812 1.71487C3.85172 2.03439 3.80638 2.50709 3.48686 2.77068C3.15904 3.04111 2.86465 3.34967 2.60988 3.68982L2.6057 3.69542C2.34908 4.03147 2.13484 4.39787 1.96789 4.78635C1.80433 5.1669 1.36324 5.34283 0.982688 5.17928C0.602129 5.01573 0.426207 4.57465 0.589755 4.19409C0.804926 3.69341 1.08087 3.2211 1.41138 2.78782C1.73713 2.35334 2.11343 1.95917 2.53232 1.6136C2.85184 1.35001 3.32453 1.39535 3.58812 1.71487ZM10.5089 1.70241C10.7793 1.38869 11.2529 1.35363 11.5666 1.62411C11.9687 1.97079 12.3291 2.36306 12.6406 2.79301C12.9693 3.22487 13.244 3.6954 13.4583 4.19409C13.6218 4.57465 13.4459 5.01573 13.0653 5.17928C12.6848 5.34283 12.2437 5.1669 12.0801 4.78635C11.9132 4.39787 11.699 4.03145 11.4424 3.6954L11.4304 3.67931C11.1862 3.34107 10.9031 3.0326 10.5872 2.76017C10.2734 2.4897 10.2384 2.01612 10.5089 1.70241Z" fill="#101010"/>
</g>
<defs>
<clipPath id="clip0_1222_11931">
<rect width="14" height="14" fill="white"/>
</clipPath>
</defs>
</svg>
