<svg width="14" height="14" viewBox="0 0 14 14" fill="none" xmlns="http://www.w3.org/2000/svg">
<g clip-path="url(#clip0_1222_11927)">
<path fill-rule="evenodd" clip-rule="evenodd" d="M11.1464 13.1463L7.35347 9.35342C7.15821 9.15815 6.84163 9.15816 6.64636 9.35342L2.85347 13.1463C2.53849 13.4613 2.76157 13.9999 3.20702 13.9999H10.7928C11.2383 13.9999 11.4614 13.4613 11.1464 13.1463ZM11.1464 0.853431L7.35347 4.64632C7.15821 4.84159 6.84163 4.84159 6.64636 4.64632L2.85347 0.85343C2.53849 0.538448 2.76157 -0.000122089 3.20702 -0.00012207L10.7928 -0.000121738C11.2383 -0.000121719 11.4614 0.538449 11.1464 0.853431Z" fill="#FFE453"/>
<path fill-rule="evenodd" clip-rule="evenodd" d="M13.2499 7.74988C13.6641 7.74988 13.9999 7.41409 13.9999 6.99988C13.9999 6.58566 13.6641 6.24988 13.2499 6.24988H12.2499C11.8357 6.24988 11.4999 6.58566 11.4999 6.99988C11.4999 7.41409 11.8357 7.74988 12.2499 7.74988H13.2499ZM9.41663 7.74988C9.83084 7.74988 10.1666 7.41409 10.1666 6.99988C10.1666 6.58566 9.83084 6.24988 9.41663 6.24988H8.41663C8.00241 6.24988 7.66663 6.58566 7.66663 6.99988C7.66663 7.41409 8.00241 7.74988 8.41663 7.74988H9.41663ZM6.33337 6.99988C6.33337 7.41409 5.99759 7.74988 5.58337 7.74988H4.58337C4.16916 7.74988 3.83337 7.41409 3.83337 6.99988C3.83337 6.58566 4.16916 6.24988 4.58337 6.24988H5.58337C5.99759 6.24988 6.33337 6.58566 6.33337 6.99988ZM1.75012 7.74988C2.16434 7.74988 2.50012 7.41409 2.50012 6.99988C2.50012 6.58566 2.16434 6.24988 1.75012 6.24988H0.750122C0.335909 6.24988 0.000122088 6.58566 0.00012207 6.99988C0.000122051 7.41409 0.335909 7.74988 0.750122 7.74988H1.75012Z" fill="#101010"/>
</g>
<defs>
<clipPath id="clip0_1222_11927">
<rect width="14" height="14" fill="white"/>
</clipPath>
</defs>
</svg>
