<svg width="14" height="14" viewBox="0 0 14 14" fill="none" xmlns="http://www.w3.org/2000/svg">
<path d="M5 1C4.84262 1 4.69443 1.0741 4.6 1.2L3.25 3H1.5C1.10217 3 0.720644 3.15804 0.43934 3.43934C0.158035 3.72064 0 4.10218 0 4.5V11.5C0 11.8978 0.158035 12.2794 0.43934 12.5607C0.720644 12.842 1.10217 13 1.5 13H12.5C12.8978 13 13.2794 12.842 13.5607 12.5607C13.842 12.2794 14 11.8978 14 11.5V4.5C14 4.10217 13.842 3.72064 13.5607 3.43934C13.2794 3.15804 12.8978 3 12.5 3H10.75L9.4 1.2C9.30557 1.0741 9.15738 1 9 1H5Z" fill="#FFE453"/>
<path fill-rule="evenodd" clip-rule="evenodd" d="M5.5 6.25C5.5 6.66421 5.16421 7 4.75 7C4.33579 7 4 6.66421 4 6.25C4 5.83579 4.33579 5.5 4.75 5.5C5.16421 5.5 5.5 5.83579 5.5 6.25ZM4.11705 8.41176C4.36319 8.16975 4.7589 8.1731 5.0009 8.41924C5.35907 8.78352 6.03951 9.16099 6.99842 9.16099C7.95732 9.16099 8.63777 8.78352 8.99593 8.41924C9.23794 8.1731 9.63365 8.16975 9.87979 8.41176C10.1259 8.65376 10.1293 9.04947 9.88727 9.29561C9.29275 9.90027 8.29058 10.411 6.99842 10.411C5.70626 10.411 4.70409 9.90027 4.10957 9.29561C3.86757 9.04947 3.87092 8.65376 4.11705 8.41176ZM9.25012 7C9.66434 7 10.0001 6.66421 10.0001 6.25C10.0001 5.83579 9.66434 5.5 9.25012 5.5C8.83591 5.5 8.50012 5.83579 8.50012 6.25C8.50012 6.66421 8.83591 7 9.25012 7Z" fill="#101010"/>
</svg>
