<svg width="14" height="14" viewBox="0 0 14 14" fill="none" xmlns="http://www.w3.org/2000/svg">
<path fill-rule="evenodd" clip-rule="evenodd" d="M13.9375 4.65625C13.9375 3.27554 12.8182 2.15625 11.4375 2.15625H2.5625C1.18179 2.15625 0.0625 3.27554 0.0625 4.65625V8.9449C0.0625 10.3256 1.18179 11.4449 2.5625 11.4449H11.4375C12.8182 11.4449 13.9375 10.3256 13.9375 8.9449V4.65625Z" fill="#FFE453"/>
<path fill-rule="evenodd" clip-rule="evenodd" d="M2.26907 5.87449C2.26907 5.63922 2.4598 5.44849 2.69508 5.44849H3.31242C3.49712 5.44849 3.65559 5.56631 3.71431 5.73245C3.80633 5.99281 4.092 6.12927 4.35235 6.03725C4.61271 5.94523 4.74918 5.65957 4.65715 5.39921C4.46163 4.84602 3.93409 4.44849 3.31242 4.44849H2.69508C1.90752 4.44849 1.26907 5.08693 1.26907 5.87449V7.72651C1.26907 8.51407 1.90752 9.15251 2.69508 9.15251H3.31242C4.09998 9.15251 4.73842 8.51407 4.73842 7.72651V7.10917C4.73842 6.83303 4.51457 6.60917 4.23842 6.60917H3.31242C3.03627 6.60917 2.81242 6.83303 2.81242 7.10917C2.81242 7.38531 3.03627 7.60917 3.31242 7.60917H3.73842V7.72651C3.73842 7.96178 3.54769 8.15251 3.31242 8.15251H2.69508C2.4598 8.15251 2.26907 7.96178 2.26907 7.72651V5.87449ZM7.80594 4.44861H6.88031H5.95393C5.67778 4.44861 5.45393 4.67247 5.45393 4.94861C5.45393 5.22475 5.67778 5.44861 5.95393 5.44861H6.37991V8.15263H5.95393C5.67778 8.15263 5.45393 8.37649 5.45393 8.65263C5.45393 8.92878 5.67778 9.15263 5.95393 9.15263H6.87991H7.80594C8.08208 9.15263 8.30594 8.92878 8.30594 8.65263C8.30594 8.37649 8.08208 8.15263 7.80594 8.15263H7.37991V5.44861H7.80594C8.08208 5.44861 8.30594 5.22475 8.30594 4.94861C8.30594 4.67247 8.08208 4.44861 7.80594 4.44861ZM9.2616 4.94849C9.2616 4.67234 9.48545 4.44849 9.7616 4.44849H12.2309C12.5071 4.44849 12.7309 4.67234 12.7309 4.94849C12.7309 5.22463 12.5071 5.44849 12.2309 5.44849H10.2616V6.14624H11.9223C12.1984 6.14624 12.4223 6.3701 12.4223 6.64624C12.4223 6.92238 12.1984 7.14624 11.9223 7.14624H10.2616V8.65251C10.2616 8.92865 10.0377 9.15251 9.7616 9.15251C9.48545 9.15251 9.2616 8.92865 9.2616 8.65251V6.64624V4.94849Z" fill="#101010"/>
</svg>
