<svg width="14" height="14" viewBox="0 0 14 14" fill="none" xmlns="http://www.w3.org/2000/svg">
<g clip-path="url(#clip0_1222_11959)">
<path d="M1.84315 7H0V11L1.82843 12.8284C2.57857 13.5786 3.59599 14 4.65685 14H10.5C11.3284 14 12 13.3284 12 12.5C12 11.6716 11.3284 11 10.5 11H7.5L4.67157 8.17157C3.92143 7.42143 2.90401 7 1.84315 7Z" fill="#FFE453"/>
<path fill-rule="evenodd" clip-rule="evenodd" d="M6.25497 9.75444C6.47576 10.0883 6.43916 10.5422 6.14516 10.8362C5.80934 11.172 5.26488 11.172 4.92906 10.8362L3.47905 9.38618C3.23497 9.14211 2.83925 9.14211 2.59517 9.38618C2.35109 9.63026 2.35109 10.026 2.59517 10.2701L4.04518 11.7201C4.86915 12.5441 6.20507 12.544 7.02904 11.7201C7.24113 11.508 7.39863 11.262 7.50154 10.9995H7.50004L6.25497 9.75444Z" fill="#101010"/>
<path fill-rule="evenodd" clip-rule="evenodd" d="M9.03033 0.21967C8.73744 -0.0732233 8.26256 -0.0732233 7.96967 0.21967C7.67678 0.512563 7.67678 0.987437 7.96967 1.28033L8.68934 2H6.5C6.22386 2 6 2.22386 6 2.5V7.5C6 7.77614 6.22386 8 6.5 8H13.5C13.7761 8 14 7.77614 14 7.5V2.5C14 2.22386 13.7761 2 13.5 2H11.3107L12.0303 1.28033C12.3232 0.987437 12.3232 0.512563 12.0303 0.21967C11.7374 -0.0732233 11.2626 -0.0732233 10.9697 0.21967L10 1.18934L9.03033 0.21967Z" fill="#101010"/>
<path fill-rule="evenodd" clip-rule="evenodd" d="M9.375 8V2H10.625V8H9.375Z" fill="#FFE453"/>
</g>
<defs>
<clipPath id="clip0_1222_11959">
<rect width="14" height="14" fill="white"/>
</clipPath>
</defs>
</svg>
