<svg width="14" height="14" viewBox="0 0 14 14" fill="none" xmlns="http://www.w3.org/2000/svg">
<g clip-path="url(#clip0_1222_11995)">
<path fill-rule="evenodd" clip-rule="evenodd" d="M10.0202 0.735676C9.07748 0.281448 8.04439 0.0458533 6.99794 0.0464489C5.74019 0.0468668 4.50595 0.388417 3.42696 1.03473C2.34792 1.68106 1.4644 2.60797 0.870497 3.71673C0.276597 4.82549 -0.00544202 6.07458 0.0544209 7.33096C0.110161 8.5008 0.460382 9.63617 1.07073 10.6325L0.0765003 13.2777C0.013186 13.4461 0.045278 13.6356 0.160531 13.7738C0.275783 13.912 0.456415 13.9776 0.6335 13.9456L4.09948 13.3189C4.9988 13.732 5.97656 13.9486 6.96747 13.9535C8.01396 13.9587 9.04811 13.7276 9.99286 13.2775C10.9376 12.8273 11.7686 12.1698 12.4238 11.3538C13.079 10.5378 13.5416 9.58445 13.7771 8.56479C14.0126 7.54514 14.0149 6.48548 13.7839 5.4648C13.5528 4.44413 13.0944 3.48877 12.4427 2.66994C11.7911 1.85111 10.963 1.18992 10.0202 0.735676Z" fill="#FFE453"/>
<path fill-rule="evenodd" clip-rule="evenodd" d="M7.19408 4.38832C7.00104 4.34993 6.80094 4.36963 6.6191 4.44496C6.43725 4.52028 6.28183 4.64783 6.17248 4.81149C6.06313 4.97514 6.00476 5.16755 6.00476 5.36437C6.00476 5.70955 5.72494 5.98937 5.37976 5.98937C5.03458 5.98937 4.75476 5.70955 4.75476 5.36437C4.75476 4.92032 4.88644 4.48624 5.13314 4.11702C5.37984 3.74781 5.73049 3.46004 6.14074 3.29011C6.55099 3.12017 7.00242 3.07571 7.43794 3.16234C7.87346 3.24897 8.27352 3.46281 8.58751 3.7768C8.9015 4.09079 9.11533 4.49084 9.20196 4.92636C9.28859 5.36188 9.24413 5.81331 9.0742 6.22356C8.90427 6.63382 8.6165 6.98446 8.24728 7.23117C8.05486 7.35974 7.84482 7.45707 7.62493 7.5208V8.06466C7.62493 8.40984 7.34511 8.68966 6.99993 8.68966C6.65475 8.68966 6.37493 8.40984 6.37493 8.06466V6.98455C6.37493 6.63937 6.65475 6.35955 6.99993 6.35955C7.19676 6.35955 7.38916 6.30118 7.55282 6.19183C7.71648 6.08248 7.84403 5.92705 7.91935 5.74521C7.99467 5.56337 8.01438 5.36327 7.97598 5.17023C7.93758 4.97718 7.8428 4.79986 7.70362 4.66068C7.56445 4.5215 7.38713 4.42672 7.19408 4.38832ZM6.99999 11.3899C6.50661 11.3888 6.10699 10.9885 6.10699 10.4949C6.10699 10.0006 6.50771 9.59988 7.00202 9.59988L7.00405 9.59989C7.49742 9.60099 7.89704 10.0013 7.89704 10.4949C7.89704 10.9892 7.49632 11.3899 7.00201 11.3899H6.99999Z" fill="#101010"/>
</g>
<defs>
<clipPath id="clip0_1222_11995">
<rect width="14" height="14" fill="white"/>
</clipPath>
</defs>
</svg>
