<svg width="14" height="14" viewBox="0 0 14 14" fill="none" xmlns="http://www.w3.org/2000/svg">
<g clip-path="url(#clip0_1222_12026)">
<path fill-rule="evenodd" clip-rule="evenodd" d="M7.75 5C7.75 4.58579 7.41421 4.25 7 4.25C6.58579 4.25 6.25 4.58579 6.25 5V6.75H3C2.0335 6.75 1.25 7.5335 1.25 8.5V10.5C1.25 10.9142 1.58579 11.25 2 11.25C2.41421 11.25 2.75 10.9142 2.75 10.5V8.5C2.75 8.36193 2.86193 8.25 3 8.25H6.25V10.5C6.25 10.9142 6.58579 11.25 7 11.25C7.41421 11.25 7.75 10.9142 7.75 10.5V8.25H11C11.1381 8.25 11.25 8.36193 11.25 8.5V10.5C11.25 10.9142 11.5858 11.25 12 11.25C12.4142 11.25 12.75 10.9142 12.75 10.5V8.5C12.75 7.5335 11.9665 6.75 11 6.75H7.75V5Z" fill="#101010"/>
<path fill-rule="evenodd" clip-rule="evenodd" d="M4.25 1V4.5C4.25 5.05228 4.69772 5.5 5.25 5.5H8.75C9.30228 5.5 9.75 5.05228 9.75 4.5V1C9.75 0.447715 9.30228 0 8.75 0H5.25C4.69772 0 4.25 0.447715 4.25 1ZM0 11C0 10.4477 0.447715 10 1 10H3C3.55228 10 4 10.4477 4 11V13C4 13.5523 3.55228 14 3 14H1C0.447715 14 0 13.5523 0 13V11ZM5 11C5 10.4477 5.44772 10 6 10H8C8.55228 10 9 10.4477 9 11V13C9 13.5523 8.55228 14 8 14H6C5.44772 14 5 13.5523 5 13V11ZM11 10C10.4477 10 10 10.4477 10 11V13C10 13.5523 10.4477 14 11 14H13C13.5523 14 14 13.5523 14 13V11C14 10.4477 13.5523 10 13 10H11Z" fill="#FFE453"/>
</g>
<defs>
<clipPath id="clip0_1222_12026">
<rect width="14" height="14" fill="white"/>
</clipPath>
</defs>
</svg>
