<svg width="14" height="14" viewBox="0 0 14 14" fill="none" xmlns="http://www.w3.org/2000/svg">
<g clip-path="url(#clip0_1222_12014)">
<path fill-rule="evenodd" clip-rule="evenodd" d="M8.99997 0.499999C8.99997 0.297768 8.87815 0.11545 8.69131 0.0380596C8.50447 -0.0393309 8.28942 0.00344697 8.14642 0.146446L6.14642 2.14645C5.95115 2.34171 5.95115 2.65829 6.14642 2.85355L8.14642 4.85355C8.28942 4.99655 8.50447 5.03933 8.69131 4.96194C8.87815 4.88455 8.99997 4.70223 8.99997 4.5V3.25H9.75C10.4404 3.25 11 3.80964 11 4.5V10.5C11 10.9142 11.3358 11.25 11.75 11.25C12.1642 11.25 12.5 10.9142 12.5 10.5V4.5C12.5 2.98122 11.2688 1.75 9.75 1.75H8.99997V0.499999ZM2.25 2.75C2.66421 2.75 3 3.08579 3 3.5V10.5C3 10.9142 2.66421 11.25 2.25 11.25C1.83579 11.25 1.5 10.9142 1.5 10.5V3.5C1.5 3.08579 1.83579 2.75 2.25 2.75Z" fill="#101010"/>
<path fill-rule="evenodd" clip-rule="evenodd" d="M1.5 0C0.671573 0 0 0.671573 0 1.5V3C0 3.82843 0.671573 4.5 1.5 4.5H3C3.82843 4.5 4.5 3.82843 4.5 3V1.5C4.5 0.671573 3.82843 0 3 0H1.5ZM1.5 9.5C0.671573 9.5 0 10.1716 0 11V12.5C0 13.3284 0.671573 14 1.5 14H3C3.82843 14 4.5 13.3284 4.5 12.5V11C4.5 10.1716 3.82843 9.5 3 9.5H1.5ZM9.5 11C9.5 10.1716 10.1716 9.5 11 9.5H12.5C13.3284 9.5 14 10.1716 14 11V12.5C14 13.3284 13.3284 14 12.5 14H11C10.1716 14 9.5 13.3284 9.5 12.5V11Z" fill="#FFE453"/>
</g>
<defs>
<clipPath id="clip0_1222_12014">
<rect width="14" height="14" fill="white"/>
</clipPath>
</defs>
</svg>
