<svg width="14" height="14" viewBox="0 0 14 14" fill="none" xmlns="http://www.w3.org/2000/svg">
<g clip-path="url(#clip0_1222_12006)">
<path fill-rule="evenodd" clip-rule="evenodd" d="M6.25 7.75V11.5H7.75V7.75H11C11.1381 7.75 11.25 7.86193 11.25 8V11.5C11.25 11.9142 11.5858 12.25 12 12.25C12.4142 12.25 12.75 11.9142 12.75 11.5V8C12.75 7.0335 11.9665 6.25 11 6.25H7.75V2.5H6.25V6.25H3C2.0335 6.25 1.25 7.0335 1.25 8V11.5C1.25 11.9142 1.58579 12.25 2 12.25C2.41421 12.25 2.75 11.9142 2.75 11.5V8C2.75 7.86193 2.86193 7.75 3 7.75H6.25Z" fill="#101010"/>
<path fill-rule="evenodd" clip-rule="evenodd" d="M5 2C5 1.17157 5.67157 0.5 6.5 0.5H7.5C8.32843 0.5 9 1.17157 9 2V3C9 3.82843 8.32843 4.5 7.5 4.5H6.5C5.67157 4.5 5 3.82843 5 3V2ZM5 11C5 10.1716 5.67157 9.5 6.5 9.5H7.5C8.32843 9.5 9 10.1716 9 11V12C9 12.8284 8.32843 13.5 7.5 13.5H6.5C5.67157 13.5 5 12.8284 5 12V11ZM1.5 9.5C0.671573 9.5 0 10.1716 0 11V12C0 12.8284 0.671573 13.5 1.5 13.5H2.5C3.32843 13.5 4 12.8284 4 12V11C4 10.1716 3.32843 9.5 2.5 9.5H1.5ZM10 11C10 10.1716 10.6716 9.5 11.5 9.5H12.5C13.3284 9.5 14 10.1716 14 11V12C14 12.8284 13.3284 13.5 12.5 13.5H11.5C10.6716 13.5 10 12.8284 10 12V11Z" fill="#FFE453"/>
</g>
<defs>
<clipPath id="clip0_1222_12006">
<rect width="14" height="14" fill="white"/>
</clipPath>
</defs>
</svg>
