<svg width="14" height="14" viewBox="0 0 14 14" fill="none" xmlns="http://www.w3.org/2000/svg">
<path fill-rule="evenodd" clip-rule="evenodd" d="M4.25 4.5C4.25 4.08579 3.91421 3.75 3.5 3.75C3.08579 3.75 2.75 4.08579 2.75 4.5V9V9.5C2.75 9.91421 3.08579 10.25 3.5 10.25C3.91421 10.25 4.25 9.91421 4.25 9.5V9C4.25 8.40326 4.48705 7.83097 4.90901 7.40901C5.33097 6.98705 5.90326 6.75 6.5 6.75H8.5C8.91421 6.75 9.25 6.41421 9.25 6C9.25 5.58579 8.91421 5.25 8.5 5.25H6.5C5.68394 5.25 4.8953 5.516 4.25 5.99998V4.5Z" fill="#101010"/>
<path fill-rule="evenodd" clip-rule="evenodd" d="M2.5 0C1.80964 0 1.25 0.559644 1.25 1.25V3.25C1.25 3.94036 1.80964 4.5 2.5 4.5H4.5C5.19036 4.5 5.75 3.94036 5.75 3.25V1.25C5.75 0.559644 5.19036 0 4.5 0H2.5ZM9.75 3.75C9.05964 3.75 8.5 4.30964 8.5 5V7C8.5 7.69036 9.05964 8.25 9.75 8.25H11.75C12.4404 8.25 13 7.69036 13 7V5C13 4.30964 12.4404 3.75 11.75 3.75H9.75ZM1.25 10.75C1.25 10.0596 1.80964 9.5 2.5 9.5H4.5C5.19036 9.5 5.75 10.0596 5.75 10.75V12.75C5.75 13.4404 5.19036 14 4.5 14H2.5C1.80964 14 1.25 13.4404 1.25 12.75V10.75Z" fill="#FFE453"/>
</svg>
