<svg width="14" height="14" viewBox="0 0 14 14" fill="none" xmlns="http://www.w3.org/2000/svg">
<path fill-rule="evenodd" clip-rule="evenodd" d="M4.75 2.5C4.75 2.08579 4.41421 1.75 4 1.75C3.58579 1.75 3.25 2.08579 3.25 2.5V4.5V11.5C3.25 11.9142 3.58579 12.25 4 12.25C4.41421 12.25 4.75 11.9142 4.75 11.5V7.50002C5.3953 7.984 6.18394 8.25 7 8.25H8C8.41421 8.25 8.75 7.91421 8.75 7.5C8.75 7.08579 8.41421 6.75 8 6.75H7C6.40326 6.75 5.83097 6.51295 5.40901 6.09099C4.98705 5.66903 4.75 5.09674 4.75 4.5V2.5Z" fill="#101010"/>
<path fill-rule="evenodd" clip-rule="evenodd" d="M3.25 0C2.42157 0 1.75 0.671573 1.75 1.5V3C1.75 3.82843 2.42157 4.5 3.25 4.5H4.75C5.57843 4.5 6.25 3.82843 6.25 3V1.5C6.25 0.671573 5.57843 0 4.75 0H3.25ZM3.25 9.5C2.42157 9.5 1.75 10.1716 1.75 11V12.5C1.75 13.3284 2.42157 14 3.25 14H4.75C5.57843 14 6.25 13.3284 6.25 12.5V11C6.25 10.1716 5.57843 9.5 4.75 9.5H3.25ZM8 6.75C8 5.92157 8.67157 5.25 9.5 5.25H11C11.8284 5.25 12.5 5.92157 12.5 6.75V8.25C12.5 9.07843 11.8284 9.75 11 9.75H9.5C8.67157 9.75 8 9.07843 8 8.25V6.75Z" fill="#FFE453"/>
</svg>
