<svg width="14" height="14" viewBox="0 0 14 14" fill="none" xmlns="http://www.w3.org/2000/svg">
<g clip-path="url(#clip0_1222_12022)">
<path fill-rule="evenodd" clip-rule="evenodd" d="M12.2523 1.7937C12.6423 1.93301 12.8456 2.36218 12.7063 2.75226L10.2063 9.75226C10.122 9.98841 9.92518 10.1668 9.6819 10.2276C9.43863 10.2884 9.18105 10.2236 8.9955 10.055L4.46018 5.93195L3.23335 11.6572C3.14656 12.0622 2.74787 12.3201 2.34286 12.2334C1.93784 12.1466 1.67986 11.7479 1.76665 11.3429L3.26665 4.34286C3.32288 4.08045 3.51504 3.86808 3.77053 3.78597C4.02603 3.70386 4.30593 3.76453 4.50451 3.94505L9.17207 8.18829L11.2937 2.24775C11.433 1.85767 11.8622 1.65438 12.2523 1.7937Z" fill="#101010"/>
<path fill-rule="evenodd" clip-rule="evenodd" d="M10.5 0H13C13.5523 0 14 0.447715 14 1V3.5C14 4.05228 13.5523 4.5 13 4.5H10.5C9.94771 4.5 9.5 4.05228 9.5 3.5V1C9.5 0.447715 9.94772 0 10.5 0ZM3 2.5H5.5C6.05228 2.5 6.5 2.94772 6.5 3.5V6C6.5 6.55228 6.05228 7 5.5 7H3C2.44772 7 2 6.55228 2 6V3.5C2 2.94772 2.44772 2.5 3 2.5ZM1 9.5H3.5C4.05228 9.5 4.5 9.94772 4.5 10.5V13C4.5 13.5523 4.05228 14 3.5 14H1C0.447715 14 0 13.5523 0 13V10.5C0 9.94771 0.447715 9.5 1 9.5ZM11 7H8.5C7.94772 7 7.5 7.44772 7.5 8V10.5C7.5 11.0523 7.94772 11.5 8.5 11.5H11C11.5523 11.5 12 11.0523 12 10.5V8C12 7.44772 11.5523 7 11 7Z" fill="#FFE453"/>
</g>
<defs>
<clipPath id="clip0_1222_12022">
<rect width="14" height="14" fill="white"/>
</clipPath>
</defs>
</svg>
