<svg width="14" height="14" viewBox="0 0 14 14" fill="none" xmlns="http://www.w3.org/2000/svg">
<g clip-path="url(#clip0_1222_12034)">
<path d="M2 13V7L7 2L12 7V13C12 13.5523 11.5523 14 11 14H3C2.44772 14 2 13.5523 2 13Z" fill="#FFE453"/>
<path fill-rule="evenodd" clip-rule="evenodd" d="M6.29289 1.29289C6.68342 0.90237 7.31658 0.90237 7.70711 1.29289L13.7071 7.29289C14.0976 7.68342 14.0976 8.31658 13.7071 8.70711C13.3166 9.09763 12.6834 9.09763 12.2929 8.70711L7 3.41421L1.70711 8.70711C1.31658 9.09763 0.683417 9.09763 0.292893 8.70711C-0.097631 8.31658 -0.097631 7.68342 0.292893 7.29289L6.29289 1.29289Z" fill="#101010"/>
</g>
<defs>
<clipPath id="clip0_1222_12034">
<rect width="14" height="14" fill="white"/>
</clipPath>
</defs>
</svg>
