<svg width="14" height="14" viewBox="0 0 14 14" fill="none" xmlns="http://www.w3.org/2000/svg">
<g clip-path="url(#clip0_1222_12039)">
<path d="M7 14C10.866 14 14 10.866 14 7C14 3.13401 10.866 0 7 0C3.13401 0 0 3.13401 0 7C0 10.866 3.13401 14 7 14Z" fill="#FFE453"/>
<path fill-rule="evenodd" clip-rule="evenodd" d="M5 7C5 7.55228 4.55228 8 4 8C3.44772 8 3 7.55228 3 7C3 6.44772 3.44772 6 4 6C4.55228 6 5 6.44772 5 7ZM8 7C8 7.55228 7.55228 8 7 8C6.44772 8 6 7.55228 6 7C6 6.44772 6.44772 6 7 6C7.55228 6 8 6.44772 8 7ZM10 8C10.5523 8 11 7.55228 11 7C11 6.44772 10.5523 6 10 6C9.44772 6 9 6.44772 9 7C9 7.55228 9.44772 8 10 8Z" fill="#101010"/>
</g>
<defs>
<clipPath id="clip0_1222_12039">
<rect width="14" height="14" fill="white"/>
</clipPath>
</defs>
</svg>
