<svg width="14" height="14" viewBox="0 0 14 14" fill="none" xmlns="http://www.w3.org/2000/svg">
<g clip-path="url(#clip0_1222_12047)">
<path fill-rule="evenodd" clip-rule="evenodd" d="M7 0C3.13401 0 0 3.13401 0 7C0 10.866 3.13401 14 7 14C10.866 14 14 10.866 14 7C14 3.13401 10.866 0 7 0Z" fill="#FFE453"/>
<path fill-rule="evenodd" clip-rule="evenodd" d="M5.54168 3.41297C5.18699 3.41297 4.89946 3.12544 4.89946 2.77075C4.89946 2.41606 5.18699 2.12862 5.54168 2.12862C5.89637 2.12862 6.1839 2.41606 6.1839 2.77075C6.1839 3.12544 5.89637 3.41297 5.54168 3.41297ZM8.60417 4.37503C8.04038 4.37503 7.58333 4.83207 7.58333 5.39586C7.58333 5.95965 8.04038 6.41669 8.60417 6.41669C9.16796 6.41669 9.625 5.95965 9.625 5.39586C9.625 4.83207 9.16796 4.37503 8.60417 4.37503ZM6.41667 8.60415C6.41667 9.16794 5.95962 9.62499 5.39583 9.62499C4.83204 9.62499 4.375 9.16794 4.375 8.60415C4.375 8.04036 4.83204 7.58332 5.39583 7.58332C5.95962 7.58332 6.41667 8.04036 6.41667 8.60415ZM7.58333 8.60415C7.58333 9.16794 8.04038 9.62499 8.60417 9.62499C9.16796 9.62499 9.625 9.16794 9.625 8.60415C9.625 8.04036 9.16796 7.58332 8.60417 7.58332C8.04038 7.58332 7.58333 8.04036 7.58333 8.60415ZM6.41667 5.39586C6.41667 4.83207 5.95962 4.37503 5.39583 4.37503C4.83204 4.37503 4.375 4.83207 4.375 5.39586C4.375 5.95965 4.83204 6.41669 5.39583 6.41669C5.95962 6.41669 6.41667 5.95965 6.41667 5.39586ZM4.89946 11.2291C4.89946 11.5838 5.18699 11.8713 5.54168 11.8713C5.89637 11.8713 6.1839 11.5838 6.1839 11.2291C6.1839 10.8744 5.89637 10.587 5.54168 10.587C5.18699 10.587 4.89946 10.8744 4.89946 11.2291ZM2.77086 6.18384C2.41618 6.18384 2.12864 5.89631 2.12864 5.54162C2.12864 5.18693 2.41618 4.89949 2.77086 4.89949C3.12555 4.89949 3.41309 5.18693 3.41309 5.54162C3.41309 5.89631 3.12555 6.18384 2.77086 6.18384ZM10.587 5.54162C10.587 5.89631 10.8745 6.18384 11.2292 6.18384C11.5839 6.18384 11.8715 5.89631 11.8715 5.54162C11.8715 5.18693 11.5839 4.89949 11.2292 4.89949C10.8745 4.89949 10.587 5.18693 10.587 5.54162ZM2.77086 9.10053C2.41618 9.10053 2.12864 8.813 2.12864 8.45831C2.12864 8.10362 2.41618 7.81618 2.77086 7.81618C3.12555 7.81618 3.41309 8.10362 3.41309 8.45831C3.41309 8.813 3.12555 9.10053 2.77086 9.10053ZM7.81611 2.77075C7.81611 3.12544 8.10364 3.41297 8.45833 3.41297C8.81302 3.41297 9.10056 3.12544 9.10056 2.77075C9.10056 2.41606 8.81302 2.12862 8.45833 2.12862C8.10364 2.12862 7.81611 2.41606 7.81611 2.77075ZM11.2292 9.10053C10.8745 9.10053 10.587 8.813 10.587 8.45831C10.587 8.10362 10.8745 7.81618 11.2292 7.81618C11.5839 7.81618 11.8715 8.10362 11.8715 8.45831C11.8715 8.813 11.5839 9.10053 11.2292 9.10053ZM7.81611 11.2291C7.81611 11.5838 8.10364 11.8713 8.45833 11.8713C8.81302 11.8713 9.10056 11.5838 9.10056 11.2291C9.10056 10.8744 8.81302 10.587 8.45833 10.587C8.10364 10.587 7.81611 10.8744 7.81611 11.2291Z" fill="#101010"/>
</g>
<defs>
<clipPath id="clip0_1222_12047">
<rect width="14" height="14" fill="white"/>
</clipPath>
</defs>
</svg>
