<svg width="14" height="14" viewBox="0 0 14 14" fill="none" xmlns="http://www.w3.org/2000/svg">
<g clip-path="url(#clip0_1222_12051)">
<path d="M6.46466 0.224514C6.75752 -0.0682188 7.23877 -0.07136 7.53164 0.221373C7.79872 0.491353 8.05658 0.770494 8.30996 1.0533C8.77156 1.56852 9.38856 2.293 10.0073 3.12795C10.6244 3.9606 11.2541 4.91763 11.7322 5.89731C12.2053 6.86672 12.5597 7.91785 12.5597 8.92307C12.5597 8.93692 12.5593 8.95078 12.5585 8.96461C12.4804 10.3727 11.8479 11.6926 10.7993 12.6359C9.72104 13.6059 8.08624 14 6.99982 14C5.91341 14 4.27859 13.6059 3.2003 12.6359C2.15172 11.6926 1.51921 10.3727 1.44109 8.96461C1.44033 8.95078 1.43994 8.93692 1.43994 8.92307C1.43994 7.91785 1.79437 6.86672 2.26747 5.89731C2.74558 4.91763 3.37525 3.9606 3.99231 3.12795C4.61108 2.293 5.22808 1.56852 5.68968 1.0533C5.94198 0.7717 6.19825 0.492928 6.46466 0.224514Z" fill="#FFE453"/>
<path d="M8.30996 1.05308C8.77156 1.56829 9.38857 2.29277 10.0073 3.12773C10.6244 3.96037 11.2541 4.91741 11.7322 5.89708C12.2053 6.8665 12.5597 7.91761 12.5597 8.92284C12.5597 8.93669 12.5593 8.95055 12.5585 8.96438C12.4804 10.3725 11.8479 11.6923 10.7993 12.6356C9.72105 13.6057 8.08624 13.9998 6.99982 13.9998V0.00315991C7.19279 0.00279904 7.38563 0.0752008 7.53164 0.221145C7.79872 0.491126 8.05658 0.770266 8.30996 1.05308Z" fill="#101010"/>
</g>
<defs>
<clipPath id="clip0_1222_12051">
<rect width="14" height="14" fill="white"/>
</clipPath>
</defs>
</svg>
