<svg width="14" height="14" viewBox="0 0 14 14" fill="none" xmlns="http://www.w3.org/2000/svg">
<g clip-path="url(#clip0_1222_12055)">
<path d="M7 14C10.866 14 14 10.866 14 7C14 3.13401 10.866 0 7 0C3.13401 0 0 3.13401 0 7C0 10.866 3.13401 14 7 14Z" fill="#FFE453"/>
<path fill-rule="evenodd" clip-rule="evenodd" d="M8 4C8 4.55228 7.55228 5 7 5C6.44772 5 6 4.55228 6 4C6 3.44772 6.44772 3 7 3C7.55228 3 8 3.44772 8 4ZM4.875 10C4.875 9.65482 5.15482 9.375 5.5 9.375H6.375V7.125H6C5.65482 7.125 5.375 6.84518 5.375 6.5C5.375 6.15482 5.65482 5.875 6 5.875H7C7.34518 5.875 7.625 6.15482 7.625 6.5V9.375H8.5C8.84518 9.375 9.125 9.65482 9.125 10C9.125 10.3452 8.84518 10.625 8.5 10.625H7H5.5C5.15482 10.625 4.875 10.3452 4.875 10Z" fill="#101010"/>
</g>
<defs>
<clipPath id="clip0_1222_12055">
<rect width="14" height="14" fill="white"/>
</clipPath>
</defs>
</svg>
