<svg width="200" height="19" viewBox="0 0 200 19" fill="none" xmlns="http://www.w3.org/2000/svg">
<path d="M2.10617 1.04548V18H0.0530864V1.04548H2.10617ZM7.91152 10.3506V18H5.95778V5.28411H7.84529V7.27097H8.01087C8.30889 6.62524 8.76146 6.10645 9.36855 5.7146C9.97565 5.31723 10.7594 5.11854 11.7197 5.11854C12.5806 5.11854 13.334 5.29515 13.9797 5.64837C14.6254 5.99607 15.1277 6.5259 15.4864 7.23785C15.8452 7.94429 16.0245 8.83838 16.0245 9.92011V18H14.0708V10.0526C14.0708 9.05362 13.8114 8.27544 13.2926 7.71801C12.7738 7.15507 12.0618 6.8736 11.1567 6.8736C10.5331 6.8736 9.97565 7.00881 9.48445 7.27925C8.99878 7.54968 8.6152 7.94429 8.33373 8.46308C8.05226 8.98187 7.91152 9.61104 7.91152 10.3506ZM25.1247 5.28411V6.93982H18.535V5.28411H25.1247ZM20.4556 2.2376H22.4094V14.3574C22.4094 14.9093 22.4894 15.3233 22.6495 15.5992C22.815 15.8696 23.0247 16.0518 23.2786 16.1456C23.538 16.2339 23.8112 16.2781 24.0982 16.2781C24.3134 16.2781 24.4901 16.267 24.628 16.2449C24.766 16.2173 24.8764 16.1953 24.9592 16.1787L25.3565 17.9338C25.2241 17.9834 25.0392 18.0331 24.8019 18.0828C24.5646 18.138 24.2638 18.1656 23.8995 18.1656C23.3476 18.1656 22.8067 18.0469 22.2769 17.8096C21.7526 17.5723 21.3166 17.2108 20.9689 16.7251C20.6267 16.2394 20.4556 15.6268 20.4556 14.8873V2.2376ZM33.2584 18.2649C32.0332 18.2649 30.9763 17.9945 30.0878 17.4536C29.2047 16.9072 28.5231 16.1456 28.0429 15.1687C27.5683 14.1863 27.331 13.0439 27.331 11.7414C27.331 10.4389 27.5683 9.29094 28.0429 8.29751C28.5231 7.29856 29.1909 6.52038 30.0464 5.96295C30.9073 5.40001 31.9118 5.11854 33.0598 5.11854C33.722 5.11854 34.3761 5.22892 35.0218 5.44968C35.6675 5.67044 36.2553 6.02918 36.7851 6.5259C37.3149 7.01709 37.7372 7.66834 38.0517 8.47964C38.3663 9.29094 38.5236 10.2899 38.5236 11.4765V12.3043H28.7218V10.6155H36.5368C36.5368 9.89804 36.3933 9.25783 36.1063 8.69488C35.8248 8.13194 35.4219 7.68766 34.8976 7.36203C34.3788 7.03641 33.7662 6.8736 33.0598 6.8736C32.2816 6.8736 31.6083 7.06676 31.0398 7.4531C30.4768 7.83391 30.0436 8.33063 29.7401 8.94324C29.4365 9.55585 29.2847 10.2126 29.2847 10.9135V12.0394C29.2847 12.9997 29.4503 13.8138 29.7814 14.4816C30.1181 15.1439 30.5845 15.6489 31.1805 15.9966C31.7766 16.3388 32.4692 16.5099 33.2584 16.5099C33.7717 16.5099 34.2353 16.4381 34.6492 16.2946C35.0687 16.1456 35.4302 15.9248 35.7337 15.6323C36.0373 15.3343 36.2718 14.9645 36.4374 14.523L38.3249 15.0528C38.1262 15.693 37.7923 16.256 37.3232 16.7417C36.8541 17.2218 36.2746 17.5971 35.5847 17.8675C34.8948 18.1325 34.1194 18.2649 33.2584 18.2649ZM41.4956 18V5.28411H43.3831V7.20474H43.5156C43.7474 6.57557 44.1668 6.06506 44.7739 5.6732C45.381 5.28135 46.0654 5.08542 46.827 5.08542C46.9705 5.08542 47.1499 5.08818 47.3651 5.0937C47.5804 5.09922 47.7432 5.1075 47.8536 5.11854V7.1054C47.7873 7.08884 47.6356 7.064 47.3983 7.03089C47.1665 6.99226 46.9209 6.97294 46.6615 6.97294C46.0433 6.97294 45.4914 7.10264 45.0057 7.36203C44.5256 7.61591 44.1448 7.96913 43.8633 8.42169C43.5873 8.86873 43.4494 9.37924 43.4494 9.95323V18H41.4956ZM56.6289 5.28411V6.93982H49.7742V5.28411H56.6289ZM51.8273 18V3.52905C51.8273 2.80054 51.9984 2.19344 52.3406 1.70777C52.6827 1.22209 53.127 0.857832 53.6734 0.614994C54.2198 0.372156 54.7965 0.250737 55.4036 0.250737C55.8838 0.250737 56.2756 0.28937 56.5792 0.366637C56.8827 0.443904 57.109 0.515651 57.258 0.58188L56.6951 2.27071C56.5957 2.23759 56.4578 2.1962 56.2812 2.14653C56.1101 2.09686 55.8838 2.07202 55.6023 2.07202C54.9566 2.07202 54.4902 2.23484 54.2032 2.56046C53.9218 2.88608 53.781 3.36348 53.781 3.99265V18H51.8273ZM62.7447 18.298C61.9389 18.298 61.2076 18.1463 60.5508 17.8427C59.8941 17.5336 59.3725 17.0894 58.9862 16.5099C58.5999 15.9248 58.4067 15.2184 58.4067 14.3905C58.4067 13.662 58.5502 13.0715 58.8372 12.6189C59.1242 12.1608 59.5077 11.8021 59.9879 11.5427C60.468 11.2833 60.9979 11.0902 61.5774 10.9632C62.1624 10.8308 62.7502 10.7259 63.3407 10.6486C64.1134 10.5493 64.7398 10.4748 65.22 10.4251C65.7056 10.3699 66.0588 10.2788 66.2796 10.1519C66.5059 10.025 66.619 9.80421 66.619 9.48963V9.4234C66.619 8.60658 66.3955 7.97189 65.9485 7.51933C65.5069 7.06676 64.8364 6.84048 63.9368 6.84048C63.0041 6.84048 62.2728 7.04469 61.7429 7.4531C61.2131 7.86151 60.8406 8.29751 60.6253 8.76111L58.7709 8.09883C59.1021 7.32616 59.5436 6.72458 60.0955 6.2941C60.6529 5.85809 61.26 5.55454 61.9168 5.38345C62.5791 5.20684 63.2303 5.11854 63.8705 5.11854C64.279 5.11854 64.7481 5.16821 65.2779 5.26755C65.8132 5.36138 66.3293 5.5573 66.826 5.85533C67.3282 6.15336 67.7449 6.60316 68.0761 7.20474C68.4072 7.80632 68.5728 8.6121 68.5728 9.62208V18H66.619V16.2781H66.5197C66.3872 16.554 66.1665 16.8493 65.8574 17.1639C65.5483 17.4784 65.1372 17.7461 64.6239 17.9669C64.1106 18.1876 63.4842 18.298 62.7447 18.298ZM63.0427 16.543C63.8154 16.543 64.4666 16.3912 64.9964 16.0876C65.5318 15.7841 65.9347 15.3922 66.2051 14.9121C66.4811 14.4319 66.619 13.9269 66.619 13.3971V11.6089C66.5362 11.7083 66.3541 11.7993 66.0726 11.8821C65.7967 11.9594 65.4766 12.0284 65.1123 12.0891C64.7536 12.1443 64.4031 12.194 64.061 12.2381C63.7243 12.2767 63.4511 12.3099 63.2414 12.3375C62.7336 12.4037 62.259 12.5113 61.8175 12.6603C61.3815 12.8038 61.0282 13.0218 60.7578 13.3143C60.4929 13.6013 60.3604 13.9932 60.3604 14.4899C60.3604 15.1687 60.6115 15.682 61.1138 16.0297C61.6215 16.3719 62.2645 16.543 63.0427 16.543ZM77.3046 18.2649C76.1125 18.2649 75.0859 17.9834 74.225 17.4205C73.364 16.8576 72.7017 16.0821 72.2381 15.0942C71.7745 14.1063 71.5427 12.9777 71.5427 11.7083C71.5427 10.4168 71.78 9.27714 72.2547 8.28923C72.7348 7.2958 73.4026 6.52038 74.2581 5.96295C75.1191 5.40001 76.1235 5.11854 77.2715 5.11854C78.1656 5.11854 78.9713 5.28411 79.6888 5.61525C80.4063 5.9464 80.9941 6.41 81.4522 7.00605C81.9102 7.60211 82.1945 8.29751 82.3049 9.09225H80.3511C80.2021 8.51275 79.871 7.99948 79.3577 7.55244C78.8499 7.09988 78.1656 6.8736 77.3046 6.8736C76.543 6.8736 75.8752 7.07228 75.3012 7.46965C74.7327 7.86151 74.2884 8.41617 73.9683 9.13365C73.6537 9.8456 73.4965 10.6817 73.4965 11.6421C73.4965 12.6244 73.651 13.4799 73.9601 14.2084C74.2746 14.9369 74.7162 15.5026 75.2846 15.9055C75.8586 16.3084 76.5319 16.5099 77.3046 16.5099C77.8123 16.5099 78.2732 16.4216 78.6871 16.2449C79.101 16.0683 79.4515 15.8145 79.7385 15.4833C80.0255 15.1522 80.2297 14.7548 80.3511 14.2912H82.3049C82.1945 15.0418 81.9213 15.7179 81.4853 16.3194C81.0548 16.9155 80.4836 17.3901 79.7716 17.7434C79.0652 18.0911 78.2428 18.2649 77.3046 18.2649ZM90.4924 18.2649C89.2671 18.2649 88.2102 17.9945 87.3217 17.4536C86.4386 16.9072 85.757 16.1456 85.2769 15.1687C84.8022 14.1863 84.5649 13.0439 84.5649 11.7414C84.5649 10.4389 84.8022 9.29094 85.2769 8.29751C85.757 7.29856 86.4248 6.52038 87.2803 5.96295C88.1413 5.40001 89.1457 5.11854 90.2937 5.11854C90.956 5.11854 91.61 5.22892 92.2557 5.44968C92.9014 5.67044 93.4892 6.02918 94.019 6.5259C94.5489 7.01709 94.9711 7.66834 95.2857 8.47964C95.6002 9.29094 95.7575 10.2899 95.7575 11.4765V12.3043H85.9557V10.6155H93.7707C93.7707 9.89804 93.6272 9.25783 93.3402 8.69488C93.0587 8.13194 92.6558 7.68766 92.1315 7.36203C91.6127 7.03641 91.0001 6.8736 90.2937 6.8736C89.5155 6.8736 88.8422 7.06676 88.2737 7.4531C87.7108 7.83391 87.2775 8.33063 86.974 8.94324C86.6704 9.55585 86.5187 10.2126 86.5187 10.9135V12.0394C86.5187 12.9997 86.6842 13.8138 87.0154 14.4816C87.352 15.1439 87.8184 15.6489 88.4144 15.9966C89.0105 16.3388 89.7031 16.5099 90.4924 16.5099C91.0056 16.5099 91.4692 16.4381 91.8832 16.2946C92.3026 16.1456 92.6641 15.9248 92.9677 15.6323C93.2712 15.3343 93.5058 14.9645 93.6713 14.523L95.5589 15.0528C95.3602 15.693 95.0263 16.256 94.5571 16.7417C94.088 17.2218 93.5085 17.5971 92.8186 17.8675C92.1288 18.1325 91.3533 18.2649 90.4924 18.2649ZM105.551 18V1.04548H115.783V2.86677H107.604V8.59554H115.254V10.4168H107.604V16.1787H115.916V18H105.551ZM128.226 8.13194L126.471 8.62865C126.361 8.33614 126.198 8.05191 125.983 7.77596C125.773 7.49449 125.486 7.26269 125.122 7.08056C124.757 6.89843 124.291 6.80737 123.723 6.80737C122.944 6.80737 122.296 6.98674 121.777 7.34548C121.264 7.69869 121.007 8.1485 121.007 8.69488C121.007 9.18056 121.184 9.56413 121.537 9.8456C121.89 10.1271 122.442 10.3616 123.193 10.5493L125.08 11.0129C126.217 11.2888 127.064 11.711 127.622 12.2795C128.179 12.8424 128.458 13.5682 128.458 14.4568C128.458 15.1853 128.248 15.8365 127.829 16.4105C127.415 16.9845 126.835 17.4371 126.09 17.7682C125.345 18.0993 124.479 18.2649 123.491 18.2649C122.194 18.2649 121.12 17.9834 120.27 17.4205C119.42 16.8576 118.882 16.0352 118.656 14.9535L120.51 14.4899C120.687 15.1742 121.021 15.6875 121.512 16.0297C122.009 16.3719 122.657 16.543 123.458 16.543C124.368 16.543 125.091 16.3498 125.627 15.9635C126.168 15.5716 126.438 15.1025 126.438 14.5561C126.438 14.1146 126.283 13.7448 125.974 13.4468C125.665 13.1432 125.191 12.917 124.55 12.7679L122.431 12.2712C121.267 11.9953 120.411 11.5675 119.865 10.988C119.324 10.403 119.053 9.67175 119.053 8.79423C119.053 8.07675 119.255 7.44206 119.658 6.89015C120.066 6.33825 120.621 5.905 121.322 5.59042C122.028 5.27583 122.828 5.11854 123.723 5.11854C124.981 5.11854 125.969 5.39449 126.686 5.9464C127.409 6.4983 127.923 7.22682 128.226 8.13194ZM140.406 8.13194L138.651 8.62865C138.541 8.33614 138.378 8.05191 138.162 7.77596C137.953 7.49449 137.666 7.26269 137.301 7.08056C136.937 6.89843 136.471 6.80737 135.902 6.80737C135.124 6.80737 134.476 6.98674 133.957 7.34548C133.444 7.69869 133.187 8.1485 133.187 8.69488C133.187 9.18056 133.364 9.56413 133.717 9.8456C134.07 10.1271 134.622 10.3616 135.373 10.5493L137.26 11.0129C138.397 11.2888 139.244 11.711 139.802 12.2795C140.359 12.8424 140.638 13.5682 140.638 14.4568C140.638 15.1853 140.428 15.8365 140.009 16.4105C139.595 16.9845 139.015 17.4371 138.27 17.7682C137.525 18.0993 136.659 18.2649 135.671 18.2649C134.374 18.2649 133.3 17.9834 132.45 17.4205C131.6 16.8576 131.062 16.0352 130.836 14.9535L132.69 14.4899C132.867 15.1742 133.201 15.6875 133.692 16.0297C134.189 16.3719 134.837 16.543 135.638 16.543C136.548 16.543 137.271 16.3498 137.806 15.9635C138.347 15.5716 138.618 15.1025 138.618 14.5561C138.618 14.1146 138.463 13.7448 138.154 13.4468C137.845 13.1432 137.37 12.917 136.73 12.7679L134.611 12.2712C133.446 11.9953 132.591 11.5675 132.045 10.988C131.504 10.403 131.233 9.67175 131.233 8.79423C131.233 8.07675 131.435 7.44206 131.838 6.89015C132.246 6.33825 132.801 5.905 133.502 5.59042C134.208 5.27583 135.008 5.11854 135.902 5.11854C137.161 5.11854 138.149 5.39449 138.866 5.9464C139.589 6.4983 140.102 7.22682 140.406 8.13194ZM148.91 18.2649C147.685 18.2649 146.628 17.9945 145.739 17.4536C144.856 16.9072 144.175 16.1456 143.695 15.1687C143.22 14.1863 142.983 13.0439 142.983 11.7414C142.983 10.4389 143.22 9.29094 143.695 8.29751C144.175 7.29856 144.843 6.52038 145.698 5.96295C146.559 5.40001 147.563 5.11854 148.711 5.11854C149.374 5.11854 150.028 5.22892 150.673 5.44968C151.319 5.67044 151.907 6.02918 152.437 6.5259C152.967 7.01709 153.389 7.66834 153.703 8.47964C154.018 9.29094 154.175 10.2899 154.175 11.4765V12.3043H144.373V10.6155H152.188C152.188 9.89804 152.045 9.25783 151.758 8.69488C151.476 8.13194 151.074 7.68766 150.549 7.36203C150.03 7.03641 149.418 6.8736 148.711 6.8736C147.933 6.8736 147.26 7.06676 146.691 7.4531C146.129 7.83391 145.695 8.33063 145.392 8.94324C145.088 9.55585 144.936 10.2126 144.936 10.9135V12.0394C144.936 12.9997 145.102 13.8138 145.433 14.4816C145.77 15.1439 146.236 15.6489 146.832 15.9966C147.428 16.3388 148.121 16.5099 148.91 16.5099C149.423 16.5099 149.887 16.4381 150.301 16.2946C150.72 16.1456 151.082 15.9248 151.385 15.6323C151.689 15.3343 151.924 14.9645 152.089 14.523L153.977 15.0528C153.778 15.693 153.444 16.256 152.975 16.7417C152.506 17.2218 151.926 17.5971 151.236 17.8675C150.547 18.1325 149.771 18.2649 148.91 18.2649ZM159.101 10.3506V18H157.147V5.28411H159.035V7.27097H159.2C159.498 6.62524 159.951 6.10645 160.558 5.7146C161.165 5.31723 161.949 5.11854 162.909 5.11854C163.77 5.11854 164.524 5.29515 165.169 5.64837C165.815 5.99607 166.317 6.5259 166.676 7.23785C167.035 7.94429 167.214 8.83838 167.214 9.92011V18H165.26V10.0526C165.26 9.05362 165.001 8.27544 164.482 7.71801C163.963 7.15507 163.251 6.8736 162.346 6.8736C161.723 6.8736 161.165 7.00881 160.674 7.27925C160.188 7.54968 159.805 7.94429 159.523 8.46308C159.242 8.98187 159.101 9.61104 159.101 10.3506ZM176.314 5.28411V6.93982H169.725V5.28411H176.314ZM171.645 2.2376H173.599V14.3574C173.599 14.9093 173.679 15.3233 173.839 15.5992C174.005 15.8696 174.214 16.0518 174.468 16.1456C174.728 16.2339 175.001 16.2781 175.288 16.2781C175.503 16.2781 175.68 16.267 175.818 16.2449C175.956 16.2173 176.066 16.1953 176.149 16.1787L176.546 17.9338C176.414 17.9834 176.229 18.0331 175.991 18.0828C175.754 18.138 175.453 18.1656 175.089 18.1656C174.537 18.1656 173.996 18.0469 173.466 17.8096C172.942 17.5723 172.506 17.2108 172.158 16.7251C171.816 16.2394 171.645 15.6268 171.645 14.8873V2.2376ZM179.253 18V5.28411H181.207V18H179.253ZM180.247 3.1648C179.866 3.1648 179.537 3.0351 179.261 2.7757C178.991 2.51631 178.856 2.20448 178.856 1.84022C178.856 1.47597 178.991 1.16414 179.261 0.904745C179.537 0.64535 179.866 0.515652 180.247 0.515652C180.627 0.515652 180.953 0.64535 181.223 0.904745C181.499 1.16414 181.637 1.47597 181.637 1.84022C181.637 2.20448 181.499 2.51631 181.223 2.7757C180.953 3.0351 180.627 3.1648 180.247 3.1648ZM188.527 18.298C187.721 18.298 186.99 18.1463 186.333 17.8427C185.677 17.5336 185.155 17.0894 184.769 16.5099C184.382 15.9248 184.189 15.2184 184.189 14.3905C184.189 13.662 184.333 13.0715 184.62 12.6189C184.907 12.1608 185.29 11.8021 185.77 11.5427C186.251 11.2833 186.78 11.0902 187.36 10.9632C187.945 10.8308 188.533 10.7259 189.123 10.6486C189.896 10.5493 190.522 10.4748 191.003 10.4251C191.488 10.3699 191.841 10.2788 192.062 10.1519C192.288 10.025 192.402 9.80421 192.402 9.48963V9.4234C192.402 8.60658 192.178 7.97189 191.731 7.51933C191.29 7.06676 190.619 6.84048 189.719 6.84048C188.787 6.84048 188.055 7.04469 187.526 7.4531C186.996 7.86151 186.623 8.29751 186.408 8.76111L184.554 8.09883C184.885 7.32616 185.326 6.72458 185.878 6.2941C186.436 5.85809 187.043 5.55454 187.699 5.38345C188.362 5.20684 189.013 5.11854 189.653 5.11854C190.062 5.11854 190.531 5.16821 191.06 5.26755C191.596 5.36138 192.112 5.5573 192.609 5.85533C193.111 6.15336 193.527 6.60316 193.859 7.20474C194.19 7.80632 194.355 8.6121 194.355 9.62208V18H192.402V16.2781H192.302C192.17 16.554 191.949 16.8493 191.64 17.1639C191.331 17.4784 190.92 17.7461 190.406 17.9669C189.893 18.1876 189.267 18.298 188.527 18.298ZM188.825 16.543C189.598 16.543 190.249 16.3912 190.779 16.0876C191.314 15.7841 191.717 15.3922 191.988 14.9121C192.264 14.4319 192.402 13.9269 192.402 13.3971V11.6089C192.319 11.7083 192.137 11.7993 191.855 11.8821C191.579 11.9594 191.259 12.0284 190.895 12.0891C190.536 12.1443 190.186 12.194 189.844 12.2381C189.507 12.2767 189.234 12.3099 189.024 12.3375C188.516 12.4037 188.042 12.5113 187.6 12.6603C187.164 12.8038 186.811 13.0218 186.54 13.3143C186.275 13.6013 186.143 13.9932 186.143 14.4899C186.143 15.1687 186.394 15.682 186.896 16.0297C187.404 16.3719 188.047 16.543 188.825 16.543ZM199.875 1.04548V18H197.921V1.04548H199.875Z" fill="#201717"/>
</svg>
