<svg width="14" height="14" viewBox="0 0 14 14" fill="none" xmlns="http://www.w3.org/2000/svg">
<g clip-path="url(#clip0_1222_12079)">
<path fill-rule="evenodd" clip-rule="evenodd" d="M1.6149 3.54054C2.10125 3.27885 2.70766 3.46096 2.96935 3.94731C3.16518 4.31123 3.42054 4.64715 3.72491 4.94323C3.7512 4.9657 3.77655 4.98973 3.80082 5.01531C4.60696 5.7624 5.73384 6.23766 7.00051 6.23766C8.2631 6.23766 9.38679 5.76546 10.1924 5.02254C10.2211 4.99172 10.2513 4.96309 10.2828 4.93668C10.5843 4.6422 10.8373 4.30855 11.0317 3.94731C11.2934 3.46096 11.8998 3.27885 12.3861 3.54054C12.8725 3.80224 13.0546 4.40865 12.7929 4.895C12.6617 5.13877 12.5139 5.37267 12.3509 5.59547L13.6423 6.6778C14.0656 7.03255 14.1212 7.66327 13.7664 8.08656C13.4117 8.50985 12.781 8.56541 12.3577 8.21067L10.918 7.00416C10.562 7.25732 10.1777 7.47632 9.7709 7.65658L10.3877 9.20986C10.5915 9.72316 10.3406 10.3045 9.82729 10.5083C9.31399 10.7121 8.73265 10.4612 8.52884 9.94795L7.83011 8.18826C7.55809 8.22088 7.28117 8.23766 7.00051 8.23766C6.71839 8.23766 6.44004 8.2207 6.16664 8.18775L5.46772 9.94795C5.2639 10.4612 4.68256 10.7121 4.16926 10.5083C3.65596 10.3045 3.40508 9.72316 3.60889 9.20986L4.22633 7.6549C3.82072 7.47486 3.43754 7.2563 3.08242 7.00377L1.64232 8.21067C1.21903 8.56541 0.588313 8.50985 0.233567 8.08656C-0.121178 7.66327 -0.0656125 7.03255 0.357677 6.6778L1.64977 5.59494C1.48691 5.37229 1.33921 5.13858 1.20814 4.895C0.94644 4.40865 1.12856 3.80224 1.6149 3.54054Z" fill="#101010"/>
</g>
<defs>
<clipPath id="clip0_1222_12079">
<rect width="14" height="14" fill="white"/>
</clipPath>
</defs>
</svg>
