<svg width="14" height="14" viewBox="0 0 14 14" fill="none" xmlns="http://www.w3.org/2000/svg">
<g clip-path="url(#clip0_1222_12075)">
<path d="M6.99999 2.04028C5.46801 2.04028 4.07957 2.71657 2.9654 3.51928C1.8472 4.3249 0.961968 5.28891 0.426074 5.93659L0.421601 5.94207C0.182285 6.23986 0.056282 6.61722 0.056282 7.00013C0.056282 7.38305 0.182286 7.76041 0.421601 8.0582L0.426074 8.06368C0.961968 8.71136 1.8472 9.67537 2.9654 10.481C4.07957 11.2837 5.46801 11.96 6.99999 11.96C8.53198 11.96 9.92042 11.2837 11.0346 10.481C12.1528 9.67537 13.038 8.71136 13.5739 8.06368L13.5784 8.0582C13.8177 7.76041 13.9437 7.38305 13.9437 7.00013C13.9437 6.61722 13.8177 6.23986 13.5784 5.94207L13.5739 5.93659C13.038 5.28891 12.1528 4.3249 11.0346 3.51928C9.92042 2.71657 8.53198 2.04028 6.99999 2.04028Z" fill="#FFE453"/>
<path fill-rule="evenodd" clip-rule="evenodd" d="M0.263661 1.32428C-0.0292322 1.03138 -0.0292322 0.556508 0.263661 0.263615C0.556555 -0.0292779 1.03143 -0.0292779 1.32432 0.263615L6.02996 4.96926C6.32368 4.82871 6.65264 4.75 6.99998 4.75C8.24262 4.75 9.24998 5.75736 9.24998 7C9.24998 7.34734 9.17127 7.6763 9.03072 7.97002L13.7364 12.6757C14.0293 12.9686 14.0293 13.4434 13.7364 13.7363C13.4435 14.0292 12.9686 14.0292 12.6757 13.7363L0.263661 1.32428Z" fill="#101010"/>
</g>
<defs>
<clipPath id="clip0_1222_12075">
<rect width="14" height="14" fill="white"/>
</clipPath>
</defs>
</svg>
