<svg width="14" height="14" viewBox="0 0 14 14" fill="none" xmlns="http://www.w3.org/2000/svg">
<g clip-path="url(#clip0_1222_12082)">
<path d="M9 3.5H5C4.17157 3.5 3.5 4.17157 3.5 5V9C3.5 9.82843 4.17157 10.5 5 10.5H9C9.82843 10.5 10.5 9.82843 10.5 9V5C10.5 4.17157 9.82843 3.5 9 3.5Z" fill="#101010"/>
<path fill-rule="evenodd" clip-rule="evenodd" d="M0.75 0.25C0.335786 0.25 0 0.585786 0 1C0 1.41421 0.335786 1.75 0.75 1.75H13.25C13.6642 1.75 14 1.41421 14 1C14 0.585786 13.6642 0.25 13.25 0.25H0.75ZM0.75 12.25C0.335786 12.25 0 12.5858 0 13C0 13.4142 0.335786 13.75 0.75 13.75H13.25C13.6642 13.75 14 13.4142 14 13C14 12.5858 13.6642 12.25 13.25 12.25H0.75Z" fill="#FFE453"/>
</g>
<defs>
<clipPath id="clip0_1222_12082">
<rect width="14" height="14" fill="white"/>
</clipPath>
</defs>
</svg>
