<svg width="14" height="14" viewBox="0 0 14 14" fill="none" xmlns="http://www.w3.org/2000/svg">
<path d="M0 7.5C0 6.67157 0.671573 6 1.5 6H7.5C8.32843 6 9 6.67157 9 7.5V11.5C9 12.3284 8.32843 13 7.5 13H1.5C0.671573 13 0 12.3284 0 11.5V7.5Z" fill="#FFE453"/>
<path d="M2.5 5C2.5 4.17157 3.17157 3.5 4 3.5H10C10.8284 3.5 11.5 4.17157 11.5 5V9C11.5 9.82843 10.8284 10.5 10 10.5H4C3.17157 10.5 2.5 9.82843 2.5 9V5Z" fill="#101010"/>
<path d="M5 2.5C5 1.67157 5.67157 1 6.5 1H12.5C13.3284 1 14 1.67157 14 2.5V6.5C14 7.32843 13.3284 8 12.5 8H6.5C5.67157 8 5 7.32843 5 6.5V2.5Z" fill="#FFE453"/>
</svg>
