<svg width="14" height="14" viewBox="0 0 14 14" fill="none" xmlns="http://www.w3.org/2000/svg">
<g clip-path="url(#clip0_1222_12096)">
<path d="M7 6.50473C6.76978 6.50473 6.54201 6.55205 6.33084 6.64375L0.618553 9.30928L0.604826 9.31594C0.429625 9.40431 0.282392 9.53958 0.179523 9.70667C0.0766537 9.87377 0.0221863 10.0661 0.0221863 10.2624C0.0221863 10.4586 0.0766537 10.651 0.179523 10.8181C0.282392 10.9852 0.429624 11.1204 0.604826 11.2088L0.619861 11.2161L6.3198 13.8562L6.33084 13.861C6.54201 13.9527 6.76978 14 7 14C7.23022 14 7.45805 13.9529 7.66922 13.8612L13.3814 11.1955L13.3952 11.1888C13.5704 11.1004 13.7176 10.9652 13.8205 10.7981C13.9233 10.631 13.9778 10.4386 13.9778 10.2424C13.9778 10.0461 13.9233 9.85377 13.8205 9.68667C13.7176 9.51958 13.5704 9.38431 13.3952 9.29594L13.3801 9.28867L7.68019 6.64854L7.66915 6.64375C7.45798 6.55205 7.23022 6.50473 7 6.50473Z" fill="#FFE453"/>
<path d="M7 3.25232C6.76978 3.25232 6.54201 3.29964 6.33084 3.39133L0.618553 6.05687L0.604826 6.06353C0.429625 6.1519 0.282392 6.28716 0.179523 6.45426C0.0766537 6.62136 0.0221863 6.81374 0.0221863 7.00996C0.0221863 7.20619 0.0766537 7.39856 0.179523 7.56566C0.282392 7.73276 0.429624 7.86802 0.604826 7.95639L0.619861 7.96366L6.3198 10.6038L6.33084 10.6086C6.54201 10.7003 6.76978 10.7476 7 10.7476C7.23022 10.7476 7.45805 10.7005 7.66922 10.6088L13.3814 7.94305L13.3952 7.93639C13.5704 7.84802 13.7176 7.71276 13.8205 7.54566C13.9233 7.37856 13.9778 7.18619 13.9778 6.98996C13.9778 6.79374 13.9233 6.60136 13.8205 6.43426C13.7176 6.26716 13.5704 6.1319 13.3952 6.04353L13.3801 6.03626L7.68019 3.39613L7.66915 3.39133C7.45798 3.29964 7.23022 3.25232 7 3.25232Z" fill="#101010"/>
<path d="M7 0C6.76978 0 6.54201 0.0473173 6.33084 0.139015L0.618553 2.80455L0.604826 2.81121C0.429625 2.89958 0.282392 3.03485 0.179523 3.20194C0.0766537 3.36904 0.0221863 3.56142 0.0221863 3.75764C0.0221863 3.95387 0.0766537 4.14624 0.179523 4.31334C0.282392 4.48044 0.429624 4.6157 0.604826 4.70407L0.619861 4.71134L6.3198 7.35147L6.33084 7.35627C6.54201 7.44797 6.76978 7.49528 7 7.49528C7.23022 7.49528 7.45805 7.44813 7.66922 7.35643L13.3814 4.69073L13.3952 4.68407C13.5704 4.5957 13.7176 4.46044 13.8205 4.29334C13.9233 4.12624 13.9778 3.93387 13.9778 3.73764C13.9778 3.54142 13.9233 3.34904 13.8205 3.18194C13.7176 3.01484 13.5704 2.87958 13.3952 2.79121L13.3801 2.78394L7.68019 0.14381L7.66915 0.139015C7.45798 0.0473173 7.23022 0 7 0Z" fill="#FFE453"/>
</g>
<defs>
<clipPath id="clip0_1222_12096">
<rect width="14" height="14" fill="white"/>
</clipPath>
</defs>
</svg>
