<svg width="14" height="14" viewBox="0 0 14 14" fill="none" xmlns="http://www.w3.org/2000/svg">
<g clip-path="url(#clip0_1222_12114)">
<path d="M0 1.5C0 0.671573 0.671573 0 1.5 0H12.5C13.3284 0 14 0.671573 14 1.5V12.5C14 13.3284 13.3284 14 12.5 14H1.5C0.671573 14 0 13.3284 0 12.5V1.5Z" fill="#FFE453"/>
<path fill-rule="evenodd" clip-rule="evenodd" d="M1.5 0H12.5C13.3284 0 14 0.671573 14 1.5V4H7.75V7.80554H14V9.30554H7.75V14H6.25V9.30554H0V7.80554H6.25V4H0V1.5C0 0.671573 0.671573 0 1.5 0Z" fill="#101010"/>
</g>
<defs>
<clipPath id="clip0_1222_12114">
<rect width="14" height="14" fill="white"/>
</clipPath>
</defs>
</svg>
