<svg width="14" height="14" viewBox="0 0 14 14" fill="none" xmlns="http://www.w3.org/2000/svg">
<g clip-path="url(#clip0_1222_12126)">
<path fill-rule="evenodd" clip-rule="evenodd" d="M1 12.4995C0.447715 12.4995 4.85396e-07 12.0518 4.37114e-07 11.4995L0 6.49951C-4.82823e-08 5.94723 0.447715 5.49951 1 5.49951H5.5C5.77614 5.49951 6 5.72337 6 5.99951V11.9995C6 12.2757 5.77614 12.4995 5.5 12.4995H1Z" fill="#101010"/>
<path fill-rule="evenodd" clip-rule="evenodd" d="M5.48634 13.2043C5.11417 13.2043 4.74669 13.1212 4.41072 12.9611L4.21129 12.866C3.68918 12.6172 3.35666 12.0903 3.35666 11.512L3.35667 6.06954C3.35667 5.81293 3.4225 5.56062 3.54786 5.33672L5.6252 1.62664C5.91262 1.11333 6.45499 0.79541 7.04329 0.79541C7.94089 0.79541 8.66854 1.52306 8.66854 2.42066V4.77828L11.9523 4.77827C13.18 4.77827 14.1179 5.87419 13.9283 7.08719L13.3024 11.0905C13.1122 12.3073 12.064 13.2043 10.8324 13.2043H5.48634Z" fill="#FFE453"/>
</g>
<defs>
<clipPath id="clip0_1222_12126">
<rect width="14" height="14" fill="white"/>
</clipPath>
</defs>
</svg>
