<svg width="14" height="14" viewBox="0 0 14 14" fill="none" xmlns="http://www.w3.org/2000/svg">
<g clip-path="url(#clip0_1222_12133)">
<path d="M4.5 8.88192V5.11799C4.5 4.37461 5.28231 3.89111 5.94721 4.22356L9.71115 6.10553C10.4482 6.47405 10.4482 7.52586 9.71114 7.89438L5.94721 9.77635C5.28231 10.1088 4.5 9.6253 4.5 8.88192Z" fill="#101010"/>
<path fill-rule="evenodd" clip-rule="evenodd" d="M8.09005 0.0844444C7.68082 0.0204002 7.29715 0.300231 7.23311 0.709463C7.16906 1.1187 7.44889 1.50236 7.85812 1.56641C10.4879 1.97797 12.5 4.25469 12.5 6.99996C12.5 10.0375 10.0376 12.5 6.99999 12.5C4.67862 12.5 2.69138 11.0616 1.88443 9.02466C1.73186 8.63956 1.29601 8.45106 0.910913 8.60362C0.525819 8.75618 0.337314 9.19204 0.489876 9.57713C1.51571 12.1665 4.04283 14 6.99999 14C10.866 14 14 10.866 14 6.99996C14 3.50439 11.4385 0.608473 8.09005 0.0844444ZM5.62443 1.57478C6.02557 1.47153 6.26706 1.06264 6.16381 0.661504C6.06057 0.260364 5.65168 0.0188738 5.25054 0.12212C4.92841 0.20503 4.61525 0.310276 4.31284 0.43609C3.93041 0.595198 3.74936 1.03421 3.90847 1.41664C4.06758 1.79908 4.50659 1.98012 4.88902 1.82101C5.12624 1.72232 5.37182 1.63979 5.62443 1.57478ZM3.16945 2.95477C3.46666 2.66625 3.4737 2.19143 3.18519 1.89423C2.89667 1.59702 2.42185 1.58997 2.12465 1.87849C1.65306 2.33628 1.24561 2.86011 0.91721 3.43531C0.711835 3.79502 0.836952 4.25312 1.19667 4.45849C1.55638 4.66387 2.01447 4.53875 2.21985 4.17904C2.47784 3.72716 2.79826 3.31511 3.16945 2.95477ZM1.55415 6.12603C1.61196 5.71587 1.32633 5.33651 0.916166 5.2787C0.506006 5.22089 0.126642 5.50652 0.0688322 5.91668C0.0234281 6.23882 0 6.56765 0 6.90152C0 7.31574 0.335786 7.65152 0.75 7.65152C1.16421 7.65152 1.5 7.31574 1.5 6.90152C1.5 6.6379 1.51849 6.37903 1.55415 6.12603Z" fill="#FFE453"/>
</g>
<defs>
<clipPath id="clip0_1222_12133">
<rect width="14" height="14" fill="white"/>
</clipPath>
</defs>
</svg>
