<svg width="14" height="14" viewBox="0 0 14 14" fill="none" xmlns="http://www.w3.org/2000/svg">
<g clip-path="url(#clip0_1222_12142)">
<path fill-rule="evenodd" clip-rule="evenodd" d="M1.5 0C0.671573 0 0 0.671573 0 1.5V12.5C0 13.3284 0.671573 14 1.5 14H8.5C9.32843 14 10 13.3284 10 12.5V9.24998H9.48437C9.39559 9.9564 8.93481 10.5705 8.26537 10.8478C7.51802 11.1573 6.65778 10.9862 6.08579 10.4142L4.08579 8.41421C3.30474 7.63316 3.30474 6.36683 4.08579 5.58578L6.08579 3.58578C6.65778 3.01379 7.51802 2.84268 8.26537 3.15224C8.9348 3.42953 9.39557 4.04357 9.48437 4.74998H10V1.5C10 0.671573 9.32843 0 8.5 0H1.5Z" fill="#FFE453"/>
<path fill-rule="evenodd" clip-rule="evenodd" d="M8.25 5.00002C8.25 4.69668 8.06727 4.4232 7.78701 4.30711C7.50676 4.19103 7.18417 4.25519 6.96967 4.46969L4.96967 6.46969C4.67678 6.76258 4.67678 7.23746 4.96967 7.53035L6.96967 9.53035C7.18417 9.74485 7.50676 9.80902 7.78701 9.69293C8.06727 9.57685 8.25 9.30337 8.25 9.00002V8.00002H13C13.5523 8.00002 14 7.55231 14 7.00002C14 6.44774 13.5523 6.00002 13 6.00002H8.25V5.00002Z" fill="#101010"/>
</g>
<defs>
<clipPath id="clip0_1222_12142">
<rect width="14" height="14" fill="white"/>
</clipPath>
</defs>
</svg>
