<svg width="14" height="14" viewBox="0 0 14 14" fill="none" xmlns="http://www.w3.org/2000/svg">
<g clip-path="url(#clip0_1222_12146)">
<path fill-rule="evenodd" clip-rule="evenodd" d="M1.5 0C0.671573 0 0 0.671573 0 1.5V12.5C0 13.3284 0.671573 14 1.5 14H8.5C9.32843 14 10 13.3284 10 12.5V10.5614C9.59735 10.239 9.33091 9.76944 9.26563 9.24998H5.75C4.50736 9.24998 3.5 8.24262 3.5 6.99998C3.5 5.75733 4.50736 4.74998 5.75 4.74998H9.26563C9.33093 4.23053 9.59736 3.76102 10 3.43863V1.5C10 0.671573 9.32843 0 8.5 0H1.5Z" fill="#FFE453"/>
<path fill-rule="evenodd" clip-rule="evenodd" d="M10.5 5.00002C10.5 4.69668 10.6827 4.4232 10.963 4.30711C11.2432 4.19103 11.5658 4.25519 11.7803 4.46969L13.7803 6.46969C14.0732 6.76258 14.0732 7.23746 13.7803 7.53035L11.7803 9.53035C11.5658 9.74485 11.2432 9.80902 10.963 9.69293C10.6827 9.57685 10.5 9.30337 10.5 9.00002V8.00002H5.75C5.19772 8.00002 4.75 7.55231 4.75 7.00002C4.75 6.44774 5.19772 6.00002 5.75 6.00002H10.5V5.00002Z" fill="#101010"/>
</g>
<defs>
<clipPath id="clip0_1222_12146">
<rect width="14" height="14" fill="white"/>
</clipPath>
</defs>
</svg>
