<svg width="14" height="14" viewBox="0 0 14 14" fill="none" xmlns="http://www.w3.org/2000/svg">
<path fill-rule="evenodd" clip-rule="evenodd" d="M3.56354 4.88361C3.28468 4.85707 3.00344 4.89207 2.74004 4.98598C2.47667 5.07989 2.23792 5.23028 2.04073 5.426C1.84355 5.6217 1.69279 5.85786 1.59885 6.11739C1.57099 6.19439 1.53958 6.3867 1.51992 6.62841C1.49924 6.88266 1.49924 7.11734 1.51992 7.37159C1.53958 7.61331 1.57099 7.80561 1.59885 7.88261C1.69279 8.14214 1.84355 8.3783 2.04073 8.574C2.23792 8.76972 2.47667 8.92011 2.74004 9.01402C3.00344 9.10793 3.28468 9.14293 3.56354 9.11639C3.58716 9.11414 3.61088 9.11301 3.63462 9.11301C4.00749 9.11301 4.41362 8.91372 4.90534 8.43237C5.29698 8.04899 5.6757 7.55448 6.07704 7C5.6757 6.44552 5.29698 5.95101 4.90534 5.56763C4.41362 5.08628 4.00749 4.88699 3.63462 4.88699C3.61088 4.88699 3.58716 4.88586 3.56354 4.88361ZM7 8.27712C6.67112 8.71529 6.32303 9.14365 5.95464 9.50427C5.35735 10.089 4.60346 10.5998 3.67103 10.6128C3.18512 10.654 2.69574 10.5907 2.23628 10.4269C1.76587 10.2592 1.3382 9.99012 0.984064 9.63864C0.629912 9.28714 0.358074 8.86188 0.188405 8.39313C0.0844702 8.10598 0.044063 7.72935 0.0248562 7.49317C0.0115438 7.32947 0.000276826 7.16441 0.000586052 6.99999C0.000895333 6.83555 0.0115351 6.67063 0.0248562 6.50683C0.044063 6.27065 0.0844702 5.89402 0.188405 5.60687C0.358074 5.13812 0.629912 4.71286 0.984064 4.36136C1.3382 4.00988 1.76587 3.74083 2.23628 3.57311C2.69574 3.40928 3.18512 3.34598 3.67103 3.38724C4.60346 3.40024 5.35735 3.91104 5.95464 4.49573C6.32303 4.85635 6.67112 5.28471 7 5.72288C7.32888 5.28471 7.67697 4.85635 8.04536 4.49573C8.64265 3.91104 9.39654 3.40024 10.329 3.38724C10.8149 3.34598 11.3043 3.40928 11.7637 3.57311C12.2341 3.74083 12.6618 4.00988 13.0159 4.36136C13.3701 4.71286 13.6419 5.13812 13.8116 5.60687C13.9155 5.89402 13.9559 6.27065 13.9751 6.50683C13.9885 6.67057 13.9994 6.83557 13.9997 6.99997C13.9999 7.16437 13.9885 7.3295 13.9751 7.49317C13.9559 7.72935 13.9155 8.10598 13.8116 8.39313C13.6419 8.86188 13.3701 9.28714 13.0159 9.63864C12.6618 9.99012 12.2341 10.2592 11.7637 10.4269C11.3043 10.5907 10.8149 10.654 10.329 10.6128C9.39654 10.5998 8.64265 10.089 8.04536 9.50427C7.67697 9.14365 7.32888 8.71529 7 8.27712ZM12.4801 7.37159C12.4604 7.61331 12.429 7.80561 12.4011 7.88261C12.3072 8.14214 12.1564 8.3783 11.9593 8.574C11.7621 8.76972 11.5233 8.92011 11.26 9.01402C10.9966 9.10793 10.7153 9.14293 10.4365 9.11639C10.4128 9.11414 10.3891 9.11301 10.3654 9.11301C9.99251 9.11301 9.58638 8.91372 9.09466 8.43237C8.70302 8.04899 8.3243 7.55448 7.92296 7C8.3243 6.44552 8.70302 5.95101 9.09466 5.56763C9.58638 5.08628 9.99251 4.88699 10.3654 4.88699C10.3891 4.88699 10.4128 4.88586 10.4365 4.88361C10.7153 4.85707 10.9966 4.89207 11.26 4.98598C11.5233 5.07989 11.7621 5.23028 11.9593 5.426C12.1564 5.6217 12.3072 5.85786 12.4011 6.11739C12.429 6.19439 12.4604 6.3867 12.4801 6.62841C12.5008 6.88266 12.5008 7.11734 12.4801 7.37159Z" fill="#FFE453"/>
</svg>
