<svg width="14" height="14" viewBox="0 0 14 14" fill="none" xmlns="http://www.w3.org/2000/svg">
<g clip-path="url(#clip0_1222_12153)">
<path fill-rule="evenodd" clip-rule="evenodd" d="M8.70711 5.29295C9.09763 5.68348 9.09763 6.31664 8.70711 6.70717L1.70711 13.7072C1.31658 14.0977 0.683417 14.0977 0.292893 13.7072C-0.097631 13.3166 -0.097631 12.6835 0.292893 12.293L7.29289 5.29295C7.68342 4.90243 8.31658 4.90243 8.70711 5.29295Z" fill="#FFE453"/>
<path d="M13.1899 1.34378L12.3499 3.82378C12.3209 3.88114 12.3058 3.94451 12.3058 4.00878C12.3058 4.07305 12.3209 4.13642 12.3499 4.19378L13.9199 6.29378C13.965 6.35389 13.9923 6.42549 13.9986 6.50038C14.0049 6.57527 13.99 6.65042 13.9555 6.71722C13.9211 6.78402 13.8685 6.83977 13.8038 6.87807C13.7392 6.91637 13.665 6.93568 13.5899 6.93378H10.9699C10.9057 6.93567 10.8427 6.95192 10.7856 6.98134C10.7285 7.01075 10.6787 7.05259 10.6399 7.10378L9.17989 9.20378C9.13707 9.26517 9.07788 9.31331 9.00906 9.34273C8.94024 9.37215 8.86455 9.38167 8.79059 9.37021C8.71662 9.35875 8.64736 9.32677 8.59067 9.2779C8.53397 9.22904 8.49213 9.16525 8.46989 9.09378L7.68989 6.59378C7.67209 6.53198 7.63891 6.47571 7.59343 6.43024C7.54796 6.38477 7.49169 6.35158 7.42989 6.33378L4.92989 5.55378C4.85843 5.53154 4.79463 5.4897 4.74577 5.43301C4.6969 5.37631 4.66492 5.30705 4.65346 5.23309C4.642 5.15912 4.65152 5.08343 4.68094 5.01461C4.71036 4.94579 4.7585 4.8866 4.81989 4.84378L6.95989 3.33378C7.01108 3.29497 7.05292 3.24518 7.08234 3.18807C7.11175 3.13096 7.128 3.06799 7.12989 3.00378V0.38378C7.13268 0.314965 7.1532 0.248036 7.18945 0.189475C7.22569 0.130914 7.27645 0.0827043 7.33679 0.0495137C7.39714 0.016323 7.46504 -0.000723874 7.5339 2.35619e-05C7.60277 0.000770998 7.67028 0.0192874 7.72989 0.05378L9.82989 1.62378C9.8832 1.66081 9.94455 1.68465 10.0089 1.69334C10.0732 1.70203 10.1387 1.69533 10.1999 1.67378L12.6799 0.83378C12.751 0.808784 12.8278 0.804395 12.9013 0.82112C12.9748 0.837845 13.0421 0.875003 13.0954 0.92831C13.1487 0.981616 13.1858 1.0489 13.2025 1.12241C13.2193 1.19592 13.2149 1.27266 13.1899 1.34378Z" fill="#101010"/>
</g>
<defs>
<clipPath id="clip0_1222_12153">
<rect width="14" height="14" fill="white"/>
</clipPath>
</defs>
</svg>
