<svg width="14" height="14" viewBox="0 0 14 14" fill="none" xmlns="http://www.w3.org/2000/svg">
<g clip-path="url(#clip0_1222_12157)">
<path d="M7 14C10.866 14 14 10.866 14 7C14 3.13401 10.866 0 7 0C3.13401 0 0 3.13401 0 7C0 10.866 3.13401 14 7 14Z" fill="#FFE453"/>
<path fill-rule="evenodd" clip-rule="evenodd" d="M4.625 6.5C4.625 5.46447 5.46447 4.625 6.5 4.625C7.53553 4.625 8.375 5.46447 8.375 6.5C8.375 7.53553 7.53553 8.375 6.5 8.375C5.46447 8.375 4.625 7.53553 4.625 6.5ZM6.5 3.375C4.77411 3.375 3.375 4.77411 3.375 6.5C3.375 8.22589 4.77411 9.625 6.5 9.625C7.13705 9.625 7.72958 9.43438 8.22365 9.10706L9.55806 10.4415C9.80214 10.6856 10.1979 10.6856 10.4419 10.4415C10.686 10.1974 10.686 9.80167 10.4419 9.55759L9.10744 8.22308C9.43453 7.72912 9.625 7.1368 9.625 6.5C9.625 4.77411 8.22589 3.375 6.5 3.375Z" fill="#101010"/>
</g>
<defs>
<clipPath id="clip0_1222_12157">
<rect width="14" height="14" fill="white"/>
</clipPath>
</defs>
</svg>
