<svg width="14" height="14" viewBox="0 0 14 14" fill="none" xmlns="http://www.w3.org/2000/svg">
<path d="M3.5 13.25H11.7335V10.25H3.5C3.10218 10.25 2.72064 10.408 2.43934 10.6894C2.15804 10.9707 2 11.3522 2 11.75C2 12.1478 2.15804 12.5294 2.43934 12.8107C2.72064 13.092 3.10218 13.25 3.5 13.25Z" fill="#101010"/>
<path fill-rule="evenodd" clip-rule="evenodd" d="M1.25 2.25V11.625C1.25 12.9367 2.31332 14 3.625 14H12C12.4142 14 12.75 13.6642 12.75 13.25C12.75 12.8358 12.4142 12.5 12 12.5H3.625C3.14175 12.5 2.75 12.1082 2.75 11.625C2.75 11.1418 3.14175 10.75 3.625 10.75H12C12.4142 10.75 12.75 10.4142 12.75 10V2.25C12.75 1.00736 11.7426 0 10.5 0H3.5C2.25736 0 1.25 1.00736 1.25 2.25Z" fill="#FFE453"/>
<path fill-rule="evenodd" clip-rule="evenodd" d="M7.1707 2.82883C7.00097 2.79506 6.82504 2.81239 6.66515 2.87862C6.50527 2.94484 6.36861 3.057 6.27246 3.20089C6.17632 3.34478 6.125 3.51395 6.125 3.68701C6.125 4.03219 5.84518 4.31201 5.5 4.31201C5.15482 4.31201 4.875 4.03219 4.875 3.68701C4.875 3.26673 4.99963 2.85588 5.23313 2.50643C5.46663 2.15697 5.7985 1.8846 6.1868 1.72377C6.57509 1.56293 7.00236 1.52085 7.41457 1.60284C7.82678 1.68484 8.20542 1.88722 8.5026 2.18441C8.79979 2.4816 9.00218 2.86024 9.08417 3.27245C9.16616 3.68466 9.12408 4.11192 8.96324 4.50021C8.80241 4.88851 8.53004 5.22039 8.18059 5.45389C8.00802 5.56919 7.82048 5.65795 7.62423 5.71826C7.60795 6.04892 7.3347 6.31201 7 6.31201C6.65482 6.31201 6.375 6.03219 6.375 5.68701V5.18701C6.375 4.84183 6.65482 4.56201 7 4.56201C7.17306 4.56201 7.34223 4.51069 7.48612 4.41455C7.63002 4.3184 7.74217 4.18175 7.80839 4.02186C7.87462 3.86198 7.89195 3.68604 7.85819 3.51631C7.82443 3.34658 7.74109 3.19067 7.61872 3.06829C7.49635 2.94592 7.34044 2.86259 7.1707 2.82883ZM6.125 8.00879C6.125 8.49204 6.51675 8.88379 7 8.88379C7.48325 8.88379 7.875 8.49204 7.875 8.00879C7.875 7.52554 7.48325 7.13379 7 7.13379C6.51675 7.13379 6.125 7.52554 6.125 8.00879Z" fill="#101010"/>
</svg>
