<svg width="14" height="14" viewBox="0 0 14 14" fill="none" xmlns="http://www.w3.org/2000/svg">
<g clip-path="url(#clip0_1222_12170)">
<path fill-rule="evenodd" clip-rule="evenodd" d="M4 3.5H3C1.34315 3.5 0 4.84315 0 6.5C0 7.80622 0.834808 8.91746 2 9.32929V10.5C2 12.1569 3.34315 13.5 5 13.5H5.5C6.05228 13.5 6.5 13.0523 6.5 12.5C6.5 11.9477 6.05228 11.5 5.5 11.5H5C4.44772 11.5 4 11.0523 4 10.5V9.5V9V3.5Z" fill="#101010"/>
<path d="M11.6634 0.794702L3.99591 3.49994V9.49994L11.7427 11.8418C12.8532 12.1656 14 11.4426 14 10.4188V2.19271C14 1.13767 12.7877 0.412306 11.6634 0.794702Z" fill="#FFE453"/>
</g>
<defs>
<clipPath id="clip0_1222_12170">
<rect width="14" height="14" fill="white"/>
</clipPath>
</defs>
</svg>
