<svg width="14" height="14" viewBox="0 0 14 14" fill="none" xmlns="http://www.w3.org/2000/svg">
<g clip-path="url(#clip0_1222_12179)">
<path fill-rule="evenodd" clip-rule="evenodd" d="M6.91342 4.3806C5.99979 4.00217 4.99446 3.90315 4.02455 4.09608C3.05465 4.289 2.16373 4.76521 1.46447 5.46447C0.765206 6.16373 0.289002 7.05465 0.0960758 8.02455C-0.0968502 8.99445 0.00216636 9.99979 0.380605 10.9134C0.759043 11.827 1.39991 12.6079 2.22215 13.1574C3.0444 13.7068 4.0111 14 5 14H11C11.7957 14 12.5587 13.6839 13.1213 13.1213C13.6839 12.5587 14 11.7957 14 11C14 10.2044 13.6839 9.44129 13.1213 8.87868C12.5587 8.31607 11.7957 8 11 8C10.634 8.00049 10.2729 8.0677 9.93494 8.196C9.82041 7.49306 9.55648 6.81949 9.15735 6.22215C8.60794 5.3999 7.82705 4.75904 6.91342 4.3806Z" fill="#FFE453"/>
<path fill-rule="evenodd" clip-rule="evenodd" d="M11.035 0.527976C11.0956 0.757043 11.0491 1.0431 10.8432 1.24906C10.3359 1.75636 10.3359 2.57885 10.8432 3.08615C11.3505 3.59345 12.1729 3.59345 12.6802 3.08615C12.8862 2.88019 13.1723 2.83371 13.4013 2.89429C13.6444 2.95857 13.925 3.1849 13.9106 3.56872C13.8794 4.40076 13.5457 5.22499 12.9103 5.86041L12.9 5.87039C12.431 6.31334 11.9315 6.60569 11.4286 6.77165C11.2868 6.75729 11.1438 6.75 11 6.75H10.9982C10.943 6.75008 10.8873 6.75123 10.8323 6.75344C10.6672 6.3248 10.4545 5.91352 10.1967 5.52769C9.50994 4.49988 8.53382 3.6988 7.39178 3.22576C7.23678 3.16155 7.07967 3.10378 6.92084 3.05248C7.03948 2.3451 7.41058 1.64165 8.0741 1.0138C8.70882 0.381748 9.53081 0.0498497 10.3606 0.0187206C10.7444 0.00432106 10.9707 0.284913 11.035 0.527976Z" fill="#101010"/>
</g>
<defs>
<clipPath id="clip0_1222_12179">
<rect width="14" height="14" fill="white"/>
</clipPath>
</defs>
</svg>
