<svg width="14" height="14" viewBox="0 0 14 14" fill="none" xmlns="http://www.w3.org/2000/svg">
<g clip-path="url(#clip0_1222_12183)">
<path d="M8.5 1.5C8.5 0.671573 9.17157 0 10 0H12.5C13.3284 0 14 0.671573 14 1.5V12.5C14 13.3284 13.3284 14 12.5 14H10C9.17157 14 8.5 13.3284 8.5 12.5V1.5Z" fill="#101010"/>
<path fill-rule="evenodd" clip-rule="evenodd" d="M3.19134 4.03807C3.37818 4.11547 3.5 4.29778 3.5 4.50001V6.00001H6.5C7.05228 6.00001 7.5 6.44773 7.5 7.00001C7.5 7.5523 7.05228 8.00001 6.5 8.00001H3.5V9.50001C3.5 9.70225 3.37818 9.88456 3.19134 9.96195C3.0045 10.0393 2.78945 9.99657 2.64645 9.85357L0.146447 7.35357C-0.0488156 7.15831 -0.0488156 6.84172 0.146447 6.64646L2.64645 4.14646C2.78945 4.00346 3.0045 3.96068 3.19134 4.03807Z" fill="#FFE453"/>
</g>
<defs>
<clipPath id="clip0_1222_12183">
<rect width="14" height="14" fill="white"/>
</clipPath>
</defs>
</svg>
