<svg width="14" height="14" viewBox="0 0 14 14" fill="none" xmlns="http://www.w3.org/2000/svg">
<g clip-path="url(#clip0_1222_12187)">
<path d="M0.000244141 1.5C0.000244141 0.671573 0.671817 0 1.50024 0H4.00024C4.82867 0 5.50024 0.671573 5.50024 1.5V12.5C5.50024 13.3284 4.82867 14 4.00024 14H1.50024C0.671817 14 0.000244141 13.3284 0.000244141 12.5V1.5Z" fill="#101010"/>
<path fill-rule="evenodd" clip-rule="evenodd" d="M10.8087 4.03807C10.9955 3.96068 11.2106 4.00346 11.3536 4.14646L13.8536 6.64646C14.0488 6.84172 14.0488 7.15831 13.8536 7.35357L11.3536 9.85357C11.2106 9.99657 10.9955 10.0393 10.8087 9.96195C10.6218 9.88456 10.5 9.70225 10.5 9.50001V8.00001H7.5C6.94772 8.00001 6.5 7.5523 6.5 7.00001C6.5 6.44773 6.94772 6.00001 7.5 6.00001H10.5V4.50001C10.5 4.29778 10.6218 4.11547 10.8087 4.03807Z" fill="#FFE453"/>
</g>
<defs>
<clipPath id="clip0_1222_12187">
<rect width="14" height="14" fill="white"/>
</clipPath>
</defs>
</svg>
