<svg width="14" height="14" viewBox="0 0 14 14" fill="none" xmlns="http://www.w3.org/2000/svg">
<path d="M4 1.5C4 0.671573 4.67157 0 5.5 0H11C11.8284 0 12.5 0.671573 12.5 1.5V10C12.5 10.8284 11.8284 11.5 11 11.5H5.5C4.67157 11.5 4 10.8284 4 10V1.5Z" fill="#101010"/>
<path d="M1.49991 4C1.49991 3.17157 2.17148 2.5 2.99991 2.5H8.49991C9.32834 2.5 9.99991 3.17157 9.99991 4V12.5C9.99991 13.3284 9.32834 14 8.49991 14H2.99991C2.17148 14 1.49991 13.3284 1.49991 12.5V4Z" fill="#FFE453"/>
<path fill-rule="evenodd" clip-rule="evenodd" d="M3.1246 5C3.1246 4.65482 3.40443 4.375 3.7496 4.375H7.7496C8.09478 4.375 8.3746 4.65482 8.3746 5C8.3746 5.34518 8.09478 5.625 7.7496 5.625H3.7496C3.40443 5.625 3.1246 5.34518 3.1246 5ZM3.12509 7.5C3.12509 7.15482 3.40491 6.875 3.75009 6.875H7.75009C8.09527 6.875 8.37509 7.15482 8.37509 7.5C8.37509 7.84518 8.09527 8.125 7.75009 8.125H3.75009C3.40491 8.125 3.12509 7.84518 3.12509 7.5ZM3.74933 9.375C3.40415 9.375 3.12433 9.65482 3.12433 10C3.12433 10.3452 3.40415 10.625 3.74933 10.625H5.74933C6.09451 10.625 6.37433 10.3452 6.37433 10C6.37433 9.65482 6.09451 9.375 5.74933 9.375H3.74933Z" fill="#101010"/>
</svg>
