<svg width="14" height="14" viewBox="0 0 14 14" fill="none" xmlns="http://www.w3.org/2000/svg">
<g clip-path="url(#clip0_1222_12196)">
<path fill-rule="evenodd" clip-rule="evenodd" d="M6.12675 0.555574C5.85595 0.34977 5.52332 0.242156 5.18345 0.250241H1.5C1.10218 0.250241 0.720644 0.408277 0.43934 0.689581C0.158035 0.970886 0 1.35242 0 1.75024V12.2502C0 12.6481 0.158035 13.0296 0.43934 13.3109C0.720644 13.5922 1.10217 13.7502 1.5 13.7502H12.5C12.8978 13.7502 13.2794 13.5922 13.5607 13.3109C13.842 13.0296 14 12.6481 14 12.2502V3.75024C14 3.35242 13.842 2.97089 13.5607 2.68958C13.2794 2.40828 12.8978 2.25024 12.5 2.25024H6.89039L6.67544 1.39045C6.59321 1.05795 6.39945 0.762831 6.12675 0.555574Z" fill="#FFE453"/>
<path fill-rule="evenodd" clip-rule="evenodd" d="M9.04064 4.49402C9.18353 4.45554 9.33334 4.45037 9.47855 4.4789C9.62376 4.50743 9.76048 4.56891 9.87819 4.65859C9.99589 4.74827 10.0915 4.86377 10.1575 4.9962C10.2236 5.12863 10.2583 5.27444 10.2592 5.42242V5.42646L10.26 9.10931C10.2605 9.12592 10.2608 9.14261 10.2608 9.15936C10.2608 10.0074 9.57326 10.6949 8.72518 10.6949C7.87711 10.6949 7.18961 10.0074 7.18961 9.15936C7.18961 8.31128 7.87711 7.62378 8.72518 7.62378C8.7367 7.62378 8.74819 7.62391 8.75964 7.62416L8.75937 6.3215L6.35176 6.99028L6.35244 10.2759L6.3524 10.2835C6.35208 11.1313 5.6647 11.8185 4.81683 11.8185C3.96875 11.8185 3.28125 11.131 3.28125 10.2829C3.28125 9.43484 3.96875 8.74734 4.81683 8.74734C4.82862 8.74734 4.84039 8.74747 4.85212 8.74774L4.85164 6.39064V6.38627C4.85283 6.17452 4.9235 5.969 5.05278 5.80129C5.18126 5.6346 5.36059 5.51441 5.56352 5.45889L9.0351 4.49553L9.04064 4.49402Z" fill="#101010"/>
</g>
<defs>
<clipPath id="clip0_1222_12196">
<rect width="14" height="14" fill="white"/>
</clipPath>
</defs>
</svg>
