<svg width="14" height="14" viewBox="0 0 14 14" fill="none" xmlns="http://www.w3.org/2000/svg">
<g clip-path="url(#clip0_1222_12208)">
<path d="M1.5 14H8.37868C8.7765 14 9.15804 13.842 9.43934 13.5607L13.5607 9.43934C13.842 9.15804 14 8.7765 14 8.37868V1.5C14 0.671573 13.3284 0 12.5 0H1.5C0.671573 0 0 0.671573 0 1.5V12.5C0 13.3284 0.671573 14 1.5 14Z" fill="#FFE453"/>
<path d="M13.9951 8.5H9C8.72386 8.5 8.5 8.72386 8.5 9V13.9951C8.85341 13.9664 9.18677 13.8132 9.43934 13.5607L13.5607 9.43934C13.8132 9.18677 13.9664 8.85341 13.9951 8.5Z" fill="#101010"/>
</g>
<defs>
<clipPath id="clip0_1222_12208">
<rect width="14" height="14" fill="white"/>
</clipPath>
</defs>
</svg>
