<svg width="14" height="14" viewBox="0 0 14 14" fill="none" xmlns="http://www.w3.org/2000/svg">
<path d="M2.49997 0C2.10214 0 1.72061 0.158035 1.43931 0.43934C1.158 0.720644 0.999969 1.10218 0.999969 1.5V12.5C0.999969 12.8978 1.158 13.2794 1.43931 13.5607C1.72061 13.842 2.10214 14 2.49997 14H11.5C11.8978 14 12.2793 13.842 12.5606 13.5607C12.8419 13.2794 13 12.8978 13 12.5V5C13 4.86739 12.9473 4.74021 12.8535 4.64645L8.35352 0.146447C8.25975 0.0526784 8.13258 0 7.99997 0H2.49997Z" fill="#FFE453"/>
<path d="M13 5C13 4.86739 12.9473 4.74021 12.8535 4.64645L8.35352 0.146447C8.25975 0.0526784 8.13258 0 7.99997 0V4.5C7.99997 4.77614 8.22383 5 8.49997 5H13Z" fill="#101010"/>
</svg>
