<svg width="14" height="14" viewBox="0 0 14 14" fill="none" xmlns="http://www.w3.org/2000/svg">
<g clip-path="url(#clip0_1222_12212)">
<path fill-rule="evenodd" clip-rule="evenodd" d="M1 3.5C0.447715 3.5 0 3.94772 0 4.5C0 5.05228 0.447715 5.5 1 5.5H13C13.5523 5.5 14 5.05228 14 4.5C14 3.94772 13.5523 3.5 13 3.5H1ZM1 8.5C0.447715 8.5 0 8.94772 0 9.5C0 10.0523 0.447715 10.5 1 10.5H13C13.5523 10.5 14 10.0523 14 9.5C14 8.94772 13.5523 8.5 13 8.5H1Z" fill="#FFE453"/>
<path fill-rule="evenodd" clip-rule="evenodd" d="M10.7049 0.11954C11.1911 0.381378 11.3731 0.98784 11.1112 1.47411L4.64971 13.4741C4.38787 13.9604 3.78141 14.1423 3.29514 13.8805C2.80886 13.6186 2.62693 13.0122 2.88876 12.5259L9.3503 0.525911C9.61214 0.0396399 10.2186 -0.142298 10.7049 0.11954Z" fill="#101010"/>
</g>
<defs>
<clipPath id="clip0_1222_12212">
<rect width="14" height="14" fill="white"/>
</clipPath>
</defs>
</svg>
