<svg width="14" height="14" viewBox="0 0 14 14" fill="none" xmlns="http://www.w3.org/2000/svg">
<path d="M3.3375 0.0138496C2.69547 0.103741 2.19816 0.617204 2.1622 1.2645C1.98288 4.49248 2.20974 9.37694 4.86468 11.7905L6.33694 9.36636C4.83929 6.73914 4.93778 4.96227 4.93778 2.04042V1.24189C4.8411 0.457358 4.12033 -0.0957546 3.3375 0.0138496Z" fill="#FFE453"/>
<path fill-rule="evenodd" clip-rule="evenodd" d="M4.93767 2.21051C4.93754 2.32506 4.93731 2.43786 4.93708 2.54904C4.9317 5.1762 4.92818 6.89507 6.33693 9.36635L4.86467 11.7905C3.64456 10.6813 2.93726 9.05029 2.54651 7.29802C2.80614 6.26493 3.27671 5.2071 3.75152 4.28641C4.1367 3.53953 4.55532 2.82617 4.93767 2.21051Z" fill="#101010"/>
<path fill-rule="evenodd" clip-rule="evenodd" d="M10.1146 9.98204C10.2979 9.93973 10.4746 9.85588 10.6303 9.72903C11.1743 9.28585 11.2159 8.27691 10.7727 7.73292C9.97125 6.74914 8.78051 6.2693 7.60357 6.33458L9.18816 3.0435C9.50418 2.31895 9.1652 1.47602 8.43554 1.172C7.83711 0.922648 7.14771 1.11158 6.78736 1.6505C5.79628 3.13264 3.70932 6.40275 3.59581 8.61567C3.48103 10.8534 3.53474 12.7065 3.57145 13.5343C3.58311 13.7972 3.8003 13.9999 4.06347 13.9999H8.80877C8.90617 13.9999 9.00334 13.9866 9.09547 13.955C9.50957 13.8129 9.90604 13.5965 10.2653 13.3039C10.8045 12.8646 11.1943 12.3052 11.4242 11.6949C11.6716 11.0383 11.3398 10.3055 10.6832 10.0581C10.4955 9.98745 10.3016 9.96406 10.1146 9.98204ZM6.97817 11.1188C6.53499 10.5748 6.61671 9.77452 7.1607 9.33134C7.7047 8.88816 8.50496 8.96989 8.94814 9.51388C9.22701 9.85618 9.64726 10.0154 10.0561 9.97608C9.65559 10.0685 9.30737 10.3531 9.15162 10.7666C9.07568 10.9682 8.94751 11.1531 8.7656 11.3013C8.22161 11.7445 7.42135 11.6628 6.97817 11.1188Z" fill="#FFE453"/>
</svg>
