<svg width="14" height="14" viewBox="0 0 14 14" fill="none" xmlns="http://www.w3.org/2000/svg">
<path d="M4.88338 4.25938V9.69608L4.33954 9.79843C3.12077 10.0278 2.54067 11.4348 3.24366 12.4565L4.00765 13.5669C4.19424 13.838 4.50232 14 4.83147 14H11.4389C11.9912 14 12.4389 13.5523 12.4389 13V10.9093C12.4389 9.48828 11.2869 8.33631 9.8659 8.3363H7.40215V4.25938C7.40215 3.56385 6.83831 3 6.14277 3C5.44723 3 4.88338 3.56385 4.88338 4.25938Z" fill="#FFE453"/>
<path fill-rule="evenodd" clip-rule="evenodd" d="M6.11468 1.5C4.5346 1.5 3.25369 2.78091 3.25369 4.36099C3.25369 4.58593 3.27951 4.80389 3.32802 5.01244C3.42186 5.41588 3.17089 5.81902 2.76744 5.91286C2.364 6.00671 1.96087 5.75573 1.86702 5.35229C1.79278 5.03311 1.75369 4.70114 1.75369 4.36099C1.75369 1.95248 3.70617 0 6.11468 0C8.52319 0 10.4757 1.95248 10.4757 4.36099C10.4757 4.70114 10.4366 5.03311 10.3623 5.35229C10.2685 5.75573 9.86537 6.00671 9.46192 5.91286C9.05848 5.81902 8.8075 5.41588 8.90135 5.01244C8.94986 4.80389 8.97567 4.58593 8.97567 4.36099C8.97567 2.78091 7.69477 1.5 6.11468 1.5Z" fill="#101010"/>
</svg>
