<svg width="14" height="14" viewBox="0 0 14 14" fill="none" xmlns="http://www.w3.org/2000/svg">
<g clip-path="url(#clip0_1222_12222)">
<path d="M4.90662 3.79875L5.85431 9.65931L5.33378 9.84716C4.16725 10.2681 3.81919 11.7498 4.67626 12.6461L5.6757 13.6914C5.86435 13.8887 6.12548 14.0003 6.39846 14.0003H12.8801C13.4771 14.0003 13.941 13.4807 13.8738 12.8876L13.5066 9.6509C13.2798 8.24808 11.9587 7.29477 10.5559 7.52161L8.12372 7.9149L7.3931 3.39667C7.28207 2.71005 6.63544 2.24344 5.94882 2.35447C5.2622 2.4655 4.79559 3.11213 4.90662 3.79875Z" fill="#FFE453"/>
<path fill-rule="evenodd" clip-rule="evenodd" d="M2.19134 0.0380748C2.37818 0.115465 2.5 0.297783 2.5 0.500015V1.5H3.5C3.77614 1.5 4 1.72386 4 2C4 2.27614 3.77614 2.5 3.5 2.5H2.5V3.50001C2.5 3.70225 2.37818 3.88456 2.19134 3.96195C2.0045 4.03934 1.78945 3.99657 1.64645 3.85357L0.146447 2.35357C-0.0488156 2.15831 -0.0488156 1.84172 0.146447 1.64646L1.64645 0.146461C1.78945 0.00346221 2.0045 -0.0393156 2.19134 0.0380748ZM10.3087 0.0380748C10.4955 -0.0393156 10.7106 0.00346221 10.8536 0.146461L12.3536 1.64646C12.5488 1.84172 12.5488 2.15831 12.3536 2.35357L10.8536 3.85357C10.7106 3.99657 10.4955 4.03934 10.3087 3.96195C10.1218 3.88456 10 3.70225 10 3.50001V2.50001H9C8.72386 2.50001 8.5 2.27616 8.5 2.00001C8.5 1.72387 8.72386 1.50001 9 1.50001H10V0.500015C10 0.297783 10.1218 0.115465 10.3087 0.0380748Z" fill="#101010"/>
</g>
<defs>
<clipPath id="clip0_1222_12222">
<rect width="14" height="14" fill="white"/>
</clipPath>
</defs>
</svg>
