<svg width="14" height="14" viewBox="0 0 14 14" fill="none" xmlns="http://www.w3.org/2000/svg">
<g clip-path="url(#clip0_1222_12227)">
<path d="M5.94445 3.75938V9.69608L5.40061 9.79843C4.18184 10.0278 3.60173 11.4348 4.30472 12.4565L5.06871 13.5669C5.2553 13.838 5.56338 14 5.89254 14H12.5C13.0523 14 13.5 13.5523 13.5 13V10.9093C13.5 9.48828 12.348 8.33631 10.927 8.3363H8.46321V3.75938C8.46321 3.06384 7.89936 2.5 7.20382 2.5C6.5083 2.5 5.94445 3.06384 5.94445 3.75938Z" fill="#FFE453"/>
<path fill-rule="evenodd" clip-rule="evenodd" d="M2.00001 0C2.13262 0 2.2598 0.0526784 2.35356 0.146447L3.85356 1.64645C3.99656 1.78945 4.03934 2.0045 3.96195 2.19134C3.88456 2.37818 3.70224 2.5 3.50001 2.5H2.75001V4.5H3.50001C3.70224 4.5 3.88456 4.62182 3.96195 4.80866C4.03934 4.9955 3.99656 5.21055 3.85356 5.35355L2.35356 6.85355C2.2598 6.94732 2.13262 7 2.00001 7C1.8674 7 1.74022 6.94732 1.64646 6.85355L0.146462 5.35355C0.00346218 5.21055 -0.0393156 4.9955 0.0380748 4.80866C0.115466 4.62182 0.297784 4.5 0.500015 4.5H1.25001V2.5H0.500015C0.297784 2.5 0.115466 2.37818 0.0380748 2.19134C-0.0393156 2.0045 0.00346218 1.78945 0.146462 1.64645L1.64646 0.146447C1.74022 0.0526784 1.8674 0 2.00001 0Z" fill="#101010"/>
</g>
<defs>
<clipPath id="clip0_1222_12227">
<rect width="14" height="14" fill="white"/>
</clipPath>
</defs>
</svg>
