<svg width="14" height="14" viewBox="0 0 14 14" fill="none" xmlns="http://www.w3.org/2000/svg">
<path fill-rule="evenodd" clip-rule="evenodd" d="M6.25 7.5H7.75V11.75C7.75 12.1642 8.08579 12.5 8.5 12.5C8.91421 12.5 9.25 12.1642 9.25 11.75C9.25 11.3358 9.58579 11 10 11C10.4142 11 10.75 11.3358 10.75 11.75C10.75 12.9926 9.74264 14 8.5 14C7.25736 14 6.25 12.9926 6.25 11.75V7.5Z" fill="#101010"/>
<path fill-rule="evenodd" clip-rule="evenodd" d="M7.75 0.75C7.75 0.335786 7.41421 0 7 0C6.58579 0 6.25 0.335786 6.25 0.75V1.55135C5.06834 1.71399 3.96395 2.25788 3.11091 3.11091C2.07946 4.14236 1.5 5.54131 1.5 7C1.5 7.13261 1.55268 7.25979 1.64645 7.35355C1.74021 7.44732 1.86739 7.5 2 7.5H12C12.1326 7.5 12.2598 7.44732 12.3536 7.35355C12.4473 7.25979 12.5 7.13261 12.5 7C12.5 5.54131 11.9205 4.14236 10.8891 3.11091C10.0361 2.25788 8.93166 1.71399 7.75 1.55135V0.75Z" fill="#FFE453"/>
</svg>
