<svg width="14" height="14" viewBox="0 0 14 14" fill="none" xmlns="http://www.w3.org/2000/svg">
<g clip-path="url(#clip0_1222_12243)">
<path d="M1.49642 0.179297C4.12508 0.491169 6.43824 1.52628 7 2.08803C7.56176 1.52628 9.87492 0.491312 12.5036 0.179439C13.3262 0.0818364 14 0.759749 14 1.58818V9.58817C14 10.4166 13.323 11.0768 12.5079 11.2248C10.667 11.559 9.13594 12.4418 8.15919 13.1396C7.48512 13.6211 6.5142 13.6205 5.8401 13.139C4.86332 12.4413 3.33255 11.5588 1.49213 11.2246C0.677027 11.0766 0 10.4165 0 9.58803V1.58803C0 0.759606 0.673762 0.0816939 1.49642 0.179297Z" fill="#FFE453"/>
<path d="M6.375 13.4046V1.65274C6.743 1.85886 7.25699 1.85887 7.625 1.65276V13.4048C7.22186 13.5324 6.77819 13.5323 6.375 13.4046Z" fill="#101010"/>
</g>
<defs>
<clipPath id="clip0_1222_12243">
<rect width="14" height="14" fill="white"/>
</clipPath>
</defs>
</svg>
