<svg width="14" height="14" viewBox="0 0 14 14" fill="none" xmlns="http://www.w3.org/2000/svg">
<path fill-rule="evenodd" clip-rule="evenodd" d="M7 2C5.89543 2 5 2.89543 5 4V5.5C5 6.05228 4.55228 6.5 4 6.5C3.44772 6.5 3 6.05228 3 5.5V4C3 1.79086 4.79086 0 7 0C9.20914 0 11 1.79086 11 4V5.5C11 6.05228 10.5523 6.5 10 6.5C9.44772 6.5 9 6.05228 9 5.5V4C9 2.89543 8.10457 2 7 2Z" fill="#101010"/>
<path d="M1.50003 6.5C1.50003 5.67157 2.1716 5 3.00003 5H11C11.8285 5 12.5 5.67157 12.5 6.5V12.5C12.5 13.3284 11.8285 14 11 14H3.00003C2.1716 14 1.50003 13.3284 1.50003 12.5V6.5Z" fill="#FFE453"/>
<path d="M7 10.75C7.69036 10.75 8.25 10.1904 8.25 9.5C8.25 8.80964 7.69036 8.25 7 8.25C6.30964 8.25 5.75 8.80964 5.75 9.5C5.75 10.1904 6.30964 10.75 7 10.75Z" fill="#101010"/>
</svg>
