<svg width="14" height="14" viewBox="0 0 14 14" fill="none" xmlns="http://www.w3.org/2000/svg">
<g clip-path="url(#clip0_1222_12257)">
<path fill-rule="evenodd" clip-rule="evenodd" d="M10.21 0.33381L7.56452 5.62607C7.36381 6.02759 7.65571 6.5 8.1045 6.5H13.3955C13.8443 6.5 14.1362 6.02759 13.9355 5.62607L11.29 0.33381C11.0675 -0.11127 10.4325 -0.11127 10.21 0.33381ZM0 1.00049C0 0.724346 0.223858 0.500488 0.5 0.500488H5.5C5.77614 0.500488 6 0.724346 6 1.00049V6.00049C6 6.27663 5.77614 6.50049 5.5 6.50049H0.5C0.223858 6.50049 0 6.27663 0 6.00049V1.00049ZM3 14C4.65685 14 6 12.6569 6 11C6 9.34315 4.65685 8 3 8C1.34315 8 0 9.34315 0 11C0 12.6569 1.34315 14 3 14Z" fill="#FFE453"/>
<path fill-rule="evenodd" clip-rule="evenodd" d="M8.5 8C8.08579 8 7.75 8.33579 7.75 8.75C7.75 9.16421 8.08579 9.5 8.5 9.5H13C13.4142 9.5 13.75 9.16421 13.75 8.75C13.75 8.33579 13.4142 8 13 8H8.5ZM7.75 11C7.75 10.5858 8.08579 10.25 8.5 10.25H13C13.4142 10.25 13.75 10.5858 13.75 11C13.75 11.4142 13.4142 11.75 13 11.75H8.5C8.08579 11.75 7.75 11.4142 7.75 11ZM7.75 13.25C7.75 12.8358 8.08579 12.5 8.5 12.5H13C13.4142 12.5 13.75 12.8358 13.75 13.25C13.75 13.6642 13.4142 14 13 14H8.5C8.08579 14 7.75 13.6642 7.75 13.25Z" fill="#101010"/>
</g>
<defs>
<clipPath id="clip0_1222_12257">
<rect width="14" height="14" fill="white"/>
</clipPath>
</defs>
</svg>
