<svg width="14" height="14" viewBox="0 0 14 14" fill="none" xmlns="http://www.w3.org/2000/svg">
<g clip-path="url(#clip0_1222_12271)">
<path d="M11 12.5153C11 11.8936 11.4872 10.9945 11.9515 10.2978C12.2161 9.90073 12.7839 9.90073 13.0485 10.2978C13.5128 10.9945 14 11.8936 14 12.5153C14 13.6288 13.25 14 12.5 14C11.75 14 11 13.6288 11 12.5153Z" fill="#101010"/>
<path d="M11.7952 6.63231C12.0443 6.44567 12.0703 6.08155 11.8503 5.86139L6.14057 0.149793C5.92059 -0.0702614 5.55678 -0.0443971 5.37012 0.204566L0.202658 7.09683C0.0565909 7.29287 -0.0144383 7.53476 0.0024427 7.77868C0.0193237 8.0226 0.122998 8.2524 0.294677 8.42643L3.57668 11.7095C3.75003 11.8786 3.97774 11.9807 4.21927 11.9975C4.4608 12.0144 4.70047 11.9449 4.89561 11.8016L11.7952 6.63231Z" fill="#FFE453"/>
</g>
<defs>
<clipPath id="clip0_1222_12271">
<rect width="14" height="14" fill="white"/>
</clipPath>
</defs>
</svg>
