<svg width="14" height="14" viewBox="0 0 14 14" fill="none" xmlns="http://www.w3.org/2000/svg">
<g clip-path="url(#clip0_1222_12277)">
<path d="M8.09258 0.0660954C6.82167 -0.109798 5.52686 0.0669898 4.34961 0.577145C1.97179 1.60757 0.328225 3.93215 0.149587 6.51747C-0.0290516 9.1028 1.27918 11.6313 3.49268 12.979C4.5884 13.6461 5.84638 13.9993 7.1292 14C7.76375 14.0017 8.39542 13.9146 9.00582 13.7412C9.65913 13.5577 10.0967 12.8877 10.016 12.217C9.97901 11.6332 9.59426 11.1357 9.04419 10.9313C9.03821 10.9291 9.03219 10.927 9.02613 10.925C8.68691 10.8135 8.39859 10.5847 8.213 10.2796C8.02742 9.97455 7.95674 9.61329 8.01369 9.26079C8.07063 8.90828 8.25146 8.58766 8.52365 8.35655C8.79585 8.12544 9.14156 7.99901 9.49863 8H9.50002H11.3693C12.1733 8.002 12.9516 7.6006 13.4161 6.94442C13.8807 6.28804 14.0005 5.42021 13.7311 4.6625C13.3028 3.45332 12.5503 2.3851 11.5561 1.57451C10.5616 0.763799 9.3635 0.241989 8.09258 0.0660954Z" fill="#FFE453"/>
<path d="M4.5 7C5.32843 7 6 6.32843 6 5.5C6 4.67157 5.32843 4 4.5 4C3.67157 4 3 4.67157 3 5.5C3 6.32843 3.67157 7 4.5 7Z" fill="#101010"/>
<path d="M9 5.5C9.82843 5.5 10.5 4.82843 10.5 4C10.5 3.17157 9.82843 2.5 9 2.5C8.17157 2.5 7.5 3.17157 7.5 4C7.5 4.82843 8.17157 5.5 9 5.5Z" fill="#101010"/>
<path d="M4.5 10.5C5.05228 10.5 5.5 10.0523 5.5 9.5C5.5 8.94772 5.05228 8.5 4.5 8.5C3.94772 8.5 3.5 8.94772 3.5 9.5C3.5 10.0523 3.94772 10.5 4.5 10.5Z" fill="#101010"/>
</g>
<defs>
<clipPath id="clip0_1222_12277">
<rect width="14" height="14" fill="white"/>
</clipPath>
</defs>
</svg>
