<svg width="14" height="14" viewBox="0 0 14 14" fill="none" xmlns="http://www.w3.org/2000/svg">
<g clip-path="url(#clip0_1222_12266)">
<path d="M13.4106 0.59369C13.2141 0.396859 12.9796 0.242735 12.7217 0.14084C12.4637 0.0389446 12.1878 -0.00855877 11.9109 0.00126425C11.6342 0.00884546 11.362 0.0734788 11.111 0.191179C10.8601 0.308879 10.6357 0.47715 10.4517 0.685618L4.76978 7.04438C5.35438 7.16107 5.88886 7.4572 6.29991 7.89216C6.6696 8.2633 6.93831 8.7241 7.08017 9.23022L13.3194 3.57624C13.525 3.39198 13.6913 3.16745 13.808 2.91633C13.9247 2.66522 13.9895 2.39278 13.9984 2.11561C14.0095 1.83482 13.9631 1.55474 13.862 1.29287C13.7608 1.031 13.6072 0.792981 13.4106 0.59369Z" fill="#101010"/>
<path d="M6.11877 12.3766C4.52789 13.9779 1.91005 14.5906 0.187728 13.311C-0.0566246 13.1295 -0.0509739 12.7792 0.138168 12.5407C1.77153 10.481 -0.120934 9.39066 1.46651 7.80321C1.7632 7.47272 2.12417 7.20619 2.52735 7.01993C2.93054 6.83366 3.36747 6.73157 3.81145 6.71988C4.25543 6.7082 4.69713 6.78717 5.10955 6.95197C5.52198 7.11677 5.89647 7.36394 6.21013 7.67837C6.5238 7.9928 6.77005 8.36789 6.93385 8.78072C7.09764 9.19355 7.17553 9.63544 7.16276 10.0794C7.14999 10.5233 7.04683 10.96 6.85958 11.3627C6.67233 11.7655 6.40493 12.1258 6.07371 12.4217L6.11877 12.3766Z" fill="#FFE453"/>
</g>
<defs>
<clipPath id="clip0_1222_12266">
<rect width="14" height="14" fill="white"/>
</clipPath>
</defs>
</svg>
