<svg width="14" height="14" viewBox="0 0 14 14" fill="none" xmlns="http://www.w3.org/2000/svg">
<g clip-path="url(#clip0_1222_12261)">
<path d="M12 4.99939C12.2652 4.99939 12.5195 5.10475 12.7071 5.29228C12.8946 5.47982 13 5.73417 13 5.99939V7.99988C13 8.27602 12.7761 8.49988 12.5 8.49988H1.49997C1.22382 8.49988 0.999969 8.27602 0.999969 7.99988V5.99939C0.999969 5.73417 1.10532 5.47982 1.29286 5.29228C1.48039 5.10475 1.73475 4.99939 1.99997 4.99939H3.99999C4.26521 4.99939 4.51956 4.89403 4.7071 4.7065C4.89463 4.51896 4.99999 4.26461 4.99999 3.99939V1.99939C4.99999 1.46896 5.2107 0.960249 5.58578 0.585176C5.96085 0.210103 6.46956 -0.000610352 6.99999 -0.000610352C7.53042 -0.000610352 8.03913 0.210103 8.4142 0.585176C8.78928 0.960249 8.99999 1.46896 8.99999 1.99939V3.99939C8.99999 4.26461 9.10535 4.51896 9.29288 4.7065C9.48042 4.89403 9.73477 4.99939 9.99999 4.99939H12Z" fill="#101010"/>
<path d="M1.75 8.5L1.00938 12.8628C1.00314 12.9095 1 12.9566 1 13.0037C1 13.554 1.41801 14.0001 1.93365 14.0001H7.75V11.8658C7.75 11.4237 8.08579 11.0654 8.5 11.0654C8.91421 11.0654 9.25 11.4237 9.25 11.8658V14.0001H12.0664C12.582 14.0001 13 13.554 13 13.0037C13 12.9566 12.9969 12.9095 12.9906 12.8628L12.25 8.5H1.75Z" fill="#FFE453"/>
</g>
<defs>
<clipPath id="clip0_1222_12261">
<rect width="14" height="14" fill="white"/>
</clipPath>
</defs>
</svg>
