<svg width="14" height="14" viewBox="0 0 14 14" fill="none" xmlns="http://www.w3.org/2000/svg">
<g clip-path="url(#clip0_1222_12289)">
<path fill-rule="evenodd" clip-rule="evenodd" d="M1.5 0H8.5C9.32843 0 10 0.671573 10 1.5V2.74514H5.377C3.92725 2.74514 2.752 3.92039 2.752 5.37014V10H1.5C0.671573 10 0 9.32843 0 8.5V1.5C0 0.671573 0.671573 0 1.5 0ZM12.5 4H11.2635V8.63186C11.2635 10.0816 10.0882 11.2569 8.63847 11.2569H4V12.5C4 13.3284 4.67157 14 5.5 14H12.5C13.3284 14 14 13.3284 14 12.5V5.5C14 4.67157 13.3284 4 12.5 4Z" fill="#FFE453"/>
<path d="M10 3.99512V3.99998H10.0135V8.63183C10.0135 9.39123 9.39786 10.0068 8.63847 10.0068H4.002V5.37012C4.002 4.61073 4.61761 3.99512 5.377 3.99512H10Z" fill="#101010"/>
</g>
<defs>
<clipPath id="clip0_1222_12289">
<rect width="14" height="14" fill="white"/>
</clipPath>
</defs>
</svg>
