<svg width="14" height="14" viewBox="0 0 14 14" fill="none" xmlns="http://www.w3.org/2000/svg">
<g clip-path="url(#clip0_1222_12309)">
<path d="M12.5 4H5.5C4.67157 4 4 4.67157 4 5.5V12.5C4 13.3284 4.67157 14 5.5 14H12.5C13.3284 14 14 13.3284 14 12.5V5.5C14 4.67157 13.3284 4 12.5 4Z" fill="#FFE453"/>
<path fill-rule="evenodd" clip-rule="evenodd" d="M1.5 0H8.5C9.32843 0 10 0.671573 10 1.5V2.75H5.5C3.98122 2.75 2.75 3.98122 2.75 5.5V10H1.5C0.671573 10 0 9.32843 0 8.5V1.5C0 0.671573 0.671573 0 1.5 0Z" fill="#101010"/>
</g>
<defs>
<clipPath id="clip0_1222_12309">
<rect width="14" height="14" fill="white"/>
</clipPath>
</defs>
</svg>
