<svg width="14" height="14" viewBox="0 0 14 14" fill="none" xmlns="http://www.w3.org/2000/svg">
<g clip-path="url(#clip0_1222_12305)">
<path d="M8.5 0H1.5C0.671573 0 0 0.671573 0 1.5V8.5C0 9.32843 0.671573 10 1.5 10H3.5C4.05228 10 4.5 9.55229 4.5 9V5C4.5 4.72386 4.72386 4.5 5 4.5H9C9.55229 4.5 10 4.05228 10 3.5V1.5C10 0.671573 9.32843 0 8.5 0Z" fill="#FFE453"/>
<path fill-rule="evenodd" clip-rule="evenodd" d="M5.07322 5.07322C5.02634 5.12011 5 5.1837 5 5.25C5 5.44891 4.92098 5.63968 4.78033 5.78033C4.63968 5.92098 4.44891 6 4.25 6C4.05109 6 3.86032 5.92098 3.71967 5.78033C3.57902 5.63968 3.5 5.44891 3.5 5.25C3.50263 4.78668 3.68784 4.34309 4.01546 4.01546C4.34309 3.68784 4.78668 3.50263 5.25 3.5C5.44891 3.5 5.63968 3.57902 5.78033 3.71967C5.92098 3.86032 6 4.05109 6 4.25C6 4.44891 5.92098 4.63968 5.78033 4.78033C5.63968 4.92098 5.44891 5 5.25 5C5.1837 5 5.12011 5.02634 5.07322 5.07322ZM12.4268 5.07322C12.3799 5.02634 12.3163 5 12.25 5C12.0511 5 11.8603 4.92098 11.7197 4.78033C11.579 4.63968 11.5 4.44891 11.5 4.25C11.5 4.05109 11.579 3.86032 11.7197 3.71967C11.8603 3.57902 12.0511 3.5 12.25 3.5C12.7133 3.50263 13.1569 3.68784 13.4845 4.01546C13.8122 4.34309 13.9974 4.78668 14 5.25C14 5.44891 13.921 5.63968 13.7803 5.78033C13.6397 5.92098 13.4489 6 13.25 6C13.0511 6 12.8603 5.92098 12.7197 5.78033C12.579 5.63968 12.5 5.44891 12.5 5.25C12.5 5.1837 12.4737 5.12011 12.4268 5.07322ZM13.25 11.5C13.0519 11.5026 12.8626 11.5824 12.7225 11.7225C12.5824 11.8626 12.5026 12.0519 12.5 12.25C12.5 12.3163 12.4737 12.3799 12.4268 12.4268C12.3799 12.4737 12.3163 12.5 12.25 12.5C12.0511 12.5 11.8603 12.579 11.7197 12.7197C11.579 12.8603 11.5 13.0511 11.5 13.25C11.5 13.4489 11.579 13.6397 11.7197 13.7803C11.8603 13.921 12.0511 14 12.25 14C12.7133 13.9974 13.1569 13.8122 13.4845 13.4845C13.8122 13.1569 13.9974 12.7133 14 12.25C13.9974 12.0519 13.9176 11.8626 13.7775 11.7225C13.6374 11.5824 13.4481 11.5026 13.25 11.5ZM5.07322 12.4268C5.12011 12.4737 5.1837 12.5 5.25 12.5C5.44891 12.5 5.63968 12.579 5.78033 12.7197C5.92098 12.8603 6 13.0511 6 13.25C6 13.4489 5.92098 13.6397 5.78033 13.7803C5.63968 13.921 5.44891 14 5.25 14C4.78668 13.9974 4.34309 13.8122 4.01546 13.4845C3.68784 13.1569 3.50263 12.7133 3.5 12.25C3.5 12.0511 3.57902 11.8603 3.71967 11.7197C3.86032 11.579 4.05109 11.5 4.25 11.5C4.44891 11.5 4.63968 11.579 4.78033 11.7197C4.92098 11.8603 5 12.0511 5 12.25C5 12.3163 5.02634 12.3799 5.07322 12.4268ZM9.5 12.5H8C7.80109 12.5 7.61032 12.579 7.46967 12.7197C7.32902 12.8603 7.25 13.0511 7.25 13.25C7.25 13.4489 7.32902 13.6397 7.46967 13.7803C7.61032 13.921 7.80109 14 8 14H9.5C9.69891 14 9.88968 13.921 10.0303 13.7803C10.171 13.6397 10.25 13.4489 10.25 13.25C10.25 13.0511 10.171 12.8603 10.0303 12.7197C9.88968 12.579 9.69891 12.5 9.5 12.5ZM8 3.5H9.5C9.69891 3.5 9.88968 3.57902 10.0303 3.71967C10.171 3.86032 10.25 4.05109 10.25 4.25C10.25 4.44891 10.171 4.63968 10.0303 4.78033C9.88968 4.92098 9.69891 5 9.5 5H8C7.80109 5 7.61032 4.92098 7.46967 4.78033C7.32902 4.63968 7.25 4.44891 7.25 4.25C7.25 4.05109 7.32902 3.86032 7.46967 3.71967C7.61032 3.57902 7.80109 3.5 8 3.5ZM13.25 7.25C13.0519 7.25259 12.8626 7.33244 12.7225 7.47253C12.5824 7.61263 12.5026 7.80189 12.5 8V9.5C12.5 9.69891 12.579 9.88968 12.7197 10.0303C12.8603 10.171 13.0511 10.25 13.25 10.25C13.4489 10.25 13.6397 10.171 13.7803 10.0303C13.921 9.88968 14 9.69891 14 9.5V8C13.9974 7.80189 13.9176 7.61263 13.7775 7.47253C13.6374 7.33244 13.4481 7.25259 13.25 7.25ZM3.72253 7.47253C3.86263 7.33244 4.05189 7.25259 4.25 7.25C4.44811 7.25259 4.63737 7.33244 4.77747 7.47253C4.91756 7.61263 4.99741 7.80189 5 8V9.5C5 9.69891 4.92098 9.88968 4.78033 10.0303C4.63968 10.171 4.44891 10.25 4.25 10.25C4.05109 10.25 3.86032 10.171 3.71967 10.0303C3.57902 9.88968 3.5 9.69891 3.5 9.5V8C3.50259 7.80189 3.58244 7.61263 3.72253 7.47253Z" fill="#101010"/>
</g>
<defs>
<clipPath id="clip0_1222_12305">
<rect width="14" height="14" fill="white"/>
</clipPath>
</defs>
</svg>
