<svg width="14" height="14" viewBox="0 0 14 14" fill="none" xmlns="http://www.w3.org/2000/svg">
<path d="M8.2026 5.9032C10.6673 6.38084 12.8942 7.22265 12.558 9.27347C12.3751 10.3889 12.2692 12.2048 10.9478 13.7049C10.7752 13.9008 10.5212 14 10.2602 14H4.18429C3.93989 14 3.70413 13.9106 3.52079 13.749C3.30145 13.5557 2.97754 13.271 2.63007 12.9684C1.53313 12.0132 1.34717 10.6374 1.42338 9.45714C1.48494 8.5037 2.37634 7.83661 3.33176 7.83661L1.75781 1.93322C1.56454 1.20834 1.99821 0.482716 2.72827 0.309448C3.4595 0.135898 4.2126 0.581807 4.41212 1.30646L5.54378 5.41663L6.0575 1.09313C6.13025 0.469918 6.65823 -9.78381e-06 7.28567 1.52775e-10C8.00212 1.11727e-05 8.56859 0.606994 8.5192 1.32174L8.2026 5.9032Z" fill="#FFE453"/>
<path fill-rule="evenodd" clip-rule="evenodd" d="M3.29632 7.83691C3.30812 7.83671 3.31993 7.83661 3.33176 7.83661L2.99857 6.58691L6.77931 6.58692C7.73093 6.58692 8.50236 7.35836 8.50236 8.30997C8.50236 9.10683 7.95595 9.79974 7.18106 9.98554L7.06941 10.0123C7.45308 10.4024 7.75003 10.9444 7.77647 11.6359C7.78967 11.9808 7.52075 12.2712 7.17582 12.2843C6.83089 12.2975 6.54058 12.0286 6.52739 11.6837C6.51116 11.2593 6.28886 10.9417 5.98406 10.723C5.64872 10.4824 5.32165 10.4363 5.23438 10.4506C4.9025 10.505 4.5871 10.287 4.52066 9.95727C4.45422 9.62759 4.66058 9.30445 4.98762 9.22603L6.8896 8.76999C7.10235 8.71898 7.25236 8.52875 7.25236 8.30997C7.25236 8.04871 7.04057 7.83692 6.77931 7.83692L3.29632 7.83691Z" fill="#101010"/>
</svg>
