<svg width="14" height="14" viewBox="0 0 14 14" fill="none" xmlns="http://www.w3.org/2000/svg">
<g clip-path="url(#clip0_1222_12320)">
<path d="M5.5 4.4375H0.5V11.1001C0.5 11.2171 0.541008 11.3303 0.615889 11.4202L2.61589 13.8202C2.81579 14.0601 3.18421 14.0601 3.38411 13.8202L5.38411 11.4202C5.45899 11.3303 5.5 11.2171 5.5 11.1001V4.4375Z" fill="#FFE453"/>
<path d="M5.5 2.5C5.5 1.83696 5.23661 1.20107 4.76777 0.732233C4.29893 0.263392 3.66304 0 3 0C2.33696 0 1.70107 0.263392 1.23223 0.732233C0.763392 1.20107 0.5 1.83696 0.5 2.5V4.4375H5.5V2.5Z" fill="#101010"/>
<path fill-rule="evenodd" clip-rule="evenodd" d="M7.5 4.4375H11.5V11C11.5 11.2652 11.3946 11.5196 11.2071 11.7071C11.0196 11.8946 10.7652 12 10.5 12H10.25V13.25C10.25 13.6642 9.91421 14 9.5 14C9.08579 14 8.75 13.6642 8.75 13.25V12H8.5C8.23478 12 7.98043 11.8946 7.79289 11.7071C7.60536 11.5196 7.5 11.2652 7.5 11V4.4375Z" fill="#FFE453"/>
<path d="M7.5 1.99951C7.5 1.46908 7.71071 0.960371 8.08579 0.585298C8.46086 0.210225 8.96957 -0.000488281 9.5 -0.000488281C10.0304 -0.000488281 10.5391 0.210225 10.9142 0.585298C11.2893 0.960371 11.5 1.46908 11.5 1.99951V2.9375H12.25C12.7129 2.9375 13.1575 3.12036 13.486 3.44712C13.8147 3.77401 14 4.21821 14 4.68223V8.66113C14 9.07535 13.6642 9.41113 13.25 9.41113C12.8358 9.41113 12.5 9.07535 12.5 8.66113V4.68223C12.5 4.61861 12.4746 4.55678 12.4282 4.51058C12.3816 4.46424 12.3176 4.4375 12.25 4.4375H7.5V1.99951Z" fill="#101010"/>
</g>
<defs>
<clipPath id="clip0_1222_12320">
<rect width="14" height="14" fill="white"/>
</clipPath>
</defs>
</svg>
