<svg width="14" height="14" viewBox="0 0 14 14" fill="none" xmlns="http://www.w3.org/2000/svg">
<g clip-path="url(#clip0_1222_12336)">
<path d="M1.381 5.25366L0.107223 13.3209C0.0542768 13.6562 0.343756 13.9457 0.679085 13.8928L8.74634 12.619C9.1914 12.5487 9.5345 12.1895 9.58426 11.7417L10 8L6 4L2.25833 4.41574C1.81051 4.4655 1.45127 4.8086 1.381 5.25366Z" fill="#FFE453"/>
<path fill-rule="evenodd" clip-rule="evenodd" d="M1.04961 13.8342L4.00002 10.8838L4.30806 11.1919C4.55214 11.436 4.94787 11.436 5.19194 11.1919C5.43602 10.9478 5.43602 10.5521 5.19194 10.308L3.69194 8.808C3.44787 8.56392 3.05214 8.56392 2.80806 8.808C2.56398 9.05207 2.56398 9.4478 2.80806 9.69188L3.11614 9.99996L0.165729 12.9504L0.107225 13.3209C0.0542786 13.6562 0.343758 13.9457 0.679087 13.8928L1.04961 13.8342Z" fill="#101010"/>
<path d="M8.30819 0.922483L5.99999 4.00008L9.99999 8.00008L13.0776 5.69188C13.5644 5.32675 13.615 4.61508 13.1847 4.18478L9.81529 0.815376C9.38498 0.385067 8.67332 0.435644 8.30819 0.922483Z" fill="#101010"/>
</g>
<defs>
<clipPath id="clip0_1222_12336">
<rect width="14" height="14" fill="white"/>
</clipPath>
</defs>
</svg>
