<svg width="14" height="14" viewBox="0 0 14 14" fill="none" xmlns="http://www.w3.org/2000/svg">
<g clip-path="url(#clip0_1222_12330)">
<path fill-rule="evenodd" clip-rule="evenodd" d="M8.61078 2.6597C8.38341 2.4625 7.79294 2.29452 7.00824 2.78874C4.50029 4.36829 2.31524 7.21897 1.57571 8.25241C1.33466 8.58926 0.866175 8.66692 0.529326 8.42587C0.192476 8.18482 0.114816 7.71634 0.355866 7.37949C1.10579 6.33153 3.43391 3.2672 6.20885 1.51949C7.41009 0.762931 8.75033 0.795145 9.5936 1.52654C10.0154 1.89234 10.2785 2.41647 10.2823 3.01281C10.2861 3.60405 10.036 4.18985 9.58012 4.71108C8.15314 6.34257 6.26776 8.55593 5.476 9.63643C5.37232 9.77792 5.36459 9.88541 5.37371 9.94843C5.38379 10.0181 5.42139 10.0835 5.48487 10.131C5.54537 10.1762 5.64231 10.214 5.78251 10.1977C5.92373 10.1813 6.14337 10.1042 6.41077 9.85904C6.63738 9.65126 6.87249 9.4298 7.11402 9.2023C7.85863 8.50096 8.66425 7.74214 9.46988 7.14934C10.308 6.53266 11.2876 6.36157 12.0312 6.81615C12.4021 7.04286 12.6628 7.40553 12.7535 7.84036C12.8432 8.27027 12.7576 8.71834 12.5411 9.12957C12.3085 9.57151 12.1072 9.89092 11.926 10.1764L11.9117 10.199C11.7373 10.4738 11.5876 10.7099 11.4266 11.018C11.3538 11.1574 11.3556 11.3123 11.403 11.433C11.4265 11.4929 11.4496 11.5217 11.4625 11.5342C11.5547 11.5407 11.635 11.5181 11.7619 11.4196C11.9399 11.2814 12.1391 11.046 12.4384 10.6544C12.6899 10.3254 13.1606 10.2625 13.4897 10.5141C13.8188 10.7656 13.8816 11.2363 13.6301 11.5654C13.3455 11.9377 13.0365 12.3291 12.6816 12.6045C12.2897 12.9088 11.8153 13.0935 11.2381 13.0185C10.6048 12.9362 10.19 12.4478 10.0068 11.9813C9.8147 11.4922 9.80588 10.8809 10.0971 10.3235C10.2877 9.95852 10.4671 9.67594 10.638 9.40671C10.6451 9.3954 10.6523 9.38412 10.6595 9.37285C10.8362 9.09431 11.0106 8.81689 11.2137 8.43097C11.2988 8.26934 11.2912 8.17557 11.2852 8.14672C11.2802 8.1228 11.2715 8.10979 11.2488 8.09595C11.2055 8.06945 10.9021 7.95781 10.3589 8.35752C9.63332 8.8914 8.92599 9.55737 8.19885 10.242C7.94372 10.4822 7.68614 10.7247 7.42449 10.9646C6.50126 11.8111 5.37727 11.9237 4.58638 11.3321C3.81573 10.7556 3.6046 9.65253 4.26607 8.74983C5.10302 7.60764 7.03316 5.34465 8.45107 3.72355C8.72236 3.41337 8.78328 3.16923 8.78235 3.0223C8.78145 2.88046 8.72433 2.75819 8.61078 2.6597Z" fill="#FFE453"/>
</g>
<defs>
<clipPath id="clip0_1222_12330">
<rect width="14" height="14" fill="white"/>
</clipPath>
</defs>
</svg>
