<svg width="14" height="14" viewBox="0 0 14 14" fill="none" xmlns="http://www.w3.org/2000/svg">
<g clip-path="url(#clip0_1222_12346)">
<path fill-rule="evenodd" clip-rule="evenodd" d="M7 0.25C3.27208 0.25 0.25 3.27208 0.25 7C0.25 10.7279 3.27208 13.75 7 13.75C10.7279 13.75 13.75 10.7279 13.75 7C13.75 3.27208 10.7279 0.25 7 0.25Z" fill="#FFE453"/>
<path fill-rule="evenodd" clip-rule="evenodd" d="M9.91237 3.38118C10.2541 3.33283 10.5704 3.5707 10.6187 3.91248C10.6671 4.25425 10.4292 4.57051 10.0874 4.61886L9.99991 4.00002L9.91237 3.38118ZM9.125 4.75646C9.23168 4.7411 9.33223 4.72665 9.42519 4.71332C9.62641 4.68446 9.79204 4.66084 9.90734 4.64443L10.0407 4.62548L10.0756 4.62054L10.0845 4.61928L10.0874 4.61886C10.0874 4.61886 10.0874 4.61886 9.99991 4.00002C9.91237 3.38118 9.9124 3.38117 9.91237 3.38118L9.90929 3.38161L9.90027 3.38289L9.86513 3.38787L9.73124 3.4069C9.61556 3.42336 9.44947 3.44705 9.24776 3.47598C8.84438 3.53382 8.29826 3.61264 7.7276 3.69651C6.59889 3.86238 5.33853 4.05305 4.92662 4.13783C4.00277 4.32799 3.5236 5.10446 3.39558 5.59093C3.30773 5.92474 3.50713 6.26656 3.84094 6.35441C4.17476 6.44225 4.51658 6.24286 4.60442 5.90904C4.62231 5.84108 4.68054 5.71217 4.78872 5.59285C4.89146 5.47954 5.02053 5.39471 5.17862 5.36217C5.22776 5.35205 5.29204 5.33999 5.36929 5.32629C5.35873 5.8825 5.32928 6.55049 5.24759 7.21574C5.12132 8.24393 4.88396 9.13048 4.50647 9.61661C4.29477 9.88925 4.34417 10.2819 4.6168 10.4936C4.88944 10.7053 5.28207 10.6559 5.49377 10.3833C6.09711 9.60626 6.35974 8.4147 6.48827 7.36809C6.58839 6.55271 6.61534 5.74271 6.62252 5.12546C7.01683 5.06531 7.44961 5.00083 7.875 4.93827V9.47362C7.875 9.67947 7.93964 9.95878 8.1369 10.1991C8.35526 10.4651 8.68864 10.6249 9.09999 10.6249C9.89006 10.6249 10.3819 10.0657 10.543 9.78312C10.7139 9.48324 10.6094 9.10157 10.3095 8.93064C10.0096 8.7597 9.62792 8.86424 9.45699 9.16412C9.45704 9.16404 9.45704 9.16404 9.45699 9.16412C9.45662 9.16473 9.45366 9.16963 9.44745 9.17813C9.44061 9.1875 9.43117 9.19942 9.41912 9.21287C9.39462 9.24022 9.36351 9.26931 9.32762 9.29512C9.26366 9.3411 9.19666 9.36878 9.125 9.37402V4.75646Z" fill="#101010"/>
</g>
<defs>
<clipPath id="clip0_1222_12346">
<rect width="14" height="14" fill="white"/>
</clipPath>
</defs>
</svg>
