<svg width="14" height="14" viewBox="0 0 14 14" fill="none" xmlns="http://www.w3.org/2000/svg">
<g clip-path="url(#clip0_1222_12341)">
<path d="M6.17671 0.812719C5.91366 0.612798 5.59055 0.508234 5.2604 0.516032H1.73375C1.34719 0.516032 0.976471 0.669589 0.703137 0.942923C0.429803 1.21626 0.276245 1.58698 0.276245 1.97353V12.0273C0.276245 12.4138 0.429803 12.7846 0.703137 13.0579C0.976471 13.3312 1.34719 13.4848 1.73375 13.4848H12.2662C12.6528 13.4848 13.0235 13.3312 13.2969 13.0579C13.5702 12.7846 13.7237 12.4138 13.7237 12.0273V3.88853C13.7237 3.50198 13.5702 3.13126 13.2969 2.85792C13.0235 2.58459 12.6528 2.43103 12.2662 2.43103H6.91163L6.70986 1.62394C6.62995 1.30088 6.44169 1.0141 6.17671 0.812719Z" fill="#FFE453"/>
<path d="M9.85828 7.56641C9.02985 7.56641 8.35828 6.89483 8.35828 6.06641C8.35828 5.23798 9.02985 4.56641 9.85828 4.56641C10.6867 4.56641 11.3583 5.23798 11.3583 6.06641C11.3583 6.89483 10.6867 7.56641 9.85828 7.56641Z" fill="#101010"/>
<path fill-rule="evenodd" clip-rule="evenodd" d="M12.3138 13.484L5.50379 7.22952C5.38633 7.13359 5.23829 7.08105 5.08542 7.08105C4.93255 7.08105 4.78452 7.13359 4.66706 7.22952L0.276245 10.3258V12.0273C0.276245 12.4138 0.429803 12.7846 0.703137 13.0579C0.976471 13.3312 1.34719 13.4848 1.73375 13.4848H12.2662C12.2821 13.4848 12.298 13.4845 12.3138 13.484Z" fill="#101010"/>
</g>
<defs>
<clipPath id="clip0_1222_12341">
<rect width="14" height="14" fill="white"/>
</clipPath>
</defs>
</svg>
