<svg width="14" height="14" viewBox="0 0 14 14" fill="none" xmlns="http://www.w3.org/2000/svg">
<g clip-path="url(#clip0_1222_12350)">
<path fill-rule="evenodd" clip-rule="evenodd" d="M12.189 3C12.1485 2.71465 12.0796 2.36715 11.9615 2.01283C11.6789 1.16484 10.9982 0 9.50001 0C9.0858 0 8.75001 0.335786 8.75001 0.75C8.75001 1.06203 8.94056 1.32955 9.21164 1.44256C9.30041 1.47957 9.39783 1.5 9.50001 1.5C10.0018 1.5 10.3212 1.83516 10.5385 2.48717C10.5959 2.65948 10.6382 2.8351 10.6692 3H12.189ZM7.75001 3V0.75C7.75001 0.335786 7.41423 0 7.00001 0C6.5858 0 6.25001 0.335786 6.25001 0.75V3H7.75001ZM3.33081 3C3.36179 2.8351 3.40409 2.65948 3.46153 2.48717C3.67886 1.83516 3.99821 1.5 4.50001 1.5C4.91423 1.5 5.25001 1.16421 5.25001 0.75C5.25001 0.335786 4.91423 0 4.50001 0C3.00182 0 2.32116 1.16484 2.0385 2.01283C1.92039 2.36715 1.85154 2.71465 1.81097 3H3.33081Z" fill="#101010"/>
<path fill-rule="evenodd" clip-rule="evenodd" d="M0.613333 3.18301C0.708303 3.06716 0.850208 3 1 3H13C13.1498 3 13.2917 3.06716 13.3867 3.18301C13.4816 3.29885 13.5197 3.45117 13.4903 3.59806L12.4903 8.59806C12.4436 8.83177 12.2383 9 12 9H9.5V12.5H10C10.4142 12.5 10.75 12.8358 10.75 13.25C10.75 13.6642 10.4142 14 10 14H4C3.58579 14 3.25 13.6642 3.25 13.25C3.25 12.8358 3.58579 12.5 4 12.5H4.5V9H2C1.76166 9 1.55646 8.83177 1.50971 8.59806L0.509714 3.59806C0.480336 3.45117 0.518364 3.29885 0.613333 3.18301Z" fill="#FFE453"/>
</g>
<defs>
<clipPath id="clip0_1222_12350">
<rect width="14" height="14" fill="white"/>
</clipPath>
</defs>
</svg>
