<svg width="14" height="14" viewBox="0 0 14 14" fill="none" xmlns="http://www.w3.org/2000/svg">
<g clip-path="url(#clip0_1222_12357)">
<path fill-rule="evenodd" clip-rule="evenodd" d="M0.5 14.0004H2.81947C4.89982 14.0004 6.63289 12.4057 6.80565 10.3326L6.91695 8.99694C6.96166 8.46048 6.53831 8.00039 6 8.00039V5.24455C6 4.50219 5.3982 3.90039 4.65584 3.90039C3.99124 3.90039 3.42641 4.38609 3.32685 5.04319L2.62882 9.6502C2.55475 10.1391 2.13454 10.5004 1.6401 10.5004H0.5C0.223858 10.5004 0 10.7242 0 11.0004V13.5004C0 13.7765 0.223858 14.0004 0.5 14.0004ZM13.5 14.0004H11.1806C9.10021 14.0004 7.36714 12.4057 7.19438 10.3326L7.08308 8.99694C7.03837 8.46048 7.46172 8.00039 8.00003 8.00039V5.24455C8.00003 4.50219 8.60183 3.90039 9.34419 3.90039C10.0088 3.90039 10.5736 4.38609 10.6732 5.04319L11.3712 9.6502C11.4453 10.1391 11.8655 10.5004 12.3599 10.5004H13.5C13.7762 10.5004 14 10.7242 14 11.0004V13.5004C14 13.7765 13.7762 14.0004 13.5 14.0004Z" fill="#FFE453"/>
<path fill-rule="evenodd" clip-rule="evenodd" d="M7.75 0.75C7.75 0.335786 7.41421 0 7 0C6.58579 0 6.25 0.335786 6.25 0.75V1.75C6.25 2.16421 6.58579 2.5 7 2.5C7.41421 2.5 7.75 2.16421 7.75 1.75V0.75ZM6.00001 6.74609V7.99625C5.5383 8.00294 5.14015 8.34412 5.07224 8.81186L4.91173 9.91747C4.86214 10.2591 4.54502 10.4958 4.20342 10.4462C3.86183 10.3966 3.62511 10.0795 3.6747 9.73788L3.83521 8.63227C3.99319 7.54411 4.92411 6.75219 6.00001 6.74609ZM8.00003 7.99625C8.46173 8.00295 8.85987 8.34412 8.92778 8.81186L9.08829 9.91747C9.13788 10.2591 9.455 10.4958 9.7966 10.4462C10.1382 10.3966 10.3749 10.0795 10.3253 9.73788L10.1648 8.63227C10.0068 7.54412 9.07592 6.75219 8.00003 6.74609V7.99625ZM11.5303 0.71967C11.8232 1.01256 11.8232 1.48744 11.5303 1.78033L10.5303 2.78033C10.2374 3.07322 9.76256 3.07322 9.46967 2.78033C9.17678 2.48744 9.17678 2.01256 9.46967 1.71967L10.4697 0.71967C10.7626 0.426777 11.2374 0.426777 11.5303 0.71967ZM3.53033 0.71967C3.23744 0.426777 2.76256 0.426777 2.46967 0.71967C2.17678 1.01256 2.17678 1.48744 2.46967 1.78033L3.46967 2.78033C3.76256 3.07322 4.23744 3.07322 4.53033 2.78033C4.82322 2.48744 4.82322 2.01256 4.53033 1.71967L3.53033 0.71967Z" fill="#101010"/>
</g>
<defs>
<clipPath id="clip0_1222_12357">
<rect width="14" height="14" fill="white"/>
</clipPath>
</defs>
</svg>
