<svg width="14" height="14" viewBox="0 0 14 14" fill="none" xmlns="http://www.w3.org/2000/svg">
<g clip-path="url(#clip0_1222_12361)">
<path fill-rule="evenodd" clip-rule="evenodd" d="M7.75 13.25V10.25C7.75 9.83579 7.41421 9.5 7 9.5C6.58579 9.5 6.25 9.83579 6.25 10.25V13.25C6.25 13.6642 6.58579 14 7 14C7.41421 14 7.75 13.6642 7.75 13.25ZM6.03033 9.71967C6.32322 10.0126 6.32322 10.4874 6.03033 10.7803L3.03033 13.7803C2.73744 14.0732 2.26256 14.0732 1.96967 13.7803C1.67678 13.4874 1.67678 13.0126 1.96967 12.7197L4.96967 9.71967C5.26256 9.42678 5.73744 9.42678 6.03033 9.71967ZM7.96967 9.71967C8.26256 9.42678 8.73744 9.42678 9.03033 9.71967L12.0303 12.7197C12.3232 13.0126 12.3232 13.4874 12.0303 13.7803C11.7374 14.0732 11.2626 14.0732 10.9697 13.7803L7.96967 10.7803C7.67678 10.4874 7.67678 10.0126 7.96967 9.71967Z" fill="#101010"/>
<path d="M12.5 0H1.5C0.671573 0 0 0.671573 0 1.5V9.5C0 10.3284 0.671573 11 1.5 11H12.5C13.3284 11 14 10.3284 14 9.5V1.5C14 0.671573 13.3284 0 12.5 0Z" fill="#FFE453"/>
<path d="M0 1.5C0 0.671573 0.671573 0 1.5 0H12.5C13.3284 0 14 0.671573 14 1.5V3.5H0V1.5Z" fill="#101010"/>
</g>
<defs>
<clipPath id="clip0_1222_12361">
<rect width="14" height="14" fill="white"/>
</clipPath>
</defs>
</svg>
