<svg width="14" height="14" viewBox="0 0 14 14" fill="none" xmlns="http://www.w3.org/2000/svg">
<g clip-path="url(#clip0_1222_12367)">
<path fill-rule="evenodd" clip-rule="evenodd" d="M13.1951 10.8995C13.7578 10.6451 13.9577 9.94648 13.6147 9.43292L7.81627 0.750945C7.42041 0.158229 6.54926 0.158112 6.15324 0.750716L0.353423 9.42963C0.0103043 9.94307 0.209972 10.6417 0.772592 10.8963L6.36658 13.4277C6.75951 13.6055 7.20996 13.6055 7.60294 13.4279L13.1951 10.8995Z" fill="#FFE453"/>
<path d="M13.1951 10.8995C13.7578 10.6451 13.9577 9.94649 13.6147 9.43293L7.81627 0.750952C7.6215 0.459329 7.31168 0.31116 7 0.306458V13.561C7.20576 13.5589 7.41119 13.5146 7.60294 13.4279L13.1951 10.8995Z" fill="#101010"/>
</g>
<defs>
<clipPath id="clip0_1222_12367">
<rect width="14" height="14" fill="white"/>
</clipPath>
</defs>
</svg>
