<svg width="14" height="14" viewBox="0 0 14 14" fill="none" xmlns="http://www.w3.org/2000/svg">
<g clip-path="url(#clip0_1222_12371)">
<path fill-rule="evenodd" clip-rule="evenodd" d="M1.48979 3.87669C1.4217 3.46812 1.03528 3.1921 0.626704 3.2602C0.218126 3.32829 -0.0578892 3.71471 0.0102071 4.12329L0.510207 7.12329C0.578304 7.53187 0.964724 7.80788 1.3733 7.73979C1.78188 7.67169 2.05789 7.28527 1.98979 6.87669L1.48979 3.87669ZM3.98979 3.87669C3.9217 3.46812 3.53528 3.1921 3.1267 3.2602C2.71812 3.32829 2.44211 3.71471 2.5102 4.12329L3.0102 7.12329C3.0783 7.53187 3.46472 7.80788 3.8733 7.73979C4.28188 7.67169 4.55789 7.28527 4.48979 6.87669L3.98979 3.87669ZM11.1233 6.2602C11.5319 6.32829 11.8079 6.71471 11.7398 7.12329L11.2398 10.1233C11.1717 10.5319 10.7853 10.8079 10.3767 10.7398C9.96812 10.6717 9.69211 10.2853 9.7602 9.87669L10.2602 6.87669C10.3283 6.46812 10.7147 6.1921 11.1233 6.2602ZM13.9898 7.12329C14.0579 6.71471 13.7819 6.32829 13.3733 6.2602C12.9647 6.1921 12.5783 6.46812 12.5102 6.87669L12.0102 9.87669C11.9421 10.2853 12.2181 10.6717 12.6267 10.7398C13.0353 10.8079 13.4217 10.5319 13.4898 10.1233L13.9898 7.12329Z" fill="#FFE453"/>
</g>
<defs>
<clipPath id="clip0_1222_12371">
<rect width="14" height="14" fill="white"/>
</clipPath>
</defs>
</svg>
