<svg width="14" height="14" viewBox="0 0 14 14" fill="none" xmlns="http://www.w3.org/2000/svg">
<g clip-path="url(#clip0_1222_12374)">
<path fill-rule="evenodd" clip-rule="evenodd" d="M5.27125 2.06201C5.56384 1.76882 5.56335 1.29395 5.27016 1.00135C4.97697 0.708761 4.50209 0.709248 4.2095 1.00244C3.65897 1.5541 3.2843 2.25657 3.13284 3.02108C2.98138 3.78559 3.05993 4.57784 3.35855 5.29774C3.367 5.31811 3.37561 5.33839 3.38439 5.35859C3.3629 5.36105 3.34142 5.36369 3.31995 5.36651C2.54718 5.46789 1.8218 5.79606 1.23547 6.30954C0.649136 6.82302 0.228163 7.49878 0.0257405 8.25142C-0.081839 8.65142 0.155214 9.0629 0.555214 9.17048C0.955213 9.27806 1.36669 9.041 1.47427 8.641C1.59967 8.17473 1.86047 7.75609 2.22371 7.43798C2.42853 7.25861 2.66074 7.11574 2.91015 7.01398C2.8933 7.16525 2.88465 7.31899 2.88465 7.47476C2.88465 9.14271 3.87693 10.5789 5.30337 11.2252C5.09723 11.3807 4.86664 11.5033 4.61957 11.5874C4.16247 11.743 3.66952 11.7595 3.20301 11.635C2.8028 11.5282 2.39179 11.7661 2.28498 12.1663C2.17817 12.5665 2.41602 12.9775 2.81623 13.0843C3.56926 13.2853 4.36497 13.2585 5.10281 13.0074C5.84065 12.7564 6.4875 12.2922 6.96165 11.6736C6.97458 11.6568 6.98736 11.6398 6.99999 11.6227C7.01263 11.6398 7.02542 11.6568 7.03834 11.6736C7.51249 12.2922 8.15934 12.7564 8.89718 13.0074C9.63502 13.2585 10.4307 13.2853 11.1838 13.0843C11.584 12.9775 11.8218 12.5665 11.715 12.1663C11.6082 11.7661 11.1972 11.5282 10.797 11.635C10.3305 11.7595 9.83752 11.743 9.38042 11.5874C9.13336 11.5033 8.90278 11.3807 8.69665 11.2253C10.1231 10.5789 11.1154 9.14273 11.1154 7.47476C11.1154 7.319 11.1068 7.16527 11.0899 7.01401C11.3393 7.11577 11.5715 7.25863 11.7763 7.43798C12.1395 7.75609 12.4003 8.17473 12.5257 8.641C12.6333 9.041 13.0448 9.27806 13.4448 9.17048C13.8448 9.0629 14.0818 8.65142 13.9743 8.25142C13.7718 7.49878 13.3509 6.82302 12.7645 6.30954C12.1782 5.79606 11.4528 5.46789 10.68 5.36651C10.6586 5.36369 10.6371 5.36105 10.6156 5.35859C10.6244 5.33839 10.633 5.31811 10.6414 5.29774C10.9401 4.57784 11.0186 3.78559 10.8671 3.02108C10.7157 2.25657 10.341 1.5541 9.79048 1.00244C9.49789 0.709248 9.02301 0.708761 8.72982 1.00135C8.43663 1.29395 8.43614 1.76882 8.72873 2.06201C9.06979 2.40377 9.3019 2.83896 9.39574 3.31258C9.45023 3.58764 9.45666 3.86849 9.41625 4.14299C8.73774 3.65008 7.90283 3.35938 7.00003 3.35938C6.0972 3.35938 5.26226 3.6501 4.58374 4.14304C4.54332 3.86852 4.54975 3.58766 4.60425 3.31258C4.69808 2.83896 4.93019 2.40377 5.27125 2.06201ZM8.5352 5.68669C8.60296 5.63192 8.6676 5.57368 8.7289 5.51225C8.26798 5.1059 7.6628 4.85938 7.00003 4.85938C6.33725 4.85938 5.73204 5.10592 5.27112 5.51229C5.3324 5.5737 5.39703 5.63193 5.46477 5.68668C5.50246 5.70382 5.53992 5.72157 5.57714 5.73993C5.76859 5.8344 5.95121 5.94383 6.12346 6.06681C6.40177 6.17382 6.69877 6.22952 6.99999 6.22952C7.30122 6.22952 7.59823 6.17382 7.87654 6.0668C8.04879 5.94382 8.2314 5.8344 8.42285 5.73993C8.46006 5.72157 8.49752 5.70383 8.5352 5.68669ZM6.24406 8.88732C6.19707 8.59536 6.09721 8.31282 5.94782 8.05409C5.79707 7.793 5.6001 7.56346 5.36799 7.37586C5.17495 7.28807 4.98849 7.18448 4.8106 7.06568C4.77643 7.04287 4.74266 7.01954 4.7093 6.99572C4.62287 6.96249 4.5348 6.93427 4.44553 6.91113C4.40566 7.09266 4.38465 7.28126 4.38465 7.47476C4.38465 8.63189 5.13611 9.61351 6.17765 9.95823C6.20579 9.86159 6.228 9.76309 6.24406 9.66329C6.23974 9.61967 6.23615 9.57592 6.23329 9.53207C6.2192 9.31627 6.22296 9.10066 6.24406 8.88732ZM9.29066 6.99574C9.37712 6.96249 9.46522 6.93426 9.55453 6.91112C9.5944 7.09265 9.61542 7.28125 9.61542 7.47476C9.61542 8.63192 8.86392 9.61356 7.82235 9.95825C7.7942 9.86161 7.77199 9.76311 7.75593 9.66331C7.76025 9.61968 7.76384 9.57593 7.7667 9.53207C7.78079 9.31627 7.77703 9.10066 7.75593 8.88732C7.80292 8.59536 7.90278 8.31282 8.05217 8.05409C8.20292 7.79299 8.3999 7.56345 8.63201 7.37585C8.82504 7.28807 9.01149 7.18448 9.18938 7.06568C9.22354 7.04287 9.2573 7.01955 9.29066 6.99574Z" fill="#FFE453"/>
</g>
<defs>
<clipPath id="clip0_1222_12374">
<rect width="14" height="14" fill="white"/>
</clipPath>
</defs>
</svg>
