<svg width="14" height="14" viewBox="0 0 14 14" fill="none" xmlns="http://www.w3.org/2000/svg">
<g clip-path="url(#clip0_1222_12377)">
<path fill-rule="evenodd" clip-rule="evenodd" d="M6.05397 0.13381C5.27256 -0.0670495 4.45011 -0.0413341 3.68278 0.20795C2.91544 0.457234 2.23491 0.919788 1.72074 1.54154C1.20657 2.1633 0.880002 2.91856 0.779208 3.71906C0.678415 4.51955 0.80756 5.3322 1.15155 6.06201C1.49554 6.79182 2.04016 7.40863 2.72175 7.84036C3.40318 8.27199 4.19338 8.50077 5 8.5H10.25C11.0456 8.5 11.8087 8.18393 12.3713 7.62132C12.9339 7.05871 13.25 6.29565 13.25 5.5C13.25 4.70435 12.9339 3.94129 12.3713 3.37868C11.8087 2.81607 11.0456 2.5 10.25 2.5H10.2483C9.80873 2.50147 9.37768 2.59819 8.98366 2.78019C8.78767 2.24845 8.48645 1.75898 8.09548 1.34222C7.54348 0.753805 6.83538 0.33467 6.05397 0.13381Z" fill="#FFE453"/>
<path fill-rule="evenodd" clip-rule="evenodd" d="M4.88546 9.57919C5.25594 9.76443 5.40611 10.2149 5.22087 10.5854L4.72087 11.5854C4.53562 11.9559 4.08512 12.1061 3.71464 11.9208C3.34415 11.7356 3.19398 11.2851 3.37922 10.9146L3.87922 9.9146C4.06447 9.54412 4.51497 9.39395 4.88546 9.57919ZM9.78536 9.57919C10.1558 9.76443 10.306 10.2149 10.1208 10.5854L9.62077 11.5854C9.43553 11.9559 8.98502 12.1061 8.61454 11.9208C8.24405 11.7356 8.09388 11.2851 8.27913 10.9146L8.77913 9.9146C8.96437 9.54412 9.41487 9.39395 9.78536 9.57919ZM7.17082 12.5854C7.35606 12.2149 7.20589 11.7644 6.83541 11.5792C6.46492 11.3939 6.01442 11.5441 5.82918 11.9146L5.32918 12.9146C5.14393 13.2851 5.2941 13.7356 5.66459 13.9208C6.03507 14.1061 6.48558 13.9559 6.67082 13.5854L7.17082 12.5854ZM1.9355 11.5792C2.30599 11.7644 2.45616 12.2149 2.27091 12.5854L1.77091 13.5854C1.58567 13.9559 1.13517 14.1061 0.764684 13.9208C0.3942 13.7356 0.244032 13.2851 0.429274 12.9146L0.929274 11.9146C1.11452 11.5441 1.56502 11.3939 1.9355 11.5792ZM12.0707 12.5854C12.256 12.2149 12.1058 11.7644 11.7353 11.5792C11.3648 11.3939 10.9143 11.5441 10.7291 11.9146L10.2291 12.9146C10.0438 13.2851 10.194 13.7356 10.5645 13.9208C10.935 14.1061 11.3855 13.9559 11.5707 13.5854L12.0707 12.5854Z" fill="#101010"/>
</g>
<defs>
<clipPath id="clip0_1222_12377">
<rect width="14" height="14" fill="white"/>
</clipPath>
</defs>
</svg>
