<svg width="14" height="14" viewBox="0 0 14 14" fill="none" xmlns="http://www.w3.org/2000/svg">
<g clip-path="url(#clip0_1222_12381)">
<path fill-rule="evenodd" clip-rule="evenodd" d="M2.5 2.82312C2.22386 2.82312 2 3.04698 2 3.32312V12.4676C2 12.8672 2.15613 13.2519 2.43654 13.5368C2.7172 13.822 3.09958 13.9837 3.5 13.9837H10.5C10.9004 13.9837 11.2828 13.822 11.5635 13.5368C11.8439 13.2519 12 12.8672 12 12.4676V3.32312C12 3.04698 11.7761 2.82312 11.5 2.82312H2.5Z" fill="#FFE453"/>
<path fill-rule="evenodd" clip-rule="evenodd" d="M5.625 7.12427C5.625 6.77909 5.34518 6.49927 5 6.49927C4.65482 6.49927 4.375 6.77909 4.375 7.12427V11.1258C4.375 11.4709 4.65482 11.7508 5 11.7508C5.34518 11.7508 5.625 11.4709 5.625 11.1258V7.12427ZM9.625 7.12427C9.625 6.77909 9.34518 6.49927 9 6.49927C8.65482 6.49927 8.375 6.77909 8.375 7.12427V11.1258C8.375 11.4709 8.65482 11.7508 9 11.7508C9.34518 11.7508 9.625 11.4709 9.625 11.1258V7.12427Z" fill="#101010"/>
<path fill-rule="evenodd" clip-rule="evenodd" d="M6.99999 1.5C6.53586 1.5 6.09074 1.68437 5.76256 2.01256C5.55519 2.21993 5.40524 2.47397 5.32294 2.75H8.67705C8.59474 2.47397 8.44479 2.21993 8.23743 2.01256C7.90924 1.68437 7.46412 1.5 6.99999 1.5ZM10.2113 2.75C10.1059 2.07321 9.78846 1.44227 9.29809 0.951903C8.6886 0.34241 7.86195 0 6.99999 0C6.13804 0 5.31139 0.34241 4.7019 0.951903C4.21153 1.44227 3.89404 2.07321 3.78867 2.75H1C0.585786 2.75 0.25 3.08579 0.25 3.5C0.25 3.91421 0.585786 4.25 1 4.25H13C13.4142 4.25 13.75 3.91421 13.75 3.5C13.75 3.08579 13.4142 2.75 13 2.75H10.2113Z" fill="#101010"/>
</g>
<defs>
<clipPath id="clip0_1222_12381">
<rect width="14" height="14" fill="white"/>
</clipPath>
</defs>
</svg>
