<svg width="14" height="14" viewBox="0 0 14 14" fill="none" xmlns="http://www.w3.org/2000/svg">
<path d="M3.56765 13.9248C1.65522 13.0607 1.51047 11.2375 1.69507 9.75484C1.76575 9.18717 2.10864 8.72396 2.57796 8.44727V1.45833C2.57796 0.652918 3.23088 0 4.0363 0C4.84171 0 5.49463 0.652918 5.49463 1.45833V5.45833C7.40815 5.1825 7.83772 5.26024 9.57796 6.04167V3.79167C9.57796 2.98625 10.2309 2.33333 11.0363 2.33333C11.8417 2.33333 12.4946 2.98625 12.4946 3.79167V10.317C12.4946 11.5547 12.003 12.7417 11.1278 13.6168L11.0375 13.7071C10.85 13.8946 10.5956 14 10.3304 14H3.93666C3.8098 14 3.68326 13.9771 3.56765 13.9248Z" fill="#FFE453"/>
<path fill-rule="evenodd" clip-rule="evenodd" d="M2.55273 8.4624C2.5611 8.4573 2.56951 8.45226 2.57797 8.44727V7.2124H6.15019C7.12286 7.2124 7.90846 8.00636 7.89817 8.97897C7.89124 9.63415 7.52064 10.2176 6.95859 10.5106C7.21509 10.846 7.38945 11.2828 7.40975 11.8135C7.42295 12.1584 7.15403 12.4488 6.8091 12.4619C6.46417 12.4751 6.17386 12.2062 6.16067 11.8613C6.14631 11.4858 5.98961 11.2568 5.82041 11.1214C5.62569 10.9655 5.43566 10.9461 5.38625 10.9542C5.05582 11.0083 4.74143 10.7924 4.67329 10.4646C4.60515 10.1368 4.80747 9.81347 5.1321 9.73145L6.27221 9.44337C6.49144 9.38798 6.64585 9.19185 6.64824 8.96575C6.65117 8.68862 6.42733 8.4624 6.15019 8.4624H2.55273Z" fill="#101010"/>
</svg>
