<svg width="14" height="14" viewBox="0 0 14 14" fill="none" xmlns="http://www.w3.org/2000/svg">
<g clip-path="url(#clip0_1222_12402)">
<path d="M0.0578084 13.406L4 7L6 9L7.3069 13.3563C7.40314 13.6771 7.16292 14 6.82798 14H0.389699C0.174474 14 0 13.8255 0 13.6103C0 13.5382 0.0200118 13.4675 0.0578084 13.406Z" fill="#101010"/>
<path fill-rule="evenodd" clip-rule="evenodd" d="M11.7071 2.29289C12.0976 2.68342 12.0976 3.31658 11.7071 3.70711L9.70711 5.70711C9.31658 6.09763 8.68342 6.09763 8.29289 5.70711C7.90237 5.31658 7.90237 4.68342 8.29289 4.29289L10.2929 2.29289C10.6834 1.90237 11.3166 1.90237 11.7071 2.29289Z" fill="#101010"/>
<path d="M5.35355 0.146447C5.25979 0.0526784 5.13261 0 5 0C4.86739 0 4.74022 0.0526784 4.64645 0.146447C3.42551 1.36738 2.73959 3.02333 2.73959 4.75C2.73959 6.47667 3.42551 8.13262 4.64645 9.35355C5.86739 10.5745 7.52333 11.2604 9.25 11.2604C10.9767 11.2604 12.6326 10.5745 13.8536 9.35355C14.0488 9.15829 14.0488 8.84171 13.8536 8.64645L5.35355 0.146447Z" fill="#FFE453"/>
</g>
<defs>
<clipPath id="clip0_1222_12402">
<rect width="14" height="14" fill="white"/>
</clipPath>
</defs>
</svg>
