<svg width="14" height="14" viewBox="0 0 14 14" fill="none" xmlns="http://www.w3.org/2000/svg">
<g clip-path="url(#clip0_1222_12411)">
<path d="M6.25 9.25C7.90685 9.25 9.25 7.90685 9.25 6.25C9.25 4.59315 7.90685 3.25 6.25 3.25C4.59315 3.25 3.25 4.59315 3.25 6.25C3.25 7.90685 4.59315 9.25 6.25 9.25Z" fill="#FFE453"/>
<path fill-rule="evenodd" clip-rule="evenodd" d="M1.57322 1.57322C1.62011 1.52634 1.6837 1.5 1.75 1.5H3.25C3.66421 1.5 4 1.16421 4 0.75C4 0.335786 3.66421 0 3.25 0H1.75C1.28587 0 0.840752 0.184375 0.512563 0.512563C0.184375 0.840752 0 1.28587 0 1.75V3.25C0 3.66421 0.335786 4 0.75 4C1.16421 4 1.5 3.66421 1.5 3.25V1.75C1.5 1.6837 1.52634 1.62011 1.57322 1.57322ZM14 10.75C14 10.3358 13.6642 10 13.25 10C12.8358 10 12.5 10.3358 12.5 10.75V12.25C12.5 12.3163 12.4737 12.3799 12.4268 12.4268C12.3799 12.4737 12.3163 12.5 12.25 12.5H10.75C10.3358 12.5 10 12.8358 10 13.25C10 13.6642 10.3358 14 10.75 14H12.25C12.7141 14 13.1592 13.8156 13.4874 13.4874C13.8156 13.1592 14 12.7141 14 12.25V10.75ZM0.75 10C1.16421 10 1.5 10.3358 1.5 10.75V12.25C1.5 12.3163 1.52634 12.3799 1.57322 12.4268C1.62011 12.4737 1.6837 12.5 1.75 12.5H3.25C3.66421 12.5 4 12.8358 4 13.25C4 13.6642 3.66421 14 3.25 14H1.75C1.28587 14 0.840752 13.8156 0.512563 13.4874C0.184375 13.1592 0 12.7141 0 12.25V10.75C0 10.3358 0.335786 10 0.75 10ZM10.75 0C10.3358 0 10 0.335786 10 0.75C10 1.16421 10.3358 1.5 10.75 1.5H12.25C12.3163 1.5 12.3799 1.52634 12.4268 1.57322C12.4737 1.62011 12.5 1.6837 12.5 1.75V3.25C12.5 3.66421 12.8358 4 13.25 4C13.6642 4 14 3.66421 14 3.25V1.75C14 1.28587 13.8156 0.840752 13.4874 0.512563C13.1592 0.184375 12.7141 0 12.25 0H10.75Z" fill="#FFE453"/>
<path fill-rule="evenodd" clip-rule="evenodd" d="M4 6.25C4 5.00736 5.00736 4 6.25 4C7.49264 4 8.5 5.00736 8.5 6.25C8.5 7.49264 7.49264 8.5 6.25 8.5C5.00736 8.5 4 7.49264 4 6.25ZM6.25 2.5C4.17893 2.5 2.5 4.17893 2.5 6.25C2.5 8.32107 4.17893 10 6.25 10C7.01431 10 7.72522 9.77134 8.31804 9.3787L9.96967 11.0303C10.2626 11.3232 10.7374 11.3232 11.0303 11.0303C11.3232 10.7374 11.3232 10.2626 11.0303 9.96967L9.3787 8.31804C9.77134 7.72522 10 7.01431 10 6.25C10 4.17893 8.32107 2.5 6.25 2.5Z" fill="#101010"/>
</g>
<defs>
<clipPath id="clip0_1222_12411">
<rect width="14" height="14" fill="white"/>
</clipPath>
</defs>
</svg>
