<svg width="14" height="14" viewBox="0 0 14 14" fill="none" xmlns="http://www.w3.org/2000/svg">
<g clip-path="url(#clip0_1222_12419)">
<path fill-rule="evenodd" clip-rule="evenodd" d="M12.3944 2.05282C12.6414 2.5468 12.4412 3.14747 11.9472 3.39446L4.73607 7.00004L11.9472 10.6056C12.4412 10.8526 12.6414 11.4532 12.3944 11.9472C12.1474 12.4412 11.5468 12.6414 11.0528 12.3944L2.05279 7.89446C1.714 7.72507 1.5 7.37881 1.5 7.00004C1.5 6.62126 1.714 6.275 2.05279 6.10561L11.0528 1.60561C11.5468 1.35862 12.1474 1.55884 12.3944 2.05282Z" fill="#FFE453"/>
<path d="M11.25 5.5C12.7688 5.5 14 4.26878 14 2.75C14 1.23122 12.7688 0 11.25 0C9.73122 0 8.5 1.23122 8.5 2.75C8.5 4.26878 9.73122 5.5 11.25 5.5Z" fill="#101010"/>
<path d="M11.25 14C12.7688 14 14 12.7688 14 11.25C14 9.73122 12.7688 8.5 11.25 8.5C9.73122 8.5 8.5 9.73122 8.5 11.25C8.5 12.7688 9.73122 14 11.25 14Z" fill="#101010"/>
<path d="M2.75 9.75C4.26878 9.75 5.5 8.51878 5.5 7C5.5 5.48122 4.26878 4.25 2.75 4.25C1.23122 4.25 0 5.48122 0 7C0 8.51878 1.23122 9.75 2.75 9.75Z" fill="#101010"/>
</g>
<defs>
<clipPath id="clip0_1222_12419">
<rect width="14" height="14" fill="white"/>
</clipPath>
</defs>
</svg>
