<svg width="14" height="14" viewBox="0 0 14 14" fill="none" xmlns="http://www.w3.org/2000/svg">
<g clip-path="url(#clip0_1222_12431)">
<path fill-rule="evenodd" clip-rule="evenodd" d="M1.5 -0.000244141C0.67943 -0.000244141 0 0.67848 0 1.49925V4.35334C0 8.48875 2.50995 12.3594 6.41127 13.8809C6.57792 13.9459 6.77602 13.9992 6.99302 14.0002C7.21478 14.0013 7.41772 13.9476 7.58873 13.8809C11.4901 12.3594 14 8.48875 14 4.35334V1.49925C14 0.678481 13.3206 -0.000244141 12.5 -0.000244141H1.5Z" fill="#FFE453"/>
<path fill-rule="evenodd" clip-rule="evenodd" d="M10.4983 3.43945C10.8079 3.71464 10.8357 4.18869 10.5606 4.49828L6.56057 8.99828C6.30142 9.28982 5.86206 9.33405 5.55001 9.10001L3.55001 7.60001C3.21864 7.35148 3.15148 6.88138 3.40001 6.55001C3.64854 6.21864 4.11864 6.15148 4.45001 6.40001L5.89793 7.48595L9.43945 3.50174C9.71464 3.19215 10.1887 3.16426 10.4983 3.43945Z" fill="#101010"/>
</g>
<defs>
<clipPath id="clip0_1222_12431">
<rect width="14" height="14" fill="white"/>
</clipPath>
</defs>
</svg>
