<svg width="14" height="14" viewBox="0 0 14 14" fill="none" xmlns="http://www.w3.org/2000/svg">
<g clip-path="url(#clip0_1222_12439)">
<path fill-rule="evenodd" clip-rule="evenodd" d="M1.5 0.75C1.5 0.335786 1.16421 0 0.75 0C0.335786 0 0 0.335786 0 0.75V13.25C0 13.6642 0.335786 14 0.75 14C1.16421 14 1.5 13.6642 1.5 13.25V0.75ZM14 0.75C14 0.335786 13.6642 0 13.25 0C12.8358 0 12.5 0.335786 12.5 0.75V13.25C12.5 13.6642 12.8358 14 13.25 14C13.6642 14 14 13.6642 14 13.25V0.75Z" fill="#101010"/>
<path fill-rule="evenodd" clip-rule="evenodd" d="M2.80866 4.03807C2.9955 3.96068 3.21055 4.00346 3.35355 4.14646L5.85355 6.64646C6.04882 6.84172 6.04882 7.1583 5.85355 7.35356L3.35355 9.85356C3.21055 9.99656 2.9955 10.0393 2.80866 9.96195C2.62182 9.88456 2.5 9.70224 2.5 9.50001V4.50001C2.5 4.29778 2.62182 4.11546 2.80866 4.03807ZM11.5 4.50001C11.5 4.29778 11.3782 4.11546 11.1913 4.03807C11.0045 3.96068 10.7894 4.00346 10.6464 4.14646L8.14645 6.64646C7.95118 6.84172 7.95118 7.1583 8.14645 7.35356L10.6464 9.85356C10.7894 9.99656 11.0045 10.0393 11.1913 9.96195C11.3782 9.88456 11.5 9.70224 11.5 9.50001V4.50001Z" fill="#FFE453"/>
</g>
<defs>
<clipPath id="clip0_1222_12439">
<rect width="14" height="14" fill="white"/>
</clipPath>
</defs>
</svg>
