<svg width="14" height="14" viewBox="0 0 14 14" fill="none" xmlns="http://www.w3.org/2000/svg">
<path fill-rule="evenodd" clip-rule="evenodd" d="M11.8536 1.64646C11.7106 1.50346 11.4955 1.46068 11.3087 1.53807C11.1218 1.61546 11 1.79778 11 2.00001V3.00001H9C8.70322 3.00001 8.42177 3.13183 8.23178 3.35982L3.53163 9.00001H1C0.447715 9.00001 0 9.44772 0 10C0 10.5523 0.447715 11 1 11H4C4.29678 11 4.57823 10.8682 4.76822 10.6402L9.46837 5.00001H11V6.00001C11 6.20224 11.1218 6.38456 11.3087 6.46195C11.4955 6.53934 11.7106 6.49656 11.8536 6.35356L13.8536 4.35356C14.0488 4.1583 14.0488 3.84172 13.8536 3.64646L11.8536 1.64646Z" fill="#101010"/>
<path fill-rule="evenodd" clip-rule="evenodd" d="M1 3C0.447715 3 0 3.44772 0 4C0 4.55228 0.447715 5 1 5H3.53163L8.23178 10.6402C8.42177 10.8682 8.70322 11 9 11H11V12C11 12.2022 11.1218 12.3845 11.3087 12.4619C11.4955 12.5393 11.7106 12.4966 11.8536 12.3536L13.8536 10.3536C14.0488 10.1583 14.0488 9.84171 13.8536 9.64645L11.8536 7.64645C11.7106 7.50345 11.4955 7.46067 11.3087 7.53806C11.1218 7.61545 11 7.79777 11 8V9H9.46837L4.76822 3.35982C4.57823 3.13182 4.29678 3 4 3H1Z" fill="#FFE453"/>
</svg>
