<svg width="14" height="14" viewBox="0 0 14 14" fill="none" xmlns="http://www.w3.org/2000/svg">
<g clip-path="url(#clip0_1222_12447)">
<path fill-rule="evenodd" clip-rule="evenodd" d="M0.418181 2.26766C-0.366348 1.48038 0.183868 0.125671 1.30546 0.125671H13.2055C13.6167 0.125671 13.95 0.458975 13.95 0.870125C13.95 1.28128 13.6167 1.61458 13.2055 1.61458H1.86933L6.71241 6.47466C7.0019 6.76517 7.0019 7.23511 6.71241 7.52563L1.86933 12.3857H13.2055C13.6167 12.3857 13.95 12.719 13.95 13.1302C13.95 13.5413 13.6167 13.8746 13.2055 13.8746H1.30546C0.183869 13.8746 -0.366349 12.5199 0.418181 11.7326L5.1341 7.00014L0.418181 2.26766Z" fill="#FFE453"/>
</g>
<defs>
<clipPath id="clip0_1222_12447">
<rect width="14" height="14" fill="white"/>
</clipPath>
</defs>
</svg>
