<svg width="14" height="14" viewBox="0 0 14 14" fill="none" xmlns="http://www.w3.org/2000/svg">
<path fill-rule="evenodd" clip-rule="evenodd" d="M10.9742 0.595072C10.8454 0.345996 10.5884 0.189575 10.308 0.189575H7.82522C7.41101 0.189575 7.07522 0.525362 7.07522 0.939575C7.07522 1.35379 7.41101 1.68958 7.82522 1.68958H8.85762L7.05803 4.23017C6.89595 4.45899 6.87505 4.75911 7.00386 5.00819C7.13266 5.25727 7.38964 5.41369 7.67005 5.41369H10.4631C10.8773 5.41369 11.2131 5.0779 11.2131 4.66369C11.2131 4.24947 10.8773 3.91369 10.4631 3.91369H9.12039L10.92 1.37309C11.0821 1.14427 11.103 0.844147 10.9742 0.595072ZM5.90567 4.05808C5.77687 3.80901 5.51988 3.65259 5.23947 3.65259H2.58759C2.17338 3.65259 1.83759 3.98837 1.83759 4.40259C1.83759 4.8168 2.17338 5.15259 2.58759 5.15259H3.78913L1.80983 7.94689C1.64775 8.17571 1.62685 8.47583 1.75565 8.72491C1.88446 8.97398 2.14144 9.1304 2.42185 9.1304H5.40521C5.81943 9.1304 6.15521 8.79462 6.15521 8.3804C6.15521 7.96619 5.81943 7.6304 5.40521 7.6304H3.87219L5.85149 4.8361C6.01357 4.60728 6.03447 4.30716 5.90567 4.05808ZM12.0144 6.9624C12.2948 6.9624 12.5517 7.11882 12.6805 7.3679C12.8094 7.61697 12.7885 7.9171 12.6264 8.14592L9.62678 12.3806H12.2401C12.6543 12.3806 12.9901 12.7164 12.9901 13.1306C12.9901 13.5448 12.6543 13.8806 12.2401 13.8806H8.17644C7.89603 13.8806 7.63905 13.7242 7.51024 13.4751C7.38144 13.2261 7.40234 12.9259 7.56442 12.6971L10.564 8.4624H8.4022C7.98799 8.4624 7.6522 8.12662 7.6522 7.7124C7.6522 7.29819 7.98799 6.9624 8.4022 6.9624H12.0144Z" fill="#FFE453"/>
</svg>
