<svg width="14" height="14" viewBox="0 0 14 14" fill="none" xmlns="http://www.w3.org/2000/svg">
<g clip-path="url(#clip0_1222_12461)">
<path fill-rule="evenodd" clip-rule="evenodd" d="M0.75 0C0.335786 0 0 0.335786 0 0.75C0 1.16421 0.335786 1.5 0.75 1.5H7.25C7.66421 1.5 8 1.16421 8 0.75C8 0.335786 7.66421 0 7.25 0H0.75ZM2.5 3.75C2.5 3.33579 2.83579 3 3.25 3H7.25C7.66421 3 8 3.33579 8 3.75C8 4.16421 7.66421 4.5 7.25 4.5H3.25C2.83579 4.5 2.5 4.16421 2.5 3.75ZM4.5 6.75C4.5 6.33579 4.83579 6 5.25 6H7.25C7.66421 6 8 6.33579 8 6.75C8 7.16421 7.66421 7.5 7.25 7.5H5.25C4.83579 7.5 4.5 7.16421 4.5 6.75Z" fill="#FFE453"/>
<path fill-rule="evenodd" clip-rule="evenodd" d="M11.75 1C11.75 0.447715 11.3023 0 10.75 0C10.1977 0 9.74999 0.447715 9.74999 1V10H8.24999C7.94665 10 7.67317 10.1827 7.55708 10.463C7.441 10.7432 7.50517 11.0658 7.71966 11.2803L10.2197 13.7803C10.5126 14.0732 10.9874 14.0732 11.2803 13.7803L13.7803 11.2803C13.9948 11.0658 14.059 10.7432 13.9429 10.463C13.8268 10.1827 13.5533 10 13.25 10H11.75V1Z" fill="#101010"/>
</g>
<defs>
<clipPath id="clip0_1222_12461">
<rect width="14" height="14" fill="white"/>
</clipPath>
</defs>
</svg>
