<svg width="14" height="14" viewBox="0 0 14 14" fill="none" xmlns="http://www.w3.org/2000/svg">
<g clip-path="url(#clip0_1222_12465)">
<path fill-rule="evenodd" clip-rule="evenodd" d="M5.91917 1.94647C3.47853 1.94647 1.5 3.925 1.5 6.36564V7.00004C1.5 9.79105 3.76256 12.0536 6.55358 12.0536H7C10.0376 12.0536 12.5 9.59118 12.5 6.55362V6.10719C12.5 5.69298 12.8358 5.35719 13.25 5.35719C13.6642 5.35719 14 5.69298 14 6.10719V6.55362C14 10.4196 10.866 13.5536 7 13.5536H6.55358C2.93414 13.5536 0 10.6195 0 7.00004V6.36564C0 3.09658 2.6501 0.446472 5.91917 0.446472C8.90276 0.446472 11.3214 2.86515 11.3214 5.84873V6.27889C11.3214 8.81728 9.26366 10.875 6.72527 10.875H6.55357C4.41347 10.875 2.67857 9.14015 2.67857 7.00005V6.55362C2.67857 4.66007 4.2136 3.12505 6.10714 3.12505C7.50758 3.12505 8.64286 4.26032 8.64286 5.66076V5.91586C8.64286 7.17541 7.62179 8.19647 6.36225 8.19647H6.10714C5.69293 8.19647 5.35714 7.86069 5.35714 7.44647C5.35714 7.03226 5.69293 6.69647 6.10714 6.69647H6.36225C6.79337 6.69647 7.14286 6.34698 7.14286 5.91586V5.66076C7.14286 5.08875 6.67915 4.62505 6.10714 4.62505C5.04202 4.62505 4.17857 5.4885 4.17857 6.55362V7.00005C4.17857 8.31172 5.2419 9.37505 6.55357 9.37505H6.72527C8.43523 9.37505 9.82143 7.98885 9.82143 6.27889V5.84873C9.82143 3.69357 8.07433 1.94647 5.91917 1.94647Z" fill="#FFE453"/>
</g>
<defs>
<clipPath id="clip0_1222_12465">
<rect width="14" height="14" fill="white"/>
</clipPath>
</defs>
</svg>
