<svg width="14" height="14" viewBox="0 0 14 14" fill="none" xmlns="http://www.w3.org/2000/svg">
<g clip-path="url(#clip0_1222_12471)">
<path fill-rule="evenodd" clip-rule="evenodd" d="M2.5 1.75049C2.08579 1.75049 1.75 2.08627 1.75 2.50049C1.75 2.9147 2.08579 3.25049 2.5 3.25049H2.75V5.00049C2.75 5.4147 3.08579 5.75049 3.5 5.75049C3.91421 5.75049 4.25 5.4147 4.25 5.00049V3.25049H4.5C4.91421 3.25049 5.25 2.9147 5.25 2.50049C5.25 2.08627 4.91421 1.75049 4.5 1.75049H3.5H2.5Z" fill="#101010"/>
<path fill-rule="evenodd" clip-rule="evenodd" d="M13.3971 1.48546C13.8033 1.40422 14.0667 1.00911 13.9854 0.602935C13.9042 0.196766 13.5091 -0.0666469 13.1029 0.014587L8.10292 1.01459C7.69675 1.09582 7.43334 1.49094 7.51457 1.89711C7.59581 2.30328 7.99092 2.56669 8.39709 2.48546L13.3971 1.48546ZM8.39709 3.01459C7.99092 2.93335 7.59581 3.19677 7.51457 3.60294C7.43334 4.00911 7.69675 4.40422 8.10292 4.48546L13.1029 5.48546C13.5091 5.56669 13.9042 5.30328 13.9854 4.89711C14.0667 4.49094 13.8033 4.09582 13.3971 4.01459L8.39709 3.01459Z" fill="#101010"/>
<path d="M0 6C0 5.17157 0.671573 4.5 1.5 4.5H5.5C6.32843 4.5 7 5.17157 7 6V12.5C7 13.3284 6.32843 14 5.5 14H1.5C0.671573 14 0 13.3284 0 12.5V6Z" fill="#FFE453"/>
</g>
<defs>
<clipPath id="clip0_1222_12471">
<rect width="14" height="14" fill="white"/>
</clipPath>
</defs>
</svg>
