<svg width="14" height="14" viewBox="0 0 14 14" fill="none" xmlns="http://www.w3.org/2000/svg">
<g clip-path="url(#clip0_1222_12490)">
<path fill-rule="evenodd" clip-rule="evenodd" d="M6.75 0C3.02208 0 0 3.02208 0 6.75C0 10.4779 3.02208 13.5 6.75 13.5C10.4779 13.5 13.5 10.4779 13.5 6.75C13.5 3.02208 10.4779 0 6.75 0Z" fill="#FFE453"/>
<path fill-rule="evenodd" clip-rule="evenodd" d="M5.38942 3.47119C5.08556 3.47119 4.82573 3.68974 4.77366 3.9891L4.10657 7.82491L3.82108 7.42523C3.62045 7.14434 3.23011 7.07929 2.94923 7.27992C2.66834 7.48055 2.60328 7.87089 2.80392 8.15177L3.95776 9.76716C4.10423 9.97221 4.3595 10.0692 4.6052 10.0133C4.85089 9.95728 5.03893 9.75923 5.0821 9.51097L5.91511 4.72119H9.3125C9.65768 4.72119 9.9375 4.44137 9.9375 4.09619C9.9375 3.75101 9.65768 3.47119 9.3125 3.47119H5.38942ZM9.64862 6.24678C9.3893 6.01895 8.9944 6.04448 8.76658 6.3038L8.125 7.03407L7.48342 6.3038C7.2556 6.04448 6.86069 6.01895 6.60138 6.24678C6.34206 6.4746 6.31653 6.8695 6.54435 7.12882L7.29305 7.98101L6.40547 8.9913C6.17764 9.25061 6.20317 9.64552 6.46249 9.87334C6.7218 10.1012 7.11671 10.0756 7.34453 9.81632L8.125 8.92796L8.90547 9.81632C9.13329 10.0756 9.52819 10.1012 9.78751 9.87334C10.0468 9.64552 10.0724 9.25061 9.84453 8.9913L8.95694 7.98101L9.70564 7.12882C9.93347 6.8695 9.90794 6.4746 9.64862 6.24678Z" fill="#101010"/>
</g>
<defs>
<clipPath id="clip0_1222_12490">
<rect width="14" height="14" fill="white"/>
</clipPath>
</defs>
</svg>
