<svg width="14" height="14" viewBox="0 0 14 14" fill="none" xmlns="http://www.w3.org/2000/svg">
<g clip-path="url(#clip0_1222_12485)">
<path d="M0 1.5C0 0.671573 0.671573 0 1.5 0H12.5C13.3284 0 14 0.671573 14 1.5V12.5C14 13.3284 13.3284 14 12.5 14H1.5C0.671573 14 0 13.3284 0 12.5V1.5Z" fill="#FFE453"/>
<path d="M7 11.5C9.48528 11.5 11.5 9.48528 11.5 7C11.5 4.51472 9.48528 2.5 7 2.5C4.51472 2.5 2.5 4.51472 2.5 7C2.5 9.48528 4.51472 11.5 7 11.5Z" fill="#101010"/>
<path fill-rule="evenodd" clip-rule="evenodd" d="M7 4.375C7.34518 4.375 7.625 4.65482 7.625 5V6.375H9C9.34518 6.375 9.625 6.65482 9.625 7C9.625 7.34518 9.34518 7.625 9 7.625H7C6.65482 7.625 6.375 7.34518 6.375 7V5C6.375 4.65482 6.65482 4.375 7 4.375Z" fill="#FFE453"/>
</g>
<defs>
<clipPath id="clip0_1222_12485">
<rect width="14" height="14" fill="white"/>
</clipPath>
</defs>
</svg>
