<svg width="14" height="14" viewBox="0 0 14 14" fill="none" xmlns="http://www.w3.org/2000/svg">
<g clip-path="url(#clip0_1222_12520)">
<path d="M11.002 5.996C12.6577 5.996 14 4.65375 14 2.998C14 1.34225 12.6577 0 11.002 0C9.34625 0 8.004 1.34225 8.004 2.998C8.004 4.65375 9.34625 5.996 11.002 5.996Z" fill="#101010"/>
<path d="M4.5 5.00006C3.30653 5.00006 2.16193 5.47417 1.31802 6.31808C0.474106 7.16199 0 8.30659 0 9.50006C0 10.6935 0.474106 11.8381 1.31802 12.682C2.16193 13.526 3.30653 14.0001 4.5 14.0001H10.5C11.163 14.0001 11.7989 13.7367 12.2678 13.2678C12.7366 12.799 13 12.1631 13 11.5001C13 10.837 12.7366 10.2011 12.2678 9.73229C11.7989 9.26345 11.163 9.00006 10.5 9.00006C10.0911 9.00085 9.68885 9.10399 9.33 9.30006C9.29473 9.31932 9.25519 9.32941 9.215 9.32941C9.17481 9.32941 9.13527 9.31932 9.1 9.30006C9.06282 9.28237 9.03059 9.25577 9.00617 9.22262C8.98175 9.18947 8.96589 9.15081 8.96 9.11006C8.87403 7.98801 8.36615 6.9402 7.53861 6.17759C6.71106 5.41499 5.62532 4.99424 4.5 5.00006Z" fill="#FFE453"/>
</g>
<defs>
<clipPath id="clip0_1222_12520">
<rect width="14" height="14" fill="white"/>
</clipPath>
</defs>
</svg>
