<svg width="14" height="14" viewBox="0 0 14 14" fill="none" xmlns="http://www.w3.org/2000/svg">
<g clip-path="url(#clip0_1222_12528)">
<path fill-rule="evenodd" clip-rule="evenodd" d="M7.75 3.5C7.75 3.08579 7.41421 2.75 7 2.75C6.58579 2.75 6.25 3.08579 6.25 3.5V7.5C6.25 7.91421 6.58579 8.25 7 8.25C7.41421 8.25 7.75 7.91421 7.75 7.5V3.5ZM7 11C7.55228 11 8 10.5523 8 10C8 9.44772 7.55228 9 7 9C6.44772 9 6 9.44772 6 10C6 10.5523 6.44772 11 7 11Z" fill="#101010"/>
<path fill-rule="evenodd" clip-rule="evenodd" d="M0.757241 3.07125L1.29369 3.39312C2.4898 1.50463 4.59775 0.25 7.00001 0.25C9.72534 0.25 12.0719 1.86511 13.1376 4.18715C13.3104 4.56361 13.1453 5.00885 12.7688 5.18164C12.3924 5.35442 11.9471 5.1893 11.7743 4.81285C10.9441 3.00383 9.11767 1.75 7.00001 1.75C5.14552 1.75 3.5144 2.71181 2.58025 4.16506L3.25724 4.57125C3.43065 4.6753 3.52431 4.87356 3.49455 5.07359C3.46478 5.27362 3.31745 5.43602 3.12126 5.48507L1.12126 5.98507C0.853364 6.05205 0.581897 5.88916 0.514922 5.62127L0.0149224 3.62127C-0.0341259 3.42507 0.0398393 3.21865 0.202328 3.09826C0.364817 2.97787 0.58383 2.96721 0.757241 3.07125ZM11.4198 9.83496L10.7427 9.42875C10.5693 9.3247 10.4757 9.12644 10.5054 8.92641C10.5352 8.72638 10.6825 8.56398 10.8787 8.51493L12.8787 8.01493C13.1466 7.94795 13.4181 8.11083 13.4851 8.37873L13.9851 10.3787C14.0341 10.5749 13.9601 10.7813 13.7977 10.9017C13.6352 11.0221 13.4162 11.0328 13.2427 10.9287L12.7063 10.6069C11.5102 12.4954 9.40228 13.75 7.00002 13.75C4.27469 13.75 1.92816 12.1349 0.862426 9.81285C0.689645 9.43639 0.854757 8.99115 1.23121 8.81837C1.60767 8.64558 2.05292 8.8107 2.2257 9.18715C3.05597 10.9962 4.88236 12.25 7.00002 12.25C8.8545 12.25 10.4856 11.2882 11.4198 9.83496Z" fill="#FFE453"/>
</g>
<defs>
<clipPath id="clip0_1222_12528">
<rect width="14" height="14" fill="white"/>
</clipPath>
</defs>
</svg>
