<svg width="14" height="14" viewBox="0 0 14 14" fill="none" xmlns="http://www.w3.org/2000/svg">
<g clip-path="url(#clip0_1222_12524)">
<path fill-rule="evenodd" clip-rule="evenodd" d="M10.9287 0.757275L10.6069 1.29369C12.4949 2.48952 13.75 4.59758 13.75 7C13.75 9.7253 12.1349 12.0718 9.81284 13.1376C9.43639 13.3103 8.99114 13.1452 8.81836 12.7688C8.64558 12.3923 8.8107 11.9471 9.18716 11.7743C10.9962 10.944 12.25 9.11762 12.25 7C12.25 5.14569 11.2886 3.51472 9.8349 2.58032L9.42875 3.25724C9.3247 3.43065 9.12644 3.52431 8.92641 3.49455C8.72638 3.46478 8.56398 3.31746 8.51493 3.12126L8.01493 1.12129C7.98277 0.992638 8.00303 0.856482 8.07125 0.74277C8.13948 0.629059 8.25008 0.547109 8.37873 0.514947L10.3787 0.0149526C10.5749 -0.0340952 10.7813 0.0398708 10.9017 0.202361C11.0221 0.36485 11.0328 0.583863 10.9287 0.757275ZM4.81284 2.22574C5.1893 2.05296 5.35442 1.60772 5.18164 1.23126C5.00886 0.854805 4.56361 0.689691 4.18716 0.86247C1.86511 1.92819 0.25 4.27469 0.25 7C0.25 9.4024 1.50506 11.5105 3.39308 12.7063L3.07126 13.2427C2.96721 13.4161 2.97786 13.6351 3.09826 13.7976C3.21865 13.9601 3.42507 14.0341 3.62127 13.985L5.62127 13.485C5.74992 13.4528 5.86052 13.3709 5.92875 13.2572C5.99697 13.1435 6.01723 13.0073 5.98507 12.8787L5.48507 10.8787C5.43602 10.6825 5.27362 10.5352 5.07359 10.5054C4.87357 10.4756 4.6753 10.5693 4.57126 10.7427L4.16507 11.4197C2.71138 10.4853 1.75 8.85429 1.75 7C1.75 4.88237 3.00383 3.05601 4.81284 2.22574Z" fill="#FFE453"/>
<path fill-rule="evenodd" clip-rule="evenodd" d="M0.219648 0.219649C-0.073216 0.512513 -0.073216 0.987341 0.219648 1.28021L12.7198 13.7804C13.0127 14.0732 13.4875 14.0732 13.7804 13.7804C14.0732 13.4875 14.0732 13.0127 13.7804 12.7198L1.28021 0.219649C0.98734 -0.0732163 0.512513 -0.0732163 0.219648 0.219649Z" fill="#101010"/>
</g>
<defs>
<clipPath id="clip0_1222_12524">
<rect width="14" height="14" fill="white"/>
</clipPath>
</defs>
</svg>
