<svg width="14" height="14" viewBox="0 0 14 14" fill="none" xmlns="http://www.w3.org/2000/svg">
<g clip-path="url(#clip0_1222_12532)">
<path fill-rule="evenodd" clip-rule="evenodd" d="M6.5 0.75C6.08579 0.75 5.75 1.08579 5.75 1.5C5.75 1.91421 6.08579 2.25 6.5 2.25H8C9.79493 2.25 11.25 3.70507 11.25 5.5V12.5H7.25C6.83579 12.5 6.5 12.8358 6.5 13.25C6.5 13.6642 6.83579 14 7.25 14H13.25C13.6642 14 14 13.6642 14 13.25C14 12.8358 13.6642 12.5 13.25 12.5H12.75V5.5C12.75 2.87665 10.6234 0.75 8 0.75H6.5Z" fill="#101010"/>
<path fill-rule="evenodd" clip-rule="evenodd" d="M3.50016 0C3.10233 0 2.7208 0.158035 2.4395 0.43934C2.15819 0.720644 2.00016 1.10218 2.00016 1.5V2.72243C1.42163 3.10893 0.939425 3.62516 0.592906 4.23157C0.197592 4.92337 -0.00695204 5.70773 0.000180343 6.50448C0.00263659 6.77886 0.225765 7 0.500161 7H8.50016C8.77455 7 8.99768 6.77886 9.00014 6.50448C9.00727 5.70773 8.80273 4.92337 8.40741 4.23157C8.06089 3.62516 7.57869 3.10893 7.00016 2.72243V1.5C7.00016 1.10217 6.84212 0.720644 6.56082 0.43934C6.27951 0.158035 5.89798 0 5.50016 0H3.50016Z" fill="#FFE453"/>
</g>
<defs>
<clipPath id="clip0_1222_12532">
<rect width="14" height="14" fill="white"/>
</clipPath>
</defs>
</svg>
