<svg width="14" height="14" viewBox="0 0 14 14" fill="none" xmlns="http://www.w3.org/2000/svg">
<g clip-path="url(#clip0_1222_12536)">
<path d="M8.39428 0.0556581C8.51414 0.0101918 8.64266 -0.00790113 8.77042 0.00270316C8.78205 0.00366876 8.79364 0.00504145 8.80518 0.00681874L12.6156 0.593807C12.819 0.611648 13.01 0.700498 13.1548 0.845293C13.2995 0.990089 13.3884 1.18107 13.4062 1.38441L13.9932 5.19486C13.995 5.2064 13.9964 5.218 13.9973 5.22963C14.0079 5.35739 13.9899 5.4859 13.9444 5.60577C13.8997 5.72351 13.8298 5.82998 13.7395 5.91768L6.02261 13.6345C5.78823 13.8686 5.47031 14.0003 5.13906 14.0003C4.80781 14.0003 4.4901 13.8688 4.25572 13.6348L0.365502 9.74454C0.131418 9.51017 -0.000284195 9.19224 -0.000284195 8.86099C-0.000284195 8.52974 0.131199 8.21203 0.365283 7.97766L8.08237 0.26057C8.17007 0.17028 8.27653 0.100318 8.39428 0.0556581Z" fill="#FFE453"/>
<path d="M10 5.00098C9.44772 5.00098 9 4.55326 9 4.00098C9 3.44869 9.44772 3.00098 10 3.00098C10.5523 3.00098 11 3.44869 11 4.00098C11 4.55326 10.5523 5.00098 10 5.00098Z" fill="#101010"/>
</g>
<defs>
<clipPath id="clip0_1222_12536">
<rect width="14" height="14" fill="white"/>
</clipPath>
</defs>
</svg>
