<svg width="14" height="14" viewBox="0 0 14 14" fill="none" xmlns="http://www.w3.org/2000/svg">
<g clip-path="url(#clip0_1222_12544)">
<path d="M0 1.5C0 0.671573 0.671573 0 1.5 0H12.5C13.3284 0 14 0.671573 14 1.5V12.5C14 13.3284 13.3284 14 12.5 14H1.5C0.671573 14 0 13.3284 0 12.5V1.5Z" fill="#FFE453"/>
<path fill-rule="evenodd" clip-rule="evenodd" d="M6.99999 3.875C6.89577 3.875 6.80324 3.94169 6.77028 4.04057L5.57547 7.625H8.42452L7.22971 4.04057C7.19675 3.94169 7.10422 3.875 6.99999 3.875ZM9.87997 8.0385L8.41556 3.64528C8.21246 3.03598 7.64225 2.625 6.99999 2.625C6.35773 2.625 5.78752 3.03598 5.58442 3.64528L4.12001 8.03852C4.11675 8.04759 4.11369 8.05677 4.11084 8.06603L3.28206 10.5524C3.17291 10.8798 3.34988 11.2338 3.67735 11.3429C4.00481 11.4521 4.35876 11.2751 4.46792 10.9476L5.1588 8.875H8.84118L9.53206 10.9476C9.64122 11.2751 9.99517 11.4521 10.3226 11.3429C10.6501 11.2338 10.8271 10.8798 10.7179 10.5524L9.88915 8.06605C9.8863 8.05677 9.88323 8.04759 9.87997 8.0385Z" fill="#101010"/>
</g>
<defs>
<clipPath id="clip0_1222_12544">
<rect width="14" height="14" fill="white"/>
</clipPath>
</defs>
</svg>
