<svg width="14" height="14" viewBox="0 0 14 14" fill="none" xmlns="http://www.w3.org/2000/svg">
<g clip-path="url(#clip0_1222_12540)">
<path fill-rule="evenodd" clip-rule="evenodd" d="M2.50001 2.75C2.08579 2.75 1.75001 2.41421 1.75001 2C1.75001 1.58579 2.08579 1.25 2.50001 1.25H12C12.3034 1.25 12.5768 1.43273 12.6929 1.71299C12.809 1.99324 12.7448 2.31583 12.5303 2.53033L4.31067 10.75H10.5V9.5C10.5 9.29777 10.6218 9.11545 10.8087 9.03806C10.9955 8.96067 11.2106 9.00345 11.3536 9.14645L13.3536 11.1464C13.5488 11.3417 13.5488 11.6583 13.3536 11.8536L11.3536 13.8536C11.2106 13.9966 10.9955 14.0393 10.8087 13.9619C10.6218 13.8845 10.5 13.7022 10.5 13.5V12.25H2.50001C2.19666 12.25 1.92318 12.0673 1.8071 11.787C1.69101 11.5068 1.75518 11.1842 1.96968 10.9697L10.1893 2.75H2.50001Z" fill="#FFE453"/>
<path fill-rule="evenodd" clip-rule="evenodd" d="M0.499924 0.500015C0.499915 0.223867 0.723775 0 0.999924 0H4.00005C4.27618 0 4.50004 0.223848 4.50005 0.499985L4.50014 3.49998C4.50015 3.77613 4.27629 4 4.00014 4H1.00002C0.723879 4 0.500024 3.77615 0.500015 3.50002L0.499924 0.500015ZM9.5 0.5C9.5 0.223858 9.72386 0 10 0H13C13.2761 0 13.5 0.223858 13.5 0.5V3.5C13.5 3.77614 13.2761 4 13 4H10C9.72386 4 9.5 3.77614 9.5 3.5V0.5ZM1 9.5C0.723858 9.5 0.5 9.72386 0.5 10V13C0.5 13.2761 0.723858 13.5 1 13.5H4C4.27614 13.5 4.5 13.2761 4.5 13V10C4.5 9.72386 4.27614 9.5 4 9.5H1Z" fill="#101010"/>
</g>
<defs>
<clipPath id="clip0_1222_12540">
<rect width="14" height="14" fill="white"/>
</clipPath>
</defs>
</svg>
