<svg width="14" height="14" viewBox="0 0 14 14" fill="none" xmlns="http://www.w3.org/2000/svg">
<path fill-rule="evenodd" clip-rule="evenodd" d="M9.03121 1.5C8.18497 1.5 7.42856 1.88153 6.9232 2.48469C6.74768 2.69419 6.47209 2.79162 6.2039 2.73899C6.03204 2.70527 5.85388 2.68748 5.67083 2.68748C4.15288 2.68748 2.92233 3.91802 2.92233 5.43598C2.92233 5.65212 2.94714 5.86151 2.99374 6.06184C3.08758 6.46528 2.8366 6.86842 2.43316 6.96226C2.02972 7.05611 1.62659 6.80513 1.53274 6.40169C1.46041 6.09073 1.42233 5.76733 1.42233 5.43598C1.42233 3.0896 3.32445 1.18748 5.67083 1.18748C5.80401 1.18748 5.93592 1.19363 6.06627 1.20569C6.83111 0.460438 7.87766 0 9.03121 0C11.3776 0 13.2797 1.90212 13.2797 4.2485C13.2797 4.57985 13.2416 4.90325 13.1693 5.21421C13.0755 5.61765 12.6723 5.86863 12.2689 5.77478C11.8654 5.68094 11.6145 5.27781 11.7083 4.87436C11.7549 4.67404 11.7797 4.46464 11.7797 4.2485C11.7797 2.73055 10.5492 1.5 9.03121 1.5Z" fill="#101010"/>
<path d="M4.18183 5.84244L4.74849 10.1891L4.10446 10.3103C2.89156 10.5386 2.31429 11.9389 3.01398 12.9556L3.43392 13.5658C3.62093 13.8376 3.92992 13.9996 4.25979 13.9989L11.535 13.9836C12.0865 13.9825 12.5329 13.5351 12.5329 12.9836V10.9172C12.5329 9.73877 11.5776 8.78346 10.3992 8.78346H9.92837L10.4971 4.4498C10.5979 3.68158 9.99995 3 9.22514 3C8.58116 3 8.03697 3.47743 7.95318 4.11594L7.34062 8.78346L7.33785 8.79124L6.76509 5.45262C6.65749 4.82546 6.11371 4.36702 5.47738 4.36702C4.68875 4.36702 4.07988 5.06042 4.18183 5.84244Z" fill="#FFE453"/>
</svg>
