<svg width="14" height="14" viewBox="0 0 14 14" fill="none" xmlns="http://www.w3.org/2000/svg">
<g clip-path="url(#clip0_1222_12562)">
<path fill-rule="evenodd" clip-rule="evenodd" d="M2.99991 0.500015C2.99991 0.297783 2.87809 0.115465 2.69125 0.0380749C2.50441 -0.0393156 2.28935 0.0034622 2.14636 0.146461L0.646355 1.64646C0.451093 1.84172 0.451093 2.15831 0.646355 2.35357L2.14636 3.85357C2.28935 3.99657 2.50441 4.03934 2.69125 3.96195C2.87809 3.88456 2.99991 3.70225 2.99991 3.50001V2.50001H3.99991C4.27605 2.50001 4.49991 2.27616 4.49991 2.00001C4.49991 1.72387 4.27605 1.50001 3.99991 1.50001H2.99991V0.500015ZM11.8083 0.0380749C11.9952 -0.0393156 12.2102 0.0034622 12.3532 0.146461L13.8532 1.64646C14.0485 1.84172 14.0485 2.15831 13.8532 2.35357L12.3532 3.85357C12.2102 3.99657 11.9952 4.03934 11.8083 3.96195C11.6215 3.88456 11.4997 3.70225 11.4997 3.50001V2.50001H10.4997C10.2235 2.50001 9.99966 2.27616 9.99966 2.00001C9.99966 1.72387 10.2235 1.50001 10.4997 1.50001H11.4997V0.500015C11.4997 0.297783 11.6215 0.115465 11.8083 0.0380749Z" fill="#101010"/>
<path d="M3.52394 6.11022L5.42036 10.0622L4.84644 10.3786C3.76558 10.9744 3.65475 12.485 4.63707 13.2322L5.37785 13.7956C5.5519 13.928 5.76456 13.9997 5.98325 13.9997H12.8173C13.436 13.9997 13.9062 13.4435 13.8033 12.8334L13.1053 8.69387C13.0635 8.44605 13.0129 8.19631 12.8938 7.97499C12.413 7.08123 11.3466 6.63323 10.3489 6.96138L9.9017 7.10849L9.08791 2.8141C8.94365 2.05284 8.16264 1.59222 7.42663 1.83431C6.81489 2.03552 6.44712 2.65908 6.56702 3.2918L7.44351 7.91703L7.44331 7.92529L5.85606 4.93278C5.55789 4.37064 4.8981 4.10506 4.29363 4.30388C3.54448 4.55029 3.18275 5.39921 3.52394 6.11022Z" fill="#FFE453"/>
</g>
<defs>
<clipPath id="clip0_1222_12562">
<rect width="14" height="14" fill="white"/>
</clipPath>
</defs>
</svg>
