<svg width="14" height="14" viewBox="0 0 14 14" fill="none" xmlns="http://www.w3.org/2000/svg">
<g clip-path="url(#clip0_1222_12572)">
<path fill-rule="evenodd" clip-rule="evenodd" d="M4 0C4.41421 0 4.75 0.335786 4.75 0.75V7.5C4.75 8.74264 5.75736 9.75 7 9.75C8.24264 9.75 9.25 8.74264 9.25 7.5V0.75C9.25 0.335786 9.58579 0 10 0C10.4142 0 10.75 0.335786 10.75 0.75V7.5C10.75 9.57107 9.07107 11.25 7 11.25C4.92893 11.25 3.25 9.57107 3.25 7.5V0.75C3.25 0.335786 3.58579 0 4 0Z" fill="#FFE453"/>
<path fill-rule="evenodd" clip-rule="evenodd" d="M0 13.25C0 12.8358 0.335786 12.5 0.75 12.5H13.25C13.6642 12.5 14 12.8358 14 13.25C14 13.6642 13.6642 14 13.25 14H0.75C0.335786 14 0 13.6642 0 13.25Z" fill="#101010"/>
</g>
<defs>
<clipPath id="clip0_1222_12572">
<rect width="14" height="14" fill="white"/>
</clipPath>
</defs>
</svg>
