<svg width="14" height="14" viewBox="0 0 14 14" fill="none" xmlns="http://www.w3.org/2000/svg">
<g clip-path="url(#clip0_1222_12583)">
<path d="M7 14C10.866 14 14 10.866 14 7C14 3.13401 10.866 0 7 0C3.13401 0 0 3.13401 0 7C0 10.866 3.13401 14 7 14Z" fill="#FFE453"/>
<path d="M7.3535 2.89669L10.1464 5.68958C10.4614 6.00457 10.2383 6.54314 9.79284 6.54314H7.99995V10.25C7.99995 10.8023 7.55224 11.25 6.99995 11.25C6.44767 11.25 5.99995 10.8023 5.99995 10.25V6.54314H4.20706C3.76161 6.54314 3.53852 6.00457 3.8535 5.68958L6.6464 2.89669C6.84166 2.70143 7.15824 2.70143 7.3535 2.89669Z" fill="#101010"/>
</g>
<defs>
<clipPath id="clip0_1222_12583">
<rect width="14" height="14" fill="white"/>
</clipPath>
</defs>
</svg>
