<svg width="14" height="14" viewBox="0 0 14 14" fill="none" xmlns="http://www.w3.org/2000/svg">
<path d="M2.5 0C2.10218 0 1.72064 0.158035 1.43934 0.43934C1.15804 0.720644 1 1.10218 1 1.5V12.5C1 12.8978 1.15804 13.2794 1.43934 13.5607C1.72064 13.842 2.10217 14 2.5 14H11.5C11.8978 14 12.2794 13.842 12.5607 13.5607C12.842 13.2794 13 12.8978 13 12.5V4.5C13 4.36739 12.9473 4.24021 12.8536 4.14645L8.85355 0.146447C8.75979 0.0526784 8.63261 0 8.5 0H2.5Z" fill="#FFE453"/>
<path fill-rule="evenodd" clip-rule="evenodd" d="M7.29089 3.53699L7.18695 3.43306C7.06974 3.31585 6.91077 3.25 6.74501 3.25C6.57925 3.25 6.42028 3.31585 6.30307 3.43306L6.19911 3.53701C6.08267 3.61303 5.98304 3.71265 5.90703 3.82909L4.05307 5.68306C3.87432 5.86181 3.82085 6.13063 3.91759 6.36418C4.01432 6.59772 4.24222 6.75 4.49501 6.75H5.74502V10.375C5.74502 10.9273 6.19273 11.375 6.74502 11.375C7.2973 11.375 7.74502 10.9273 7.74502 10.375V6.75H8.99501C9.2478 6.75 9.4757 6.59772 9.57244 6.36418C9.66917 6.13063 9.6157 5.86181 9.43695 5.68306L7.58303 3.82913C7.507 3.71266 7.40736 3.61301 7.29089 3.53699Z" fill="#101010"/>
</svg>
