<svg width="14" height="14" viewBox="0 0 14 14" fill="none" xmlns="http://www.w3.org/2000/svg">
<g clip-path="url(#clip0_1222_12588)">
<path fill-rule="evenodd" clip-rule="evenodd" d="M5.6345 10.5761C5.70567 10.3773 5.89408 10.2446 6.10526 10.2446H7.89477C8.10595 10.2446 8.29436 10.3773 8.36552 10.5761L9.05215 12.4946H10C10.4142 12.4946 10.75 12.8304 10.75 13.2446C10.75 13.6588 10.4142 13.9946 10 13.9946H4C3.58579 13.9946 3.25 13.6588 3.25 13.2446C3.25 12.8304 3.58579 12.4946 4 12.4946H4.94788L5.6345 10.5761Z" fill="#101010"/>
<path fill-rule="evenodd" clip-rule="evenodd" d="M9.29291 4.54314H9.25002V6.5C9.25002 7.74264 8.24266 8.75 7.00002 8.75C5.75738 8.75 4.75002 7.74264 4.75002 6.5V4.54314H4.70712C3.14805 4.54314 2.36724 2.65814 3.46969 1.5557L4.52539 0.5H1.45679C0.652229 0.5 0 1.15223 0 1.95679V9.54321C0 10.3478 0.65223 11 1.45679 11H12.5432C13.3478 11 14 10.3478 14 9.54321V1.95679C14 1.15223 13.3478 0.5 12.5432 0.5H9.47465L10.5303 1.5557C11.6328 2.65814 10.852 4.54314 9.29291 4.54314Z" fill="#FFE453"/>
<path d="M7.3535 0.14669L9.6464 2.43958C9.96138 2.75457 9.7383 3.29314 9.29284 3.29314H7.99995V6.5C7.99995 7.05228 7.55224 7.5 6.99995 7.5C6.44767 7.5 5.99995 7.05228 5.99995 6.5V3.29314H4.70706C4.26161 3.29314 4.03852 2.75457 4.3535 2.43958L6.6464 0.146691C6.84166 -0.0485711 7.15824 -0.0485716 7.3535 0.14669Z" fill="#101010"/>
</g>
<defs>
<clipPath id="clip0_1222_12588">
<rect width="14" height="14" fill="white"/>
</clipPath>
</defs>
</svg>
