<svg width="14" height="14" viewBox="0 0 14 14" fill="none" xmlns="http://www.w3.org/2000/svg">
<g clip-path="url(#clip0_1222_12576)">
<path d="M3.3826 0H10.6174C11.1621 0 11.6641 0.295338 11.9286 0.771536L14 4.5H0L2.07137 0.771536C2.33592 0.295338 2.83785 0 3.3826 0Z" fill="#101010"/>
<path fill-rule="evenodd" clip-rule="evenodd" d="M7.625 4.5V0H6.375V4.5H0V12.5C0 13.3284 0.671573 14 1.5 14H12.5C13.3284 14 14 13.3284 14 12.5V4.5H7.625Z" fill="#FFE453"/>
<path d="M6.64646 6.64657L4.35356 8.93946C4.03858 9.25444 4.26167 9.79302 4.70712 9.79302H6.00001V11.793C6.00001 12.3453 6.44773 12.793 7.00001 12.793C7.5523 12.793 8.00001 12.3453 8.00001 11.793V9.79302H9.2929C9.73836 9.79302 9.96144 9.25445 9.64646 8.93946L7.35356 6.64657C7.1583 6.45131 6.84172 6.45131 6.64646 6.64657Z" fill="#101010"/>
</g>
<defs>
<clipPath id="clip0_1222_12576">
<rect width="14" height="14" fill="white"/>
</clipPath>
</defs>
</svg>
