<svg width="14" height="14" viewBox="0 0 14 14" fill="none" xmlns="http://www.w3.org/2000/svg">
<g clip-path="url(#clip0_1222_12641)">
<path d="M6.99983 8.4895C5.51911 8.4895 4.07664 8.95972 2.88038 9.83236C1.68412 10.705 0.795877 11.935 0.343711 13.345C0.294939 13.4971 0.321758 13.6633 0.415884 13.7923C0.510009 13.9214 0.660113 13.9977 0.819828 13.9977H13.1798C13.3395 13.9977 13.4896 13.9214 13.5838 13.7923C13.6779 13.6633 13.7047 13.4971 13.6559 13.345C13.2038 11.935 12.3155 10.705 11.1193 9.83236C9.92302 8.95972 8.48055 8.4895 6.99983 8.4895Z" fill="#101010"/>
<path d="M7.00002 0.00231934C4.38771 0.00231934 2.27002 2.12001 2.27002 4.73232C2.27002 7.34463 4.38771 9.46232 7.00002 9.46232C9.61233 9.46232 11.73 7.34463 11.73 4.73232C11.73 2.12001 9.61233 0.00231934 7.00002 0.00231934Z" fill="#FFE453"/>
<path fill-rule="evenodd" clip-rule="evenodd" d="M2.49752 3.30491C3.11294 1.4069 4.89528 0.0335693 6.99969 0.0335693C9.3056 0.0335693 11.2253 1.68242 11.6461 3.86523C11.6742 4.01114 11.636 4.16201 11.5418 4.27691C11.4475 4.39182 11.3071 4.45886 11.1585 4.45985L11.1268 4.45996C9.93886 4.45996 8.8551 4.01181 8.03614 3.2764C7.21717 4.01183 6.13339 4.45999 4.94542 4.45999C4.1454 4.45999 3.3914 4.25653 2.73386 3.89815C2.52262 3.78301 2.42332 3.53376 2.49752 3.30491ZM5.335 5.59589C5.64272 5.4395 6.01895 5.56218 6.17534 5.8699C6.26637 6.049 6.55624 6.23311 7.00006 6.23311C7.44388 6.23311 7.73376 6.049 7.82478 5.8699C7.98117 5.56218 8.3574 5.4395 8.66512 5.59589C8.97284 5.75227 9.09552 6.12851 8.93913 6.43622C8.5524 7.19718 7.69926 7.48311 7.00006 7.48311C6.30086 7.48311 5.44772 7.19718 5.06099 6.43622C4.90461 6.1285 5.02728 5.75227 5.335 5.59589Z" fill="#101010"/>
</g>
<defs>
<clipPath id="clip0_1222_12641">
<rect width="14" height="14" fill="white"/>
</clipPath>
</defs>
</svg>
