<svg width="14" height="14" viewBox="0 0 14 14" fill="none" xmlns="http://www.w3.org/2000/svg">
<path d="M5 7.5C6.65685 7.5 8 6.15685 8 4.5C8 2.84315 6.65685 1.5 5 1.5C3.34315 1.5 2 2.84315 2 4.5C2 6.15685 3.34315 7.5 5 7.5Z" fill="#FFE453"/>
<path d="M0 13.5C0 10.7386 2.23858 8.5 5 8.5C7.76142 8.5 10 10.7386 10 13.5C10 13.7761 9.77614 14 9.5 14H0.5C0.223858 14 0 13.7761 0 13.5Z" fill="#FFE453"/>
<path fill-rule="evenodd" clip-rule="evenodd" d="M11.1775 14H13.5C13.7761 14 14 13.7761 14 13.5C14 10.7386 11.7614 8.49997 9 8.49997C8.91895 8.49997 8.83835 8.5019 8.75824 8.50571C10.2716 9.64634 11.25 11.4589 11.25 13.5C11.25 13.6737 11.2247 13.8416 11.1775 14ZM8.13225 7.37258C8.40695 7.45545 8.69827 7.5 9 7.5C10.6569 7.5 12 6.15685 12 4.5C12 2.84315 10.6569 1.5 9 1.5C8.69827 1.5 8.40695 1.54454 8.13225 1.62741C8.82634 2.38385 9.25 3.39245 9.25 4.5C9.25 5.60755 8.82634 6.61615 8.13225 7.37258Z" fill="#101010"/>
</svg>
