<svg width="14" height="14" viewBox="0 0 14 14" fill="none" xmlns="http://www.w3.org/2000/svg">
<g clip-path="url(#clip0_1222_12646)">
<path fill-rule="evenodd" clip-rule="evenodd" d="M7.00013 7.00001C7.82822 7.00001 8.49952 6.32871 8.49952 5.50062C8.49952 4.67252 7.82822 4.00122 7.00013 4.00122C6.17203 4.00122 5.50073 4.67252 5.50073 5.50062C5.50073 6.32871 6.17203 7.00001 7.00013 7.00001ZM4.4827 8.89244C5.01762 8.06943 5.94521 7.52515 6.99992 7.52515C8.05464 7.52515 8.98223 8.06943 9.51714 8.89244C9.70519 9.18177 9.46723 9.52512 9.12216 9.52512H4.87768C4.53261 9.52512 4.29465 9.18177 4.4827 8.89244Z" fill="#101010"/>
<path fill-rule="evenodd" clip-rule="evenodd" d="M5.57695 1.68908C7.23449 1.24494 8.91903 1.6074 10.2127 2.53751L9.60356 3.14663C9.28858 3.46161 9.51166 4.00018 9.95712 4.00018H12.2501C12.5262 4.00018 12.7501 3.77632 12.7501 3.50018V1.20729C12.7501 0.761838 12.2115 0.538754 11.8965 0.853737L11.2843 1.46596C9.61567 0.176234 7.38469 -0.348217 5.18873 0.240189C1.62992 1.19377 -0.549251 4.72464 0.120633 8.287C0.197182 8.69408 0.58924 8.96203 0.996319 8.88548C1.40339 8.80893 1.67134 8.41687 1.59479 8.00979C1.06874 5.21231 2.78152 2.43811 5.57695 1.68908ZM13.8798 5.71334C13.8032 5.30626 13.4112 5.03832 13.0041 5.11486C12.597 5.19141 12.3291 5.58347 12.4056 5.99055C12.9317 8.78804 11.2189 11.5623 8.42342 12.3113C6.76581 12.7555 5.08119 12.3929 3.78752 11.4627L4.39651 10.8538C4.71149 10.5388 4.48841 10.0002 4.04295 10.0002H1.75006C1.47392 10.0002 1.25006 10.2241 1.25006 10.5002V12.7931C1.25006 13.2385 1.78863 13.4616 2.10361 13.1466L2.71597 12.5343C4.38455 13.8241 6.61561 14.3486 8.81165 13.7602C12.3705 12.8066 14.5497 9.2757 13.8798 5.71334Z" fill="#FFE453"/>
</g>
<defs>
<clipPath id="clip0_1222_12646">
<rect width="14" height="14" fill="white"/>
</clipPath>
</defs>
</svg>
