<svg width="14" height="14" viewBox="0 0 14 14" fill="none" xmlns="http://www.w3.org/2000/svg">
<g clip-path="url(#clip0_1222_12618)">
<path fill-rule="evenodd" clip-rule="evenodd" d="M7 0C10.866 0 14 3.13401 14 7C14 10.866 10.866 14 7 14C3.13401 14 0 10.866 0 7C0 3.13401 3.13401 0 7 0Z" fill="#FFE453"/>
<path fill-rule="evenodd" clip-rule="evenodd" d="M8.75079 13.7793C8.19121 13.9234 7.60455 14 6.99999 14C4.48747 14 2.28412 12.6763 1.0493 10.6882C1.89139 9.51158 3.06635 8.6875 4.57086 8.6875C7.1576 8.6875 8.52066 10.8192 8.71603 13.159C8.73279 13.3596 8.74624 13.5706 8.75079 13.7793ZM13.0742 10.4815C12.3224 11.7904 11.1596 12.8332 9.76201 13.434C9.79115 13.3092 9.80138 13.1786 9.7903 13.0459C9.68293 11.76 9.25038 10.4515 8.40504 9.43816C8.35972 9.38383 8.31333 9.33051 8.26587 9.27823C8.78912 9.01347 9.368 8.875 9.95593 8.875C10.5981 8.875 11.2294 9.04019 11.7893 9.35469C12.0315 9.49072 12.2567 9.65271 12.4614 9.83712L13.0742 10.4815ZM6.9743 5.48816C6.9743 4.24818 5.9691 3.24298 4.72913 3.24298C3.48915 3.24298 2.48395 4.24818 2.48395 5.48816C2.48395 6.72814 3.48915 7.73334 4.72913 7.73334C5.9691 7.73334 6.9743 6.72814 6.9743 5.48816ZM9.93797 4.27985C10.9653 4.27985 11.798 5.11263 11.798 6.13992C11.798 7.16721 10.9653 7.99999 9.93797 7.99999C8.91069 7.99999 8.0779 7.16721 8.0779 6.13992C8.0779 5.11263 8.91069 4.27985 9.93797 4.27985Z" fill="#101010"/>
</g>
<defs>
<clipPath id="clip0_1222_12618">
<rect width="14" height="14" fill="white"/>
</clipPath>
</defs>
</svg>
