<svg width="14" height="14" viewBox="0 0 14 14" fill="none" xmlns="http://www.w3.org/2000/svg">
<g clip-path="url(#clip0_1222_12598)">
<path d="M5 6C6.65685 6 8 4.65685 8 3C8 1.34315 6.65685 0 5 0C3.34315 0 2 1.34315 2 3C2 4.65685 3.34315 6 5 6Z" fill="#FFE453"/>
<path d="M8.75 8.69272C7.83382 7.65469 6.49337 7 5 7C2.23858 7 0 9.23858 0 12C0 12.2761 0.223858 12.5 0.5 12.5H7.28095C6.66612 12.1588 6.25 11.503 6.25 10.75C6.25 9.64545 7.14543 8.75002 8.25 8.75002H8.75V8.69272Z" fill="#FFE453"/>
<path fill-rule="evenodd" clip-rule="evenodd" d="M10.75 7.5C11.1642 7.5 11.5 7.83579 11.5 8.25V10H13.25C13.6642 10 14 10.3358 14 10.75C14 11.1642 13.6642 11.5 13.25 11.5H11.5V13.25C11.5 13.6642 11.1642 14 10.75 14C10.3358 14 10 13.6642 10 13.25V11.5H8.25C7.83579 11.5 7.5 11.1642 7.5 10.75C7.5 10.3358 7.83579 10 8.25 10H10V8.25C10 7.83579 10.3358 7.5 10.75 7.5Z" fill="#101010"/>
</g>
<defs>
<clipPath id="clip0_1222_12598">
<rect width="14" height="14" fill="white"/>
</clipPath>
</defs>
</svg>
