<svg width="14" height="14" viewBox="0 0 14 14" fill="none" xmlns="http://www.w3.org/2000/svg">
<path d="M5 6C6.65685 6 8 4.65685 8 3C8 1.34315 6.65685 0 5 0C3.34315 0 2 1.34315 2 3C2 4.65685 3.34315 6 5 6Z" fill="#FFE453"/>
<path d="M13.25 10C13.6642 10 14 10.3358 14 10.75C14 11.1642 13.6642 11.5 13.25 11.5H8.25C7.83579 11.5 7.5 11.1642 7.5 10.75C7.5 10.3358 7.83579 10 8.25 10H13.25Z" fill="#101010"/>
<path fill-rule="evenodd" clip-rule="evenodd" d="M0 12C0 9.23858 2.23858 7 5 7C6.52067 7 7.88278 7.67885 8.79982 8.75003H8.25C7.14543 8.75003 6.25 9.64546 6.25 10.75C6.25 11.503 6.66612 12.1588 7.28094 12.5H0.5C0.223858 12.5 0 12.2761 0 12Z" fill="#FFE453"/>
</svg>
