<svg width="14" height="14" viewBox="0 0 14 14" fill="none" xmlns="http://www.w3.org/2000/svg">
<g clip-path="url(#clip0_1222_12609)">
<path d="M7 14C10.866 14 14 10.866 14 7C14 3.13401 10.866 0 7 0C3.13401 0 0 3.13401 0 7C0 10.866 3.13401 14 7 14Z" fill="#FFE453"/>
<path d="M7 7.5C8.38071 7.5 9.5 6.38071 9.5 5C9.5 3.61929 8.38071 2.5 7 2.5C5.61929 2.5 4.5 3.61929 4.5 5C4.5 6.38071 5.61929 7.5 7 7.5Z" fill="#101010"/>
<path d="M11.2429 10.5C10.2341 9.2785 8.70795 8.5 7.00001 8.5C5.29206 8.5 3.76595 9.2785 2.75716 10.5C3.76595 11.7215 5.29206 12.5 7.00001 12.5C8.70795 12.5 10.2341 11.7215 11.2429 10.5Z" fill="#101010"/>
</g>
<defs>
<clipPath id="clip0_1222_12609">
<rect width="14" height="14" fill="white"/>
</clipPath>
</defs>
</svg>
