<svg width="14" height="14" viewBox="0 0 14 14" fill="none" xmlns="http://www.w3.org/2000/svg">
<path d="M0 3C0 2.44772 0.447715 2 1 2H13C13.5523 2 14 2.44772 14 3V11C14 11.5523 13.5523 12 13 12H1C0.447716 12 0 11.5523 0 11V3Z" fill="#FFE453"/>
<path fill-rule="evenodd" clip-rule="evenodd" d="M4.49999 7C5.32842 7 5.99999 6.32843 5.99999 5.5C5.99999 4.67157 5.32842 4 4.49999 4C3.67157 4 2.99999 4.67157 2.99999 5.5C2.99999 6.32843 3.67157 7 4.49999 7ZM1.5467 9.3022C2.27811 8.50196 3.33045 8 4.50002 8C5.66959 8 6.72193 8.50196 7.45334 9.3022C7.71314 9.58645 7.48311 10 7.09803 10H1.90201C1.51693 10 1.2869 9.58645 1.5467 9.3022ZM8.87499 5.5C8.87499 5.15482 9.15481 4.875 9.49999 4.875H11.5C11.8452 4.875 12.125 5.15482 12.125 5.5C12.125 5.84518 11.8452 6.125 11.5 6.125H9.49999C9.15481 6.125 8.87499 5.84518 8.87499 5.5ZM9.49999 7.875C9.15481 7.875 8.87499 8.15482 8.87499 8.5C8.87499 8.84518 9.15481 9.125 9.49999 9.125H11.5C11.8452 9.125 12.125 8.84518 12.125 8.5C12.125 8.15482 11.8452 7.875 11.5 7.875H9.49999Z" fill="#101010"/>
</svg>
