<svg width="14" height="14" viewBox="0 0 14 14" fill="none" xmlns="http://www.w3.org/2000/svg">
<g clip-path="url(#clip0_1222_12650)">
<path d="M0 1.5C0 0.671573 0.671573 0 1.5 0H12.5C13.3284 0 14 0.671573 14 1.5V12.5C14 13.3284 13.3284 14 12.5 14H1.5C0.671573 14 0 13.3284 0 12.5V1.5Z" fill="#FFE453"/>
<path fill-rule="evenodd" clip-rule="evenodd" d="M3.875 11V5.88498C3.21716 5.63337 2.75 4.99618 2.75 4.24989C2.75 3.28339 3.5335 2.49989 4.5 2.49989C5.4665 2.49989 6.25 3.28339 6.25 4.24989C6.25 4.99619 5.78284 5.63338 5.125 5.88498V11C5.125 11.3452 4.84518 11.625 4.5 11.625C4.15482 11.625 3.875 11.3452 3.875 11ZM10.125 9.38501C10.7828 9.13341 11.25 8.49622 11.25 7.74992C11.25 7.00362 10.7828 6.36643 10.125 6.11482V3C10.125 2.65483 9.84517 2.375 9.5 2.375C9.15482 2.375 8.875 2.65483 8.875 3V6.11483C8.21716 6.36643 7.75 7.00362 7.75 7.74992C7.75 8.49621 8.21716 9.1334 8.875 9.38501V11C8.875 11.3452 9.15482 11.625 9.5 11.625C9.84517 11.625 10.125 11.3452 10.125 11V9.38501Z" fill="#101010"/>
</g>
<defs>
<clipPath id="clip0_1222_12650">
<rect width="14" height="14" fill="white"/>
</clipPath>
</defs>
</svg>
