<svg width="14" height="14" viewBox="0 0 14 14" fill="none" xmlns="http://www.w3.org/2000/svg">
<path d="M5 1C4.84262 1 4.69443 1.0741 4.6 1.2L3.25 3H1.5C1.10217 3 0.720644 3.15804 0.43934 3.43934C0.158035 3.72064 0 4.10218 0 4.5V11.5C0 11.8978 0.158035 12.2794 0.43934 12.5607C0.720644 12.842 1.10217 13 1.5 13H12.5C12.8978 13 13.2794 12.842 13.5607 12.5607C13.842 12.2794 14 11.8978 14 11.5V4.5C14 4.10217 13.842 3.72064 13.5607 3.43934C13.2794 3.15804 12.8978 3 12.5 3H10.75L9.4 1.2C9.30557 1.0741 9.15738 1 9 1H5Z" fill="#FFE453"/>
<path fill-rule="evenodd" clip-rule="evenodd" d="M10.1784 7.43641L10.2361 7.44443C10.4864 7.47925 10.6912 7.66147 10.7548 7.90611C10.8185 8.15076 10.7285 8.40965 10.5268 8.56208L9.68582 9.19773C9.41045 9.40587 9.0185 9.35136 8.81036 9.07599L8.17471 8.23499C8.02228 8.03332 8.00635 7.7597 8.13433 7.5417C8.26231 7.3237 8.50901 7.20427 8.75939 7.23909L8.91989 7.26141C8.83663 6.36584 8.13967 5.61771 7.2104 5.50438C6.87026 5.4629 6.54168 5.51114 6.24645 5.62991C5.92621 5.75874 5.56217 5.60357 5.43335 5.28334C5.30452 4.9631 5.45968 4.59906 5.77992 4.47023C6.26598 4.2747 6.80682 4.1959 7.36173 4.26358C8.98536 4.46158 10.1765 5.84151 10.1784 7.43641ZM4.25894 5.73082C4.53431 5.52269 4.92627 5.5772 5.1344 5.85256L5.77006 6.69357C5.92249 6.89523 5.93842 7.16886 5.81044 7.38686C5.68245 7.60485 5.43575 7.72429 5.18537 7.68947L5.0249 7.66715C5.10858 8.56229 5.80538 9.30991 6.7343 9.4232C7.07445 9.46468 7.40302 9.41644 7.69826 9.29767C8.01849 9.16884 8.38253 9.32401 8.51136 9.64424C8.64019 9.96448 8.48502 10.3285 8.16479 10.4573C7.67873 10.6529 7.13788 10.7317 6.58298 10.664C4.95967 10.466 3.7687 9.08663 3.76633 7.49214L3.70871 7.48412C3.45834 7.44931 3.25358 7.26709 3.18994 7.02245C3.12629 6.7778 3.21628 6.5189 3.41794 6.36648L4.25894 5.73082Z" fill="#101010"/>
</svg>
