<svg width="14" height="14" viewBox="0 0 14 14" fill="none" xmlns="http://www.w3.org/2000/svg">
<path d="M7 2C5.4556 2 4.0559 2.68177 2.9327 3.49099C1.80544 4.30314 0.913028 5.27496 0.37279 5.92789L0.36828 5.93342C0.127025 6.23362 0 6.61404 0 7.00006C0 7.38607 0.127025 7.7665 0.36828 8.0667L0.37279 8.07223C0.913028 8.72515 1.80544 9.69698 2.9327 10.5091C4.0559 11.3183 5.4556 12.0001 7 12.0001C8.54441 12.0001 9.9441 11.3183 11.0673 10.5091C12.1946 9.69698 13.087 8.72515 13.6272 8.07223L13.6317 8.0667C13.873 7.7665 14 7.38607 14 7.00006C14 6.61404 13.873 6.23362 13.6317 5.93342L13.6272 5.92789C13.087 5.27496 12.1946 4.30314 11.0673 3.49099C9.9441 2.68177 8.54441 2 7 2Z" fill="#FFE453"/>
<path d="M7 9.25C8.24264 9.25 9.25 8.24264 9.25 7C9.25 5.75736 8.24264 4.75 7 4.75C5.75736 4.75 4.75 5.75736 4.75 7C4.75 8.24264 5.75736 9.25 7 9.25Z" fill="#101010"/>
</svg>
