<svg width="14" height="14" viewBox="0 0 14 14" fill="none" xmlns="http://www.w3.org/2000/svg">
<g clip-path="url(#clip0_1222_12680)">
<path d="M10.5 0H3.5C1.567 0 0 1.567 0 3.5V10.5C0 12.433 1.567 14 3.5 14H10.5C12.433 14 14 12.433 14 10.5V3.5C14 1.567 12.433 0 10.5 0Z" fill="#FFE453"/>
<path fill-rule="evenodd" clip-rule="evenodd" d="M6.08486 3.89057C6.33311 3.9246 6.53705 4.10359 6.60298 4.34534L7.74241 8.52325L8.9805 6.6723C9.09651 6.49888 9.29138 6.39478 9.5 6.39478H14V7.64478H9.83387L8.0195 10.3573C7.88339 10.5608 7.64102 10.666 7.39941 10.6266C7.1578 10.5872 6.96143 10.4104 6.89702 10.1742L5.78333 6.0907L5.0365 7.3404C4.92368 7.52919 4.71993 7.64478 4.5 7.64478H2.72989e-05L0 6.39478H4.1454L5.4635 4.18917C5.59204 3.97408 5.83661 3.85655 6.08486 3.89057Z" fill="#101010"/>
</g>
<defs>
<clipPath id="clip0_1222_12680">
<rect width="14" height="14" fill="white"/>
</clipPath>
</defs>
</svg>
