<svg width="14" height="14" viewBox="0 0 14 14" fill="none" xmlns="http://www.w3.org/2000/svg">
<path fill-rule="evenodd" clip-rule="evenodd" d="M5.26715 4.79179L7.13137 10.9947C7.21974 11.2944 7.39952 11.5591 7.64566 11.7517C7.89329 11.9455 8.19557 12.0566 8.50976 12.0692C8.53422 12.0702 8.5587 12.0703 8.58317 12.0695C8.87759 12.0597 9.16263 11.9635 9.4027 11.7927C9.63926 11.6245 9.82185 11.3913 9.92845 11.1215L11.1723 8.08002H13C13.5523 8.08002 14 7.63231 14 7.08002C14 6.52774 13.5523 6.08002 13 6.08002H10.84L10.8335 6.08004C10.5337 6.08198 10.2413 6.17312 9.99348 6.34185C9.74678 6.50981 9.55541 6.7471 9.44351 7.0237L8.62663 9.02119L6.81978 3.00916C6.73624 2.71925 6.56606 2.46168 6.33192 2.2711C6.09919 2.08167 5.8145 1.96756 5.51568 1.94365C5.21916 1.91636 4.92111 1.97854 4.66007 2.12238C4.3945 2.26872 4.17991 2.49259 4.04494 2.76408L2.38697 6.08002H1C0.447715 6.08002 0 6.52774 0 7.08002C0 7.63231 0.447715 8.08002 1 8.08002H2.69L2.7015 8.07996C2.97104 8.07686 3.23491 8.00214 3.46605 7.86345C3.6972 7.72476 3.88731 7.5271 4.01688 7.29073C4.02294 7.27968 4.02879 7.26851 4.03443 7.25724L5.26715 4.79179Z" fill="#FFE453"/>
</svg>
