<svg width="14" height="14" viewBox="0 0 14 14" fill="none" xmlns="http://www.w3.org/2000/svg">
<g clip-path="url(#clip0_1222_12684)">
<path d="M2.09597 11.9608L2.54253 12.4689C2.839 12.8131 3.24188 13.0483 3.68726 13.1374L7.32717 13.8654C7.7625 13.9524 8.21453 13.8875 8.60778 13.6815C9.04981 13.4263 9.37236 13.0059 9.50446 12.5129L11.4656 5.19384C11.5971 4.70303 11.3094 4.19771 10.8203 4.06027C10.3226 3.92044 9.80665 4.21418 9.67286 4.71348L8.99092 7.25852C8.92706 7.49686 8.68208 7.63829 8.44375 7.57443C8.20541 7.51057 8.06397 7.26559 8.12783 7.02726L9.39978 2.28029C9.5275 1.80362 9.24463 1.31367 8.76796 1.18594C8.29129 1.05822 7.80133 1.3411 7.67361 1.81777L6.40166 6.56473C6.3378 6.80307 6.09283 6.94451 5.85449 6.88064C5.61616 6.81678 5.47472 6.57181 5.53858 6.33347L6.46363 2.88115C6.59135 2.40447 6.30847 1.9145 5.83179 1.78678C5.35511 1.65905 4.86514 1.94194 4.73741 2.41862L3.07401 8.62654L2.45382 7.21092C2.14186 6.49883 1.24176 6.27264 0.630224 6.75266C0.222506 7.0727 0.0690238 7.61994 0.250853 8.10533L1.02613 10.1749C1.27158 10.8301 1.63409 11.4352 2.09597 11.9608Z" fill="#FFE453"/>
<path fill-rule="evenodd" clip-rule="evenodd" d="M3.74098 0.0639174C4.1199 -0.103402 4.56271 0.0681313 4.73003 0.447047C4.89735 0.825963 4.72582 1.26877 4.3469 1.43609C3.99086 1.59331 3.67406 1.84996 3.44109 2.19928C3.21126 2.54389 2.74559 2.63693 2.40099 2.40711C2.05638 2.17728 1.96334 1.71161 2.19316 1.36701C2.58908 0.773371 3.1317 0.332961 3.74098 0.0639174ZM12.1558 1.82428C12.4902 1.57979 12.9594 1.65264 13.2039 1.987C13.5971 2.52464 13.8468 3.17736 13.8928 3.88942C13.9196 4.30277 13.6061 4.65953 13.1928 4.68626C12.7794 4.713 12.4227 4.39958 12.396 3.98623C12.3689 3.56722 12.2228 3.18656 11.9931 2.87238C11.7486 2.53802 11.8215 2.06877 12.1558 1.82428ZM3.07387 8.62646L3.05795 8.68588C3.40478 8.77881 4.21454 9.15981 4.6049 9.83592C4.77748 10.1349 5.15973 10.2373 5.45866 10.0647C5.75759 9.8921 5.86002 9.50985 5.68743 9.21092C5.06694 8.1362 3.898 7.61692 3.38165 7.47852L3.07387 8.62646Z" fill="#101010"/>
</g>
<defs>
<clipPath id="clip0_1222_12684">
<rect width="14" height="14" fill="white"/>
</clipPath>
</defs>
</svg>
