<svg width="14" height="14" viewBox="0 0 14 14" fill="none" xmlns="http://www.w3.org/2000/svg">
<g clip-path="url(#clip0_1222_12692)">
<path fill-rule="evenodd" clip-rule="evenodd" d="M11.6729 0.834102C11.4196 0.702356 11.1134 0.725919 10.8832 0.894881C10.6529 1.06384 10.5387 1.34888 10.5884 1.63009L10.7556 2.57571C10.3052 2.66909 9.8478 2.72732 9.38721 2.74947C8.63954 2.74532 8.07226 2.46175 7.34603 2.0841L7.30684 2.06372C6.60332 1.69768 5.74196 1.24951 4.59617 1.24951C4.58466 1.24951 4.57315 1.24978 4.56166 1.25031C3.12322 1.31656 1.71334 1.68338 0.416284 2.32786C0.0453375 2.51217 -0.105959 2.9623 0.078355 3.33324C0.262668 3.70419 0.712796 3.85549 1.08374 3.67117C2.1903 3.12135 3.39023 2.80836 4.61282 2.74956C5.36048 2.75371 5.92776 3.03728 6.654 3.41493L6.69319 3.43531C7.39671 3.80135 8.25807 4.24952 9.40386 4.24952C9.41537 4.24952 9.42687 4.24925 9.43837 4.24872C10.2475 4.21146 11.0475 4.07909 11.8235 3.85572C12.3801 3.6955 12.9243 3.48847 13.4506 3.23616C13.4951 3.21482 13.5395 3.19316 13.5837 3.17117C13.7643 3.08144 13.8929 2.92871 13.956 2.75279C13.962 2.73607 13.9674 2.7191 13.9722 2.70193C14.0206 2.52935 14.0077 2.33894 13.9217 2.16579C13.8467 2.01493 13.7278 1.9004 13.5881 1.83L11.6729 0.834102ZM4.56166 5.7508C4.57315 5.75027 4.58466 5.75 4.59617 5.75C5.74196 5.75 6.60332 6.19816 7.30684 6.5642L7.34603 6.58459C8.07226 6.96223 8.63954 7.24581 9.38721 7.24996C9.85798 7.22732 10.3254 7.16699 10.7854 7.06996L10.593 6.15427C10.5333 5.87054 10.6426 5.57786 10.8735 5.40259C11.1044 5.22731 11.4157 5.20083 11.6729 5.33459L13.5881 6.33048C13.7278 6.40088 13.8467 6.51541 13.9217 6.66627C14.0052 6.83436 14.0198 7.0187 13.9763 7.18721C13.9688 7.21616 13.9596 7.24465 13.9488 7.27251C13.8834 7.44031 13.7577 7.58522 13.5837 7.67166C13.4216 7.75222 13.2577 7.82844 13.0922 7.90028C12.6962 8.07218 12.291 8.21898 11.879 8.34008C11.0856 8.57322 10.2667 8.71106 9.43837 8.74921C9.42687 8.74974 9.41537 8.75 9.40386 8.75C8.25807 8.75 7.39671 8.30184 6.69319 7.9358L6.654 7.91542C5.92776 7.53777 5.36048 7.2542 4.61282 7.25005C3.39023 7.30884 2.1903 7.62184 1.08374 8.17166C0.712796 8.35598 0.262668 8.20468 0.078355 7.83373C-0.105959 7.46279 0.0453375 7.01266 0.416284 6.82835C1.71334 6.18387 3.12322 5.81705 4.56166 5.7508ZM4.56166 10.2513C4.57315 10.2508 4.58466 10.2505 4.59617 10.2505C5.74196 10.2505 6.60332 10.6987 7.30684 11.0647L7.34603 11.0851C8.07226 11.4627 8.63954 11.7463 9.38721 11.7504C9.85935 11.7277 10.3281 11.6671 10.7894 11.5696L10.5936 10.658C10.5326 10.3739 10.6412 10.0802 10.8722 9.90407C11.1032 9.72793 11.4152 9.70105 11.6729 9.83508L13.5882 10.831C13.7278 10.9014 13.8467 11.0159 13.9217 11.1668C14.0052 11.3348 14.0198 11.5192 13.9763 11.6877C13.9688 11.7167 13.9596 11.7451 13.9488 11.773C13.8834 11.9408 13.7577 12.0857 13.5837 12.1721C13.452 12.2376 13.3191 12.3002 13.1851 12.3599C12.7621 12.5484 12.3283 12.7082 11.8865 12.8383C11.0908 13.0728 10.2694 13.2114 9.43837 13.2497C9.42687 13.2502 9.41537 13.2505 9.40386 13.2505C8.25807 13.2505 7.39671 12.8023 6.69319 12.4363L6.654 12.4159C5.92776 12.0383 5.36048 11.7547 4.61282 11.7505C3.39023 11.8093 2.1903 12.1223 1.08374 12.6721C0.712796 12.8565 0.262668 12.7052 0.078355 12.3342C-0.105959 11.9633 0.0453375 11.5131 0.416284 11.3288C1.71334 10.6844 3.12322 10.3175 4.56166 10.2513Z" fill="#FFE453"/>
</g>
<defs>
<clipPath id="clip0_1222_12692">
<rect width="14" height="14" fill="white"/>
</clipPath>
</defs>
</svg>
