<svg width="14" height="14" viewBox="0 0 14 14" fill="none" xmlns="http://www.w3.org/2000/svg">
<g clip-path="url(#clip0_1222_12689)">
<path fill-rule="evenodd" clip-rule="evenodd" d="M6.75 0.75C6.75 0.335786 7.08579 0 7.5 0C8.16304 0 8.79893 0.263392 9.26777 0.732233C9.73661 1.20107 10 1.83696 10 2.5C10 3.16304 9.73661 3.79893 9.26777 4.26777C8.79893 4.73661 8.16304 5 7.5 5H0.75C0.335786 5 0 4.66421 0 4.25C0 3.83579 0.335786 3.5 0.75 3.5H7.5C7.76522 3.5 8.01957 3.39464 8.20711 3.20711C8.39464 3.01957 8.5 2.76522 8.5 2.5C8.5 2.23478 8.39464 1.98043 8.20711 1.79289C8.01957 1.60536 7.76522 1.5 7.5 1.5C7.08579 1.5 6.75 1.16421 6.75 0.75ZM2 7C2 6.58579 2.33579 6.25 2.75 6.25H11.5C12.163 6.25 12.7989 6.51339 13.2678 6.98223C13.7366 7.45107 14 8.08696 14 8.75C14 9.41304 13.7366 10.0489 13.2678 10.5178C12.7989 10.9866 12.163 11.25 11.5 11.25C11.0858 11.25 10.75 10.9142 10.75 10.5C10.75 10.0858 11.0858 9.75 11.5 9.75C11.7652 9.75 12.0196 9.64464 12.2071 9.45711C12.3946 9.26957 12.5 9.01522 12.5 8.75C12.5 8.48478 12.3946 8.23043 12.2071 8.04289C12.0196 7.85536 11.7652 7.75 11.5 7.75H2.75C2.33579 7.75 2 7.41421 2 7ZM1.75 9C1.33579 9 1 9.33579 1 9.75C1 10.1642 1.33579 10.5 1.75 10.5H7.25C7.51522 10.5 7.76957 10.6054 7.95711 10.7929C8.14464 10.9804 8.25 11.2348 8.25 11.5C8.25 11.7652 8.14464 12.0196 7.95711 12.2071C7.76957 12.3946 7.51522 12.5 7.25 12.5C6.83579 12.5 6.5 12.8358 6.5 13.25C6.5 13.6642 6.83579 14 7.25 14C7.91304 14 8.54893 13.7366 9.01777 13.2678C9.48661 12.7989 9.75 12.163 9.75 11.5C9.75 10.837 9.48661 10.2011 9.01777 9.73223C8.54893 9.26339 7.91304 9 7.25 9H1.75Z" fill="#FFE453"/>
</g>
<defs>
<clipPath id="clip0_1222_12689">
<rect width="14" height="14" fill="white"/>
</clipPath>
</defs>
</svg>
