<svg width="1200" height="800" viewBox="0 0 1200 800" fill="none" xmlns="http://www.w3.org/2000/svg">
<rect width="1200" height="800" rx="20" fill="white"/>
<path d="M30 74C30 68.4772 34.4772 64 40 64H121.573V144H40C34.4772 144 30 139.523 30 134V74Z" fill="#FFB534"/>
<rect x="121.573" y="64" width="91.573" height="80" fill="#FBF6EE"/>
<rect x="213.146" y="64" width="91.573" height="80" fill="#C1F2B0"/>
<path d="M304.719 64H386.292C391.815 64 396.292 68.4772 396.292 74V134C396.292 139.523 391.815 144 386.292 144H304.719V64Z" fill="#65B741"/>
<path d="M417.354 74C417.354 68.4772 421.831 64 427.354 64H508.927V144H427.354C421.831 144 417.354 139.523 417.354 134V74Z" fill="#EEF0E5"/>
<rect x="508.927" y="64" width="91.573" height="80" fill="#B6C4B6"/>
<rect x="600.5" y="64" width="91.573" height="80" fill="#304D30"/>
<path d="M692.073 64H773.646C779.169 64 783.646 68.4772 783.646 74V134C783.646 139.523 779.169 144 773.646 144H692.073V64Z" fill="#163020"/>
<path d="M804.708 74C804.708 68.4772 809.185 64 814.708 64H896.281V144H814.708C809.185 144 804.708 139.523 804.708 134V74Z" fill="#F2F1EB"/>
<rect x="896.281" y="64" width="91.573" height="80" fill="#EEE7DA"/>
<rect x="987.854" y="64" width="91.573" height="80" fill="#AFC8AD"/>
<path d="M1079.43 64H1161C1166.52 64 1171 68.4772 1171 74V134C1171 139.523 1166.52 144 1161 144H1079.43V64Z" fill="#88AB8E"/>
<path d="M30 177C30 171.477 34.4772 167 40 167H121.573V247H40C34.4772 247 30 242.523 30 237V177Z" fill="#F3F8FF"/>
<rect x="121.573" y="167" width="91.573" height="80" fill="#E26EE5"/>
<rect x="213.146" y="167" width="91.573" height="80" fill="#7E30E1"/>
<path d="M304.719 167H386.292C391.815 167 396.292 171.477 396.292 177V237C396.292 242.523 391.815 247 386.292 247H304.719V167Z" fill="#49108B"/>
<path d="M417.354 177C417.354 171.477 421.831 167 427.354 167H508.927V247H427.354C421.831 247 417.354 242.523 417.354 237V177Z" fill="#9BB8CD"/>
<rect x="508.927" y="167" width="91.573" height="80" fill="#FFF7D4"/>
<rect x="600.5" y="167" width="91.573" height="80" fill="#EEC759"/>
<path d="M692.073 167H773.646C779.169 167 783.646 171.477 783.646 177V237C783.646 242.523 779.169 247 773.646 247H692.073V167Z" fill="#B1C381"/>
<path d="M804.708 177C804.708 171.477 809.185 167 814.708 167H896.281V247H814.708C809.185 247 804.708 242.523 804.708 237V177Z" fill="#711DB0"/>
<rect x="896.281" y="167" width="91.573" height="80" fill="#C21292"/>
<rect x="987.854" y="167" width="91.573" height="80" fill="#EF4040"/>
<path d="M1079.43 167H1161C1166.52 167 1171 171.477 1171 177V237C1171 242.523 1166.52 247 1161 247H1079.43V167Z" fill="#FFA732"/>
<path d="M30 280C30 274.477 34.4772 270 40 270H121.573V350H40C34.4772 350 30 345.523 30 340V280Z" fill="#2B2D42"/>
<rect x="121.573" y="270" width="91.573" height="80" fill="#8D99AE"/>
<rect x="213.146" y="270" width="91.573" height="80" fill="#EDF2F4"/>
<path d="M304.719 270H386.292C391.815 270 396.292 274.477 396.292 280V340C396.292 345.523 391.815 350 386.292 350H304.719V270Z" fill="#EF233C"/>
<path d="M417.354 280C417.354 274.477 421.831 270 427.354 270H508.927V350H427.354C421.831 350 417.354 345.523 417.354 340V280Z" fill="black"/>
<rect x="508.927" y="270" width="91.573" height="80" fill="#14213D"/>
<rect x="600.5" y="270" width="91.573" height="80" fill="#FCA311"/>
<path d="M692.073 270H773.646C779.169 270 783.646 274.477 783.646 280V340C783.646 345.523 779.169 350 773.646 350H692.073V270Z" fill="#E5E5E5"/>
<path d="M804.708 280C804.708 274.477 809.185 270 814.708 270H896.281V350H814.708C809.185 350 804.708 345.523 804.708 340V280Z" fill="#003049"/>
<rect x="896.281" y="270" width="91.573" height="80" fill="#D62828"/>
<rect x="987.854" y="270" width="91.573" height="80" fill="#F77F00"/>
<path d="M1079.43 270H1161C1166.52 270 1171 274.477 1171 280V340C1171 345.523 1166.52 350 1161 350H1079.43V270Z" fill="#EAE2B7"/>
<path d="M30 383C30 377.477 34.4772 373 40 373H121.573V453H40C34.4772 453 30 448.523 30 443V383Z" fill="#EDEDE9"/>
<rect x="121.573" y="373" width="91.573" height="80" fill="#D6CCC2"/>
<rect x="213.146" y="373" width="91.573" height="80" fill="#F5EBE0"/>
<path d="M304.719 373H386.292C391.815 373 396.292 377.477 396.292 383V443C396.292 448.523 391.815 453 386.292 453H304.719V373Z" fill="#E3D5CA"/>
<path d="M417.354 383C417.354 377.477 421.831 373 427.354 373H508.927V453H427.354C421.831 453 417.354 448.523 417.354 443V383Z" fill="#D8E2DC"/>
<rect x="508.927" y="373" width="91.573" height="80" fill="#FFE5D9"/>
<rect x="600.5" y="373" width="91.573" height="80" fill="#FFCAD4"/>
<path d="M692.073 373H773.646C779.169 373 783.646 377.477 783.646 383V443C783.646 448.523 779.169 453 773.646 453H692.073V373Z" fill="#F4ACB7"/>
<path d="M804.708 383C804.708 377.477 809.185 373 814.708 373H896.281V453H814.708C809.185 453 804.708 448.523 804.708 443V383Z" fill="#FF90BC"/>
<rect x="896.281" y="373" width="91.573" height="80" fill="#FFC0D9"/>
<rect x="987.854" y="373" width="91.573" height="80" fill="#F9F9E0"/>
<path d="M1079.43 373H1161C1166.52 373 1171 377.477 1171 383V443C1171 448.523 1166.52 453 1161 453H1079.43V373Z" fill="#8ACDD7"/>
<path d="M30 486C30 480.477 34.4772 476 40 476H121.573V556H40C34.4772 556 30 551.523 30 546V486Z" fill="#386641"/>
<rect x="121.573" y="476" width="91.573" height="80" fill="#A7C957"/>
<rect x="213.146" y="476" width="91.573" height="80" fill="#F2E8CF"/>
<path d="M304.719 476H386.292C391.815 476 396.292 480.477 396.292 486V546C396.292 551.523 391.815 556 386.292 556H304.719V476Z" fill="#BC4749"/>
<path d="M417.354 486C417.354 480.477 421.831 476 427.354 476H490.626V556H427.354C421.831 556 417.354 551.523 417.354 546V486Z" fill="#F4F1DE"/>
<rect x="490.626" y="476" width="73.2726" height="80" fill="#E07A5F"/>
<rect x="563.899" y="476" width="73.2726" height="80" fill="#3D405B"/>
<rect x="637.172" y="476" width="73.2726" height="80" fill="#81B29A"/>
<path d="M709.727 476H772.727C778.25 476 782.727 480.477 782.727 486V546C782.727 551.523 778.25 556 772.727 556H709.727V476Z" fill="#F2CC8F"/>
<path d="M804.708 486C804.708 480.477 809.185 476 814.708 476H896.281V556H814.708C809.185 556 804.708 551.523 804.708 546V486Z" fill="#092635"/>
<rect x="896.281" y="476" width="91.573" height="80" fill="#1B4242"/>
<rect x="987.854" y="476" width="91.573" height="80" fill="#5C8374"/>
<path d="M1079.43 476H1161C1166.52 476 1171 480.477 1171 486V546C1171 551.523 1166.52 556 1161 556H1079.43V476Z" fill="#9EC8B9"/>
<path d="M30 589C30 583.477 34.4772 579 40 579H121.573V659H40C34.4772 659 30 654.523 30 649V589Z" fill="#186F65"/>
<rect x="121.573" y="579" width="91.573" height="80" fill="#B5CB99"/>
<rect x="213.146" y="579" width="91.573" height="80" fill="#FCE09B"/>
<path d="M304.719 579H386.292C391.815 579 396.292 583.477 396.292 589V649C396.292 654.523 391.815 659 386.292 659H304.719V579Z" fill="#B2533E"/>
<path d="M417.354 589C417.354 583.477 421.831 579 427.354 579H508.927V659H427.354C421.831 659 417.354 654.523 417.354 649V589Z" fill="#FFE4D6"/>
<rect x="508.927" y="579" width="91.573" height="80" fill="#FACBEA"/>
<rect x="600.5" y="579" width="91.573" height="80" fill="#D988B9"/>
<path d="M692.073 579H773.646C779.169 579 783.646 583.477 783.646 589V649C783.646 654.523 779.169 659 773.646 659H692.073V579Z" fill="#B0578D"/>
<path d="M804.708 589C804.708 583.477 809.185 579 814.708 579H896.281V659H814.708C809.185 659 804.708 654.523 804.708 649V589Z" fill="#7ED7C1"/>
<rect x="896.281" y="579" width="91.573" height="80" fill="#F0DBAF"/>
<rect x="987.854" y="579" width="91.573" height="80" fill="#DC8686"/>
<path d="M1079.43 579H1161C1166.52 579 1171 583.477 1171 589V649C1171 654.523 1166.52 659 1161 659H1079.43V579Z" fill="#B06161"/>
<path d="M30 692C30 686.477 34.4772 682 40 682H121.573V762H40C34.4772 762 30 757.523 30 752V692Z" fill="#7ED7C1"/>
<rect x="121.573" y="682" width="91.573" height="80" fill="#F0DBAF"/>
<rect x="213.146" y="682" width="91.573" height="80" fill="#DC8686"/>
<path d="M304.719 682H386.292C391.815 682 396.292 686.477 396.292 692V752C396.292 757.523 391.815 762 386.292 762H304.719V682Z" fill="#B06161"/>
<path d="M417.354 692C417.354 686.477 421.831 682 427.354 682H508.927V762H427.354C421.831 762 417.354 757.523 417.354 752V692Z" fill="#FFF78A"/>
<rect x="508.927" y="682" width="91.573" height="80" fill="#FFE382"/>
<rect x="600.5" y="682" width="91.573" height="80" fill="#FFC47E"/>
<path d="M692.073 682H773.646C779.169 682 783.646 686.477 783.646 692V752C783.646 757.523 779.169 762 773.646 762H692.073V682Z" fill="#FFAD84"/>
<path d="M804.708 692C804.708 686.477 809.185 682 814.708 682H896.281V762H814.708C809.185 762 804.708 757.523 804.708 752V692Z" fill="#FF8F8F"/>
<rect x="896.281" y="682" width="91.573" height="80" fill="#EEF296"/>
<rect x="987.854" y="682" width="91.573" height="80" fill="#9ADE7B"/>
<path d="M1079.43 682H1161C1166.52 682 1171 686.477 1171 692V752C1171 757.523 1166.52 762 1161 762H1079.43V682Z" fill="#508D69"/>
<circle cx="41" cy="21" r="10" fill="#7E30E1"/>
<circle cx="71" cy="21" r="10" fill="#7743DB"/>
<circle cx="101" cy="21" r="10" fill="#FFB534"/>
</svg>
