<svg width="1200" height="733" viewBox="0 0 1200 733" fill="none" xmlns="http://www.w3.org/2000/svg">
<rect width="1200" height="733" rx="20" fill="white"/>
<circle cx="42" cy="30" r="10" fill="#7E30E1"/>
<circle cx="72" cy="30" r="10" fill="#7743DB"/>
<circle cx="102" cy="30" r="10" fill="#FFB534"/>
<rect x="36" y="71" width="126" height="112" rx="15" fill="#EDEDED"/>
<rect x="181" y="71" width="126" height="112" rx="15" fill="#EDEDED"/>
<rect x="326" y="71" width="126" height="112" rx="15" fill="#EDEDED"/>
<rect x="471" y="71" width="126" height="112" rx="15" fill="#EDEDED"/>
<rect x="615" y="71" width="126" height="112" rx="15" fill="#EDEDED"/>
<rect x="760" y="71" width="126" height="112" rx="15" fill="#EDEDED"/>
<rect x="905" y="71" width="126" height="112" rx="15" fill="#EDEDED"/>
<rect x="1050" y="71" width="126" height="112" rx="15" fill="#EDEDED"/>
<rect x="36" y="203" width="126" height="113" rx="15" fill="#EDEDED"/>
<rect x="181" y="203" width="126" height="113" rx="15" fill="#EDEDED"/>
<rect x="326" y="203" width="126" height="113" rx="15" fill="#EDEDED"/>
<rect x="471" y="203" width="126" height="113" rx="15" fill="#EDEDED"/>
<rect x="615" y="203" width="126" height="113" rx="15" fill="#EDEDED"/>
<rect x="760" y="203" width="126" height="113" rx="15" fill="#EDEDED"/>
<rect x="905" y="203" width="126" height="113" rx="15" fill="#EDEDED"/>
<rect x="1050" y="203" width="126" height="113" rx="15" fill="#EDEDED"/>
<rect x="36" y="336" width="126" height="112" rx="15" fill="#EDEDED"/>
<rect x="181" y="336" width="126" height="112" rx="15" fill="#EDEDED"/>
<rect x="326" y="336" width="126" height="112" rx="15" fill="#EDEDED"/>
<rect x="471" y="336" width="126" height="112" rx="15" fill="#EDEDED"/>
<rect x="615" y="336" width="126" height="112" rx="15" fill="#EDEDED"/>
<rect x="760" y="336" width="126" height="112" rx="15" fill="#EDEDED"/>
<rect x="905" y="336" width="126" height="112" rx="15" fill="#EDEDED"/>
<rect x="1050" y="336" width="126" height="112" rx="15" fill="#EDEDED"/>
<rect x="36" y="468" width="126" height="112" rx="15" fill="#EDEDED"/>
<rect x="181" y="468" width="126" height="112" rx="15" fill="#EDEDED"/>
<rect x="326" y="468" width="126" height="112" rx="15" fill="#EDEDED"/>
<rect x="471" y="468" width="126" height="112" rx="15" fill="#EDEDED"/>
<rect x="615" y="468" width="126" height="112" rx="15" fill="#EDEDED"/>
<rect x="760" y="468" width="126" height="112" rx="15" fill="#EDEDED"/>
<rect x="905" y="468" width="126" height="112" rx="15" fill="#EDEDED"/>
<rect x="1050" y="468" width="126" height="112" rx="15" fill="#EDEDED"/>
<rect x="36" y="600" width="126" height="113" rx="15" fill="#EDEDED"/>
<rect x="181" y="600" width="126" height="113" rx="15" fill="#EDEDED"/>
<rect x="326" y="600" width="126" height="113" rx="15" fill="#EDEDED"/>
<rect x="471" y="600" width="126" height="113" rx="15" fill="#EDEDED"/>
<rect x="615" y="600" width="126" height="113" rx="15" fill="#EDEDED"/>
<rect x="760" y="600" width="126" height="113" rx="15" fill="#EDEDED"/>
<rect x="905" y="600" width="126" height="113" rx="15" fill="#EDEDED"/>
<rect x="1050" y="600" width="126" height="113" rx="15" fill="#EDEDED"/>
<path d="M82.6402 260.603C83.2279 269.011 90.3623 275.852 98.9008 276.227C104.925 276.488 110.313 273.68 113.545 269.256C114.884 267.444 114.166 266.236 111.929 266.644C110.835 266.84 109.709 266.921 108.533 266.872C100.55 266.546 94.0194 259.868 93.9867 251.983C93.9704 249.861 94.4112 247.852 95.2112 246.024C96.0928 244 95.0316 243.036 92.9908 243.902C86.5257 246.628 82.1014 253.142 82.6402 260.603Z" stroke="#171717" stroke-width="2.44889" stroke-linecap="round" stroke-linejoin="round"/>
<path d="M243.917 268.529C249.778 268.529 254.529 263.778 254.529 257.918C254.529 252.057 249.778 247.306 243.917 247.306C238.056 247.306 233.305 252.057 233.305 257.918C233.305 263.778 238.056 268.529 243.917 268.529Z" stroke="#171717" stroke-width="2.44889" stroke-linecap="round" stroke-linejoin="round"/>
<path d="M255.574 269.574L255.362 269.362M255.362 246.473L255.574 246.261L255.362 246.473ZM232.26 269.574L232.473 269.362L232.26 269.574ZM243.917 241.722V241.591V241.722ZM243.917 274.243V274.113V274.243ZM227.722 257.917H227.591H227.722ZM260.243 257.917H260.113H260.243ZM232.473 246.473L232.26 246.261L232.473 246.473Z" stroke="#171717" stroke-width="2.44889" stroke-linecap="round" stroke-linejoin="round"/>
<path d="M1105.2 395.566C1104.33 395.126 1103.37 394.897 1102.39 394.897C1094.75 395.436 1094.75 406.554 1102.39 407.093H1120.49C1122.7 407.109 1124.82 406.293 1126.44 404.807C1131.81 400.121 1128.93 390.701 1121.86 389.803C1119.32 374.506 1097.23 380.318 1102.47 394.897" stroke="#171717" stroke-width="2.44889" stroke-miterlimit="10" stroke-linecap="round" stroke-linejoin="round"/>
<path d="M1119.2 390.521C1120.05 390.097 1120.98 389.868 1121.93 389.852" stroke="#171717" stroke-width="2.44889" stroke-miterlimit="10" stroke-linecap="round" stroke-linejoin="round"/>
<path d="M541.444 272.978C543.631 272.994 545.737 272.178 547.354 270.709C552.692 266.04 549.835 256.668 542.799 255.787C540.284 240.538 518.293 246.318 523.501 260.832" stroke="#171717" stroke-width="2.44889" stroke-miterlimit="10" stroke-linecap="round" stroke-linejoin="round"/>
<path d="M526.211 261.501C525.346 261.06 524.383 260.832 523.42 260.848C515.812 261.387 515.828 272.456 523.42 272.995" stroke="#171717" stroke-width="2.44889" stroke-miterlimit="10" stroke-linecap="round" stroke-linejoin="round"/>
<path d="M540.154 256.473C541.003 256.048 541.917 255.82 542.864 255.803" stroke="#171717" stroke-width="2.44889" stroke-miterlimit="10" stroke-linecap="round" stroke-linejoin="round"/>
<path d="M529.395 271.607H531.028V275.411C531.028 275.966 531.73 276.243 532.089 275.819L536.089 271.264C536.578 270.709 536.366 270.252 535.631 270.252H533.999V266.448C533.999 265.893 533.297 265.615 532.938 266.04L528.938 270.595C528.448 271.15 528.66 271.607 529.395 271.607Z" stroke="#171717" stroke-width="2.44889" stroke-miterlimit="10" stroke-linecap="round" stroke-linejoin="round"/>
<path d="M372.591 263.815H399.529C402.68 263.815 405.243 266.378 405.243 269.529C405.243 272.68 402.68 275.243 399.529 275.243C396.378 275.243 393.815 272.68 393.815 269.529V268.713" stroke="#171717" stroke-width="2.44889" stroke-miterlimit="10" stroke-linecap="round" stroke-linejoin="round"/>
<path d="M372.591 258.917H399.529C402.664 258.917 405.243 256.354 405.243 253.203C405.243 250.069 402.664 247.489 399.529 247.489C396.395 247.489 393.815 250.052 393.815 253.203V254.02" stroke="#171717" stroke-width="2.44889" stroke-miterlimit="10" stroke-linecap="round" stroke-linejoin="round"/>
<path d="M372.591 254.02H384.526C386.958 254.02 388.917 252.044 388.917 249.628C388.917 247.195 386.942 245.236 384.526 245.236C382.093 245.236 380.134 247.212 380.134 249.628V250.248" stroke="#171717" stroke-width="2.44889" stroke-miterlimit="10" stroke-linecap="round" stroke-linejoin="round"/>
<rect x="939.979" y="373.142" width="53.8757" height="37.5497" rx="5.71409" fill="white"/>
<rect x="939.979" y="373.142" width="53.8757" height="37.5497" rx="5.71409" stroke="#F9F7F6" stroke-width="1.6326"/>
<path fill-rule="evenodd" clip-rule="evenodd" d="M956.714 398.216H953.351L950.83 388.313C950.71 387.858 950.456 387.455 950.082 387.265C949.149 386.788 948.121 386.408 947 386.217V385.836H952.417C953.164 385.836 953.725 386.408 953.818 387.074L955.127 394.217L958.488 385.836H961.757L956.714 398.216ZM963.626 398.216H960.45L963.066 385.836H966.241L963.626 398.216ZM970.35 389.266C970.443 388.599 971.004 388.218 971.658 388.218C972.686 388.122 973.806 388.313 974.741 388.789L975.301 386.123C974.367 385.742 973.339 385.55 972.406 385.55C969.324 385.55 967.081 387.265 967.081 389.645C967.081 391.456 968.669 392.407 969.791 392.979C971.004 393.55 971.471 393.932 971.378 394.503C971.378 395.359 970.443 395.741 969.511 395.741C968.389 395.741 967.268 395.455 966.241 394.978L965.681 397.645C966.802 398.121 968.015 398.312 969.137 398.312C972.593 398.406 974.741 396.693 974.741 394.121C974.741 390.883 970.35 390.693 970.35 389.266V389.266ZM985.855 398.216L983.334 385.836H980.625C980.064 385.836 979.504 386.217 979.317 386.788L974.647 398.216H977.917L978.569 396.407H982.586L982.96 398.216H985.855ZM981.092 389.17L982.025 393.836H979.41L981.092 389.17Z" fill="#172B85"/>
<rect x="801.979" y="373.142" width="53.8757" height="37.5497" rx="5.71409" fill="white"/>
<rect x="801.979" y="373.142" width="53.8757" height="37.5497" rx="5.71409" stroke="#F9F7F6" stroke-width="1.6326"/>
<path fill-rule="evenodd" clip-rule="evenodd" d="M825.022 402.445L825.383 400.079L824.58 400.06H820.747L823.411 382.602C823.419 382.549 823.446 382.5 823.485 382.465C823.524 382.43 823.574 382.411 823.627 382.411H830.09C832.236 382.411 833.717 382.872 834.49 383.783C834.853 384.21 835.083 384.657 835.195 385.148C835.312 385.664 835.314 386.28 835.2 387.032L835.192 387.086V387.568L835.554 387.78C835.859 387.947 836.102 388.139 836.288 388.358C836.598 388.724 836.798 389.188 836.883 389.738C836.971 390.305 836.942 390.979 836.798 391.741C836.633 392.619 836.366 393.383 836.005 394.008C835.673 394.584 835.25 395.062 834.747 395.433C834.268 395.785 833.698 396.052 833.053 396.223C832.429 396.391 831.717 396.475 830.936 396.475H830.434C830.074 396.475 829.725 396.609 829.45 396.849C829.175 397.094 828.993 397.429 828.938 397.795L828.9 398.008L828.263 402.178L828.234 402.331C828.226 402.38 828.213 402.404 828.194 402.42C828.177 402.435 828.152 402.445 828.128 402.445H825.022" fill="#28356A"/>
<path fill-rule="evenodd" clip-rule="evenodd" d="M835.898 387.142C835.878 387.269 835.856 387.399 835.832 387.533C834.979 392.057 832.063 393.619 828.339 393.619H826.442C825.987 393.619 825.603 393.961 825.532 394.425L824.286 402.594C824.24 402.899 824.467 403.173 824.765 403.173H828.128C828.527 403.173 828.865 402.874 828.928 402.468L828.961 402.292L829.594 398.138L829.635 397.91C829.697 397.503 830.036 397.204 830.434 397.204H830.937C834.196 397.204 836.747 395.836 837.492 391.879C837.804 390.226 837.642 388.846 836.818 387.875C836.569 387.582 836.259 387.34 835.898 387.142" fill="#298FC2"/>
<path fill-rule="evenodd" clip-rule="evenodd" d="M835.006 386.774C834.875 386.735 834.741 386.699 834.603 386.667C834.465 386.636 834.323 386.608 834.177 386.584C833.665 386.499 833.105 386.458 832.505 386.458H827.439C827.314 386.458 827.195 386.487 827.089 386.54C826.856 386.656 826.682 386.885 826.64 387.164L825.562 394.22L825.531 394.425C825.602 393.961 825.986 393.619 826.442 393.619H828.338C832.062 393.619 834.979 392.056 835.831 387.533C835.857 387.399 835.878 387.269 835.897 387.142C835.681 387.023 835.448 386.922 835.196 386.836C835.134 386.815 835.07 386.794 835.006 386.774" fill="#22284F"/>
<path fill-rule="evenodd" clip-rule="evenodd" d="M826.64 387.164C826.683 386.885 826.856 386.656 827.09 386.541C827.197 386.488 827.314 386.459 827.439 386.459H832.505C833.105 386.459 833.666 386.499 834.177 386.585C834.323 386.609 834.465 386.637 834.603 386.668C834.741 386.7 834.876 386.736 835.006 386.775C835.07 386.795 835.135 386.816 835.197 386.836C835.449 386.922 835.683 387.024 835.898 387.142C836.152 385.47 835.896 384.332 835.022 383.301C834.058 382.167 832.318 381.681 830.091 381.681H823.628C823.173 381.681 822.785 382.023 822.715 382.488L820.023 400.126C819.97 400.475 820.23 400.79 820.57 400.79H824.561L826.64 387.164" fill="#28356A"/>
<rect x="650.979" y="373.142" width="53.8757" height="37.5497" rx="5.71409" fill="#5A31F4"/>
<rect x="650.979" y="373.142" width="53.8757" height="37.5497" rx="5.71409" stroke="#F9F7F6" stroke-width="1.6326"/>
<path d="M681.623 390.242C681.623 392.684 679.911 394.428 677.518 394.428H675.263C675.238 394.428 675.214 394.433 675.191 394.442C675.168 394.452 675.147 394.466 675.129 394.483C675.112 394.501 675.098 394.522 675.088 394.545C675.079 394.568 675.074 394.593 675.074 394.618V397.828C675.074 397.878 675.054 397.926 675.019 397.962C674.984 397.997 674.936 398.018 674.885 398.018H673.308C673.27 398.018 673.234 398.006 673.202 397.985C673.171 397.965 673.147 397.935 673.133 397.9C673.123 397.878 673.118 397.853 673.118 397.829V386.245C673.118 386.22 673.123 386.195 673.132 386.172C673.141 386.149 673.155 386.128 673.173 386.11C673.19 386.093 673.211 386.079 673.234 386.069C673.257 386.06 673.282 386.055 673.307 386.055H677.528C679.911 386.052 681.623 387.796 681.623 390.242V390.242ZM679.656 390.242C679.656 388.837 678.698 387.811 677.399 387.811H675.263C675.238 387.811 675.214 387.816 675.191 387.826C675.168 387.835 675.147 387.849 675.129 387.867C675.112 387.884 675.098 387.905 675.088 387.928C675.079 387.951 675.074 387.976 675.074 388.001V392.471C675.074 392.522 675.094 392.57 675.13 392.605C675.165 392.64 675.213 392.66 675.263 392.66H677.399C678.698 392.67 679.656 391.642 679.656 390.242ZM682.091 395.795C682.075 395.421 682.152 395.048 682.316 394.711C682.481 394.374 682.727 394.083 683.032 393.866C683.647 393.402 684.61 393.163 686.022 393.113L687.526 393.06V392.616C687.526 391.727 686.93 391.351 685.973 391.351C685.015 391.351 684.408 391.69 684.268 392.245C684.257 392.284 684.233 392.318 684.2 392.342C684.167 392.366 684.127 392.378 684.087 392.377H682.601C682.574 392.378 682.546 392.372 682.521 392.361C682.496 392.35 682.474 392.334 682.456 392.314C682.438 392.293 682.424 392.269 682.417 392.242C682.409 392.216 682.408 392.188 682.412 392.161C682.632 390.846 683.726 389.846 686.04 389.846C688.502 389.846 689.391 390.993 689.391 393.181V397.828C689.39 397.879 689.37 397.927 689.334 397.963C689.298 397.998 689.249 398.018 689.198 398.018H687.701C687.65 398.018 687.602 397.998 687.567 397.963C687.549 397.945 687.535 397.924 687.526 397.901C687.516 397.878 687.512 397.854 687.512 397.829V397.481C687.512 397.452 687.504 397.424 687.488 397.4C687.472 397.376 687.45 397.358 687.423 397.347C687.396 397.336 687.367 397.333 687.339 397.34C687.311 397.346 687.285 397.36 687.266 397.381C686.816 397.87 686.091 398.223 684.929 398.223C683.219 398.223 682.091 397.334 682.091 395.795V395.795ZM687.526 394.788V394.428L685.578 394.531C684.552 394.583 683.955 395.009 683.955 395.728C683.955 396.377 684.502 396.736 685.459 396.736C686.759 396.736 687.526 396.035 687.526 394.788V394.788ZM690.895 401.529V400.182C690.895 400.154 690.902 400.126 690.914 400.101C690.926 400.075 690.944 400.053 690.966 400.035C690.988 400.017 691.013 400.004 691.041 399.998C691.068 399.991 691.097 399.99 691.124 399.995C691.354 400.038 691.588 400.06 691.822 400.061C692.224 400.081 692.621 399.965 692.949 399.732C693.278 399.499 693.518 399.163 693.633 398.777L693.73 398.467C693.744 398.426 693.744 398.38 693.73 398.339L690.609 390.322C690.598 390.293 690.594 390.262 690.597 390.231C690.601 390.2 690.612 390.17 690.629 390.145C690.647 390.119 690.67 390.098 690.698 390.083C690.725 390.068 690.756 390.06 690.787 390.06H692.3C692.339 390.06 692.377 390.073 692.408 390.095C692.44 390.117 692.464 390.148 692.478 390.184L694.598 395.838C694.611 395.875 694.636 395.908 694.668 395.931C694.701 395.954 694.74 395.966 694.78 395.966C694.819 395.966 694.858 395.954 694.891 395.931C694.923 395.908 694.948 395.875 694.961 395.838L696.802 390.2C696.815 390.161 696.839 390.127 696.872 390.104C696.905 390.08 696.945 390.067 696.985 390.067H698.551C698.582 390.068 698.613 390.075 698.641 390.09C698.669 390.105 698.692 390.126 698.71 390.152C698.728 390.178 698.739 390.207 698.743 390.239C698.747 390.27 698.743 390.301 698.732 390.331L695.393 399.233C694.625 401.302 693.307 401.832 691.855 401.832C691.58 401.839 691.305 401.806 691.039 401.733C690.995 401.722 690.956 401.695 690.93 401.657C690.904 401.62 690.891 401.574 690.895 401.529V401.529ZM662.98 385.387C660.992 385.373 659.073 386.121 657.62 387.478C657.558 387.535 657.519 387.613 657.511 387.697C657.503 387.781 657.527 387.865 657.578 387.932L658.477 389.161C658.507 389.202 658.544 389.236 658.588 389.261C658.632 389.286 658.68 389.301 658.731 389.304C658.781 389.308 658.831 389.301 658.878 389.284C658.925 389.266 658.968 389.238 659.003 389.202C659.526 388.68 660.147 388.267 660.831 387.987C661.515 387.708 662.248 387.567 662.987 387.574C666.073 387.574 667.684 389.897 667.684 392.19C667.684 394.683 665.991 396.437 663.558 396.471C661.678 396.471 660.26 395.225 660.26 393.578C660.262 393.163 660.357 392.752 660.536 392.377C660.716 392.002 660.977 391.671 661.3 391.409C661.368 391.352 661.411 391.271 661.42 391.182C661.429 391.094 661.402 391.005 661.346 390.936L660.401 389.742C660.372 389.706 660.337 389.676 660.296 389.654C660.256 389.631 660.211 389.618 660.166 389.613C660.12 389.608 660.073 389.613 660.029 389.626C659.985 389.64 659.944 389.662 659.909 389.691C659.328 390.159 658.86 390.751 658.538 391.424C658.215 392.096 658.048 392.833 658.047 393.578C658.047 396.413 660.456 398.636 663.541 398.654H663.583C667.246 398.607 669.895 395.894 669.895 392.185C669.895 388.892 667.47 385.387 662.981 385.387H662.98Z" fill="white"/>
<rect x="506.979" y="373.142" width="53.8757" height="37.5497" rx="5.71409" fill="white"/>
<rect x="506.979" y="373.142" width="53.8757" height="37.5497" rx="5.71409" stroke="#F9F7F6" stroke-width="1.6326"/>
<path d="M542.05 391.843C542.918 391.862 543.79 391.805 544.654 391.872C545.529 392.036 545.74 393.36 544.962 393.794C544.432 394.08 543.802 393.9 543.227 393.951H542.05V391.843V391.843ZM545.155 389.457C545.348 390.137 544.692 390.748 544.037 390.654H542.05C542.064 390.013 542.023 389.317 542.07 388.709C542.866 388.731 543.67 388.663 544.461 388.744C544.801 388.83 545.086 389.109 545.155 389.457V389.457ZM549.937 379.37C549.974 380.669 549.942 382.037 549.953 383.362C549.951 388.75 549.958 394.138 549.949 399.527C549.914 401.546 548.124 403.301 546.119 403.341C544.112 403.349 542.104 403.342 540.096 403.345V395.199C542.284 395.188 544.472 395.222 546.659 395.182C547.673 395.118 548.784 394.449 548.831 393.333C548.951 392.212 547.894 391.436 546.89 391.314C546.504 391.304 546.516 391.201 546.89 391.157C547.847 390.95 548.599 389.959 548.317 388.967C548.077 387.924 546.924 387.52 545.965 387.522C544.009 387.509 542.053 387.52 540.097 387.516C540.109 385.995 540.07 384.473 540.118 382.953C540.273 380.97 542.107 379.335 544.085 379.371C546.036 379.37 547.986 379.37 549.937 379.37V379.37Z" fill="url(#paint0_linear_60_322)"/>
<path d="M517.994 383.158C518.044 381.142 519.841 379.402 521.844 379.372C523.844 379.366 525.844 379.371 527.844 379.37C527.838 386.115 527.854 392.862 527.835 399.607C527.758 401.599 525.981 403.306 524 403.341C521.996 403.348 519.992 403.342 517.988 403.344V394.924C519.935 395.383 521.976 395.579 523.961 395.274C525.148 395.083 526.447 394.5 526.849 393.269C527.144 392.216 526.978 391.107 527.022 390.026V387.515H523.586C523.57 389.176 523.617 390.839 523.561 392.498C523.468 393.517 522.459 394.165 521.497 394.13C520.305 394.143 517.942 393.266 517.942 393.266C517.936 390.155 517.977 386.259 517.994 383.158V383.158Z" fill="url(#paint1_linear_60_322)"/>
<path d="M529.125 388.529C528.944 388.567 529.089 387.912 529.042 387.664C529.055 386.094 529.017 384.523 529.063 382.954C529.218 380.963 531.067 379.323 533.052 379.37H538.898C538.893 386.116 538.909 392.862 538.89 399.607C538.813 401.599 537.035 403.306 535.054 403.342C533.05 403.349 531.046 403.343 529.042 403.345V394.119C530.411 395.242 532.271 395.417 533.976 395.42C535.261 395.419 536.539 395.221 537.788 394.925V393.234C536.381 393.935 534.727 394.381 533.168 393.978C532.08 393.707 531.29 392.656 531.308 391.533C531.182 390.366 531.866 389.133 533.013 388.786C534.438 388.34 535.99 388.681 537.325 389.261C537.612 389.411 537.902 389.597 537.787 389.119V387.79C535.554 387.259 533.178 387.063 530.935 387.641C530.285 387.824 529.653 388.102 529.125 388.529V388.529Z" fill="url(#paint2_linear_60_322)"/>
<rect x="361.979" y="373.142" width="53.8757" height="37.5497" rx="5.71409" fill="white"/>
<rect x="361.979" y="373.142" width="53.8757" height="37.5497" rx="5.71409" stroke="#F9F7F6" stroke-width="1.6326"/>
<path fill-rule="evenodd" clip-rule="evenodd" d="M405.722 395.098H407.091H407.092C407.235 395.101 407.354 394.982 407.36 394.832V390.843C407.36 390.342 407.385 389.889 407.577 389.437C407.709 389.092 408.02 388.861 408.372 388.844C409.248 388.844 409.24 389.852 409.233 390.645C409.233 390.712 409.232 390.777 409.232 390.84V394.865C409.249 394.994 409.351 395.092 409.475 395.098H410.857C410.988 395.101 411.1 395.001 411.12 394.865V390.201C411.12 389.484 411.12 388.486 410.762 387.893C410.374 387.253 409.773 387.02 409.158 387.02C408.21 387.02 407.671 387.503 407.287 388.516H407.26V387.383C407.232 387.264 407.133 387.179 407.017 387.175H405.743C405.608 387.172 405.493 387.278 405.479 387.418V394.832C405.48 394.974 405.587 395.09 405.722 395.098ZM404.433 391.21C404.433 388.871 403.33 387.03 401.291 387.03C399.305 387.03 398.202 388.84 398.202 391.132C398.202 393.423 399.291 395.264 401.291 395.264C403.217 395.264 404.433 393.471 404.433 391.21ZM400.227 390.898C400.227 389.993 400.292 388.543 401.305 388.543C401.74 388.543 402.048 388.749 402.202 389.261C402.382 389.852 402.407 390.601 402.407 391.225C402.407 392.176 402.367 393.735 401.291 393.735C400.227 393.735 400.227 391.845 400.227 390.928V390.898ZM374.536 395.113H375.908H375.91C375.979 395.115 376.045 395.087 376.095 395.037C376.145 394.987 376.173 394.918 376.175 394.846V390.918L376.175 390.856C376.174 390.002 376.173 388.873 377.123 388.873C378.001 388.873 377.988 389.865 377.977 390.667L377.977 390.667C377.975 390.753 377.974 390.837 377.974 390.918V394.847C377.977 394.989 378.083 395.105 378.217 395.113H379.594C379.662 395.114 379.729 395.087 379.778 395.037C379.828 394.987 379.856 394.918 379.858 394.846V390.918L379.858 390.824C379.857 390.408 379.856 389.847 379.987 389.498C380.12 389.141 380.443 388.902 380.807 388.891C381.205 388.891 381.512 389.031 381.615 389.53C381.667 389.77 381.66 390.326 381.656 390.695C381.654 390.782 381.654 390.858 381.654 390.918V394.847C381.655 394.989 381.762 395.106 381.897 395.113H383.269C383.338 395.115 383.405 395.087 383.455 395.037C383.505 394.987 383.533 394.918 383.534 394.846V390.169C383.534 390.055 383.536 389.938 383.538 389.82C383.55 389.122 383.561 388.379 383.188 387.845C382.735 387.24 382.007 386.938 381.283 387.056C380.559 387.174 379.952 387.693 379.695 388.414C379.309 387.477 378.758 387.041 377.912 387.041C377.066 387.041 376.437 387.477 376.104 388.414H376.079V387.446C376.071 387.308 375.967 387.198 375.835 387.191H374.555C374.414 387.189 374.297 387.307 374.293 387.455V394.869C374.305 395.002 374.408 395.106 374.536 395.113ZM372.146 395.169C372.056 395.252 371.926 395.266 371.822 395.204C371.433 394.864 371.315 394.68 371.135 394.397L371.135 394.397L371.135 394.397L371.135 394.397L371.135 394.397L371.135 394.397C371.104 394.348 371.071 394.297 371.035 394.241C370.28 395.049 369.746 395.291 368.77 395.291C367.614 395.291 366.714 394.54 366.714 393.04C366.714 391.868 367.322 391.071 368.173 390.68C368.801 390.39 369.64 390.3 370.365 390.223L370.365 390.223C370.5 390.208 370.631 390.194 370.755 390.179V389.993C370.755 389.957 370.756 389.921 370.756 389.884L370.756 389.884C370.758 389.566 370.761 389.211 370.589 388.944C370.421 388.679 370.103 388.57 369.818 388.57C369.294 388.57 368.827 388.852 368.713 389.437C368.698 389.573 368.599 389.682 368.47 389.702L367.149 389.55C367.083 389.54 367.024 389.503 366.986 389.446C366.947 389.389 366.932 389.317 366.945 389.249C367.25 387.551 368.709 387.039 370.016 387.039C370.685 387.039 371.558 387.225 372.083 387.757C372.7 388.364 372.696 389.158 372.692 390.027V390.027C372.692 390.098 372.691 390.17 372.691 390.243V392.491C372.691 393.097 372.905 393.398 373.13 393.715L373.13 393.716L373.13 393.716L373.13 393.716L373.13 393.716C373.157 393.753 373.184 393.791 373.21 393.83C373.298 393.958 373.317 394.117 373.21 394.213C372.929 394.46 372.431 394.915 372.157 395.172L372.146 395.169ZM370.762 391.649L370.762 391.719C370.762 392.251 370.763 392.702 370.505 393.183C370.286 393.59 369.94 393.84 369.553 393.84C369.027 393.84 368.719 393.418 368.719 392.792C368.719 391.562 369.768 391.339 370.762 391.339V391.649ZM391.132 393.71C391.159 393.748 391.186 393.786 391.213 393.825C391.305 393.958 391.325 394.113 391.207 394.202C390.926 394.448 390.427 394.905 390.154 395.16C390.063 395.242 389.933 395.255 389.829 395.194C389.438 394.852 389.323 394.671 389.14 394.384L389.14 394.384C389.109 394.337 389.077 394.286 389.041 394.231C388.287 395.039 387.75 395.28 386.777 395.28C385.621 395.28 384.721 394.53 384.721 393.031C384.721 391.857 385.326 391.061 386.186 390.67C386.816 390.379 387.66 390.289 388.387 390.212L388.387 390.212L388.387 390.212C388.519 390.198 388.647 390.185 388.769 390.17V389.987C388.769 389.952 388.769 389.916 388.769 389.879C388.772 389.561 388.775 389.207 388.601 388.941C388.438 388.675 388.114 388.565 387.83 388.565C387.306 388.565 386.842 388.847 386.726 389.431C386.711 389.567 386.612 389.676 386.483 389.697L385.152 389.546C385.085 389.537 385.026 389.499 384.987 389.442C384.948 389.384 384.933 389.313 384.946 389.243C385.253 387.545 386.712 387.033 388.019 387.033C388.686 387.033 389.559 387.22 390.086 387.752C390.704 388.356 390.699 389.144 390.695 390.008V390.008V390.008V390.009V390.009C390.694 390.085 390.694 390.161 390.694 390.238V392.488C390.694 393.092 390.907 393.393 391.132 393.71ZM387.563 393.832C387.948 393.832 388.296 393.582 388.514 393.177C388.772 392.693 388.772 392.24 388.771 391.701V391.701L388.771 391.644V391.332C387.778 391.332 386.729 391.555 386.729 392.786C386.729 393.411 387.036 393.832 387.563 393.832ZM392.375 387.43V388.486C392.374 388.558 392.402 388.628 392.451 388.678C392.501 388.729 392.568 388.756 392.637 388.753H395L392.29 392.843C392.166 393.062 392.108 393.316 392.122 393.57V394.65C392.122 394.806 392.286 394.984 392.443 394.896C393.938 394.081 395.716 394.078 397.213 394.887C397.385 394.98 397.546 394.8 397.546 394.644V393.509C397.542 393.335 397.449 393.178 397.303 393.096C396.514 392.63 395.596 392.493 394.728 392.514L397.067 389.005C397.285 388.69 397.407 388.491 397.407 388.339V387.43C397.407 387.358 397.38 387.288 397.331 387.238C397.282 387.187 397.215 387.16 397.146 387.163H392.632C392.563 387.159 392.496 387.185 392.447 387.236C392.398 387.287 392.372 387.357 392.375 387.43Z" fill="black"/>
<path fill-rule="evenodd" clip-rule="evenodd" d="M394.633 399.827C394.946 399.01 395.641 397.18 395.31 396.736H395.313C394.983 396.292 393.135 396.525 392.304 396.63L392.302 396.63C392.049 396.662 392.01 396.431 392.238 396.263C393.714 395.173 396.132 395.485 396.413 395.853C396.694 396.221 396.337 398.77 394.954 399.987C394.741 400.173 394.538 400.074 394.633 399.827ZM384.7 401.087C387.915 401.087 391.659 400.02 394.238 398.02V398.024C394.665 397.686 394.299 397.19 393.863 397.385C391.048 398.633 388.027 399.284 384.972 399.302C380.733 399.302 376.633 398.08 373.316 396.051C373.025 395.874 372.809 396.187 373.052 396.416C376.245 399.444 380.4 401.111 384.7 401.087Z" fill="#FF9900"/>
<rect x="71.9793" y="373.142" width="53.8757" height="37.5497" rx="5.71409" fill="white"/>
<rect x="71.9793" y="373.142" width="53.8757" height="37.5497" rx="5.71409" stroke="#F9F7F6" stroke-width="1.6326"/>
<path fill-rule="evenodd" clip-rule="evenodd" d="M77.7729 395.403L77.7729 395.403C77.8121 395.18 77.8501 394.964 77.8938 394.748C78.0788 393.771 78.2651 392.795 78.4513 391.82C78.6376 390.845 78.8239 389.869 79.0089 388.892C79.0346 388.769 79.0706 388.686 79.1939 388.665C80.1549 388.521 81.121 388.418 82.082 388.66C82.9197 388.866 83.5055 389.459 83.6031 390.155C83.8035 391.542 82.9967 392.65 81.7994 393.047C81.1673 393.253 80.5249 393.304 79.8723 393.243C79.7181 393.227 79.6718 393.268 79.6462 393.418C79.5074 394.176 79.3635 394.928 79.2145 395.681C79.2042 395.743 79.1477 395.841 79.1117 395.841C78.7625 395.848 78.419 395.847 78.062 395.846H78.062H78.062H78.062H78.0619H78.0619H78.0618H78.0617H78.0616H78.0615H78.0613C77.9405 395.846 77.8181 395.846 77.6934 395.846C77.7216 395.694 77.7475 395.547 77.7729 395.403ZM79.9031 392.016C80.0036 392.016 80.1009 392.018 80.1957 392.021C80.3967 392.026 80.5865 392.032 80.7716 392.011C81.306 391.954 81.7326 391.712 81.9741 391.201C82.2464 390.624 82.0512 390.011 81.5373 389.83C81.1724 389.701 80.7973 389.727 80.4221 389.779C80.3759 389.784 80.3142 389.856 80.3039 389.902C80.232 390.28 80.1602 390.66 80.0856 391.053L79.9031 392.016ZM86.5728 395.109L86.5728 395.109C86.412 395.29 86.2593 395.461 86.0802 395.598C85.5406 396.016 84.9239 396.108 84.3021 395.82C83.6854 395.536 83.4336 394.985 83.4079 394.335C83.3514 392.969 83.8293 391.841 84.9753 391.057C85.6947 390.562 86.5221 390.413 87.3803 390.459C87.6642 390.476 87.9459 390.525 88.2283 390.575C88.3804 390.601 88.5327 390.628 88.6856 390.65C88.8603 390.676 88.886 390.774 88.8552 390.923C88.8139 391.139 88.7722 391.354 88.7305 391.569L88.7305 391.569L88.7305 391.569L88.7305 391.569L88.7305 391.569L88.7305 391.569C88.5749 392.373 88.4196 393.175 88.2899 393.98C88.2155 394.44 88.1858 394.912 88.1565 395.38L88.1565 395.38V395.38L88.1565 395.38L88.1565 395.38L88.1565 395.38C88.1513 395.461 88.1462 395.543 88.1409 395.624C88.1306 395.789 88.0895 395.856 87.9199 395.851C87.6013 395.84 87.2827 395.84 86.9641 395.851C86.7996 395.856 86.7431 395.794 86.7585 395.634C86.7732 395.458 86.7826 395.276 86.7924 395.087V395.087L86.7924 395.087L86.7924 395.086L86.7924 395.086C86.7964 395.011 86.8003 394.934 86.8047 394.856C86.7235 394.941 86.6474 395.026 86.573 395.109L86.5729 395.109L86.5729 395.109L86.5729 395.109L86.5728 395.109ZM87.1645 391.67C86.666 391.531 86.2497 391.629 85.9003 391.923C85.2425 392.48 84.9444 393.201 85.001 394.062C85.0164 394.325 85.1192 394.578 85.3967 394.691C85.6742 394.804 85.926 394.722 86.1418 394.536C86.2703 394.423 86.3936 394.294 86.4861 394.15C86.8486 393.595 86.9476 392.969 87.0482 392.333C87.0831 392.113 87.1181 391.891 87.1645 391.67ZM94.4464 394.557C94.729 395.464 95.505 395.969 96.8668 395.969C97.8021 395.944 98.7322 395.413 99.3129 394.32C99.6213 393.732 99.7343 393.103 99.6932 392.444C99.6572 391.81 99.4054 391.274 98.8915 390.892C98.3519 390.49 97.7353 390.408 97.0775 390.48C94.878 390.727 93.9787 393.062 94.4464 394.557ZM95.9097 393.8V393.8V393.8V393.8C95.9103 393.774 95.9109 393.748 95.9109 393.722C95.9263 393.129 96.0702 392.578 96.4248 392.088C96.5841 391.872 96.7845 391.707 97.0517 391.645C97.5964 391.521 98.0435 391.836 98.0949 392.428C98.1566 393.155 97.9818 393.825 97.5245 394.408C97.3498 394.624 97.1288 394.774 96.8461 394.799C96.3374 394.846 95.952 394.5 95.9109 393.959C95.9074 393.907 95.9086 393.853 95.9097 393.8ZM100.916 390.588H102.222C102.201 390.867 102.18 391.135 102.155 391.408C102.202 391.363 102.248 391.32 102.293 391.277L102.293 391.276L102.294 391.276C102.39 391.185 102.482 391.097 102.576 391.016C103.085 390.573 103.666 390.377 104.339 390.485C104.894 390.578 105.279 390.985 105.341 391.557C105.408 392.153 105.297 392.73 105.185 393.306L105.161 393.433C105.116 393.668 105.071 393.902 105.027 394.136L105.027 394.137L105.027 394.137L105.027 394.137C104.929 394.649 104.832 395.161 104.729 395.671C104.714 395.738 104.637 395.835 104.585 395.841C104.144 395.851 103.702 395.846 103.26 395.841C103.245 395.841 103.23 395.833 103.207 395.82L103.207 395.82L103.207 395.82L103.207 395.82C103.199 395.816 103.189 395.81 103.177 395.805C103.26 395.377 103.342 394.944 103.419 394.511C103.537 393.846 103.65 393.186 103.753 392.521C103.774 392.408 103.763 392.289 103.748 392.176C103.707 391.779 103.414 391.598 103.034 391.717C102.664 391.836 102.443 392.124 102.263 392.444C101.995 392.913 101.903 393.433 101.81 393.954C101.787 394.083 101.764 394.212 101.741 394.341C101.663 394.782 101.585 395.222 101.497 395.665C101.482 395.732 101.404 395.835 101.353 395.841C100.993 395.853 100.629 395.852 100.241 395.851H100.241H100.241C100.142 395.851 100.042 395.851 99.9399 395.851C100.279 394.078 100.598 392.341 100.916 390.588ZM108.327 394.769C107.782 394.702 107.417 394.32 107.453 393.784C107.567 393.784 107.68 393.786 107.792 393.788C108.015 393.791 108.236 393.794 108.455 393.784C108.984 393.753 109.503 393.665 109.986 393.423C110.603 393.114 110.891 392.604 110.845 391.939C110.798 391.263 110.434 390.774 109.781 390.578C108.805 390.284 107.905 390.49 107.139 391.145C106.209 391.939 105.86 392.99 105.994 394.191C106.086 395.042 106.549 395.65 107.391 395.866C108.296 396.098 109.185 395.975 110.043 395.624C110.105 395.598 110.177 395.5 110.171 395.439C110.159 395.187 110.134 394.936 110.108 394.684C110.102 394.621 110.095 394.558 110.089 394.495C110.072 394.495 110.06 394.494 110.05 394.494C110.036 394.493 110.028 394.492 110.022 394.495C109.966 394.516 109.909 394.537 109.858 394.557C109.365 394.748 108.856 394.83 108.327 394.769ZM109.123 392.485C108.81 392.65 107.998 392.748 107.602 392.666C107.684 391.98 108.409 391.444 109.02 391.594C109.226 391.645 109.375 391.753 109.411 391.975C109.447 392.192 109.339 392.372 109.123 392.485ZM112.587 393.804C112.54 394.31 112.9 394.696 113.45 394.768C113.964 394.83 114.457 394.753 114.94 394.578C114.985 394.561 115.028 394.544 115.075 394.526C115.115 394.51 115.158 394.493 115.207 394.475C115.218 394.584 115.229 394.691 115.24 394.796C115.262 395.015 115.284 395.227 115.295 395.438C115.3 395.5 115.228 395.598 115.171 395.624C114.298 395.985 113.399 396.109 112.479 395.856C111.651 395.629 111.22 395.026 111.117 394.201C110.988 393.145 111.261 392.191 111.996 391.408C112.787 390.567 113.758 390.268 114.879 390.578C115.562 390.768 115.927 391.263 115.968 391.959C116.009 392.64 115.701 393.15 115.058 393.449C114.411 393.748 113.722 393.794 113.023 393.81C112.885 393.804 112.741 393.804 112.587 393.804ZM113.011 392.691L113.011 392.691C113.239 392.68 113.459 392.669 113.676 392.639C113.882 392.614 114.087 392.552 114.272 392.464C114.472 392.377 114.57 392.191 114.539 391.964C114.508 391.748 114.365 391.645 114.164 391.593C113.558 391.428 112.802 391.985 112.736 392.706C112.829 392.701 112.921 392.696 113.011 392.691ZM116.251 394.768C116.184 395.119 116.122 395.464 116.055 395.846C116.158 395.846 116.26 395.846 116.36 395.846C116.755 395.847 117.133 395.848 117.51 395.835C117.546 395.835 117.602 395.738 117.612 395.676C117.665 395.418 117.713 395.16 117.762 394.901C117.852 394.424 117.941 393.948 118.054 393.48C118.306 392.439 118.733 392.078 119.745 391.944C119.786 391.939 119.853 391.892 119.863 391.856C119.928 391.56 119.986 391.261 120.046 390.952C120.076 390.793 120.108 390.631 120.141 390.464C119.164 390.361 118.62 390.928 118.147 391.624L118.154 391.525C118.178 391.217 118.201 390.903 118.229 390.573C118.122 390.573 118.017 390.572 117.914 390.572C117.61 390.571 117.318 390.57 117.027 390.578C116.986 390.583 116.908 390.676 116.903 390.732C116.794 392.057 116.534 393.353 116.275 394.648L116.251 394.768Z" fill="black"/>
<path fill-rule="evenodd" clip-rule="evenodd" d="M102.645 384.37C102.593 384.356 102.541 384.342 102.489 384.331C102.329 384.331 102.17 384.331 102.001 384.336C101.943 384.347 101.885 384.36 101.826 384.373C101.755 384.388 101.683 384.404 101.61 384.418C100.824 384.568 100.084 384.841 99.3694 385.202C97.8226 385.985 96.4351 387.001 95.1914 388.202C94.3641 388.995 93.5624 389.825 92.7864 390.676C91.4246 392.171 90.2581 393.815 89.3279 395.619C88.85 396.552 88.4183 397.505 88.2231 398.542C88.1871 398.732 88.2488 398.954 88.3104 399.145C88.3361 399.222 88.48 399.279 88.5776 399.31C88.6033 399.32 88.6804 399.191 88.7164 399.119C88.7292 399.091 88.7422 399.062 88.7556 399.033C88.9788 398.544 89.2806 397.883 89.5424 397.445C90.0974 396.517 90.5356 395.799 91.1574 394.918C92.1543 393.5 93.3192 392.11 94.5423 390.883C95.6985 389.723 96.8565 388.686 98.3108 387.903C98.9788 387.547 99.6623 387.196 100.361 386.908C101.569 386.408 102.828 386.068 104.123 385.877C104.262 385.856 104.447 385.748 104.493 385.635C104.534 385.532 104.436 385.336 104.339 385.238C103.943 384.831 103.481 384.521 102.905 384.429C102.818 384.416 102.732 384.393 102.645 384.37ZM90.8798 391.402C91.1264 390.732 91.2498 390.036 91.2652 389.315C91.2583 389.237 91.2526 389.16 91.2469 389.083C91.2355 388.928 91.2241 388.774 91.2035 388.619C91.0648 387.423 90.5509 386.408 89.7338 385.537C89.6361 385.439 89.5025 385.361 89.3689 385.315C89.2353 385.263 89.1479 385.341 89.1582 385.495C89.1585 385.499 89.1587 385.502 89.159 385.505C89.169 385.636 89.1794 385.772 89.2045 385.903C89.2406 386.109 89.2764 386.315 89.3123 386.521C89.4399 387.255 89.5677 387.99 89.7081 388.722C89.8468 389.459 90.001 390.191 90.1654 390.918C90.222 391.15 90.3145 391.382 90.4275 391.598C90.5149 391.763 90.6382 391.748 90.7513 391.598C90.8027 391.536 90.8541 391.475 90.8798 391.402Z" fill="#FC461E"/>
<rect x="216.979" y="370.142" width="53.8757" height="37.5497" rx="5.71409" fill="white"/>
<rect x="216.979" y="370.142" width="53.8757" height="37.5497" rx="5.71409" stroke="#F9F7F6" stroke-width="1.6326"/>
<path d="M247.603 388.437C247.603 394.483 242.758 399.385 236.781 399.385C230.804 399.385 225.958 394.483 225.958 388.437C225.958 382.391 230.804 377.489 236.781 377.489C242.758 377.489 247.603 382.391 247.603 388.437Z" fill="#ED0006"/>
<path d="M261.642 388.437C261.642 394.483 256.797 399.385 250.82 399.385C244.843 399.385 239.998 394.483 239.998 388.437C239.998 382.391 244.843 377.489 250.82 377.489C256.797 377.489 261.642 382.391 261.642 388.437Z" fill="#0099DF"/>
<path fill-rule="evenodd" clip-rule="evenodd" d="M243.8 396.769C246.127 394.761 247.603 391.773 247.603 388.437C247.603 385.1 246.127 382.113 243.8 380.104C241.474 382.113 239.998 385.1 239.998 388.437C239.998 391.773 241.474 394.761 243.8 396.769Z" fill="#6C6BBD"/>
<rect x="1085.98" y="505.142" width="53.8757" height="37.5497" rx="5.71409" fill="white"/>
<rect x="1085.98" y="505.142" width="53.8757" height="37.5497" rx="5.71409" stroke="#F9F7F6" stroke-width="1.6326"/>
<path fill-rule="evenodd" clip-rule="evenodd" d="M1111.02 535.835H1115.26C1121.88 535.835 1127.15 530.586 1127.35 524.103V524C1127.25 517.413 1121.88 512.061 1115.26 512.164H1110.5C1104.2 512.37 1099.24 517.722 1099.44 524.103C1099.44 530.484 1104.61 535.732 1111.02 535.835ZM1101.51 524C1101.51 518.648 1105.96 514.223 1111.33 514.223C1116.71 514.223 1121.15 518.648 1121.15 524C1121.15 529.352 1116.71 533.777 1111.33 533.777C1105.96 533.777 1101.51 529.352 1101.51 524ZM1112.88 530.587V517.516C1116.5 518.442 1118.77 522.044 1117.84 525.647C1117.22 528.117 1115.36 529.969 1112.88 530.587ZM1104.92 522.353C1103.99 525.955 1106.16 529.66 1109.78 530.587V517.516C1107.4 518.134 1105.54 519.986 1104.92 522.353Z" fill="#0079BE"/>
<rect x="940.979" y="505.142" width="53.8757" height="37.5497" rx="5.71409" fill="white"/>
<rect x="940.979" y="505.142" width="53.8757" height="37.5497" rx="5.71409" stroke="#F9F7F6" stroke-width="1.6326"/>
<path fill-rule="evenodd" clip-rule="evenodd" d="M966.379 529.677V524.886H968.852C969.865 524.886 970.72 524.546 971.418 523.876L971.585 523.707C972.858 522.32 972.775 520.16 971.418 518.878C970.739 518.199 969.809 517.831 968.852 517.85H964.882V529.677H966.379ZM966.379 523.433V519.302H968.89C969.429 519.302 969.94 519.509 970.321 519.887C971.13 520.679 971.149 521.999 970.368 522.82C969.987 523.225 969.447 523.452 968.89 523.433H966.379ZM978.566 522.216C977.925 521.622 977.051 521.32 975.945 521.32C974.523 521.32 973.453 521.848 972.747 522.895L974.067 523.735C974.55 523.018 975.21 522.66 976.047 522.66C976.577 522.66 977.088 522.858 977.488 523.216C977.878 523.556 978.102 524.046 978.102 524.565V524.914C977.525 524.593 976.8 524.423 975.908 524.423C974.866 524.423 974.03 524.668 973.407 525.168C972.784 525.668 972.468 526.328 972.468 527.168C972.449 527.932 972.775 528.658 973.351 529.148C973.937 529.676 974.681 529.941 975.554 529.941C976.586 529.941 977.404 529.478 978.027 528.554H978.092V529.676H979.524V524.687C979.524 523.64 979.208 522.81 978.566 522.216ZM974.504 528.186C974.197 527.96 974.011 527.592 974.011 527.196C974.011 526.753 974.216 526.385 974.616 526.093C975.025 525.8 975.536 525.649 976.141 525.649C976.977 525.64 977.628 525.828 978.093 526.206C978.093 526.847 977.842 527.403 977.349 527.875C976.903 528.328 976.299 528.582 975.666 528.582C975.248 528.592 974.839 528.45 974.504 528.186ZM982.74 533.232L987.742 521.585H986.115L983.8 527.394H983.772L981.402 521.585H979.775L983.056 529.158L981.197 533.232H982.74Z" fill="#3C4043"/>
<path d="M961.212 523.849C961.212 523.387 961.175 522.924 961.1 522.472H954.788V525.084H958.405C958.256 525.924 957.772 526.678 957.066 527.15V528.847H959.223C960.487 527.668 961.212 525.924 961.212 523.849Z" fill="#4285F4"/>
<path d="M954.789 530.488C956.592 530.488 958.117 529.884 959.223 528.847L957.066 527.149C956.462 527.564 955.69 527.8 954.789 527.8C953.041 527.8 951.563 526.602 951.033 524.999H948.811V526.753C949.945 529.045 952.26 530.488 954.789 530.488Z" fill="#34A853"/>
<path d="M951.033 524.999C950.754 524.16 950.754 523.245 951.033 522.396V520.651H948.811C947.853 522.566 947.853 524.829 948.811 526.744L951.033 524.999Z" fill="#FBBC04"/>
<path d="M954.789 519.595C955.746 519.576 956.667 519.944 957.354 520.614L959.269 518.671C958.052 517.52 956.453 516.888 954.789 516.907C952.26 516.907 949.945 518.36 948.811 520.651L951.033 522.406C951.563 520.793 953.041 519.595 954.789 519.595Z" fill="#EA4335"/>
<rect x="651.979" y="505.142" width="53.8757" height="37.5497" rx="5.71409" fill="white"/>
<rect x="651.979" y="505.142" width="53.8757" height="37.5497" rx="5.71409" stroke="#F9F7F6" stroke-width="1.6326"/>
<ellipse cx="678.811" cy="523.811" rx="12.9547" ry="12.9546" fill="#6481E7"/>
<path fill-rule="evenodd" clip-rule="evenodd" d="M673.151 524.338L678.962 527.774V514.696L673.151 524.338Z" fill="white"/>
<path fill-rule="evenodd" clip-rule="evenodd" d="M678.963 514.696V527.774L684.774 524.338L678.963 514.696Z" fill="#C1CCF5"/>
<path fill-rule="evenodd" clip-rule="evenodd" d="M678.963 521.697L673.152 524.338L678.963 527.773L684.774 524.339L678.963 521.697Z" fill="#8299EC"/>
<path fill-rule="evenodd" clip-rule="evenodd" d="M678.963 521.697L673.152 524.338L678.963 527.773L678.963 521.697Z" fill="#C1CCF5"/>
<path fill-rule="evenodd" clip-rule="evenodd" d="M673.152 525.44L678.963 533.629V528.874L673.152 525.44Z" fill="white"/>
<path fill-rule="evenodd" clip-rule="evenodd" d="M678.963 528.874V533.63L684.778 525.44L678.963 528.874Z" fill="#C1CCF5"/>
<rect x="801.979" y="505.142" width="53.8757" height="37.5497" rx="5.71409" fill="white"/>
<rect x="801.979" y="505.142" width="53.8757" height="37.5497" rx="5.71409" stroke="#F9F7F6" stroke-width="1.6326"/>
<path fill-rule="evenodd" clip-rule="evenodd" d="M841.766 523.811C841.766 530.966 835.966 536.766 828.811 536.766C821.656 536.766 815.856 530.966 815.856 523.811C815.856 516.656 821.656 510.856 828.811 510.856C835.966 510.856 841.766 516.656 841.766 523.811ZM831.923 518.998C833.725 519.617 835.044 520.543 834.785 522.268C834.597 523.531 833.895 524.141 832.961 524.355C834.242 525.019 834.678 526.28 834.273 527.804C833.503 529.997 831.672 530.182 829.237 529.724L828.646 532.081L827.219 531.727L827.802 529.4C827.432 529.309 827.054 529.211 826.664 529.106L826.079 531.444L824.653 531.089L825.244 528.727L822.369 528.004L823.078 526.376C823.078 526.376 824.131 526.654 824.116 526.634C824.52 526.733 824.7 526.471 824.771 526.297L826.373 519.897C826.39 519.595 826.286 519.214 825.707 519.07C825.729 519.055 824.671 518.813 824.671 518.813L825.05 517.295L827.929 518.005L828.514 515.669L829.941 516.024L829.368 518.314C829.751 518.4 830.137 518.489 830.512 518.582L831.081 516.306L832.508 516.661L831.923 518.998ZM828.509 522.895C829.481 523.153 831.596 523.714 831.965 522.243C832.341 520.739 830.286 520.284 829.28 520.062L829.28 520.062C829.166 520.036 829.065 520.014 828.983 519.994L828.272 522.834C828.34 522.85 828.419 522.871 828.509 522.895ZM827.407 527.467C828.572 527.774 831.118 528.444 831.523 526.824C831.938 525.167 829.469 524.615 828.264 524.346C828.13 524.316 828.011 524.29 827.914 524.265L827.13 527.395C827.209 527.415 827.302 527.439 827.406 527.467L827.407 527.467L827.407 527.467Z" fill="#F7931A"/>
<g clip-path="url(#clip0_60_322)">
<g clip-path="url(#clip1_60_322)">
<rect x="225.959" y="510.856" width="35.9171" height="26.1215" rx="3.26519" fill="white"/>
<path fill-rule="evenodd" clip-rule="evenodd" d="M225.959 510.856H241.352V523.046H225.959V510.856Z" fill="#1A47B8"/>
<path fill-rule="evenodd" clip-rule="evenodd" d="M241.352 510.856V512.598H261.876V510.856H241.352ZM241.352 514.339V516.081H261.876V514.339H241.352ZM241.352 517.822V519.564H261.876V517.822H241.352ZM241.352 521.305V523.046H261.876V521.305H241.352ZM225.959 524.788V526.529H261.876V524.788H225.959ZM225.959 528.271V530.012H261.876V528.271H225.959ZM225.959 531.754V533.495H261.876V531.754H225.959ZM225.959 535.237V536.978H261.876V535.237H225.959Z" fill="#F93939"/>
<path fill-rule="evenodd" clip-rule="evenodd" d="M227.669 512.598V514.34H229.379V512.598H227.669ZM231.09 512.598V514.34H232.8V512.598H231.09ZM234.51 512.598V514.34H236.221V512.598H234.51ZM237.931 512.598V514.34H239.641V512.598H237.931ZM236.221 514.34V516.081H237.931V514.34H236.221ZM232.8 514.34V516.081H234.51V514.34H232.8ZM229.379 514.34V516.081H231.09V514.34H229.379ZM227.669 516.081V517.822H229.379V516.081H227.669ZM231.09 516.081V517.822H232.8V516.081H231.09ZM234.51 516.081V517.822H236.221V516.081H234.51ZM237.931 516.081V517.822H239.641V516.081H237.931ZM227.669 519.564V521.305H229.379V519.564H227.669ZM231.09 519.564V521.305H232.8V519.564H231.09ZM234.51 519.564V521.305H236.221V519.564H234.51ZM237.931 519.564V521.305H239.641V519.564H237.931ZM236.221 517.822V519.564H237.931V517.822H236.221ZM232.8 517.822V519.564H234.51V517.822H232.8ZM229.379 517.822V519.564H231.09V517.822H229.379Z" fill="white"/>
</g>
</g>
<g clip-path="url(#clip2_60_322)">
<rect x="365.959" y="510.856" width="35.9171" height="26.1215" rx="3.26519" fill="#249F58"/>
<path fill-rule="evenodd" clip-rule="evenodd" d="M383.917 514.339L396.745 523.917L383.917 533.495L371.09 523.917" fill="#FFDA2C"/>
<path d="M383.917 530.012C387.223 530.012 389.903 527.283 389.903 523.917C389.903 520.551 387.223 517.822 383.917 517.822C380.611 517.822 377.931 520.551 377.931 523.917C377.931 527.283 380.611 530.012 383.917 530.012Z" fill="#1A47B8"/>
<path fill-rule="evenodd" clip-rule="evenodd" d="M381.352 526.529V528.271H383.062V526.529H381.352ZM384.772 526.529V528.271H386.483V526.529H384.772Z" fill="white"/>
<path fill-rule="evenodd" clip-rule="evenodd" d="M379.641 521.305C379.641 521.305 383.514 522.001 386.305 523.217L389.903 524.788" fill="white"/>
<path d="M379.641 521.305C379.641 521.305 383.514 522.001 386.305 523.217L389.903 524.788" stroke="white" stroke-width="1.6326"/>
</g>
<g clip-path="url(#clip3_60_322)">
<g clip-path="url(#clip4_60_322)">
<rect x="515.959" y="510.856" width="35.9171" height="26.1215" rx="3.26519" fill="#F93939"/>
<path fill-rule="evenodd" clip-rule="evenodd" d="M515.959 510.856H527.387V536.978H515.959V510.856Z" fill="#249F58"/>
<path d="M527.931 528.271C530.765 528.271 533.062 525.932 533.062 523.047C533.062 520.161 530.765 517.822 527.931 517.822C525.097 517.822 522.8 520.161 522.8 523.047C522.8 525.932 525.097 528.271 527.931 528.271Z" fill="#FFDA2C"/>
<path fill-rule="evenodd" clip-rule="evenodd" d="M531.352 524.788V519.564H524.51V524.788C524.51 525.75 526.041 526.53 527.931 526.53C529.821 526.53 531.352 525.75 531.352 524.788Z" fill="#F93939"/>
<path fill-rule="evenodd" clip-rule="evenodd" d="M526.221 521.305H529.641V524.788H526.221V521.305Z" fill="white"/>
<path fill-rule="evenodd" clip-rule="evenodd" d="M526.221 521.305H527.931V523.046H526.221V521.305ZM527.931 523.046H529.641V524.788H527.931V523.046Z" fill="#1A47B8"/>
</g>
</g>
<g clip-path="url(#clip5_60_322)">
<rect x="80.9586" y="510.856" width="35.9171" height="26.1215" rx="3.26519" fill="#F93939"/>
<path fill-rule="evenodd" clip-rule="evenodd" d="M96.3516 521.305H91.2206V526.53H96.3516V531.754H101.483V526.53H106.614V521.305H101.483V516.081H96.3516V521.305Z" fill="white"/>
</g>
<g clip-path="url(#clip6_60_322)">
<g clip-path="url(#clip7_60_322)">
<rect x="949.959" y="643.856" width="35.9171" height="26.1215" rx="3.26519" fill="#249F58"/>
<path fill-rule="evenodd" clip-rule="evenodd" d="M949.959 669.978H985.876V647.339L949.959 666.495V669.978Z" fill="#3ECBF8"/>
<path fill-rule="evenodd" clip-rule="evenodd" d="M949.959 668.236L985.876 649.08V642.115L949.959 661.271V668.236Z" fill="#FFDA2C"/>
<path fill-rule="evenodd" clip-rule="evenodd" d="M949.959 671.72L985.876 652.564V645.598L949.959 664.754V671.72Z" fill="#FFDA2C"/>
<path fill-rule="evenodd" clip-rule="evenodd" d="M949.959 669.978L985.876 650.822V643.856L949.959 663.012V669.978Z" fill="#151515"/>
</g>
</g>
<g clip-path="url(#clip8_60_322)">
<g clip-path="url(#clip9_60_322)">
<rect x="1094.96" y="643.856" width="35.9171" height="26.1215" rx="3.26519" fill="white"/>
<path fill-rule="evenodd" clip-rule="evenodd" d="M1094.96 643.856H1106.39V669.978H1094.96V643.856Z" fill="#249F58"/>
<path fill-rule="evenodd" clip-rule="evenodd" d="M1119.45 643.856H1130.88V669.978H1119.45V643.856Z" fill="#F93939"/>
</g>
</g>
<g clip-path="url(#clip10_60_322)">
<g clip-path="url(#clip11_60_322)">
<path d="M843.455 643.856H814.379C812.49 643.856 810.959 645.416 810.959 647.339V666.495C810.959 668.419 812.49 669.978 814.379 669.978H843.455C845.344 669.978 846.876 668.419 846.876 666.495V647.339C846.876 645.416 845.344 643.856 843.455 643.856Z" fill="#1A47B8"/>
<path fill-rule="evenodd" clip-rule="evenodd" d="M810.959 643.856H846.876V656.917H810.959V643.856Z" fill="#FFDA2C"/>
<path fill-rule="evenodd" clip-rule="evenodd" d="M810.959 663.448H846.876V669.978H810.959V663.448Z" fill="#F93939"/>
</g>
</g>
<g clip-path="url(#clip12_60_322)">
<g clip-path="url(#clip13_60_322)">
<rect x="660.959" y="643.856" width="35.9171" height="26.1215" rx="3.26519" fill="white"/>
<path d="M693.455 643.856H664.379C662.49 643.856 660.959 645.416 660.959 647.339V666.495C660.959 668.419 662.49 669.978 664.379 669.978H693.455C695.344 669.978 696.876 668.419 696.876 666.495V647.339C696.876 645.416 695.344 643.856 693.455 643.856Z" fill="white"/>
<path fill-rule="evenodd" clip-rule="evenodd" d="M660.959 643.856H675.652V656.917H660.959V643.856Z" fill="#1A47B8"/>
<path fill-rule="evenodd" clip-rule="evenodd" d="M668.291 652.958L665.777 654.305L666.256 651.456L664.224 649.435L667.034 649.021L668.291 646.426L669.548 649.021L672.358 649.439L670.323 651.456L670.805 654.305" fill="white"/>
<path fill-rule="evenodd" clip-rule="evenodd" d="M660.959 656.917H696.876V669.978H660.959V656.917Z" fill="#F93939"/>
</g>
</g>
<g clip-path="url(#clip14_60_322)">
<g clip-path="url(#clip15_60_322)">
<rect x="515.959" y="643.856" width="35.9171" height="26.1215" rx="3.26519" fill="white"/>
<path fill-rule="evenodd" clip-rule="evenodd" d="M515.959 661.815H551.876V669.978H515.959V661.815Z" fill="#249F58"/>
<path fill-rule="evenodd" clip-rule="evenodd" d="M515.959 643.856H551.876V652.019H515.959V643.856Z" fill="#151515"/>
<path fill-rule="evenodd" clip-rule="evenodd" d="M515.959 643.856V669.978L538.815 656.889L515.959 643.856Z" fill="#F93939"/>
<path fill-rule="evenodd" clip-rule="evenodd" d="M520.856 656.917L522.489 655.829L523.305 653.652L524.122 655.829L525.754 656.917L524.122 658.005L523.305 660.182L522.489 658.005L520.856 656.917Z" fill="white"/>
</g>
</g>
<g clip-path="url(#clip16_60_322)">
<g clip-path="url(#clip17_60_322)">
<path d="M113.455 643.856H84.3793C82.4901 643.856 80.9586 645.416 80.9586 647.339V666.495C80.9586 668.419 82.4901 669.978 84.3793 669.978H113.455C115.344 669.978 116.876 668.419 116.876 666.495V647.339C116.876 645.416 115.344 643.856 113.455 643.856Z" fill="white"/>
<path fill-rule="evenodd" clip-rule="evenodd" d="M80.9586 661.815H116.876V669.978H80.9586V661.815ZM80.9586 643.856H116.876V652.019H80.9586V643.856Z" fill="#3ECBF8"/>
<path d="M98.9172 659.529C100.334 659.529 101.483 658.359 101.483 656.917C101.483 655.474 100.334 654.305 98.9172 654.305C97.5003 654.305 96.3517 655.474 96.3517 656.917C96.3517 658.359 97.5003 659.529 98.9172 659.529Z" fill="#FFDA2C"/>
</g>
</g>
<g clip-path="url(#clip18_60_322)">
<g clip-path="url(#clip19_60_322)">
<rect x="225.959" y="643.856" width="35.9171" height="26.1215" rx="3.26519" fill="#1A47B8"/>
<path fill-rule="evenodd" clip-rule="evenodd" d="M229.779 643.856H225.959V648.21L258.034 669.978L261.876 669.978V665.624L229.779 643.856Z" fill="white"/>
<path d="M227.233 643.856L261.876 667.428V669.978H260.631L225.959 646.383V643.856H227.233Z" fill="#F93939"/>
<path fill-rule="evenodd" clip-rule="evenodd" d="M258.455 643.856H261.876V648.21C261.876 648.21 239.658 662.713 229.379 669.978H225.959V665.624L258.455 643.856Z" fill="white"/>
<path d="M261.876 643.856H260.716L225.959 667.448V669.978H227.233L261.876 646.402V643.856Z" fill="#F93939"/>
<path fill-rule="evenodd" clip-rule="evenodd" d="M239.021 643.856H248.844V651.914H261.876V661.915H248.844V669.978H239.021V661.915H225.959V651.914H239.021V643.856Z" fill="white"/>
<path fill-rule="evenodd" clip-rule="evenodd" d="M241.082 643.856H246.753V653.903H261.876V659.931H246.753V669.978H241.082V659.931H225.959V653.903H241.082V643.856Z" fill="#F93939"/>
</g>
</g>
<g clip-path="url(#clip20_60_322)">
<g clip-path="url(#clip21_60_322)">
<rect x="370.959" y="643.856" width="35.9171" height="26.1215" rx="3.26519" fill="#1A47B8"/>
<path fill-rule="evenodd" clip-rule="evenodd" d="M380.754 658.005H382.568V660.182H380.754V658.005ZM384.382 655.829H386.196V658.005H384.382V655.829ZM391.638 655.829H393.452V658.005H391.638V655.829ZM395.266 658.005H397.08V660.182H395.266V658.005ZM388.01 653.652H389.824V655.829H388.01V653.652Z" fill="#BCC9F0"/>
<path fill-rule="evenodd" clip-rule="evenodd" d="M370.959 661.815H406.876V669.978H370.959V661.815Z" fill="#F93939"/>
<path fill-rule="evenodd" clip-rule="evenodd" d="M370.959 643.856H406.876V652.019H370.959V643.856Z" fill="#FFDA2C"/>
</g>
</g>
<path d="M104.762 126.917C104.762 130.15 102.15 132.762 98.9171 132.762C95.6845 132.762 93.0724 130.15 93.0724 126.917C93.0724 123.684 95.6845 121.072 98.9171 121.072C102.15 121.072 104.762 123.684 104.762 126.917Z" stroke="#171717" stroke-width="2.44889" stroke-linecap="round" stroke-linejoin="round"/>
<path d="M98.9171 140.419C104.68 140.419 110.051 137.023 113.79 131.145C115.259 128.844 115.259 124.974 113.79 122.672C110.051 116.795 104.68 113.399 98.9171 113.399C93.154 113.399 87.7828 116.795 84.0441 122.672C82.5748 124.974 82.5748 128.844 84.0441 131.145C87.7828 137.023 93.154 140.419 98.9171 140.419Z" stroke="#171717" stroke-width="2.44889" stroke-linecap="round" stroke-linejoin="round"/>
<path d="M241.452 110.967L233.305 114.036C231.428 114.738 229.893 116.958 229.893 118.95V131.08C229.893 133.007 231.167 135.537 232.718 136.696L239.738 141.937C242.04 143.668 245.827 143.668 248.129 141.937L255.149 136.696C256.7 135.537 257.974 133.007 257.974 131.08V118.95C257.974 116.942 256.439 114.722 254.562 114.02L246.415 110.967C245.027 110.461 242.807 110.461 241.452 110.967Z" stroke="#171717" stroke-width="2.44889" stroke-linecap="round" stroke-linejoin="round"/>
<path d="M387.317 139.162H381.571C380.558 139.162 379.661 139.129 378.861 139.015C374.567 138.541 373.408 136.517 373.408 130.999V122.836C373.408 117.317 374.567 115.293 378.861 114.82C379.661 114.705 380.558 114.673 381.571 114.673H387.219" stroke="#171717" stroke-width="2.44889" stroke-linecap="round" stroke-linejoin="round"/>
<path d="M393.848 114.673H396.264C397.276 114.673 398.174 114.705 398.974 114.82C403.268 115.293 404.427 117.317 404.427 122.836V130.999C404.427 136.517 403.268 138.541 398.974 139.015C398.174 139.129 397.276 139.162 396.264 139.162H393.848" stroke="#171717" stroke-width="2.44889" stroke-linecap="round" stroke-linejoin="round"/>
<path d="M393.815 110.591V143.243" stroke="#171717" stroke-width="2.44889" stroke-linecap="round" stroke-linejoin="round"/>
<path d="M387.439 126.917H387.454" stroke="#171717" stroke-width="2.44889" stroke-linecap="round" stroke-linejoin="round"/>
<path d="M380.909 126.917H380.923" stroke="#171717" stroke-width="2.44889" stroke-linecap="round" stroke-linejoin="round"/>
<path d="M835.635 131.701C832.272 135.048 827.456 136.076 823.227 134.754L815.538 142.427C814.983 142.998 813.889 143.341 813.105 143.227L809.546 142.737C808.371 142.574 807.277 141.464 807.097 140.288L806.607 136.729C806.493 135.945 806.869 134.852 807.407 134.297L815.081 126.623C813.775 122.379 814.787 117.562 818.15 114.216C822.966 109.399 830.786 109.399 835.619 114.216C840.451 119.032 840.451 126.885 835.635 131.701Z" stroke="#171717" stroke-width="2.44889" stroke-miterlimit="10" stroke-linecap="round" stroke-linejoin="round"/>
<path d="M814.575 135.88L818.33 139.635" stroke="#171717" stroke-width="2.44889" stroke-miterlimit="10" stroke-linecap="round" stroke-linejoin="round"/>
<path d="M826.999 125.285C828.351 125.285 829.447 124.188 829.447 122.836C829.447 121.483 828.351 120.387 826.999 120.387C825.646 120.387 824.55 121.483 824.55 122.836C824.55 124.188 825.646 125.285 826.999 125.285Z" stroke="#171717" stroke-width="2.44889" stroke-linecap="round" stroke-linejoin="round"/>
<path d="M668.122 123.652V120.387C668.122 114.983 669.754 110.591 677.917 110.591C686.08 110.591 687.713 114.983 687.713 120.387V123.652" stroke="#171717" stroke-width="2.44889" stroke-linecap="round" stroke-linejoin="round"/>
<path d="M677.917 137.529C680.171 137.529 681.999 135.702 681.999 133.447C681.999 131.193 680.171 129.366 677.917 129.366C675.663 129.366 673.836 131.193 673.836 133.447C673.836 135.702 675.663 137.529 677.917 137.529Z" stroke="#171717" stroke-width="2.44889" stroke-linecap="round" stroke-linejoin="round"/>
<path d="M686.08 143.243H669.754C663.224 143.243 661.591 141.61 661.591 135.08V131.815C661.591 125.284 663.224 123.652 669.754 123.652H686.08C692.611 123.652 694.243 125.284 694.243 131.815V135.08C694.243 141.61 692.611 143.243 686.08 143.243Z" stroke="#171717" stroke-width="2.44889" stroke-linecap="round" stroke-linejoin="round"/>
<path d="M517.591 122.019V117.938C517.591 113.873 520.873 110.591 524.938 110.591H529.019" stroke="#171717" stroke-width="2.44889" stroke-linecap="round" stroke-linejoin="round"/>
<path d="M538.815 110.591H542.897C546.962 110.591 550.243 113.873 550.243 117.938V122.019" stroke="#171717" stroke-width="2.44889" stroke-linecap="round" stroke-linejoin="round"/>
<path d="M550.243 133.448V135.896C550.243 139.962 546.962 143.243 542.897 143.243H540.448" stroke="#171717" stroke-width="2.44889" stroke-linecap="round" stroke-linejoin="round"/>
<path d="M529.019 143.243H524.938C520.873 143.243 517.591 139.962 517.591 135.896V131.815" stroke="#171717" stroke-width="2.44889" stroke-linecap="round" stroke-linejoin="round"/>
<path d="M542.08 122.836V130.999C542.08 134.264 540.448 135.896 537.183 135.896H530.652C527.387 135.896 525.754 134.264 525.754 130.999V122.836C525.754 119.57 527.387 117.938 530.652 117.938H537.183C540.448 117.938 542.08 119.57 542.08 122.836Z" stroke="#171717" stroke-width="2.44889" stroke-linecap="round" stroke-linejoin="round"/>
<path d="M545.345 126.917H522.489" stroke="#171717" stroke-width="2.44889" stroke-linecap="round" stroke-linejoin="round"/>
<path d="M967.917 131.619C966.431 131.619 965.223 130.411 965.223 128.925V124.893C965.223 123.407 966.431 122.199 967.917 122.199C969.403 122.199 970.611 123.407 970.611 124.893V128.925C970.611 130.411 969.403 131.619 967.917 131.619Z" stroke="#171717" stroke-width="2.44889" stroke-linecap="round"/>
<path d="M976.047 129.317C975.721 133.529 972.195 136.827 967.917 136.827C963.411 136.827 959.754 133.17 959.754 128.664V125.17C959.754 120.664 963.411 117.007 967.917 117.007C972.146 117.007 975.623 120.223 976.031 124.337" stroke="#171717" stroke-width="2.44889" stroke-linecap="round"/>
<path d="M972.815 110.591H976.08C980.978 110.591 984.243 113.856 984.243 118.754V122.019" stroke="#171717" stroke-width="2.44889" stroke-miterlimit="10" stroke-linecap="round" stroke-linejoin="round"/>
<path d="M951.591 122.019V118.754C951.591 113.856 954.856 110.591 959.754 110.591H963.019" stroke="#171717" stroke-width="2.44889" stroke-miterlimit="10" stroke-linecap="round" stroke-linejoin="round"/>
<path d="M972.815 143.243H976.08C980.978 143.243 984.243 139.978 984.243 135.08V131.815" stroke="#171717" stroke-width="2.44889" stroke-miterlimit="10" stroke-linecap="round" stroke-linejoin="round"/>
<path d="M951.591 131.815V135.08C951.591 139.978 954.856 143.243 959.754 143.243H963.019" stroke="#171717" stroke-width="2.44889" stroke-miterlimit="10" stroke-linecap="round" stroke-linejoin="round"/>
<path d="M1110.45 243.967L1102.31 247.02C1100.43 247.722 1098.89 249.942 1098.89 251.95V264.081C1098.89 266.007 1100.17 268.538 1101.72 269.697L1108.74 274.937C1111.04 276.668 1114.83 276.668 1117.13 274.937L1124.15 269.697C1125.7 268.538 1126.97 266.007 1126.97 264.081V251.95C1126.97 249.942 1125.44 247.722 1123.56 247.02L1115.42 243.967C1114.03 243.461 1111.81 243.461 1110.45 243.967Z" stroke="#171717" stroke-width="2.44889" stroke-linecap="round" stroke-linejoin="round"/>
<path d="M1112.92 258.154C1112.85 258.154 1112.77 258.154 1112.71 258.154C1111.17 258.105 1109.95 256.832 1109.95 255.281C1109.95 253.697 1111.24 252.407 1112.82 252.407C1114.4 252.407 1115.69 253.697 1115.69 255.281C1115.68 256.848 1114.45 258.105 1112.92 258.154Z" stroke="#171717" stroke-width="2.44889" stroke-linecap="round" stroke-linejoin="round"/>
<path d="M1109.67 262.725C1108.1 263.77 1108.1 265.484 1109.67 266.529C1111.45 267.721 1114.37 267.721 1116.15 266.529C1117.72 265.484 1117.72 263.77 1116.15 262.725C1114.39 261.534 1111.46 261.534 1109.67 262.725Z" stroke="#171717" stroke-width="2.44889" stroke-linecap="round" stroke-linejoin="round"/>
<path d="M1112.92 130.182C1114.72 130.182 1116.18 128.72 1116.18 126.917C1116.18 125.114 1114.72 123.652 1112.92 123.652C1111.11 123.652 1109.65 125.114 1109.65 126.917C1109.65 128.72 1111.11 130.182 1112.92 130.182Z" stroke="#171717" stroke-width="2.44889" stroke-linecap="round" stroke-linejoin="round"/>
<path d="M1125.98 136.713C1128.04 133.986 1129.24 130.591 1129.24 126.917C1129.24 123.244 1128.04 119.848 1125.98 117.122" stroke="#171717" stroke-width="2.44889" stroke-linecap="round" stroke-linejoin="round"/>
<path d="M1099.86 117.122C1097.8 119.848 1096.59 123.244 1096.59 126.917C1096.59 130.591 1097.8 133.986 1099.86 136.713" stroke="#171717" stroke-width="2.44889" stroke-linecap="round" stroke-linejoin="round"/>
<path d="M1120.75 132.794C1121.98 131.162 1122.71 129.121 1122.71 126.917C1122.71 124.713 1121.98 122.672 1120.75 121.04" stroke="#171717" stroke-width="2.44889" stroke-linecap="round" stroke-linejoin="round"/>
<path d="M1105.08 121.04C1103.86 122.672 1103.12 124.713 1103.12 126.917C1103.12 129.121 1103.86 131.162 1105.08 132.794" stroke="#171717" stroke-width="2.44889" stroke-linecap="round" stroke-linejoin="round"/>
<path d="M693.463 258.481C693.463 266.464 687.668 273.941 679.75 276.129C679.211 276.276 678.623 276.276 678.084 276.129C670.166 273.941 664.371 266.464 664.371 258.481V251.313C664.371 249.975 665.383 248.456 666.64 247.95L675.733 244.228C677.774 243.395 680.076 243.395 682.117 244.228L691.21 247.95C692.451 248.456 693.48 249.975 693.48 251.313L693.463 258.481Z" stroke="#171717" stroke-width="2.44889" stroke-linecap="round" stroke-linejoin="round"/>
<path d="M678.917 260.734C680.72 260.734 682.182 259.272 682.182 257.468C682.182 255.665 680.72 254.203 678.917 254.203C677.114 254.203 675.652 255.665 675.652 257.468C675.652 259.272 677.114 260.734 678.917 260.734Z" stroke="#171717" stroke-width="2.44889" stroke-miterlimit="10" stroke-linecap="round" stroke-linejoin="round"/>
<path d="M678.917 260.733V265.631" stroke="#171717" stroke-width="2.44889" stroke-miterlimit="10" stroke-linecap="round" stroke-linejoin="round"/>
<path d="M822.917 263.183C824.72 263.183 826.182 261.721 826.182 259.918C826.182 258.114 824.72 256.652 822.917 256.652C821.114 256.652 819.652 258.114 819.652 259.918C819.652 261.721 821.114 263.183 822.917 263.183Z" stroke="#171717" stroke-width="2.44889" stroke-linecap="round" stroke-linejoin="round"/>
<path d="M835.978 269.713C838.035 266.986 839.243 263.591 839.243 259.917C839.243 256.244 838.035 252.848 835.978 250.122" stroke="#171717" stroke-width="2.44889" stroke-linecap="round" stroke-linejoin="round"/>
<path d="M809.856 250.122C807.799 252.848 806.591 256.244 806.591 259.917C806.591 263.591 807.799 266.986 809.856 269.713" stroke="#171717" stroke-width="2.44889" stroke-linecap="round" stroke-linejoin="round"/>
<path d="M830.754 265.795C831.978 264.162 832.713 262.121 832.713 259.917C832.713 257.713 831.978 255.673 830.754 254.04" stroke="#171717" stroke-width="2.44889" stroke-linecap="round" stroke-linejoin="round"/>
<path d="M815.081 254.04C813.856 255.673 813.122 257.713 813.122 259.917C813.122 262.121 813.856 264.162 815.081 265.795" stroke="#171717" stroke-width="2.44889" stroke-linecap="round" stroke-linejoin="round"/>
<path d="M951.591 276.243H984.243" stroke="#171717" stroke-width="2.44889" stroke-linecap="round" stroke-linejoin="round"/>
<path d="M967.917 250.122C959.803 250.122 953.224 256.701 953.224 264.815V276.243H982.611V264.815C982.611 256.701 976.031 250.122 967.917 250.122Z" stroke="#171717" stroke-width="2.44889" stroke-linecap="round" stroke-linejoin="round"/>
<path d="M967.917 243.591V245.224" stroke="#171717" stroke-width="2.44889" stroke-linecap="round" stroke-linejoin="round"/>
<path d="M954.857 246.856L956.489 248.489" stroke="#171717" stroke-width="2.44889" stroke-linecap="round" stroke-linejoin="round"/>
<path d="M980.978 246.856L979.345 248.489" stroke="#171717" stroke-width="2.44889" stroke-linecap="round" stroke-linejoin="round"/>
<defs>
<linearGradient id="paint0_linear_60_322" x1="540.029" y1="390.845" x2="549.891" y2="390.845" gradientUnits="userSpaceOnUse">
<stop stop-color="#58B03A"/>
<stop offset="1" stop-color="#55B330"/>
</linearGradient>
<linearGradient id="paint1_linear_60_322" x1="517.779" y1="391.586" x2="527.682" y2="391.586" gradientUnits="userSpaceOnUse">
<stop stop-color="#0F6EB6"/>
<stop offset="1" stop-color="#006DBA"/>
</linearGradient>
<linearGradient id="paint2_linear_60_322" x1="529.028" y1="391.077" x2="538.896" y2="391.077" gradientUnits="userSpaceOnUse">
<stop stop-color="#DE0D3D"/>
<stop offset="1" stop-color="#E30138"/>
</linearGradient>
<clipPath id="clip0_60_322">
<rect width="35.9171" height="26.1215" fill="white" transform="translate(225.959 510.856)"/>
</clipPath>
<clipPath id="clip1_60_322">
<rect x="225.959" y="510.856" width="35.9171" height="26.1215" rx="3.26519" fill="white"/>
</clipPath>
<clipPath id="clip2_60_322">
<rect width="35.9171" height="26.1215" fill="white" transform="translate(365.959 510.856)"/>
</clipPath>
<clipPath id="clip3_60_322">
<rect width="35.9171" height="26.1215" fill="white" transform="translate(515.959 510.856)"/>
</clipPath>
<clipPath id="clip4_60_322">
<rect x="515.959" y="510.856" width="35.9171" height="26.1215" rx="3.26519" fill="white"/>
</clipPath>
<clipPath id="clip5_60_322">
<rect width="35.9171" height="26.1215" fill="white" transform="translate(80.9586 510.856)"/>
</clipPath>
<clipPath id="clip6_60_322">
<rect width="35.9171" height="26.1215" fill="white" transform="translate(949.959 643.856)"/>
</clipPath>
<clipPath id="clip7_60_322">
<rect x="949.959" y="643.856" width="35.9171" height="26.1215" rx="3.26519" fill="white"/>
</clipPath>
<clipPath id="clip8_60_322">
<rect width="35.9171" height="26.1215" fill="white" transform="translate(1094.96 643.856)"/>
</clipPath>
<clipPath id="clip9_60_322">
<rect x="1094.96" y="643.856" width="35.9171" height="26.1215" rx="3.26519" fill="white"/>
</clipPath>
<clipPath id="clip10_60_322">
<rect width="35.9171" height="26.1215" fill="white" transform="translate(810.959 643.856)"/>
</clipPath>
<clipPath id="clip11_60_322">
<rect x="810.959" y="643.856" width="35.9171" height="26.1215" rx="3.26519" fill="white"/>
</clipPath>
<clipPath id="clip12_60_322">
<rect width="35.9171" height="26.1215" fill="white" transform="translate(660.959 643.856)"/>
</clipPath>
<clipPath id="clip13_60_322">
<rect x="660.959" y="643.856" width="35.9171" height="26.1215" rx="3.26519" fill="white"/>
</clipPath>
<clipPath id="clip14_60_322">
<rect width="35.9171" height="26.1215" fill="white" transform="translate(515.959 643.856)"/>
</clipPath>
<clipPath id="clip15_60_322">
<rect x="515.959" y="643.856" width="35.9171" height="26.1215" rx="3.26519" fill="white"/>
</clipPath>
<clipPath id="clip16_60_322">
<rect width="35.9171" height="26.1215" fill="white" transform="translate(80.9586 643.856)"/>
</clipPath>
<clipPath id="clip17_60_322">
<rect x="80.9586" y="643.856" width="35.9171" height="26.1215" rx="3.26519" fill="white"/>
</clipPath>
<clipPath id="clip18_60_322">
<rect width="35.9171" height="26.1215" fill="white" transform="translate(225.959 643.856)"/>
</clipPath>
<clipPath id="clip19_60_322">
<rect x="225.959" y="643.856" width="35.9171" height="26.1215" rx="3.26519" fill="white"/>
</clipPath>
<clipPath id="clip20_60_322">
<rect width="35.9171" height="26.1215" fill="white" transform="translate(370.959 643.856)"/>
</clipPath>
<clipPath id="clip21_60_322">
<rect x="370.959" y="643.856" width="35.9171" height="26.1215" rx="3.26519" fill="white"/>
</clipPath>
</defs>
</svg>
