<svg width="714" height="150" viewBox="0 0 714 150" fill="none" xmlns="http://www.w3.org/2000/svg">
<rect width="714" height="150" rx="20" fill="white"/>
<path d="M622.014 32L569.525 32C567.034 32 565.014 34.0195 565.014 36.5107C565.014 37.8605 565.619 39.1394 566.662 39.9962L571.718 44.1493C572.612 44.8841 573.734 45.2857 574.891 45.2857L622.014 45.2857C624.776 45.2857 627.014 43.0471 627.014 40.2857V37C627.014 34.2386 624.776 32 622.014 32Z" fill="#FFB534"/>
<path d="M198.077 109.812C195.493 107.854 194.868 105.875 196.202 103.875L201.014 96.6248C202.598 94.2498 204.91 94.1248 207.952 96.2498C210.285 97.8748 213.327 99.5623 217.077 101.312C220.868 103.021 224.848 103.875 229.014 103.875C231.931 103.875 234.743 103.541 237.452 102.875C240.16 102.208 242.223 100.916 243.639 98.9998C245.056 97.0831 245.764 94.8123 245.764 92.1873C245.764 90.3123 245.452 88.6664 244.827 87.2498C244.202 85.8331 243.181 84.6664 241.764 83.7498C240.348 82.8331 238.889 82.0623 237.389 81.4373C234.764 80.3539 231.452 79.2914 227.452 78.2498C223.493 77.1664 219.577 75.8748 215.702 74.3748C212.243 73.0414 209.077 71.2081 206.202 68.8748C203.327 66.5414 201.098 63.9164 199.514 60.9998C197.931 58.0831 197.139 54.1873 197.139 49.3123C197.139 43.5206 199.014 38.5623 202.764 34.4373C206.514 30.3123 210.827 27.6664 215.702 26.4998C220.577 25.3331 225.493 24.7498 230.452 24.7498C235.368 24.7498 240.431 25.4998 245.639 26.9998C250.889 28.4998 254.848 30.3748 257.514 32.6248C260.139 34.8331 260.785 36.8331 259.452 38.6248L254.389 45.4373C252.681 47.7706 250.389 47.9581 247.514 45.9998C245.681 44.7498 243.16 43.3539 239.952 41.8123C236.785 40.2706 233.473 39.4998 230.014 39.4998C227.556 39.4998 225.285 39.7081 223.202 40.1248C221.16 40.5414 219.348 41.5414 217.764 43.1248C216.181 44.7081 215.389 46.6664 215.389 48.9998C215.389 51.2498 215.973 53.0831 217.139 54.4998C218.306 55.8748 219.598 56.9164 221.014 57.6248C222.431 58.2914 223.868 58.8539 225.327 59.3123C229.827 60.7706 233.848 62.0623 237.389 63.1873C240.931 64.2706 244.202 65.4789 247.202 66.8123C251.368 68.6873 254.556 70.5623 256.764 72.4373C258.973 74.3123 260.785 76.8748 262.202 80.1248C263.66 83.3748 264.389 87.2498 264.389 91.7498C264.389 98.4164 262.264 103.937 258.014 108.312C253.764 112.646 249.035 115.437 243.827 116.687C238.66 117.979 233.618 118.625 228.702 118.625C221.452 118.625 215.556 117.916 211.014 116.5C206.473 115.125 202.16 112.896 198.077 109.812ZM281.014 116.5C278.514 116.5 277.264 115.25 277.264 112.75V27.9998C277.264 25.4998 278.514 24.2498 281.014 24.2498H291.014C293.514 24.2498 294.764 25.4998 294.764 27.9998V53.2498C294.764 54.9164 294.681 56.5831 294.514 58.2498H294.889C296.806 54.9581 299.243 52.7081 302.202 51.4998C305.16 50.2498 308.723 49.6248 312.889 49.6248C319.389 49.6248 324.764 51.6664 329.014 55.7498C333.264 59.8331 335.389 67.2914 335.389 78.1248V112.75C335.389 115.25 334.139 116.5 331.639 116.5H321.639C319.139 116.5 317.889 115.25 317.889 112.75V82.6248C317.889 73.5414 317.264 67.8123 316.014 65.4373C314.764 63.0623 312.077 61.8748 307.952 61.8748C303.577 61.8748 300.285 63.5831 298.077 66.9998C295.868 70.3748 294.764 77.4164 294.764 88.1248V112.75C294.764 115.25 293.514 116.5 291.014 116.5H281.014ZM348.764 98.9998C348.764 90.6664 352.743 84.6248 360.702 80.8748C368.66 77.1248 377.743 75.1248 387.952 74.8748V72.3748C387.952 68.5414 386.993 65.8331 385.077 64.2498C383.16 62.6664 380.493 61.8748 377.077 61.8748C374.66 61.8748 372.514 62.2289 370.639 62.9373C368.806 63.6039 367.202 64.3956 365.827 65.3123C364.493 66.1873 363.285 67.0831 362.202 67.9998C360.285 69.6664 358.702 69.7498 357.452 68.2498L352.264 61.8748C350.973 60.2914 351.285 58.6664 353.202 56.9998C354.66 55.7081 356.348 54.5831 358.264 53.6248C360.223 52.6664 362.806 51.7706 366.014 50.9373C369.223 50.0623 373.389 49.6248 378.514 49.6248C387.181 49.6248 393.827 51.6248 398.452 55.6248C403.118 59.6248 405.452 65.5206 405.452 73.3123V112.75C405.452 115.25 404.202 116.5 401.702 116.5H391.452C389.202 116.5 388.077 115.25 388.077 112.75V110.875H387.952C385.493 113.25 382.535 115 379.077 116.125C375.66 117.208 372.514 117.75 369.639 117.75C362.806 117.75 357.618 116.083 354.077 112.75C350.535 109.375 348.764 104.791 348.764 98.9998ZM367.264 98.6248C367.264 100.083 367.556 101.354 368.139 102.437C368.723 103.479 369.639 104.25 370.889 104.75C372.139 105.25 373.535 105.5 375.077 105.5C377.202 105.5 379.264 105.208 381.264 104.625C383.264 104.041 385.493 102.666 387.952 100.5V86.9373C380.952 87.7289 376.264 88.7498 373.889 89.9998C371.514 91.2498 369.806 92.5414 368.764 93.8748C367.764 95.2081 367.264 96.7914 367.264 98.6248ZM426.264 116.5C423.764 116.5 422.514 115.25 422.514 112.75V54.6248C422.514 52.1248 423.764 50.8748 426.264 50.8748H436.139C438.639 50.8748 439.889 52.1248 439.889 54.6248V58.2498H440.139C441.348 55.5831 443.389 53.4789 446.264 51.9373C449.139 50.3956 451.827 49.6248 454.327 49.6248C459.327 49.6248 463.202 50.7914 465.952 53.1248C468.743 55.4581 470.66 58.0623 471.702 60.9373H471.952C475.577 56.2289 478.848 53.1664 481.764 51.7498C484.723 50.3331 488.493 49.6248 493.077 49.6248C499.243 49.6248 504.431 51.6664 508.639 55.7498C512.889 59.8331 515.014 67.2914 515.014 78.1248V112.75C515.014 115.25 513.764 116.5 511.264 116.5H501.264C498.764 116.5 497.514 115.25 497.514 112.75V82.6248C497.514 73.5414 496.889 67.8123 495.639 65.4373C494.431 63.0623 492.264 61.8748 489.139 61.8748C486.223 61.8748 483.556 63.5831 481.139 66.9998C478.723 70.4164 477.514 77.4581 477.514 88.1248V112.75C477.514 115.25 476.264 116.5 473.764 116.5H463.764C461.264 116.5 460.014 115.25 460.014 112.75V82.6248C460.014 73.5414 459.389 67.8123 458.139 65.4373C456.931 63.0623 454.764 61.8748 451.639 61.8748C448.723 61.8748 446.056 63.5831 443.639 66.9998C441.223 70.3748 440.014 77.4164 440.014 88.1248V112.75C440.014 115.25 438.764 116.5 436.264 116.5H426.264ZM535.639 116.5C533.139 116.5 531.889 115.25 531.889 112.75V38.9373C531.889 37.0623 532.327 35.3539 533.202 33.8123L538.014 25.3748C538.931 23.7914 540.014 22.9998 541.264 22.9998H545.639C548.139 22.9998 549.389 24.2498 549.389 26.7498V112.75C549.389 115.25 548.139 116.5 545.639 116.5H535.639ZM566.264 89.2498V54.6248C566.264 52.1248 567.514 50.8748 570.014 50.8748H580.014C582.514 50.8748 583.764 52.1248 583.764 54.6248V84.7498C583.764 93.8331 584.389 99.5623 585.639 101.937C586.889 104.312 589.514 105.5 593.514 105.5C597.764 105.5 600.993 103.812 603.202 100.437C605.41 97.0206 606.514 89.9581 606.514 79.2498V54.6248C606.514 52.1248 607.764 50.8748 610.264 50.8748H620.264C622.764 50.8748 624.014 52.1248 624.014 54.6248V112.75C624.014 115.25 622.764 116.5 620.264 116.5H610.389C607.889 116.5 606.639 115.25 606.639 112.75V109.125H606.389C604.473 112.416 602.035 114.687 599.077 115.937C596.118 117.146 592.618 117.75 588.577 117.75C582.202 117.75 576.889 115.708 572.639 111.625C568.389 107.541 566.264 100.083 566.264 89.2498ZM644.764 116.5C642.264 116.5 641.014 115.25 641.014 112.75V38.9373C641.014 37.0623 641.452 35.3539 642.327 33.8123L647.139 25.3748C648.056 23.7914 649.139 22.9998 650.389 22.9998H654.764C657.264 22.9998 658.514 24.2498 658.514 26.7498V112.75C658.514 115.25 657.264 116.5 654.764 116.5H644.764Z" fill="#1C1C1C"/>
<path fill-rule="evenodd" clip-rule="evenodd" d="M124.107 29.9793L165.069 100.733C172.789 114.066 163.167 130.753 147.761 130.753H66.0298C50.6414 130.753 41.018 114.102 48.7007 100.768L89.4692 30.0149C97.1542 16.6775 116.394 16.6578 124.107 29.9793ZM107.683 101.695C117.712 101.695 125.841 93.5655 125.841 83.5373C125.841 73.5091 117.712 65.3797 107.683 65.3797C97.6552 65.3797 89.5257 73.5091 89.5257 83.5373C89.5257 93.5655 97.6552 101.695 107.683 101.695Z" fill="#FFB534"/>
</svg>
