<svg width="1952" height="1069" viewBox="0 0 1952 1069" fill="none" xmlns="http://www.w3.org/2000/svg">
<rect x="308" width="1200" height="800" rx="20" fill="white"/>
<path d="M338 74C338 68.4772 342.477 64 348 64H429.573V144H348C342.477 144 338 139.523 338 134V74Z" fill="#FFB534"/>
<rect x="429.573" y="64" width="91.573" height="80" fill="#FBF6EE"/>
<rect x="521.146" y="64" width="91.573" height="80" fill="#C1F2B0"/>
<path d="M612.719 64H694.292C699.815 64 704.292 68.4772 704.292 74V134C704.292 139.523 699.815 144 694.292 144H612.719V64Z" fill="#65B741"/>
<path d="M725.354 74C725.354 68.4772 729.831 64 735.354 64H816.927V144H735.354C729.831 144 725.354 139.523 725.354 134V74Z" fill="#EEF0E5"/>
<rect x="816.927" y="64" width="91.573" height="80" fill="#B6C4B6"/>
<rect x="908.5" y="64" width="91.573" height="80" fill="#304D30"/>
<path d="M1000.07 64H1081.65C1087.17 64 1091.65 68.4772 1091.65 74V134C1091.65 139.523 1087.17 144 1081.65 144H1000.07V64Z" fill="#163020"/>
<path d="M1112.71 74C1112.71 68.4772 1117.19 64 1122.71 64H1204.28V144H1122.71C1117.19 144 1112.71 139.523 1112.71 134V74Z" fill="#F2F1EB"/>
<rect x="1204.28" y="64" width="91.573" height="80" fill="#EEE7DA"/>
<rect x="1295.85" y="64" width="91.573" height="80" fill="#AFC8AD"/>
<path d="M1387.43 64H1469C1474.52 64 1479 68.4772 1479 74V134C1479 139.523 1474.52 144 1469 144H1387.43V64Z" fill="#88AB8E"/>
<path d="M338 177C338 171.477 342.477 167 348 167H429.573V247H348C342.477 247 338 242.523 338 237V177Z" fill="#F3F8FF"/>
<rect x="429.573" y="167" width="91.573" height="80" fill="#E26EE5"/>
<rect x="521.146" y="167" width="91.573" height="80" fill="#7E30E1"/>
<path d="M612.719 167H694.292C699.815 167 704.292 171.477 704.292 177V237C704.292 242.523 699.815 247 694.292 247H612.719V167Z" fill="#49108B"/>
<path d="M725.354 177C725.354 171.477 729.831 167 735.354 167H816.927V247H735.354C729.831 247 725.354 242.523 725.354 237V177Z" fill="#9BB8CD"/>
<rect x="816.927" y="167" width="91.573" height="80" fill="#FFF7D4"/>
<rect x="908.5" y="167" width="91.573" height="80" fill="#EEC759"/>
<path d="M1000.07 167H1081.65C1087.17 167 1091.65 171.477 1091.65 177V237C1091.65 242.523 1087.17 247 1081.65 247H1000.07V167Z" fill="#B1C381"/>
<path d="M1112.71 177C1112.71 171.477 1117.19 167 1122.71 167H1204.28V247H1122.71C1117.19 247 1112.71 242.523 1112.71 237V177Z" fill="#711DB0"/>
<rect x="1204.28" y="167" width="91.573" height="80" fill="#C21292"/>
<rect x="1295.85" y="167" width="91.573" height="80" fill="#EF4040"/>
<path d="M1387.43 167H1469C1474.52 167 1479 171.477 1479 177V237C1479 242.523 1474.52 247 1469 247H1387.43V167Z" fill="#FFA732"/>
<path d="M338 280C338 274.477 342.477 270 348 270H429.573V350H348C342.477 350 338 345.523 338 340V280Z" fill="#2B2D42"/>
<rect x="429.573" y="270" width="91.573" height="80" fill="#8D99AE"/>
<rect x="521.146" y="270" width="91.573" height="80" fill="#EDF2F4"/>
<path d="M612.719 270H694.292C699.815 270 704.292 274.477 704.292 280V340C704.292 345.523 699.815 350 694.292 350H612.719V270Z" fill="#EF233C"/>
<path d="M725.354 280C725.354 274.477 729.831 270 735.354 270H816.927V350H735.354C729.831 350 725.354 345.523 725.354 340V280Z" fill="black"/>
<rect x="816.927" y="270" width="91.573" height="80" fill="#14213D"/>
<rect x="908.5" y="270" width="91.573" height="80" fill="#FCA311"/>
<path d="M1000.07 270H1081.65C1087.17 270 1091.65 274.477 1091.65 280V340C1091.65 345.523 1087.17 350 1081.65 350H1000.07V270Z" fill="#E5E5E5"/>
<path d="M1112.71 280C1112.71 274.477 1117.19 270 1122.71 270H1204.28V350H1122.71C1117.19 350 1112.71 345.523 1112.71 340V280Z" fill="#003049"/>
<rect x="1204.28" y="270" width="91.573" height="80" fill="#D62828"/>
<rect x="1295.85" y="270" width="91.573" height="80" fill="#F77F00"/>
<path d="M1387.43 270H1469C1474.52 270 1479 274.477 1479 280V340C1479 345.523 1474.52 350 1469 350H1387.43V270Z" fill="#EAE2B7"/>
<path d="M338 383C338 377.477 342.477 373 348 373H429.573V453H348C342.477 453 338 448.523 338 443V383Z" fill="#EDEDE9"/>
<rect x="429.573" y="373" width="91.573" height="80" fill="#D6CCC2"/>
<rect x="521.146" y="373" width="91.573" height="80" fill="#F5EBE0"/>
<path d="M612.719 373H694.292C699.815 373 704.292 377.477 704.292 383V443C704.292 448.523 699.815 453 694.292 453H612.719V373Z" fill="#E3D5CA"/>
<path d="M725.354 383C725.354 377.477 729.831 373 735.354 373H816.927V453H735.354C729.831 453 725.354 448.523 725.354 443V383Z" fill="#D8E2DC"/>
<rect x="816.927" y="373" width="91.573" height="80" fill="#FFE5D9"/>
<rect x="908.5" y="373" width="91.573" height="80" fill="#FFCAD4"/>
<path d="M1000.07 373H1081.65C1087.17 373 1091.65 377.477 1091.65 383V443C1091.65 448.523 1087.17 453 1081.65 453H1000.07V373Z" fill="#F4ACB7"/>
<path d="M1112.71 383C1112.71 377.477 1117.19 373 1122.71 373H1204.28V453H1122.71C1117.19 453 1112.71 448.523 1112.71 443V383Z" fill="#FF90BC"/>
<rect x="1204.28" y="373" width="91.573" height="80" fill="#FFC0D9"/>
<rect x="1295.85" y="373" width="91.573" height="80" fill="#F9F9E0"/>
<path d="M1387.43 373H1469C1474.52 373 1479 377.477 1479 383V443C1479 448.523 1474.52 453 1469 453H1387.43V373Z" fill="#8ACDD7"/>
<path d="M338 486C338 480.477 342.477 476 348 476H429.573V556H348C342.477 556 338 551.523 338 546V486Z" fill="#386641"/>
<rect x="429.573" y="476" width="91.573" height="80" fill="#A7C957"/>
<rect x="521.146" y="476" width="91.573" height="80" fill="#F2E8CF"/>
<path d="M612.719 476H694.292C699.815 476 704.292 480.477 704.292 486V546C704.292 551.523 699.815 556 694.292 556H612.719V476Z" fill="#BC4749"/>
<path d="M725.354 486C725.354 480.477 729.831 476 735.354 476H798.626V556H735.354C729.831 556 725.354 551.523 725.354 546V486Z" fill="#F4F1DE"/>
<rect x="798.626" y="476" width="73.2726" height="80" fill="#E07A5F"/>
<rect x="871.899" y="476" width="73.2726" height="80" fill="#3D405B"/>
<rect x="945.172" y="476" width="73.2726" height="80" fill="#81B29A"/>
<path d="M1017.73 476H1080.73C1086.25 476 1090.73 480.477 1090.73 486V546C1090.73 551.523 1086.25 556 1080.73 556H1017.73V476Z" fill="#F2CC8F"/>
<path d="M1112.71 486C1112.71 480.477 1117.19 476 1122.71 476H1204.28V556H1122.71C1117.19 556 1112.71 551.523 1112.71 546V486Z" fill="#092635"/>
<rect x="1204.28" y="476" width="91.573" height="80" fill="#1B4242"/>
<rect x="1295.85" y="476" width="91.573" height="80" fill="#5C8374"/>
<path d="M1387.43 476H1469C1474.52 476 1479 480.477 1479 486V546C1479 551.523 1474.52 556 1469 556H1387.43V476Z" fill="#9EC8B9"/>
<path d="M338 589C338 583.477 342.477 579 348 579H429.573V659H348C342.477 659 338 654.523 338 649V589Z" fill="#186F65"/>
<rect x="429.573" y="579" width="91.573" height="80" fill="#B5CB99"/>
<rect x="521.146" y="579" width="91.573" height="80" fill="#FCE09B"/>
<path d="M612.719 579H694.292C699.815 579 704.292 583.477 704.292 589V649C704.292 654.523 699.815 659 694.292 659H612.719V579Z" fill="#B2533E"/>
<path d="M725.354 589C725.354 583.477 729.831 579 735.354 579H816.927V659H735.354C729.831 659 725.354 654.523 725.354 649V589Z" fill="#FFE4D6"/>
<rect x="816.927" y="579" width="91.573" height="80" fill="#FACBEA"/>
<rect x="908.5" y="579" width="91.573" height="80" fill="#D988B9"/>
<path d="M1000.07 579H1081.65C1087.17 579 1091.65 583.477 1091.65 589V649C1091.65 654.523 1087.17 659 1081.65 659H1000.07V579Z" fill="#B0578D"/>
<path d="M1112.71 589C1112.71 583.477 1117.19 579 1122.71 579H1204.28V659H1122.71C1117.19 659 1112.71 654.523 1112.71 649V589Z" fill="#7ED7C1"/>
<rect x="1204.28" y="579" width="91.573" height="80" fill="#F0DBAF"/>
<rect x="1295.85" y="579" width="91.573" height="80" fill="#DC8686"/>
<path d="M1387.43 579H1469C1474.52 579 1479 583.477 1479 589V649C1479 654.523 1474.52 659 1469 659H1387.43V579Z" fill="#B06161"/>
<path d="M338 692C338 686.477 342.477 682 348 682H429.573V762H348C342.477 762 338 757.523 338 752V692Z" fill="#7ED7C1"/>
<rect x="429.573" y="682" width="91.573" height="80" fill="#F0DBAF"/>
<rect x="521.146" y="682" width="91.573" height="80" fill="#DC8686"/>
<path d="M612.719 682H694.292C699.815 682 704.292 686.477 704.292 692V752C704.292 757.523 699.815 762 694.292 762H612.719V682Z" fill="#B06161"/>
<path d="M725.354 692C725.354 686.477 729.831 682 735.354 682H816.927V762H735.354C729.831 762 725.354 757.523 725.354 752V692Z" fill="#FFF78A"/>
<rect x="816.927" y="682" width="91.573" height="80" fill="#FFE382"/>
<rect x="908.5" y="682" width="91.573" height="80" fill="#FFC47E"/>
<path d="M1000.07 682H1081.65C1087.17 682 1091.65 686.477 1091.65 692V752C1091.65 757.523 1087.17 762 1081.65 762H1000.07V682Z" fill="#FFAD84"/>
<path d="M1112.71 692C1112.71 686.477 1117.19 682 1122.71 682H1204.28V762H1122.71C1117.19 762 1112.71 757.523 1112.71 752V692Z" fill="#FF8F8F"/>
<rect x="1204.28" y="682" width="91.573" height="80" fill="#EEF296"/>
<rect x="1295.85" y="682" width="91.573" height="80" fill="#9ADE7B"/>
<path d="M1387.43 682H1469C1474.52 682 1479 686.477 1479 692V752C1479 757.523 1474.52 762 1469 762H1387.43V682Z" fill="#508D69"/>
<circle cx="349" cy="21" r="10" fill="#7E30E1"/>
<circle cx="379" cy="21" r="10" fill="#7743DB"/>
<circle cx="409" cy="21" r="10" fill="#FFB534"/>
<rect x="752" y="131" width="1200" height="800" rx="20" fill="white"/>
<path d="M782 205C782 199.477 786.477 195 792 195H873.573V275H792C786.477 275 782 270.523 782 265V205Z" fill="#FFB534"/>
<rect x="873.573" y="195" width="91.573" height="80" fill="#FBF6EE"/>
<rect x="965.146" y="195" width="91.573" height="80" fill="#C1F2B0"/>
<path d="M1056.72 195H1138.29C1143.81 195 1148.29 199.477 1148.29 205V265C1148.29 270.523 1143.82 275 1138.29 275H1056.72V195Z" fill="#65B741"/>
<path d="M1169.35 205C1169.35 199.477 1173.83 195 1179.35 195H1260.93V275H1179.35C1173.83 275 1169.35 270.523 1169.35 265V205Z" fill="#EEF0E5"/>
<rect x="1260.93" y="195" width="91.573" height="80" fill="#B6C4B6"/>
<rect x="1352.5" y="195" width="91.573" height="80" fill="#304D30"/>
<path d="M1444.07 195H1525.65C1531.17 195 1535.65 199.477 1535.65 205V265C1535.65 270.523 1531.17 275 1525.65 275H1444.07V195Z" fill="#163020"/>
<path d="M1556.71 205C1556.71 199.477 1561.19 195 1566.71 195H1648.28V275H1566.71C1561.19 275 1556.71 270.523 1556.71 265V205Z" fill="#F2F1EB"/>
<rect x="1648.28" y="195" width="91.573" height="80" fill="#EEE7DA"/>
<rect x="1739.85" y="195" width="91.573" height="80" fill="#AFC8AD"/>
<path d="M1831.43 195H1913C1918.52 195 1923 199.477 1923 205V265C1923 270.523 1918.52 275 1913 275H1831.43V195Z" fill="#88AB8E"/>
<path d="M782 308C782 302.477 786.477 298 792 298H873.573V378H792C786.477 378 782 373.523 782 368V308Z" fill="#F3F8FF"/>
<rect x="873.573" y="298" width="91.573" height="80" fill="#E26EE5"/>
<rect x="965.146" y="298" width="91.573" height="80" fill="#7E30E1"/>
<path d="M1056.72 298H1138.29C1143.81 298 1148.29 302.477 1148.29 308V368C1148.29 373.523 1143.82 378 1138.29 378H1056.72V298Z" fill="#49108B"/>
<path d="M1169.35 308C1169.35 302.477 1173.83 298 1179.35 298H1260.93V378H1179.35C1173.83 378 1169.35 373.523 1169.35 368V308Z" fill="#9BB8CD"/>
<rect x="1260.93" y="298" width="91.573" height="80" fill="#FFF7D4"/>
<rect x="1352.5" y="298" width="91.573" height="80" fill="#EEC759"/>
<path d="M1444.07 298H1525.65C1531.17 298 1535.65 302.477 1535.65 308V368C1535.65 373.523 1531.17 378 1525.65 378H1444.07V298Z" fill="#B1C381"/>
<path d="M1556.71 308C1556.71 302.477 1561.19 298 1566.71 298H1648.28V378H1566.71C1561.19 378 1556.71 373.523 1556.71 368V308Z" fill="#711DB0"/>
<rect x="1648.28" y="298" width="91.573" height="80" fill="#C21292"/>
<rect x="1739.85" y="298" width="91.573" height="80" fill="#EF4040"/>
<path d="M1831.43 298H1913C1918.52 298 1923 302.477 1923 308V368C1923 373.523 1918.52 378 1913 378H1831.43V298Z" fill="#FFA732"/>
<path d="M782 411C782 405.477 786.477 401 792 401H873.573V481H792C786.477 481 782 476.523 782 471V411Z" fill="#2B2D42"/>
<rect x="873.573" y="401" width="91.573" height="80" fill="#8D99AE"/>
<rect x="965.146" y="401" width="91.573" height="80" fill="#EDF2F4"/>
<path d="M1056.72 401H1138.29C1143.81 401 1148.29 405.477 1148.29 411V471C1148.29 476.523 1143.82 481 1138.29 481H1056.72V401Z" fill="#EF233C"/>
<path d="M1169.35 411C1169.35 405.477 1173.83 401 1179.35 401H1260.93V481H1179.35C1173.83 481 1169.35 476.523 1169.35 471V411Z" fill="black"/>
<rect x="1260.93" y="401" width="91.573" height="80" fill="#14213D"/>
<rect x="1352.5" y="401" width="91.573" height="80" fill="#FCA311"/>
<path d="M1444.07 401H1525.65C1531.17 401 1535.65 405.477 1535.65 411V471C1535.65 476.523 1531.17 481 1525.65 481H1444.07V401Z" fill="#E5E5E5"/>
<path d="M1556.71 411C1556.71 405.477 1561.19 401 1566.71 401H1648.28V481H1566.71C1561.19 481 1556.71 476.523 1556.71 471V411Z" fill="#003049"/>
<rect x="1648.28" y="401" width="91.573" height="80" fill="#D62828"/>
<rect x="1739.85" y="401" width="91.573" height="80" fill="#F77F00"/>
<path d="M1831.43 401H1913C1918.52 401 1923 405.477 1923 411V471C1923 476.523 1918.52 481 1913 481H1831.43V401Z" fill="#EAE2B7"/>
<path d="M782 514C782 508.477 786.477 504 792 504H873.573V584H792C786.477 584 782 579.523 782 574V514Z" fill="#EDEDE9"/>
<rect x="873.573" y="504" width="91.573" height="80" fill="#D6CCC2"/>
<rect x="965.146" y="504" width="91.573" height="80" fill="#F5EBE0"/>
<path d="M1056.72 504H1138.29C1143.81 504 1148.29 508.477 1148.29 514V574C1148.29 579.523 1143.82 584 1138.29 584H1056.72V504Z" fill="#E3D5CA"/>
<path d="M1169.35 514C1169.35 508.477 1173.83 504 1179.35 504H1260.93V584H1179.35C1173.83 584 1169.35 579.523 1169.35 574V514Z" fill="#D8E2DC"/>
<rect x="1260.93" y="504" width="91.573" height="80" fill="#FFE5D9"/>
<rect x="1352.5" y="504" width="91.573" height="80" fill="#FFCAD4"/>
<path d="M1444.07 504H1525.65C1531.17 504 1535.65 508.477 1535.65 514V574C1535.65 579.523 1531.17 584 1525.65 584H1444.07V504Z" fill="#F4ACB7"/>
<path d="M1556.71 514C1556.71 508.477 1561.19 504 1566.71 504H1648.28V584H1566.71C1561.19 584 1556.71 579.523 1556.71 574V514Z" fill="#FF90BC"/>
<rect x="1648.28" y="504" width="91.573" height="80" fill="#FFC0D9"/>
<rect x="1739.85" y="504" width="91.573" height="80" fill="#F9F9E0"/>
<path d="M1831.43 504H1913C1918.52 504 1923 508.477 1923 514V574C1923 579.523 1918.52 584 1913 584H1831.43V504Z" fill="#8ACDD7"/>
<path d="M782 617C782 611.477 786.477 607 792 607H873.573V687H792C786.477 687 782 682.523 782 677V617Z" fill="#386641"/>
<rect x="873.573" y="607" width="91.573" height="80" fill="#A7C957"/>
<rect x="965.146" y="607" width="91.573" height="80" fill="#F2E8CF"/>
<path d="M1056.72 607H1138.29C1143.81 607 1148.29 611.477 1148.29 617V677C1148.29 682.523 1143.82 687 1138.29 687H1056.72V607Z" fill="#BC4749"/>
<path d="M1169.35 617C1169.35 611.477 1173.83 607 1179.35 607H1242.63V687H1179.35C1173.83 687 1169.35 682.523 1169.35 677V617Z" fill="#F4F1DE"/>
<rect x="1242.63" y="607" width="73.2726" height="80" fill="#E07A5F"/>
<rect x="1315.9" y="607" width="73.2726" height="80" fill="#3D405B"/>
<rect x="1389.17" y="607" width="73.2726" height="80" fill="#81B29A"/>
<path d="M1461.73 607H1524.73C1530.25 607 1534.73 611.477 1534.73 617V677C1534.73 682.523 1530.25 687 1524.73 687H1461.73V607Z" fill="#F2CC8F"/>
<path d="M1556.71 617C1556.71 611.477 1561.19 607 1566.71 607H1648.28V687H1566.71C1561.19 687 1556.71 682.523 1556.71 677V617Z" fill="#092635"/>
<rect x="1648.28" y="607" width="91.573" height="80" fill="#1B4242"/>
<rect x="1739.85" y="607" width="91.573" height="80" fill="#5C8374"/>
<path d="M1831.43 607H1913C1918.52 607 1923 611.477 1923 617V677C1923 682.523 1918.52 687 1913 687H1831.43V607Z" fill="#9EC8B9"/>
<path d="M782 720C782 714.477 786.477 710 792 710H873.573V790H792C786.477 790 782 785.523 782 780V720Z" fill="#186F65"/>
<rect x="873.573" y="710" width="91.573" height="80" fill="#B5CB99"/>
<rect x="965.146" y="710" width="91.573" height="80" fill="#FCE09B"/>
<path d="M1056.72 710H1138.29C1143.81 710 1148.29 714.477 1148.29 720V780C1148.29 785.523 1143.82 790 1138.29 790H1056.72V710Z" fill="#B2533E"/>
<path d="M1169.35 720C1169.35 714.477 1173.83 710 1179.35 710H1260.93V790H1179.35C1173.83 790 1169.35 785.523 1169.35 780V720Z" fill="#FFE4D6"/>
<rect x="1260.93" y="710" width="91.573" height="80" fill="#FACBEA"/>
<rect x="1352.5" y="710" width="91.573" height="80" fill="#D988B9"/>
<path d="M1444.07 710H1525.65C1531.17 710 1535.65 714.477 1535.65 720V780C1535.65 785.523 1531.17 790 1525.65 790H1444.07V710Z" fill="#B0578D"/>
<path d="M1556.71 720C1556.71 714.477 1561.19 710 1566.71 710H1648.28V790H1566.71C1561.19 790 1556.71 785.523 1556.71 780V720Z" fill="#7ED7C1"/>
<rect x="1648.28" y="710" width="91.573" height="80" fill="#F0DBAF"/>
<rect x="1739.85" y="710" width="91.573" height="80" fill="#DC8686"/>
<path d="M1831.43 710H1913C1918.52 710 1923 714.477 1923 720V780C1923 785.523 1918.52 790 1913 790H1831.43V710Z" fill="#B06161"/>
<path d="M782 823C782 817.477 786.477 813 792 813H873.573V893H792C786.477 893 782 888.523 782 883V823Z" fill="#7ED7C1"/>
<rect x="873.573" y="813" width="91.573" height="80" fill="#F0DBAF"/>
<rect x="965.146" y="813" width="91.573" height="80" fill="#DC8686"/>
<path d="M1056.72 813H1138.29C1143.81 813 1148.29 817.477 1148.29 823V883C1148.29 888.523 1143.82 893 1138.29 893H1056.72V813Z" fill="#B06161"/>
<path d="M1169.35 823C1169.35 817.477 1173.83 813 1179.35 813H1260.93V893H1179.35C1173.83 893 1169.35 888.523 1169.35 883V823Z" fill="#FFF78A"/>
<rect x="1260.93" y="813" width="91.573" height="80" fill="#FFE382"/>
<rect x="1352.5" y="813" width="91.573" height="80" fill="#FFC47E"/>
<path d="M1444.07 813H1525.65C1531.17 813 1535.65 817.477 1535.65 823V883C1535.65 888.523 1531.17 893 1525.65 893H1444.07V813Z" fill="#FFAD84"/>
<path d="M1556.71 823C1556.71 817.477 1561.19 813 1566.71 813H1648.28V893H1566.71C1561.19 893 1556.71 888.523 1556.71 883V823Z" fill="#FF8F8F"/>
<rect x="1648.28" y="813" width="91.573" height="80" fill="#EEF296"/>
<rect x="1739.85" y="813" width="91.573" height="80" fill="#9ADE7B"/>
<path d="M1831.43 813H1913C1918.52 813 1923 817.477 1923 823V883C1923 888.523 1918.52 893 1913 893H1831.43V813Z" fill="#508D69"/>
<circle cx="793" cy="152" r="10" fill="#7E30E1"/>
<circle cx="823" cy="152" r="10" fill="#7743DB"/>
<circle cx="853" cy="152" r="10" fill="#FFB534"/>
<rect y="269" width="1200" height="800" rx="20" fill="white"/>
<path d="M30 343C30 337.477 34.4772 333 40 333H121.573V413H40C34.4772 413 30 408.523 30 403V343Z" fill="#FFB534"/>
<rect x="121.573" y="333" width="91.573" height="80" fill="#FBF6EE"/>
<rect x="213.146" y="333" width="91.573" height="80" fill="#C1F2B0"/>
<path d="M304.719 333H386.292C391.815 333 396.292 337.477 396.292 343V403C396.292 408.523 391.815 413 386.292 413H304.719V333Z" fill="#65B741"/>
<path d="M417.354 343C417.354 337.477 421.831 333 427.354 333H508.927V413H427.354C421.831 413 417.354 408.523 417.354 403V343Z" fill="#EEF0E5"/>
<rect x="508.927" y="333" width="91.573" height="80" fill="#B6C4B6"/>
<rect x="600.5" y="333" width="91.573" height="80" fill="#304D30"/>
<path d="M692.073 333H773.646C779.169 333 783.646 337.477 783.646 343V403C783.646 408.523 779.169 413 773.646 413H692.073V333Z" fill="#163020"/>
<path d="M804.708 343C804.708 337.477 809.185 333 814.708 333H896.281V413H814.708C809.185 413 804.708 408.523 804.708 403V343Z" fill="#F2F1EB"/>
<rect x="896.281" y="333" width="91.573" height="80" fill="#EEE7DA"/>
<rect x="987.854" y="333" width="91.573" height="80" fill="#AFC8AD"/>
<path d="M1079.43 333H1161C1166.52 333 1171 337.477 1171 343V403C1171 408.523 1166.52 413 1161 413H1079.43V333Z" fill="#88AB8E"/>
<path d="M30 446C30 440.477 34.4772 436 40 436H121.573V516H40C34.4772 516 30 511.523 30 506V446Z" fill="#F3F8FF"/>
<rect x="121.573" y="436" width="91.573" height="80" fill="#E26EE5"/>
<rect x="213.146" y="436" width="91.573" height="80" fill="#7E30E1"/>
<path d="M304.719 436H386.292C391.815 436 396.292 440.477 396.292 446V506C396.292 511.523 391.815 516 386.292 516H304.719V436Z" fill="#49108B"/>
<path d="M417.354 446C417.354 440.477 421.831 436 427.354 436H508.927V516H427.354C421.831 516 417.354 511.523 417.354 506V446Z" fill="#9BB8CD"/>
<rect x="508.927" y="436" width="91.573" height="80" fill="#FFF7D4"/>
<rect x="600.5" y="436" width="91.573" height="80" fill="#EEC759"/>
<path d="M692.073 436H773.646C779.169 436 783.646 440.477 783.646 446V506C783.646 511.523 779.169 516 773.646 516H692.073V436Z" fill="#B1C381"/>
<path d="M804.708 446C804.708 440.477 809.185 436 814.708 436H896.281V516H814.708C809.185 516 804.708 511.523 804.708 506V446Z" fill="#711DB0"/>
<rect x="896.281" y="436" width="91.573" height="80" fill="#C21292"/>
<rect x="987.854" y="436" width="91.573" height="80" fill="#EF4040"/>
<path d="M1079.43 436H1161C1166.52 436 1171 440.477 1171 446V506C1171 511.523 1166.52 516 1161 516H1079.43V436Z" fill="#FFA732"/>
<path d="M30 549C30 543.477 34.4772 539 40 539H121.573V619H40C34.4772 619 30 614.523 30 609V549Z" fill="#2B2D42"/>
<rect x="121.573" y="539" width="91.573" height="80" fill="#8D99AE"/>
<rect x="213.146" y="539" width="91.573" height="80" fill="#EDF2F4"/>
<path d="M304.719 539H386.292C391.815 539 396.292 543.477 396.292 549V609C396.292 614.523 391.815 619 386.292 619H304.719V539Z" fill="#EF233C"/>
<path d="M417.354 549C417.354 543.477 421.831 539 427.354 539H508.927V619H427.354C421.831 619 417.354 614.523 417.354 609V549Z" fill="black"/>
<rect x="508.927" y="539" width="91.573" height="80" fill="#14213D"/>
<rect x="600.5" y="539" width="91.573" height="80" fill="#FCA311"/>
<path d="M692.073 539H773.646C779.169 539 783.646 543.477 783.646 549V609C783.646 614.523 779.169 619 773.646 619H692.073V539Z" fill="#E5E5E5"/>
<path d="M804.708 549C804.708 543.477 809.185 539 814.708 539H896.281V619H814.708C809.185 619 804.708 614.523 804.708 609V549Z" fill="#003049"/>
<rect x="896.281" y="539" width="91.573" height="80" fill="#D62828"/>
<rect x="987.854" y="539" width="91.573" height="80" fill="#F77F00"/>
<path d="M1079.43 539H1161C1166.52 539 1171 543.477 1171 549V609C1171 614.523 1166.52 619 1161 619H1079.43V539Z" fill="#EAE2B7"/>
<path d="M30 652C30 646.477 34.4772 642 40 642H121.573V722H40C34.4772 722 30 717.523 30 712V652Z" fill="#EDEDE9"/>
<rect x="121.573" y="642" width="91.573" height="80" fill="#D6CCC2"/>
<rect x="213.146" y="642" width="91.573" height="80" fill="#F5EBE0"/>
<path d="M304.719 642H386.292C391.815 642 396.292 646.477 396.292 652V712C396.292 717.523 391.815 722 386.292 722H304.719V642Z" fill="#E3D5CA"/>
<path d="M417.354 652C417.354 646.477 421.831 642 427.354 642H508.927V722H427.354C421.831 722 417.354 717.523 417.354 712V652Z" fill="#D8E2DC"/>
<rect x="508.927" y="642" width="91.573" height="80" fill="#FFE5D9"/>
<rect x="600.5" y="642" width="91.573" height="80" fill="#FFCAD4"/>
<path d="M692.073 642H773.646C779.169 642 783.646 646.477 783.646 652V712C783.646 717.523 779.169 722 773.646 722H692.073V642Z" fill="#F4ACB7"/>
<path d="M804.708 652C804.708 646.477 809.185 642 814.708 642H896.281V722H814.708C809.185 722 804.708 717.523 804.708 712V652Z" fill="#FF90BC"/>
<rect x="896.281" y="642" width="91.573" height="80" fill="#FFC0D9"/>
<rect x="987.854" y="642" width="91.573" height="80" fill="#F9F9E0"/>
<path d="M1079.43 642H1161C1166.52 642 1171 646.477 1171 652V712C1171 717.523 1166.52 722 1161 722H1079.43V642Z" fill="#8ACDD7"/>
<path d="M30 755C30 749.477 34.4772 745 40 745H121.573V825H40C34.4772 825 30 820.523 30 815V755Z" fill="#386641"/>
<rect x="121.573" y="745" width="91.573" height="80" fill="#A7C957"/>
<rect x="213.146" y="745" width="91.573" height="80" fill="#F2E8CF"/>
<path d="M304.719 745H386.292C391.815 745 396.292 749.477 396.292 755V815C396.292 820.523 391.815 825 386.292 825H304.719V745Z" fill="#BC4749"/>
<path d="M417.354 755C417.354 749.477 421.831 745 427.354 745H490.626V825H427.354C421.831 825 417.354 820.523 417.354 815V755Z" fill="#F4F1DE"/>
<rect x="490.626" y="745" width="73.2726" height="80" fill="#E07A5F"/>
<rect x="563.899" y="745" width="73.2726" height="80" fill="#3D405B"/>
<rect x="637.172" y="745" width="73.2726" height="80" fill="#81B29A"/>
<path d="M709.727 745H772.727C778.25 745 782.727 749.477 782.727 755V815C782.727 820.523 778.25 825 772.727 825H709.727V745Z" fill="#F2CC8F"/>
<path d="M804.708 755C804.708 749.477 809.185 745 814.708 745H896.281V825H814.708C809.185 825 804.708 820.523 804.708 815V755Z" fill="#092635"/>
<rect x="896.281" y="745" width="91.573" height="80" fill="#1B4242"/>
<rect x="987.854" y="745" width="91.573" height="80" fill="#5C8374"/>
<path d="M1079.43 745H1161C1166.52 745 1171 749.477 1171 755V815C1171 820.523 1166.52 825 1161 825H1079.43V745Z" fill="#9EC8B9"/>
<path d="M30 858C30 852.477 34.4772 848 40 848H121.573V928H40C34.4772 928 30 923.523 30 918V858Z" fill="#186F65"/>
<rect x="121.573" y="848" width="91.573" height="80" fill="#B5CB99"/>
<rect x="213.146" y="848" width="91.573" height="80" fill="#FCE09B"/>
<path d="M304.719 848H386.292C391.815 848 396.292 852.477 396.292 858V918C396.292 923.523 391.815 928 386.292 928H304.719V848Z" fill="#B2533E"/>
<path d="M417.354 858C417.354 852.477 421.831 848 427.354 848H508.927V928H427.354C421.831 928 417.354 923.523 417.354 918V858Z" fill="#FFE4D6"/>
<rect x="508.927" y="848" width="91.573" height="80" fill="#FACBEA"/>
<rect x="600.5" y="848" width="91.573" height="80" fill="#D988B9"/>
<path d="M692.073 848H773.646C779.169 848 783.646 852.477 783.646 858V918C783.646 923.523 779.169 928 773.646 928H692.073V848Z" fill="#B0578D"/>
<path d="M804.708 858C804.708 852.477 809.185 848 814.708 848H896.281V928H814.708C809.185 928 804.708 923.523 804.708 918V858Z" fill="#7ED7C1"/>
<rect x="896.281" y="848" width="91.573" height="80" fill="#F0DBAF"/>
<rect x="987.854" y="848" width="91.573" height="80" fill="#DC8686"/>
<path d="M1079.43 848H1161C1166.52 848 1171 852.477 1171 858V918C1171 923.523 1166.52 928 1161 928H1079.43V848Z" fill="#B06161"/>
<path d="M30 961C30 955.477 34.4772 951 40 951H121.573V1031H40C34.4772 1031 30 1026.52 30 1021V961Z" fill="#7ED7C1"/>
<rect x="121.573" y="951" width="91.573" height="80" fill="#F0DBAF"/>
<rect x="213.146" y="951" width="91.573" height="80" fill="#DC8686"/>
<path d="M304.719 951H386.292C391.815 951 396.292 955.477 396.292 961V1021C396.292 1026.52 391.815 1031 386.292 1031H304.719V951Z" fill="#B06161"/>
<path d="M417.354 961C417.354 955.477 421.831 951 427.354 951H508.927V1031H427.354C421.831 1031 417.354 1026.52 417.354 1021V961Z" fill="#FFF78A"/>
<rect x="508.927" y="951" width="91.573" height="80" fill="#FFE382"/>
<rect x="600.5" y="951" width="91.573" height="80" fill="#FFC47E"/>
<path d="M692.073 951H773.646C779.169 951 783.646 955.477 783.646 961V1021C783.646 1026.52 779.169 1031 773.646 1031H692.073V951Z" fill="#FFAD84"/>
<path d="M804.708 961C804.708 955.477 809.185 951 814.708 951H896.281V1031H814.708C809.185 1031 804.708 1026.52 804.708 1021V961Z" fill="#FF8F8F"/>
<rect x="896.281" y="951" width="91.573" height="80" fill="#EEF296"/>
<rect x="987.854" y="951" width="91.573" height="80" fill="#9ADE7B"/>
<path d="M1079.43 951H1161C1166.52 951 1171 955.477 1171 961V1021C1171 1026.52 1166.52 1031 1161 1031H1079.43V951Z" fill="#508D69"/>
<circle cx="41" cy="290" r="10" fill="#7E30E1"/>
<circle cx="71" cy="290" r="10" fill="#7743DB"/>
<circle cx="101" cy="290" r="10" fill="#FFB534"/>
</svg>
