<svg width="1894" height="1080" viewBox="0 0 1894 1080" fill="none" xmlns="http://www.w3.org/2000/svg">
<rect x="301" width="1200" height="800" rx="20" fill="#101010"/>
<path d="M331 74C331 68.4772 335.477 64 341 64H422.573V144H341C335.477 144 331 139.523 331 134V74Z" fill="#FFB534"/>
<rect x="422.573" y="64" width="91.573" height="80" fill="#FBF6EE"/>
<rect x="514.146" y="64" width="91.573" height="80" fill="#C1F2B0"/>
<path d="M605.719 64H687.292C692.815 64 697.292 68.4772 697.292 74V134C697.292 139.523 692.815 144 687.292 144H605.719V64Z" fill="#65B741"/>
<path d="M718.354 74C718.354 68.4772 722.831 64 728.354 64H809.927V144H728.354C722.831 144 718.354 139.523 718.354 134V74Z" fill="#EEF0E5"/>
<rect x="809.927" y="64" width="91.573" height="80" fill="#B6C4B6"/>
<rect x="901.5" y="64" width="91.573" height="80" fill="#304D30"/>
<path d="M993.073 64H1074.65C1080.17 64 1084.65 68.4772 1084.65 74V134C1084.65 139.523 1080.17 144 1074.65 144H993.073V64Z" fill="#163020"/>
<path d="M1105.71 74C1105.71 68.4772 1110.19 64 1115.71 64H1197.28V144H1115.71C1110.19 144 1105.71 139.523 1105.71 134V74Z" fill="#F2F1EB"/>
<rect x="1197.28" y="64" width="91.573" height="80" fill="#EEE7DA"/>
<rect x="1288.85" y="64" width="91.573" height="80" fill="#AFC8AD"/>
<path d="M1380.43 64H1462C1467.52 64 1472 68.4772 1472 74V134C1472 139.523 1467.52 144 1462 144H1380.43V64Z" fill="#88AB8E"/>
<path d="M331 177C331 171.477 335.477 167 341 167H422.573V247H341C335.477 247 331 242.523 331 237V177Z" fill="#F3F8FF"/>
<rect x="422.573" y="167" width="91.573" height="80" fill="#E26EE5"/>
<rect x="514.146" y="167" width="91.573" height="80" fill="#7E30E1"/>
<path d="M605.719 167H687.292C692.815 167 697.292 171.477 697.292 177V237C697.292 242.523 692.815 247 687.292 247H605.719V167Z" fill="#49108B"/>
<path d="M718.354 177C718.354 171.477 722.831 167 728.354 167H809.927V247H728.354C722.831 247 718.354 242.523 718.354 237V177Z" fill="#9BB8CD"/>
<rect x="809.927" y="167" width="91.573" height="80" fill="#FFF7D4"/>
<rect x="901.5" y="167" width="91.573" height="80" fill="#EEC759"/>
<path d="M993.073 167H1074.65C1080.17 167 1084.65 171.477 1084.65 177V237C1084.65 242.523 1080.17 247 1074.65 247H993.073V167Z" fill="#B1C381"/>
<path d="M1105.71 177C1105.71 171.477 1110.19 167 1115.71 167H1197.28V247H1115.71C1110.19 247 1105.71 242.523 1105.71 237V177Z" fill="#711DB0"/>
<rect x="1197.28" y="167" width="91.573" height="80" fill="#C21292"/>
<rect x="1288.85" y="167" width="91.573" height="80" fill="#EF4040"/>
<path d="M1380.43 167H1462C1467.52 167 1472 171.477 1472 177V237C1472 242.523 1467.52 247 1462 247H1380.43V167Z" fill="#FFA732"/>
<path d="M331 280C331 274.477 335.477 270 341 270H422.573V350H341C335.477 350 331 345.523 331 340V280Z" fill="#2B2D42"/>
<rect x="422.573" y="270" width="91.573" height="80" fill="#8D99AE"/>
<rect x="514.146" y="270" width="91.573" height="80" fill="#EDF2F4"/>
<path d="M605.719 270H687.292C692.815 270 697.292 274.477 697.292 280V340C697.292 345.523 692.815 350 687.292 350H605.719V270Z" fill="#EF233C"/>
<path d="M718.354 280C718.354 274.477 722.831 270 728.354 270H809.927V350H728.354C722.831 350 718.354 345.523 718.354 340V280Z" fill="black"/>
<rect x="809.927" y="270" width="91.573" height="80" fill="#14213D"/>
<rect x="901.5" y="270" width="91.573" height="80" fill="#FCA311"/>
<path d="M993.073 270H1074.65C1080.17 270 1084.65 274.477 1084.65 280V340C1084.65 345.523 1080.17 350 1074.65 350H993.073V270Z" fill="#E5E5E5"/>
<path d="M1105.71 280C1105.71 274.477 1110.19 270 1115.71 270H1197.28V350H1115.71C1110.19 350 1105.71 345.523 1105.71 340V280Z" fill="#003049"/>
<rect x="1197.28" y="270" width="91.573" height="80" fill="#D62828"/>
<rect x="1288.85" y="270" width="91.573" height="80" fill="#F77F00"/>
<path d="M1380.43 270H1462C1467.52 270 1472 274.477 1472 280V340C1472 345.523 1467.52 350 1462 350H1380.43V270Z" fill="#EAE2B7"/>
<path d="M331 383C331 377.477 335.477 373 341 373H422.573V453H341C335.477 453 331 448.523 331 443V383Z" fill="#EDEDE9"/>
<rect x="422.573" y="373" width="91.573" height="80" fill="#D6CCC2"/>
<rect x="514.146" y="373" width="91.573" height="80" fill="#F5EBE0"/>
<path d="M605.719 373H687.292C692.815 373 697.292 377.477 697.292 383V443C697.292 448.523 692.815 453 687.292 453H605.719V373Z" fill="#E3D5CA"/>
<path d="M718.354 383C718.354 377.477 722.831 373 728.354 373H809.927V453H728.354C722.831 453 718.354 448.523 718.354 443V383Z" fill="#D8E2DC"/>
<rect x="809.927" y="373" width="91.573" height="80" fill="#FFE5D9"/>
<rect x="901.5" y="373" width="91.573" height="80" fill="#FFCAD4"/>
<path d="M993.073 373H1074.65C1080.17 373 1084.65 377.477 1084.65 383V443C1084.65 448.523 1080.17 453 1074.65 453H993.073V373Z" fill="#F4ACB7"/>
<path d="M1105.71 383C1105.71 377.477 1110.19 373 1115.71 373H1197.28V453H1115.71C1110.19 453 1105.71 448.523 1105.71 443V383Z" fill="#FF90BC"/>
<rect x="1197.28" y="373" width="91.573" height="80" fill="#FFC0D9"/>
<rect x="1288.85" y="373" width="91.573" height="80" fill="#F9F9E0"/>
<path d="M1380.43 373H1462C1467.52 373 1472 377.477 1472 383V443C1472 448.523 1467.52 453 1462 453H1380.43V373Z" fill="#8ACDD7"/>
<path d="M331 486C331 480.477 335.477 476 341 476H422.573V556H341C335.477 556 331 551.523 331 546V486Z" fill="#386641"/>
<rect x="422.573" y="476" width="91.573" height="80" fill="#A7C957"/>
<rect x="514.146" y="476" width="91.573" height="80" fill="#F2E8CF"/>
<path d="M605.719 476H687.292C692.815 476 697.292 480.477 697.292 486V546C697.292 551.523 692.815 556 687.292 556H605.719V476Z" fill="#BC4749"/>
<path d="M718.354 486C718.354 480.477 722.831 476 728.354 476H791.626V556H728.354C722.831 556 718.354 551.523 718.354 546V486Z" fill="#F4F1DE"/>
<rect x="791.626" y="476" width="73.2726" height="80" fill="#E07A5F"/>
<rect x="864.899" y="476" width="73.2726" height="80" fill="#3D405B"/>
<rect x="938.172" y="476" width="73.2726" height="80" fill="#81B29A"/>
<path d="M1010.73 476H1073.73C1079.25 476 1083.73 480.477 1083.73 486V546C1083.73 551.523 1079.25 556 1073.73 556H1010.73V476Z" fill="#F2CC8F"/>
<path d="M1105.71 486C1105.71 480.477 1110.19 476 1115.71 476H1197.28V556H1115.71C1110.19 556 1105.71 551.523 1105.71 546V486Z" fill="#092635"/>
<rect x="1197.28" y="476" width="91.573" height="80" fill="#1B4242"/>
<rect x="1288.85" y="476" width="91.573" height="80" fill="#5C8374"/>
<path d="M1380.43 476H1462C1467.52 476 1472 480.477 1472 486V546C1472 551.523 1467.52 556 1462 556H1380.43V476Z" fill="#9EC8B9"/>
<path d="M331 589C331 583.477 335.477 579 341 579H422.573V659H341C335.477 659 331 654.523 331 649V589Z" fill="#186F65"/>
<rect x="422.573" y="579" width="91.573" height="80" fill="#B5CB99"/>
<rect x="514.146" y="579" width="91.573" height="80" fill="#FCE09B"/>
<path d="M605.719 579H687.292C692.815 579 697.292 583.477 697.292 589V649C697.292 654.523 692.815 659 687.292 659H605.719V579Z" fill="#B2533E"/>
<path d="M718.354 589C718.354 583.477 722.831 579 728.354 579H809.927V659H728.354C722.831 659 718.354 654.523 718.354 649V589Z" fill="#FFE4D6"/>
<rect x="809.927" y="579" width="91.573" height="80" fill="#FACBEA"/>
<rect x="901.5" y="579" width="91.573" height="80" fill="#D988B9"/>
<path d="M993.073 579H1074.65C1080.17 579 1084.65 583.477 1084.65 589V649C1084.65 654.523 1080.17 659 1074.65 659H993.073V579Z" fill="#B0578D"/>
<path d="M1105.71 589C1105.71 583.477 1110.19 579 1115.71 579H1197.28V659H1115.71C1110.19 659 1105.71 654.523 1105.71 649V589Z" fill="#7ED7C1"/>
<rect x="1197.28" y="579" width="91.573" height="80" fill="#F0DBAF"/>
<rect x="1288.85" y="579" width="91.573" height="80" fill="#DC8686"/>
<path d="M1380.43 579H1462C1467.52 579 1472 583.477 1472 589V649C1472 654.523 1467.52 659 1462 659H1380.43V579Z" fill="#B06161"/>
<path d="M331 692C331 686.477 335.477 682 341 682H422.573V762H341C335.477 762 331 757.523 331 752V692Z" fill="#7ED7C1"/>
<rect x="422.573" y="682" width="91.573" height="80" fill="#F0DBAF"/>
<rect x="514.146" y="682" width="91.573" height="80" fill="#DC8686"/>
<path d="M605.719 682H687.292C692.815 682 697.292 686.477 697.292 692V752C697.292 757.523 692.815 762 687.292 762H605.719V682Z" fill="#B06161"/>
<path d="M718.354 692C718.354 686.477 722.831 682 728.354 682H809.927V762H728.354C722.831 762 718.354 757.523 718.354 752V692Z" fill="#FFF78A"/>
<rect x="809.927" y="682" width="91.573" height="80" fill="#FFE382"/>
<rect x="901.5" y="682" width="91.573" height="80" fill="#FFC47E"/>
<path d="M993.073 682H1074.65C1080.17 682 1084.65 686.477 1084.65 692V752C1084.65 757.523 1080.17 762 1074.65 762H993.073V682Z" fill="#FFAD84"/>
<path d="M1105.71 692C1105.71 686.477 1110.19 682 1115.71 682H1197.28V762H1115.71C1110.19 762 1105.71 757.523 1105.71 752V692Z" fill="#FF8F8F"/>
<rect x="1197.28" y="682" width="91.573" height="80" fill="#EEF296"/>
<rect x="1288.85" y="682" width="91.573" height="80" fill="#9ADE7B"/>
<path d="M1380.43 682H1462C1467.52 682 1472 686.477 1472 692V752C1472 757.523 1467.52 762 1462 762H1380.43V682Z" fill="#508D69"/>
<circle cx="342" cy="21" r="10" fill="#7E30E1"/>
<circle cx="372" cy="21" r="10" fill="#7743DB"/>
<circle cx="402" cy="21" r="10" fill="#FFB534"/>
<rect x="694" y="134" width="1200" height="800" rx="20" fill="#101010"/>
<path d="M724 208C724 202.477 728.477 198 734 198H815.573V278H734C728.477 278 724 273.523 724 268V208Z" fill="#FFB534"/>
<rect x="815.573" y="198" width="91.573" height="80" fill="#FBF6EE"/>
<rect x="907.146" y="198" width="91.573" height="80" fill="#C1F2B0"/>
<path d="M998.719 198H1080.29C1085.81 198 1090.29 202.477 1090.29 208V268C1090.29 273.523 1085.82 278 1080.29 278H998.719V198Z" fill="#65B741"/>
<path d="M1111.35 208C1111.35 202.477 1115.83 198 1121.35 198H1202.93V278H1121.35C1115.83 278 1111.35 273.523 1111.35 268V208Z" fill="#EEF0E5"/>
<rect x="1202.93" y="198" width="91.573" height="80" fill="#B6C4B6"/>
<rect x="1294.5" y="198" width="91.573" height="80" fill="#304D30"/>
<path d="M1386.07 198H1467.65C1473.17 198 1477.65 202.477 1477.65 208V268C1477.65 273.523 1473.17 278 1467.65 278H1386.07V198Z" fill="#163020"/>
<path d="M1498.71 208C1498.71 202.477 1503.19 198 1508.71 198H1590.28V278H1508.71C1503.19 278 1498.71 273.523 1498.71 268V208Z" fill="#F2F1EB"/>
<rect x="1590.28" y="198" width="91.573" height="80" fill="#EEE7DA"/>
<rect x="1681.85" y="198" width="91.573" height="80" fill="#AFC8AD"/>
<path d="M1773.43 198H1855C1860.52 198 1865 202.477 1865 208V268C1865 273.523 1860.52 278 1855 278H1773.43V198Z" fill="#88AB8E"/>
<path d="M724 311C724 305.477 728.477 301 734 301H815.573V381H734C728.477 381 724 376.523 724 371V311Z" fill="#F3F8FF"/>
<rect x="815.573" y="301" width="91.573" height="80" fill="#E26EE5"/>
<rect x="907.146" y="301" width="91.573" height="80" fill="#7E30E1"/>
<path d="M998.719 301H1080.29C1085.81 301 1090.29 305.477 1090.29 311V371C1090.29 376.523 1085.82 381 1080.29 381H998.719V301Z" fill="#49108B"/>
<path d="M1111.35 311C1111.35 305.477 1115.83 301 1121.35 301H1202.93V381H1121.35C1115.83 381 1111.35 376.523 1111.35 371V311Z" fill="#9BB8CD"/>
<rect x="1202.93" y="301" width="91.573" height="80" fill="#FFF7D4"/>
<rect x="1294.5" y="301" width="91.573" height="80" fill="#EEC759"/>
<path d="M1386.07 301H1467.65C1473.17 301 1477.65 305.477 1477.65 311V371C1477.65 376.523 1473.17 381 1467.65 381H1386.07V301Z" fill="#B1C381"/>
<path d="M1498.71 311C1498.71 305.477 1503.19 301 1508.71 301H1590.28V381H1508.71C1503.19 381 1498.71 376.523 1498.71 371V311Z" fill="#711DB0"/>
<rect x="1590.28" y="301" width="91.573" height="80" fill="#C21292"/>
<rect x="1681.85" y="301" width="91.573" height="80" fill="#EF4040"/>
<path d="M1773.43 301H1855C1860.52 301 1865 305.477 1865 311V371C1865 376.523 1860.52 381 1855 381H1773.43V301Z" fill="#FFA732"/>
<path d="M724 414C724 408.477 728.477 404 734 404H815.573V484H734C728.477 484 724 479.523 724 474V414Z" fill="#2B2D42"/>
<rect x="815.573" y="404" width="91.573" height="80" fill="#8D99AE"/>
<rect x="907.146" y="404" width="91.573" height="80" fill="#EDF2F4"/>
<path d="M998.719 404H1080.29C1085.81 404 1090.29 408.477 1090.29 414V474C1090.29 479.523 1085.82 484 1080.29 484H998.719V404Z" fill="#EF233C"/>
<path d="M1111.35 414C1111.35 408.477 1115.83 404 1121.35 404H1202.93V484H1121.35C1115.83 484 1111.35 479.523 1111.35 474V414Z" fill="black"/>
<rect x="1202.93" y="404" width="91.573" height="80" fill="#14213D"/>
<rect x="1294.5" y="404" width="91.573" height="80" fill="#FCA311"/>
<path d="M1386.07 404H1467.65C1473.17 404 1477.65 408.477 1477.65 414V474C1477.65 479.523 1473.17 484 1467.65 484H1386.07V404Z" fill="#E5E5E5"/>
<path d="M1498.71 414C1498.71 408.477 1503.19 404 1508.71 404H1590.28V484H1508.71C1503.19 484 1498.71 479.523 1498.71 474V414Z" fill="#003049"/>
<rect x="1590.28" y="404" width="91.573" height="80" fill="#D62828"/>
<rect x="1681.85" y="404" width="91.573" height="80" fill="#F77F00"/>
<path d="M1773.43 404H1855C1860.52 404 1865 408.477 1865 414V474C1865 479.523 1860.52 484 1855 484H1773.43V404Z" fill="#EAE2B7"/>
<path d="M724 517C724 511.477 728.477 507 734 507H815.573V587H734C728.477 587 724 582.523 724 577V517Z" fill="#EDEDE9"/>
<rect x="815.573" y="507" width="91.573" height="80" fill="#D6CCC2"/>
<rect x="907.146" y="507" width="91.573" height="80" fill="#F5EBE0"/>
<path d="M998.719 507H1080.29C1085.81 507 1090.29 511.477 1090.29 517V577C1090.29 582.523 1085.82 587 1080.29 587H998.719V507Z" fill="#E3D5CA"/>
<path d="M1111.35 517C1111.35 511.477 1115.83 507 1121.35 507H1202.93V587H1121.35C1115.83 587 1111.35 582.523 1111.35 577V517Z" fill="#D8E2DC"/>
<rect x="1202.93" y="507" width="91.573" height="80" fill="#FFE5D9"/>
<rect x="1294.5" y="507" width="91.573" height="80" fill="#FFCAD4"/>
<path d="M1386.07 507H1467.65C1473.17 507 1477.65 511.477 1477.65 517V577C1477.65 582.523 1473.17 587 1467.65 587H1386.07V507Z" fill="#F4ACB7"/>
<path d="M1498.71 517C1498.71 511.477 1503.19 507 1508.71 507H1590.28V587H1508.71C1503.19 587 1498.71 582.523 1498.71 577V517Z" fill="#FF90BC"/>
<rect x="1590.28" y="507" width="91.573" height="80" fill="#FFC0D9"/>
<rect x="1681.85" y="507" width="91.573" height="80" fill="#F9F9E0"/>
<path d="M1773.43 507H1855C1860.52 507 1865 511.477 1865 517V577C1865 582.523 1860.52 587 1855 587H1773.43V507Z" fill="#8ACDD7"/>
<path d="M724 620C724 614.477 728.477 610 734 610H815.573V690H734C728.477 690 724 685.523 724 680V620Z" fill="#386641"/>
<rect x="815.573" y="610" width="91.573" height="80" fill="#A7C957"/>
<rect x="907.146" y="610" width="91.573" height="80" fill="#F2E8CF"/>
<path d="M998.719 610H1080.29C1085.81 610 1090.29 614.477 1090.29 620V680C1090.29 685.523 1085.82 690 1080.29 690H998.719V610Z" fill="#BC4749"/>
<path d="M1111.35 620C1111.35 614.477 1115.83 610 1121.35 610H1184.63V690H1121.35C1115.83 690 1111.35 685.523 1111.35 680V620Z" fill="#F4F1DE"/>
<rect x="1184.63" y="610" width="73.2726" height="80" fill="#E07A5F"/>
<rect x="1257.9" y="610" width="73.2726" height="80" fill="#3D405B"/>
<rect x="1331.17" y="610" width="73.2726" height="80" fill="#81B29A"/>
<path d="M1403.73 610H1466.73C1472.25 610 1476.73 614.477 1476.73 620V680C1476.73 685.523 1472.25 690 1466.73 690H1403.73V610Z" fill="#F2CC8F"/>
<path d="M1498.71 620C1498.71 614.477 1503.19 610 1508.71 610H1590.28V690H1508.71C1503.19 690 1498.71 685.523 1498.71 680V620Z" fill="#092635"/>
<rect x="1590.28" y="610" width="91.573" height="80" fill="#1B4242"/>
<rect x="1681.85" y="610" width="91.573" height="80" fill="#5C8374"/>
<path d="M1773.43 610H1855C1860.52 610 1865 614.477 1865 620V680C1865 685.523 1860.52 690 1855 690H1773.43V610Z" fill="#9EC8B9"/>
<path d="M724 723C724 717.477 728.477 713 734 713H815.573V793H734C728.477 793 724 788.523 724 783V723Z" fill="#186F65"/>
<rect x="815.573" y="713" width="91.573" height="80" fill="#B5CB99"/>
<rect x="907.146" y="713" width="91.573" height="80" fill="#FCE09B"/>
<path d="M998.719 713H1080.29C1085.81 713 1090.29 717.477 1090.29 723V783C1090.29 788.523 1085.82 793 1080.29 793H998.719V713Z" fill="#B2533E"/>
<path d="M1111.35 723C1111.35 717.477 1115.83 713 1121.35 713H1202.93V793H1121.35C1115.83 793 1111.35 788.523 1111.35 783V723Z" fill="#FFE4D6"/>
<rect x="1202.93" y="713" width="91.573" height="80" fill="#FACBEA"/>
<rect x="1294.5" y="713" width="91.573" height="80" fill="#D988B9"/>
<path d="M1386.07 713H1467.65C1473.17 713 1477.65 717.477 1477.65 723V783C1477.65 788.523 1473.17 793 1467.65 793H1386.07V713Z" fill="#B0578D"/>
<path d="M1498.71 723C1498.71 717.477 1503.19 713 1508.71 713H1590.28V793H1508.71C1503.19 793 1498.71 788.523 1498.71 783V723Z" fill="#7ED7C1"/>
<rect x="1590.28" y="713" width="91.573" height="80" fill="#F0DBAF"/>
<rect x="1681.85" y="713" width="91.573" height="80" fill="#DC8686"/>
<path d="M1773.43 713H1855C1860.52 713 1865 717.477 1865 723V783C1865 788.523 1860.52 793 1855 793H1773.43V713Z" fill="#B06161"/>
<path d="M724 826C724 820.477 728.477 816 734 816H815.573V896H734C728.477 896 724 891.523 724 886V826Z" fill="#7ED7C1"/>
<rect x="815.573" y="816" width="91.573" height="80" fill="#F0DBAF"/>
<rect x="907.146" y="816" width="91.573" height="80" fill="#DC8686"/>
<path d="M998.719 816H1080.29C1085.81 816 1090.29 820.477 1090.29 826V886C1090.29 891.523 1085.82 896 1080.29 896H998.719V816Z" fill="#B06161"/>
<path d="M1111.35 826C1111.35 820.477 1115.83 816 1121.35 816H1202.93V896H1121.35C1115.83 896 1111.35 891.523 1111.35 886V826Z" fill="#FFF78A"/>
<rect x="1202.93" y="816" width="91.573" height="80" fill="#FFE382"/>
<rect x="1294.5" y="816" width="91.573" height="80" fill="#FFC47E"/>
<path d="M1386.07 816H1467.65C1473.17 816 1477.65 820.477 1477.65 826V886C1477.65 891.523 1473.17 896 1467.65 896H1386.07V816Z" fill="#FFAD84"/>
<path d="M1498.71 826C1498.71 820.477 1503.19 816 1508.71 816H1590.28V896H1508.71C1503.19 896 1498.71 891.523 1498.71 886V826Z" fill="#FF8F8F"/>
<rect x="1590.28" y="816" width="91.573" height="80" fill="#EEF296"/>
<rect x="1681.85" y="816" width="91.573" height="80" fill="#9ADE7B"/>
<path d="M1773.43 816H1855C1860.52 816 1865 820.477 1865 826V886C1865 891.523 1860.52 896 1855 896H1773.43V816Z" fill="#508D69"/>
<circle cx="735" cy="155" r="10" fill="#7E30E1"/>
<circle cx="765" cy="155" r="10" fill="#7743DB"/>
<circle cx="795" cy="155" r="10" fill="#FFB534"/>
<rect y="280" width="1200" height="800" rx="20" fill="#101010"/>
<path d="M30 354C30 348.477 34.4772 344 40 344H121.573V424H40C34.4772 424 30 419.523 30 414V354Z" fill="#FFB534"/>
<rect x="121.573" y="344" width="91.573" height="80" fill="#FBF6EE"/>
<rect x="213.146" y="344" width="91.573" height="80" fill="#C1F2B0"/>
<path d="M304.719 344H386.292C391.815 344 396.292 348.477 396.292 354V414C396.292 419.523 391.815 424 386.292 424H304.719V344Z" fill="#65B741"/>
<path d="M417.354 354C417.354 348.477 421.831 344 427.354 344H508.927V424H427.354C421.831 424 417.354 419.523 417.354 414V354Z" fill="#EEF0E5"/>
<rect x="508.927" y="344" width="91.573" height="80" fill="#B6C4B6"/>
<rect x="600.5" y="344" width="91.573" height="80" fill="#304D30"/>
<path d="M692.073 344H773.646C779.169 344 783.646 348.477 783.646 354V414C783.646 419.523 779.169 424 773.646 424H692.073V344Z" fill="#163020"/>
<path d="M804.708 354C804.708 348.477 809.185 344 814.708 344H896.281V424H814.708C809.185 424 804.708 419.523 804.708 414V354Z" fill="#F2F1EB"/>
<rect x="896.281" y="344" width="91.573" height="80" fill="#EEE7DA"/>
<rect x="987.854" y="344" width="91.573" height="80" fill="#AFC8AD"/>
<path d="M1079.43 344H1161C1166.52 344 1171 348.477 1171 354V414C1171 419.523 1166.52 424 1161 424H1079.43V344Z" fill="#88AB8E"/>
<path d="M30 457C30 451.477 34.4772 447 40 447H121.573V527H40C34.4772 527 30 522.523 30 517V457Z" fill="#F3F8FF"/>
<rect x="121.573" y="447" width="91.573" height="80" fill="#E26EE5"/>
<rect x="213.146" y="447" width="91.573" height="80" fill="#7E30E1"/>
<path d="M304.719 447H386.292C391.815 447 396.292 451.477 396.292 457V517C396.292 522.523 391.815 527 386.292 527H304.719V447Z" fill="#49108B"/>
<path d="M417.354 457C417.354 451.477 421.831 447 427.354 447H508.927V527H427.354C421.831 527 417.354 522.523 417.354 517V457Z" fill="#9BB8CD"/>
<rect x="508.927" y="447" width="91.573" height="80" fill="#FFF7D4"/>
<rect x="600.5" y="447" width="91.573" height="80" fill="#EEC759"/>
<path d="M692.073 447H773.646C779.169 447 783.646 451.477 783.646 457V517C783.646 522.523 779.169 527 773.646 527H692.073V447Z" fill="#B1C381"/>
<path d="M804.708 457C804.708 451.477 809.185 447 814.708 447H896.281V527H814.708C809.185 527 804.708 522.523 804.708 517V457Z" fill="#711DB0"/>
<rect x="896.281" y="447" width="91.573" height="80" fill="#C21292"/>
<rect x="987.854" y="447" width="91.573" height="80" fill="#EF4040"/>
<path d="M1079.43 447H1161C1166.52 447 1171 451.477 1171 457V517C1171 522.523 1166.52 527 1161 527H1079.43V447Z" fill="#FFA732"/>
<path d="M30 560C30 554.477 34.4772 550 40 550H121.573V630H40C34.4772 630 30 625.523 30 620V560Z" fill="#2B2D42"/>
<rect x="121.573" y="550" width="91.573" height="80" fill="#8D99AE"/>
<rect x="213.146" y="550" width="91.573" height="80" fill="#EDF2F4"/>
<path d="M304.719 550H386.292C391.815 550 396.292 554.477 396.292 560V620C396.292 625.523 391.815 630 386.292 630H304.719V550Z" fill="#EF233C"/>
<path d="M417.354 560C417.354 554.477 421.831 550 427.354 550H508.927V630H427.354C421.831 630 417.354 625.523 417.354 620V560Z" fill="black"/>
<rect x="508.927" y="550" width="91.573" height="80" fill="#14213D"/>
<rect x="600.5" y="550" width="91.573" height="80" fill="#FCA311"/>
<path d="M692.073 550H773.646C779.169 550 783.646 554.477 783.646 560V620C783.646 625.523 779.169 630 773.646 630H692.073V550Z" fill="#E5E5E5"/>
<path d="M804.708 560C804.708 554.477 809.185 550 814.708 550H896.281V630H814.708C809.185 630 804.708 625.523 804.708 620V560Z" fill="#003049"/>
<rect x="896.281" y="550" width="91.573" height="80" fill="#D62828"/>
<rect x="987.854" y="550" width="91.573" height="80" fill="#F77F00"/>
<path d="M1079.43 550H1161C1166.52 550 1171 554.477 1171 560V620C1171 625.523 1166.52 630 1161 630H1079.43V550Z" fill="#EAE2B7"/>
<path d="M30 663C30 657.477 34.4772 653 40 653H121.573V733H40C34.4772 733 30 728.523 30 723V663Z" fill="#EDEDE9"/>
<rect x="121.573" y="653" width="91.573" height="80" fill="#D6CCC2"/>
<rect x="213.146" y="653" width="91.573" height="80" fill="#F5EBE0"/>
<path d="M304.719 653H386.292C391.815 653 396.292 657.477 396.292 663V723C396.292 728.523 391.815 733 386.292 733H304.719V653Z" fill="#E3D5CA"/>
<path d="M417.354 663C417.354 657.477 421.831 653 427.354 653H508.927V733H427.354C421.831 733 417.354 728.523 417.354 723V663Z" fill="#D8E2DC"/>
<rect x="508.927" y="653" width="91.573" height="80" fill="#FFE5D9"/>
<rect x="600.5" y="653" width="91.573" height="80" fill="#FFCAD4"/>
<path d="M692.073 653H773.646C779.169 653 783.646 657.477 783.646 663V723C783.646 728.523 779.169 733 773.646 733H692.073V653Z" fill="#F4ACB7"/>
<path d="M804.708 663C804.708 657.477 809.185 653 814.708 653H896.281V733H814.708C809.185 733 804.708 728.523 804.708 723V663Z" fill="#FF90BC"/>
<rect x="896.281" y="653" width="91.573" height="80" fill="#FFC0D9"/>
<rect x="987.854" y="653" width="91.573" height="80" fill="#F9F9E0"/>
<path d="M1079.43 653H1161C1166.52 653 1171 657.477 1171 663V723C1171 728.523 1166.52 733 1161 733H1079.43V653Z" fill="#8ACDD7"/>
<path d="M30 766C30 760.477 34.4772 756 40 756H121.573V836H40C34.4772 836 30 831.523 30 826V766Z" fill="#386641"/>
<rect x="121.573" y="756" width="91.573" height="80" fill="#A7C957"/>
<rect x="213.146" y="756" width="91.573" height="80" fill="#F2E8CF"/>
<path d="M304.719 756H386.292C391.815 756 396.292 760.477 396.292 766V826C396.292 831.523 391.815 836 386.292 836H304.719V756Z" fill="#BC4749"/>
<path d="M417.354 766C417.354 760.477 421.831 756 427.354 756H490.626V836H427.354C421.831 836 417.354 831.523 417.354 826V766Z" fill="#F4F1DE"/>
<rect x="490.626" y="756" width="73.2726" height="80" fill="#E07A5F"/>
<rect x="563.899" y="756" width="73.2726" height="80" fill="#3D405B"/>
<rect x="637.172" y="756" width="73.2726" height="80" fill="#81B29A"/>
<path d="M709.727 756H772.727C778.25 756 782.727 760.477 782.727 766V826C782.727 831.523 778.25 836 772.727 836H709.727V756Z" fill="#F2CC8F"/>
<path d="M804.708 766C804.708 760.477 809.185 756 814.708 756H896.281V836H814.708C809.185 836 804.708 831.523 804.708 826V766Z" fill="#092635"/>
<rect x="896.281" y="756" width="91.573" height="80" fill="#1B4242"/>
<rect x="987.854" y="756" width="91.573" height="80" fill="#5C8374"/>
<path d="M1079.43 756H1161C1166.52 756 1171 760.477 1171 766V826C1171 831.523 1166.52 836 1161 836H1079.43V756Z" fill="#9EC8B9"/>
<path d="M30 869C30 863.477 34.4772 859 40 859H121.573V939H40C34.4772 939 30 934.523 30 929V869Z" fill="#186F65"/>
<rect x="121.573" y="859" width="91.573" height="80" fill="#B5CB99"/>
<rect x="213.146" y="859" width="91.573" height="80" fill="#FCE09B"/>
<path d="M304.719 859H386.292C391.815 859 396.292 863.477 396.292 869V929C396.292 934.523 391.815 939 386.292 939H304.719V859Z" fill="#B2533E"/>
<path d="M417.354 869C417.354 863.477 421.831 859 427.354 859H508.927V939H427.354C421.831 939 417.354 934.523 417.354 929V869Z" fill="#FFE4D6"/>
<rect x="508.927" y="859" width="91.573" height="80" fill="#FACBEA"/>
<rect x="600.5" y="859" width="91.573" height="80" fill="#D988B9"/>
<path d="M692.073 859H773.646C779.169 859 783.646 863.477 783.646 869V929C783.646 934.523 779.169 939 773.646 939H692.073V859Z" fill="#B0578D"/>
<path d="M804.708 869C804.708 863.477 809.185 859 814.708 859H896.281V939H814.708C809.185 939 804.708 934.523 804.708 929V869Z" fill="#7ED7C1"/>
<rect x="896.281" y="859" width="91.573" height="80" fill="#F0DBAF"/>
<rect x="987.854" y="859" width="91.573" height="80" fill="#DC8686"/>
<path d="M1079.43 859H1161C1166.52 859 1171 863.477 1171 869V929C1171 934.523 1166.52 939 1161 939H1079.43V859Z" fill="#B06161"/>
<path d="M30 972C30 966.477 34.4772 962 40 962H121.573V1042H40C34.4772 1042 30 1037.52 30 1032V972Z" fill="#7ED7C1"/>
<rect x="121.573" y="962" width="91.573" height="80" fill="#F0DBAF"/>
<rect x="213.146" y="962" width="91.573" height="80" fill="#DC8686"/>
<path d="M304.719 962H386.292C391.815 962 396.292 966.477 396.292 972V1032C396.292 1037.52 391.815 1042 386.292 1042H304.719V962Z" fill="#B06161"/>
<path d="M417.354 972C417.354 966.477 421.831 962 427.354 962H508.927V1042H427.354C421.831 1042 417.354 1037.52 417.354 1032V972Z" fill="#FFF78A"/>
<rect x="508.927" y="962" width="91.573" height="80" fill="#FFE382"/>
<rect x="600.5" y="962" width="91.573" height="80" fill="#FFC47E"/>
<path d="M692.073 962H773.646C779.169 962 783.646 966.477 783.646 972V1032C783.646 1037.52 779.169 1042 773.646 1042H692.073V962Z" fill="#FFAD84"/>
<path d="M804.708 972C804.708 966.477 809.185 962 814.708 962H896.281V1042H814.708C809.185 1042 804.708 1037.52 804.708 1032V972Z" fill="#FF8F8F"/>
<rect x="896.281" y="962" width="91.573" height="80" fill="#EEF296"/>
<rect x="987.854" y="962" width="91.573" height="80" fill="#9ADE7B"/>
<path d="M1079.43 962H1161C1166.52 962 1171 966.477 1171 972V1032C1171 1037.52 1166.52 1042 1161 1042H1079.43V962Z" fill="#508D69"/>
<circle cx="41" cy="301" r="10" fill="#7E30E1"/>
<circle cx="71" cy="301" r="10" fill="#7743DB"/>
<circle cx="101" cy="301" r="10" fill="#FFB534"/>
</svg>
