<svg width="1200" height="630" viewBox="0 0 1200 630" fill="none" xmlns="http://www.w3.org/2000/svg">
<rect width="1200" height="630" rx="30" fill="white"/>
<path d="M1007.5 266.009H913C910.239 266.009 908 268.247 908 271.009V274.842C908 276.338 908.67 277.755 909.826 278.705L920.247 287.265C921.141 287.999 922.263 288.401 923.42 288.401H1007.5C1010.26 288.401 1012.5 286.163 1012.5 283.401V271.009C1012.5 268.247 1010.26 266.009 1007.5 266.009Z" fill="#FFB534"/>
<path d="M370.687 386.082C366.852 383.175 365.924 380.237 367.903 377.269L375.047 366.507C377.397 362.981 380.83 362.796 385.345 365.95C388.808 368.362 393.323 370.867 398.89 373.465C404.518 376.001 410.425 377.269 416.609 377.269C420.939 377.269 425.114 376.774 429.134 375.784C433.154 374.795 436.216 372.877 438.318 370.032C440.421 367.187 441.473 363.816 441.473 359.92C441.473 357.137 441.009 354.694 440.081 352.591C439.153 350.488 437.638 348.756 435.535 347.396C433.432 346.035 431.268 344.891 429.041 343.963C425.145 342.355 420.228 340.778 414.29 339.231C408.414 337.623 402.601 335.706 396.849 333.479C391.715 331.5 387.015 328.779 382.747 325.315C378.48 321.852 375.171 317.955 372.82 313.626C370.47 309.297 369.295 303.514 369.295 296.277C369.295 287.68 372.078 280.32 377.645 274.197C383.211 268.074 389.612 264.147 396.849 262.415C404.085 260.683 411.383 259.817 418.743 259.817C426.041 259.817 433.556 260.931 441.287 263.157C449.08 265.384 454.956 268.167 458.914 271.507C462.811 274.785 463.769 277.754 461.79 280.413L454.275 290.525C451.74 293.989 448.338 294.267 444.07 291.36C441.349 289.505 437.607 287.433 432.845 285.145C428.144 282.856 423.227 281.712 418.094 281.712C414.445 281.712 411.074 282.021 407.982 282.64C404.951 283.258 402.26 284.743 399.91 287.093C397.56 289.443 396.385 292.35 396.385 295.813C396.385 299.153 397.251 301.875 398.982 303.978C400.714 306.019 402.632 307.565 404.734 308.616C406.837 309.606 408.971 310.441 411.136 311.121C417.815 313.286 423.784 315.203 429.041 316.873C434.298 318.481 439.153 320.275 443.607 322.254C449.791 325.037 454.523 327.82 457.801 330.604C461.079 333.387 463.769 337.19 465.872 342.015C468.037 346.839 469.119 352.591 469.119 359.271C469.119 369.166 465.965 377.361 459.656 383.855C453.348 390.288 446.328 394.432 438.597 396.287C430.927 398.204 423.444 399.163 416.146 399.163C405.384 399.163 396.632 398.112 389.891 396.009C383.149 393.968 376.748 390.659 370.687 386.082ZM493.797 396.009C490.086 396.009 488.231 394.153 488.231 390.442V264.642C488.231 260.931 490.086 259.075 493.797 259.075H508.641C512.352 259.075 514.207 260.931 514.207 264.642V302.122C514.207 304.596 514.083 307.07 513.836 309.544H514.393C517.238 304.658 520.856 301.318 525.247 299.524C529.638 297.669 534.926 296.741 541.111 296.741C550.76 296.741 558.738 299.772 565.047 305.833C571.356 311.894 574.51 322.965 574.51 339.046V390.442C574.51 394.153 572.654 396.009 568.943 396.009H554.1C550.389 396.009 548.533 394.153 548.533 390.442V345.726C548.533 332.243 547.606 323.738 545.75 320.213C543.895 316.688 539.905 314.925 533.782 314.925C527.288 314.925 522.402 317.461 519.124 322.532C515.846 327.542 514.207 337.994 514.207 353.89V390.442C514.207 394.153 512.352 396.009 508.641 396.009H493.797ZM594.363 370.032C594.363 357.662 600.27 348.694 612.083 343.128C623.896 337.562 637.379 334.593 652.532 334.222V330.511C652.532 324.821 651.11 320.8 648.265 318.45C645.42 316.1 641.461 314.925 636.39 314.925C632.802 314.925 629.617 315.451 626.834 316.502C624.113 317.492 621.732 318.667 619.69 320.027C617.711 321.326 615.918 322.656 614.31 324.017C611.465 326.491 609.114 326.614 607.259 324.388L599.559 314.925C597.641 312.575 598.105 310.162 600.95 307.688C603.115 305.771 605.62 304.101 608.465 302.679C611.372 301.256 615.206 299.926 619.969 298.689C624.731 297.391 630.916 296.741 638.523 296.741C651.388 296.741 661.253 299.71 668.118 305.647C675.045 311.585 678.509 320.337 678.509 331.902V390.442C678.509 394.153 676.653 396.009 672.942 396.009H657.728C654.388 396.009 652.718 394.153 652.718 390.442V387.659H652.532C648.883 391.185 644.492 393.782 639.358 395.452C634.287 397.06 629.617 397.864 625.35 397.864C615.206 397.864 607.506 395.39 602.249 390.442C596.992 385.433 594.363 378.629 594.363 370.032ZM621.824 369.476C621.824 371.64 622.257 373.527 623.123 375.135C623.989 376.681 625.35 377.825 627.205 378.567C629.061 379.31 631.133 379.681 633.421 379.681C636.575 379.681 639.637 379.248 642.606 378.382C645.574 377.516 648.883 375.475 652.532 372.259V352.127C642.142 353.302 635.184 354.817 631.658 356.673C628.133 358.528 625.597 360.446 624.051 362.425C622.566 364.404 621.824 366.754 621.824 369.476ZM709.402 396.009C705.691 396.009 703.836 394.153 703.836 390.442V304.163C703.836 300.452 705.691 298.597 709.402 298.597H724.061C727.772 298.597 729.627 300.452 729.627 304.163V309.544H729.998C731.792 305.586 734.822 302.462 739.09 300.174C743.357 297.885 747.347 296.741 751.058 296.741C758.48 296.741 764.232 298.473 768.314 301.937C772.457 305.4 775.302 309.266 776.849 313.533H777.22C782.601 306.544 787.456 301.998 791.785 299.896C796.176 297.793 801.774 296.741 808.577 296.741C817.731 296.741 825.431 299.772 831.678 305.833C837.986 311.894 841.141 322.965 841.141 339.046V390.442C841.141 394.153 839.285 396.009 835.574 396.009H820.731C817.02 396.009 815.164 394.153 815.164 390.442V345.726C815.164 332.243 814.236 323.738 812.381 320.213C810.587 316.688 807.371 314.925 802.732 314.925C798.403 314.925 794.445 317.461 790.857 322.532C787.27 327.604 785.477 338.056 785.477 353.89V390.442C785.477 394.153 783.621 396.009 779.91 396.009H765.066C761.356 396.009 759.5 394.153 759.5 390.442V345.726C759.5 332.243 758.572 323.738 756.717 320.213C754.923 316.688 751.707 314.925 747.068 314.925C742.739 314.925 738.781 317.461 735.193 322.532C731.606 327.542 729.813 337.994 729.813 353.89V390.442C729.813 394.153 727.957 396.009 724.246 396.009H709.402ZM871.756 396.009C868.045 396.009 866.19 394.153 866.19 390.442V280.877C866.19 278.094 866.839 275.558 868.138 273.27L875.281 260.745C876.642 258.395 878.25 257.22 880.106 257.22H886.6C890.311 257.22 892.166 259.075 892.166 262.786V390.442C892.166 394.153 890.311 396.009 886.6 396.009H871.756ZM917.215 355.56V304.163C917.215 300.452 919.07 298.597 922.781 298.597H937.625C941.336 298.597 943.191 300.452 943.191 304.163V348.88C943.191 362.363 944.119 370.867 945.975 374.393C947.83 377.918 951.727 379.681 957.664 379.681C963.973 379.681 968.766 377.176 972.044 372.166C975.322 367.094 976.961 356.611 976.961 340.716V304.163C976.961 300.452 978.816 298.597 982.527 298.597H997.371C1001.08 298.597 1002.94 300.452 1002.94 304.163V390.442C1002.94 394.153 1001.08 396.009 997.371 396.009H982.713C979.002 396.009 977.147 394.153 977.147 390.442V385.062H976.775C973.93 389.948 970.312 393.318 965.921 395.174C961.53 396.967 956.334 397.864 950.335 397.864C940.872 397.864 932.986 394.834 926.678 388.772C920.369 382.711 917.215 371.64 917.215 355.56ZM1033.74 396.009C1030.03 396.009 1028.17 394.153 1028.17 390.442V280.877C1028.17 278.094 1028.82 275.558 1030.12 273.27L1037.26 260.745C1038.62 258.395 1040.23 257.22 1042.09 257.22H1048.58C1052.29 257.22 1054.15 259.075 1054.15 262.786V390.442C1054.15 394.153 1052.29 396.009 1048.58 396.009H1033.74Z" fill="#1C1C1C"/>
<path fill-rule="evenodd" clip-rule="evenodd" d="M226.757 239.464L293.555 354.843C307.064 378.176 290.227 407.379 263.266 407.379H129.985C103.055 407.379 86.2141 378.239 99.6589 354.906L166.141 239.526C179.59 216.186 213.26 216.151 226.757 239.464ZM197.96 358.403C214.862 358.403 228.564 344.701 228.564 327.799C228.564 310.897 214.862 297.195 197.96 297.195C181.058 297.195 167.356 310.897 167.356 327.799C167.356 344.701 181.058 358.403 197.96 358.403Z" fill="#FFB534"/>
</svg>
