<svg width="481" height="96" viewBox="0 0 481 96" fill="none" xmlns="http://www.w3.org/2000/svg">
    <g>
        <path
            fill="#FFB534"
            d="M435.014 8.99999L382.525 8.99999C380.034 8.99999 378.014 11.0195 378.014 13.5107C378.014 14.8605 378.619 16.1394 379.662 16.9962L384.718 21.1493C385.612 21.8841 386.734 22.2857 387.891 22.2857L435.014 22.2857C437.776 22.2857 440.014 20.0471 440.014 17.2857V14C440.014 11.2386 437.776 8.99999 435.014 8.99999Z"
        />
        <path
            fill="#1C1C1C"
            width='32px'
            height='32px'
            d="M11.0767 86.8123C8.49339 84.8539 7.86839 82.8748 9.20172 80.8748L14.0142 73.6248C15.5976 71.2498 17.9101 71.1248 20.9517 73.2498C23.2851 74.8748 26.3267 76.5623 30.0767 78.3123C33.8684 80.0206 37.8476 80.8748 42.0142 80.8748C44.9309 80.8748 47.7434 80.5414 50.4517 79.8748C53.1601 79.2081 55.2226 77.9164 56.6392 75.9998C58.0559 74.0831 58.7642 71.8123 58.7642 69.1873C58.7642 67.3123 58.4517 65.6664 57.8267 64.2498C57.2017 62.8331 56.1809 61.6664 54.7642 60.7498C53.3476 59.8331 51.8892 59.0623 50.3892 58.4373C47.7642 57.3539 44.4517 56.2914 40.4517 55.2498C36.4934 54.1664 32.5767 52.8748 28.7017 51.3748C25.2434 50.0414 22.0767 48.2081 19.2017 45.8748C16.3267 43.5414 14.0976 40.9164 12.5142 37.9998C10.9309 35.0831 10.1392 31.1873 10.1392 26.3123C10.1392 20.5206 12.0142 15.5623 15.7642 11.4373C19.5142 7.31226 23.8267 4.66642 28.7017 3.49976C33.5767 2.33309 38.4934 1.74976 43.4517 1.74976C48.3684 1.74976 53.4309 2.49976 58.6392 3.99976C63.8892 5.49976 67.8476 7.37476 70.5142 9.62476C73.1392 11.8331 73.7851 13.8331 72.4517 15.6248L67.3892 22.4373C65.6809 24.7706 63.3892 24.9581 60.5142 22.9998C58.6809 21.7498 56.1601 20.3539 52.9517 18.8123C49.7851 17.2706 46.4726 16.4998 43.0142 16.4998C40.5559 16.4998 38.2851 16.7081 36.2017 17.1248C34.1601 17.5414 32.3476 18.5414 30.7642 20.1248C29.1809 21.7081 28.3892 23.6664 28.3892 25.9998C28.3892 28.2498 28.9726 30.0831 30.1392 31.4998C31.3059 32.8748 32.5976 33.9164 34.0142 34.6248C35.4309 35.2914 36.8684 35.8539 38.3267 36.3123C42.8267 37.7706 46.8476 39.0623 50.3892 40.1873C53.9309 41.2706 57.2017 42.4789 60.2017 43.8123C64.3684 45.6873 67.5559 47.5623 69.7642 49.4373C71.9726 51.3123 73.7851 53.8748 75.2017 57.1248C76.6601 60.3748 77.3892 64.2498 77.3892 68.7498C77.3892 75.4164 75.2642 80.9373 71.0142 85.3123C66.7642 89.6456 62.0351 92.4373 56.8267 93.6873C51.6601 94.9789 46.6184 95.6248 41.7017 95.6248C34.4517 95.6248 28.5559 94.9164 24.0142 93.4998C19.4726 92.1248 15.1601 89.8956 11.0767 86.8123ZM94.0142 93.4998C91.5142 93.4998 90.2642 92.2498 90.2642 89.7498V4.99976C90.2642 2.49976 91.5142 1.24976 94.0142 1.24976H104.014C106.514 1.24976 107.764 2.49976 107.764 4.99976V30.2498C107.764 31.9164 107.681 33.5831 107.514 35.2498H107.889C109.806 31.9581 112.243 29.7081 115.202 28.4998C118.16 27.2498 121.723 26.6248 125.889 26.6248C132.389 26.6248 137.764 28.6664 142.014 32.7498C146.264 36.8331 148.389 44.2914 148.389 55.1248V89.7498C148.389 92.2498 147.139 93.4998 144.639 93.4998H134.639C132.139 93.4998 130.889 92.2498 130.889 89.7498V59.6248C130.889 50.5414 130.264 44.8123 129.014 42.4373C127.764 40.0623 125.077 38.8748 120.952 38.8748C116.577 38.8748 113.285 40.5831 111.077 43.9998C108.868 47.3748 107.764 54.4164 107.764 65.1248V89.7498C107.764 92.2498 106.514 93.4998 104.014 93.4998H94.0142ZM161.764 75.9998C161.764 67.6664 165.743 61.6248 173.702 57.8748C181.66 54.1248 190.743 52.1248 200.952 51.8748V49.3748C200.952 45.5414 199.993 42.8331 198.077 41.2498C196.16 39.6664 193.493 38.8748 190.077 38.8748C187.66 38.8748 185.514 39.2289 183.639 39.9373C181.806 40.6039 180.202 41.3956 178.827 42.3123C177.493 43.1873 176.285 44.0831 175.202 44.9998C173.285 46.6664 171.702 46.7498 170.452 45.2498L165.264 38.8748C163.973 37.2914 164.285 35.6664 166.202 33.9998C167.66 32.7081 169.348 31.5831 171.264 30.6248C173.223 29.6664 175.806 28.7706 179.014 27.9373C182.223 27.0623 186.389 26.6248 191.514 26.6248C200.181 26.6248 206.827 28.6248 211.452 32.6248C216.118 36.6248 218.452 42.5206 218.452 50.3123V89.7498C218.452 92.2498 217.202 93.4998 214.702 93.4998H204.452C202.202 93.4998 201.077 92.2498 201.077 89.7498V87.8748H200.952C198.493 90.2498 195.535 91.9998 192.077 93.1248C188.66 94.2081 185.514 94.7498 182.639 94.7498C175.806 94.7498 170.618 93.0831 167.077 89.7498C163.535 86.3748 161.764 81.7914 161.764 75.9998ZM180.264 75.6248C180.264 77.0831 180.556 78.3539 181.139 79.4373C181.723 80.4789 182.639 81.2498 183.889 81.7498C185.139 82.2498 186.535 82.4998 188.077 82.4998C190.202 82.4998 192.264 82.2081 194.264 81.6248C196.264 81.0414 198.493 79.6664 200.952 77.4998V63.9373C193.952 64.7289 189.264 65.7498 186.889 66.9998C184.514 68.2498 182.806 69.5414 181.764 70.8748C180.764 72.2081 180.264 73.7914 180.264 75.6248ZM239.264 93.4998C236.764 93.4998 235.514 92.2498 235.514 89.7498V31.6248C235.514 29.1248 236.764 27.8748 239.264 27.8748H249.139C251.639 27.8748 252.889 29.1248 252.889 31.6248V35.2498H253.139C254.348 32.5831 256.389 30.4789 259.264 28.9373C262.139 27.3956 264.827 26.6248 267.327 26.6248C272.327 26.6248 276.202 27.7914 278.952 30.1248C281.743 32.4581 283.66 35.0623 284.702 37.9373H284.952C288.577 33.2289 291.848 30.1664 294.764 28.7498C297.723 27.3331 301.493 26.6248 306.077 26.6248C312.243 26.6248 317.431 28.6664 321.639 32.7498C325.889 36.8331 328.014 44.2914 328.014 55.1248V89.7498C328.014 92.2498 326.764 93.4998 324.264 93.4998H314.264C311.764 93.4998 310.514 92.2498 310.514 89.7498V59.6248C310.514 50.5414 309.889 44.8123 308.639 42.4373C307.431 40.0623 305.264 38.8748 302.139 38.8748C299.223 38.8748 296.556 40.5831 294.139 43.9998C291.723 47.4164 290.514 54.4581 290.514 65.1248V89.7498C290.514 92.2498 289.264 93.4998 286.764 93.4998H276.764C274.264 93.4998 273.014 92.2498 273.014 89.7498V59.6248C273.014 50.5414 272.389 44.8123 271.139 42.4373C269.931 40.0623 267.764 38.8748 264.639 38.8748C261.723 38.8748 259.056 40.5831 256.639 43.9998C254.223 47.3748 253.014 54.4164 253.014 65.1248V89.7498C253.014 92.2498 251.764 93.4998 249.264 93.4998H239.264ZM348.639 93.4998C346.139 93.4998 344.889 92.2498 344.889 89.7498V15.9373C344.889 14.0623 345.327 12.3539 346.202 10.8123L351.014 2.37476C351.931 0.791423 353.014 -0.000244141 354.264 -0.000244141H358.639C361.139 -0.000244141 362.389 1.24976 362.389 3.74976V89.7498C362.389 92.2498 361.139 93.4998 358.639 93.4998H348.639ZM379.264 66.2498V31.6248C379.264 29.1248 380.514 27.8748 383.014 27.8748H393.014C395.514 27.8748 396.764 29.1248 396.764 31.6248V61.7498C396.764 70.8331 397.389 76.5623 398.639 78.9373C399.889 81.3123 402.514 82.4998 406.514 82.4998C410.764 82.4998 413.993 80.8123 416.202 77.4373C418.41 74.0206 419.514 66.9581 419.514 56.2498V31.6248C419.514 29.1248 420.764 27.8748 423.264 27.8748H433.264C435.764 27.8748 437.014 29.1248 437.014 31.6248V89.7498C437.014 92.2498 435.764 93.4998 433.264 93.4998H423.389C420.889 93.4998 419.639 92.2498 419.639 89.7498V86.1248H419.389C417.473 89.4164 415.035 91.6873 412.077 92.9373C409.118 94.1456 405.618 94.7498 401.577 94.7498C395.202 94.7498 389.889 92.7081 385.639 88.6248C381.389 84.5414 379.264 77.0831 379.264 66.2498ZM457.764 93.4998C455.264 93.4998 454.014 92.2498 454.014 89.7498V15.9373C454.014 14.0623 454.452 12.3539 455.327 10.8123L460.139 2.37476C461.056 0.791423 462.139 -0.000244141 463.389 -0.000244141H467.764C470.264 -0.000244141 471.514 1.24976 471.514 3.74976V89.7498C471.514 92.2498 470.264 93.4998 467.764 93.4998H457.764Z"
        />
    </g>
</svg>
